M48
; DRILL file {KiCad (5.1.6)-1} date 11/14/20 16:37:25
; FORMAT={-:-/ absolute / inch / decimal}
; #@! TF.CreationDate,2020-11-14T16:37:25-06:00
; #@! TF.GenerationSoftware,Kicad,Pcbnew,(5.1.6)-1
FMAT,2
INCH
T1C0.0157
T2C0.0402
T3C0.1575
T4C0.1181
%
G90
G05
T1
X3.2Y-4.05
X3.35Y-3.8
X4.05Y-3.65
X4.7Y-3.5
X5.05Y-2.35
X5.05Y-4.0
X5.1Y-2.9
X5.1Y-3.1
X5.25Y-2.8
T2
X2.9Y-2.2
X2.9Y-2.3181
X2.9Y-2.4362
X2.9Y-2.5543
X2.9Y-2.6724
X2.9Y-2.7906
X2.9Y-2.9087
X2.9Y-3.25
X2.9Y-3.3681
X2.9Y-3.4862
X2.9Y-3.6043
X2.9Y-3.7224
X2.9Y-3.8406
X2.9Y-3.9587
X6.2Y-2.3913
X6.2Y-2.5094
X6.2Y-2.6276
X6.2Y-2.7457
X6.2Y-2.8638
X6.2Y-2.9819
X6.2Y-3.1
X6.2Y-3.4413
X6.2Y-3.5594
X6.2Y-3.6776
X6.2Y-3.7957
X6.2Y-3.9138
X6.2Y-4.0319
X6.2Y-4.15
T3
X3.6Y-4.45
X4.8Y-2.05
X3.6Y-2.65
X4.2Y-3.85
X4.2Y-2.05
X4.8Y-3.85
X4.2Y-3.25
X4.8Y-3.25
X3.6Y-3.25
X4.8Y-2.65
X3.6Y-2.05
X3.6Y-3.85
X4.2Y-4.45
X4.2Y-2.65
T4
X3.0701Y-2.2846
X3.0701Y-2.824
X3.0701Y-3.3346
X3.0701Y-3.874
X6.0299Y-2.476
X6.0299Y-3.0154
X6.0299Y-3.526
X6.0299Y-4.0654
T0
M30
