%TF.GenerationSoftware,KiCad,Pcbnew,(5.1.6)-1*%
%TF.CreationDate,2020-10-19T16:41:55-05:00*%
%TF.ProjectId,BPS_Scrutineering,4250535f-5363-4727-9574-696e65657269,rev?*%
%TF.SameCoordinates,Original*%
%TF.FileFunction,Copper,L1,Top*%
%TF.FilePolarity,Positive*%
%FSLAX46Y46*%
G04 Gerber Fmt 4.6, Leading zero omitted, Abs format (unit mm)*
G04 Created by KiCad (PCBNEW (5.1.6)-1) date 2020-10-19 16:41:55*
%MOMM*%
%LPD*%
G01*
G04 APERTURE LIST*
%TA.AperFunction,ComponentPad*%
%ADD10O,1.700000X1.700000*%
%TD*%
%TA.AperFunction,ComponentPad*%
%ADD11R,1.700000X1.700000*%
%TD*%
%TA.AperFunction,Conductor*%
%ADD12C,0.250000*%
%TD*%
G04 APERTURE END LIST*
%TO.P,R1,2*%
%TO.N,Net-(JP16-Pad2)*%
%TA.AperFunction,SMDPad,CuDef*%
G36*
G01*
X70670000Y-86538750D02*
X70670000Y-87451250D01*
G75*
G02*
X70426250Y-87695000I-243750J0D01*
G01*
X69938750Y-87695000D01*
G75*
G02*
X69695000Y-87451250I0J243750D01*
G01*
X69695000Y-86538750D01*
G75*
G02*
X69938750Y-86295000I243750J0D01*
G01*
X70426250Y-86295000D01*
G75*
G02*
X70670000Y-86538750I0J-243750D01*
G01*
G37*
%TD.AperFunction*%
%TO.P,R1,1*%
%TO.N,Net-(JP15-Pad1)*%
%TA.AperFunction,SMDPad,CuDef*%
G36*
G01*
X72545000Y-86538750D02*
X72545000Y-87451250D01*
G75*
G02*
X72301250Y-87695000I-243750J0D01*
G01*
X71813750Y-87695000D01*
G75*
G02*
X71570000Y-87451250I0J243750D01*
G01*
X71570000Y-86538750D01*
G75*
G02*
X71813750Y-86295000I243750J0D01*
G01*
X72301250Y-86295000D01*
G75*
G02*
X72545000Y-86538750I0J-243750D01*
G01*
G37*
%TD.AperFunction*%
%TD*%
D10*
%TO.P,JP16,2*%
%TO.N,Net-(JP16-Pad2)*%
X64770000Y-86995000D03*
D11*
%TO.P,JP16,1*%
%TO.N,Net-(JP16-Pad1)*%
X62230000Y-86995000D03*
%TD*%
D10*
%TO.P,JP15,2*%
%TO.N,Net-(JP15-Pad2)*%
X80010000Y-86995000D03*
D11*
%TO.P,JP15,1*%
%TO.N,Net-(JP15-Pad1)*%
X77470000Y-86995000D03*
%TD*%
D10*
%TO.P,JP14,2*%
%TO.N,Net-(J3-Pad1)*%
X72390000Y-113030000D03*
D11*
%TO.P,JP14,1*%
%TO.N,Net-(J4-Pad7)*%
X69850000Y-113030000D03*
%TD*%
D10*
%TO.P,JP13,2*%
%TO.N,Net-(J3-Pad2)*%
X72390000Y-109220000D03*
D11*
%TO.P,JP13,1*%
%TO.N,Net-(J4-Pad6)*%
X69850000Y-109220000D03*
%TD*%
D10*
%TO.P,JP12,2*%
%TO.N,Net-(J3-Pad3)*%
X72390000Y-105410000D03*
D11*
%TO.P,JP12,1*%
%TO.N,Net-(J4-Pad5)*%
X69850000Y-105410000D03*
%TD*%
D10*
%TO.P,JP11,2*%
%TO.N,Net-(J3-Pad4)*%
X72390000Y-101600000D03*
D11*
%TO.P,JP11,1*%
%TO.N,Net-(J4-Pad4)*%
X69850000Y-101600000D03*
%TD*%
D10*
%TO.P,JP10,2*%
%TO.N,Net-(J3-Pad5)*%
X72390000Y-97790000D03*
D11*
%TO.P,JP10,1*%
%TO.N,Net-(J4-Pad3)*%
X69850000Y-97790000D03*
%TD*%
D10*
%TO.P,JP9,2*%
%TO.N,Net-(J3-Pad6)*%
X72390000Y-93980000D03*
D11*
%TO.P,JP9,1*%
%TO.N,Net-(J4-Pad2)*%
X69850000Y-93980000D03*
%TD*%
D10*
%TO.P,JP8,2*%
%TO.N,Net-(J3-Pad7)*%
X72390000Y-90170000D03*
D11*
%TO.P,JP8,1*%
%TO.N,Net-(J4-Pad1)*%
X69850000Y-90170000D03*
%TD*%
D10*
%TO.P,JP7,2*%
%TO.N,Net-(J2-Pad1)*%
X72390000Y-83820000D03*
D11*
%TO.P,JP7,1*%
%TO.N,Net-(J1-Pad7)*%
X69850000Y-83820000D03*
%TD*%
D10*
%TO.P,JP6,2*%
%TO.N,Net-(J2-Pad2)*%
X72390000Y-80010000D03*
D11*
%TO.P,JP6,1*%
%TO.N,Net-(J1-Pad6)*%
X69850000Y-80010000D03*
%TD*%
D10*
%TO.P,JP5,2*%
%TO.N,Net-(J2-Pad3)*%
X72390000Y-76200000D03*
D11*
%TO.P,JP5,1*%
%TO.N,Net-(J1-Pad5)*%
X69850000Y-76200000D03*
%TD*%
D10*
%TO.P,JP4,2*%
%TO.N,Net-(J2-Pad4)*%
X72390000Y-72390000D03*
D11*
%TO.P,JP4,1*%
%TO.N,Net-(J1-Pad4)*%
X69850000Y-72390000D03*
%TD*%
D10*
%TO.P,JP3,2*%
%TO.N,Net-(J2-Pad5)*%
X72390000Y-68580000D03*
D11*
%TO.P,JP3,1*%
%TO.N,Net-(J1-Pad3)*%
X69850000Y-68580000D03*
%TD*%
D10*
%TO.P,JP2,2*%
%TO.N,Net-(J2-Pad7)*%
X72390000Y-60960000D03*
D11*
%TO.P,JP2,1*%
%TO.N,Net-(J1-Pad1)*%
X69850000Y-60960000D03*
%TD*%
D10*
%TO.P,JP1,2*%
%TO.N,Net-(J2-Pad6)*%
X72390000Y-64770000D03*
D11*
%TO.P,JP1,1*%
%TO.N,Net-(J1-Pad2)*%
X69850000Y-64770000D03*
%TD*%
D10*
%TO.P,J4,7*%
%TO.N,Net-(J4-Pad7)*%
X60325000Y-107950000D03*
%TO.P,J4,6*%
%TO.N,Net-(J4-Pad6)*%
X60325000Y-105410000D03*
%TO.P,J4,5*%
%TO.N,Net-(J4-Pad5)*%
X60325000Y-102870000D03*
%TO.P,J4,4*%
%TO.N,Net-(J4-Pad4)*%
X60325000Y-100330000D03*
%TO.P,J4,3*%
%TO.N,Net-(J4-Pad3)*%
X60325000Y-97790000D03*
%TO.P,J4,2*%
%TO.N,Net-(J4-Pad2)*%
X60325000Y-95250000D03*
D11*
%TO.P,J4,1*%
%TO.N,Net-(J4-Pad1)*%
X60325000Y-92710000D03*
%TD*%
D10*
%TO.P,J3,7*%
%TO.N,Net-(J3-Pad7)*%
X81280000Y-92710000D03*
%TO.P,J3,6*%
%TO.N,Net-(J3-Pad6)*%
X81280000Y-95250000D03*
%TO.P,J3,5*%
%TO.N,Net-(J3-Pad5)*%
X81280000Y-97790000D03*
%TO.P,J3,4*%
%TO.N,Net-(J3-Pad4)*%
X81280000Y-100330000D03*
%TO.P,J3,3*%
%TO.N,Net-(J3-Pad3)*%
X81280000Y-102870000D03*
%TO.P,J3,2*%
%TO.N,Net-(J3-Pad2)*%
X81280000Y-105410000D03*
D11*
%TO.P,J3,1*%
%TO.N,Net-(J3-Pad1)*%
X81280000Y-107950000D03*
%TD*%
D10*
%TO.P,J2,7*%
%TO.N,Net-(J2-Pad7)*%
X81280000Y-63500000D03*
%TO.P,J2,6*%
%TO.N,Net-(J2-Pad6)*%
X81280000Y-66040000D03*
%TO.P,J2,5*%
%TO.N,Net-(J2-Pad5)*%
X81280000Y-68580000D03*
%TO.P,J2,4*%
%TO.N,Net-(J2-Pad4)*%
X81280000Y-71120000D03*
%TO.P,J2,3*%
%TO.N,Net-(J2-Pad3)*%
X81280000Y-73660000D03*
%TO.P,J2,2*%
%TO.N,Net-(J2-Pad2)*%
X81280000Y-76200000D03*
D11*
%TO.P,J2,1*%
%TO.N,Net-(J2-Pad1)*%
X81280000Y-78740000D03*
%TD*%
D10*
%TO.P,J1,7*%
%TO.N,Net-(J1-Pad7)*%
X60325000Y-78740000D03*
%TO.P,J1,6*%
%TO.N,Net-(J1-Pad6)*%
X60325000Y-76200000D03*
%TO.P,J1,5*%
%TO.N,Net-(J1-Pad5)*%
X60325000Y-73660000D03*
%TO.P,J1,4*%
%TO.N,Net-(J1-Pad4)*%
X60325000Y-71120000D03*
%TO.P,J1,3*%
%TO.N,Net-(J1-Pad3)*%
X60325000Y-68580000D03*
%TO.P,J1,2*%
%TO.N,Net-(J1-Pad2)*%
X60325000Y-66040000D03*
D11*
%TO.P,J1,1*%
%TO.N,Net-(J1-Pad1)*%
X60325000Y-63500000D03*
%TD*%
D12*
%TO.N,Net-(J4-Pad6)*%
X60325000Y-105410000D02*
X64135000Y-109220000D01*
%TO.N,Net-(J4-Pad1)*%
X62865000Y-90170000D02*
X60325000Y-92710000D01*
%TO.N,Net-(J1-Pad7)*%
X69215000Y-83185000D02*
X69850000Y-83820000D01*
X60325000Y-80010000D02*
X64135000Y-83820000D01*
X64135000Y-83820000D02*
X69850000Y-83820000D01*
X60325000Y-78740000D02*
X60325000Y-80010000D01*
%TO.N,Net-(J1-Pad6)*%
X60325000Y-76200000D02*
X64135000Y-80010000D01*
X64135000Y-80010000D02*
X69850000Y-80010000D01*
%TO.N,Net-(J1-Pad5)*%
X60325000Y-73660000D02*
X62865000Y-76200000D01*
X62865000Y-76200000D02*
X69850000Y-76200000D01*
%TO.N,Net-(J1-Pad4)*%
X60325000Y-71120000D02*
X61595000Y-72390000D01*
X61595000Y-72390000D02*
X69850000Y-72390000D01*
%TO.N,Net-(J1-Pad3)*%
X60325000Y-68580000D02*
X69850000Y-68580000D01*
%TO.N,Net-(J1-Pad2)*%
X60325000Y-66040000D02*
X61595000Y-64770000D01*
X61595000Y-64770000D02*
X69850000Y-64770000D01*
%TO.N,Net-(J1-Pad1)*%
X69850000Y-60960000D02*
X62865000Y-60960000D01*
X62865000Y-60960000D02*
X60325000Y-63500000D01*
%TO.N,Net-(J2-Pad7)*%
X81280000Y-63500000D02*
X78740000Y-60960000D01*
X78740000Y-60960000D02*
X72390000Y-60960000D01*
%TO.N,Net-(J2-Pad6)*%
X81280000Y-66040000D02*
X80010000Y-64770000D01*
X80010000Y-64770000D02*
X72390000Y-64770000D01*
%TO.N,Net-(J2-Pad5)*%
X72390000Y-68580000D02*
X81280000Y-68580000D01*
%TO.N,Net-(J2-Pad4)*%
X81280000Y-71120000D02*
X80010000Y-72390000D01*
X80010000Y-72390000D02*
X72390000Y-72390000D01*
%TO.N,Net-(J2-Pad3)*%
X81280000Y-73660000D02*
X78740000Y-76200000D01*
X78740000Y-76200000D02*
X72390000Y-76200000D01*
%TO.N,Net-(J2-Pad2)*%
X81280000Y-76200000D02*
X77470000Y-80010000D01*
X77470000Y-80010000D02*
X72390000Y-80010000D01*
%TO.N,Net-(J2-Pad1)*%
X81280000Y-80010000D02*
X77470000Y-83820000D01*
X81280000Y-78740000D02*
X81280000Y-80010000D01*
X77470000Y-83820000D02*
X72390000Y-83820000D01*
%TO.N,Net-(J3-Pad7)*%
X81280000Y-92710000D02*
X78740000Y-90170000D01*
X78740000Y-90170000D02*
X72390000Y-90170000D01*
%TO.N,Net-(J3-Pad6)*%
X81280000Y-95250000D02*
X80010000Y-93980000D01*
X80010000Y-93980000D02*
X72390000Y-93980000D01*
%TO.N,Net-(J3-Pad5)*%
X81280000Y-97790000D02*
X72390000Y-97790000D01*
%TO.N,Net-(J3-Pad4)*%
X81280000Y-100330000D02*
X80010000Y-101600000D01*
X80010000Y-101600000D02*
X72390000Y-101600000D01*
%TO.N,Net-(J3-Pad3)*%
X81280000Y-102870000D02*
X78740000Y-105410000D01*
X78740000Y-105410000D02*
X72390000Y-105410000D01*
%TO.N,Net-(J3-Pad2)*%
X81280000Y-105410000D02*
X77470000Y-109220000D01*
X77470000Y-109220000D02*
X72390000Y-109220000D01*
%TO.N,Net-(J3-Pad1)*%
X81280000Y-107950000D02*
X81280000Y-109220000D01*
X81280000Y-109220000D02*
X77470000Y-113030000D01*
X77470000Y-113030000D02*
X72390000Y-113030000D01*
%TO.N,Net-(J4-Pad7)*%
X60325000Y-107950000D02*
X60325000Y-108585000D01*
X60325000Y-108585000D02*
X64770000Y-113030000D01*
X64770000Y-113030000D02*
X69850000Y-113030000D01*
%TO.N,Net-(J4-Pad6)*%
X64135000Y-109220000D02*
X69850000Y-109220000D01*
%TO.N,Net-(J4-Pad5)*%
X60325000Y-102870000D02*
X62865000Y-105410000D01*
X62865000Y-105410000D02*
X69850000Y-105410000D01*
%TO.N,Net-(J4-Pad4)*%
X60325000Y-100330000D02*
X61595000Y-101600000D01*
X61595000Y-101600000D02*
X69850000Y-101600000D01*
%TO.N,Net-(J4-Pad3)*%
X60325000Y-97790000D02*
X69850000Y-97790000D01*
%TO.N,Net-(J4-Pad2)*%
X60325000Y-95250000D02*
X61595000Y-93980000D01*
X61595000Y-93980000D02*
X69850000Y-93980000D01*
%TO.N,Net-(J4-Pad1)*%
X60325000Y-92710000D02*
X60325000Y-92075000D01*
X62865000Y-90170000D02*
X69850000Y-90170000D01*
%TO.N,Net-(JP15-Pad1)*%
X72057500Y-86995000D02*
X77470000Y-86995000D01*
%TO.N,Net-(JP16-Pad2)*%
X64770000Y-86995000D02*
X70182500Y-86995000D01*
%TD*%
M02*
