M48
; DRILL file {KiCad (5.1.6)-1} date 11/14/20 13:31:28
; FORMAT={-:-/ absolute / inch / decimal}
; #@! TF.CreationDate,2020-11-14T13:31:28-06:00
; #@! TF.GenerationSoftware,Kicad,Pcbnew,(5.1.6)-1
FMAT,2
INCH
T1C0.0157
T2C0.0394
T3C0.2402
%
G90
G05
T1
X4.4Y-2.85
X4.5Y-3.75
X5.1Y-2.85
X5.15Y-3.1
X5.2047Y-3.6532
X5.25Y-2.55
T2
X6.25Y-3.275
X6.25Y-3.375
X6.25Y-3.475
X6.25Y-3.575
X6.25Y-3.675
X6.25Y-3.775
X6.25Y-3.875
X2.95Y-3.25
X2.95Y-3.35
X2.95Y-3.45
X2.95Y-3.55
X2.95Y-3.65
X2.95Y-3.75
X2.95Y-3.85
X6.25Y-2.375
X6.25Y-2.475
X6.25Y-2.575
X6.25Y-2.675
X6.25Y-2.775
X6.25Y-2.875
X6.25Y-2.975
X2.95Y-2.4
X2.95Y-2.5
X2.95Y-2.6
X2.95Y-2.7
X2.95Y-2.8
X2.95Y-2.9
X2.95Y-3.0
T3
X3.6Y-3.85
X3.6Y-3.25
X4.8Y-2.65
X4.2Y-3.25
X4.2Y-4.45
X4.2Y-2.05
X4.8Y-3.25
X4.8Y-2.05
X3.6Y-2.05
X3.6Y-2.65
X4.2Y-3.85
X4.2Y-2.65
X4.8Y-3.85
X3.6Y-4.45
T0
M30
