M48
; DRILL file {KiCad (5.1.6)-1} date 11/13/20 18:32:39
; FORMAT={-:-/ absolute / inch / decimal}
; #@! TF.CreationDate,2020-11-13T18:32:39-06:00
; #@! TF.GenerationSoftware,Kicad,Pcbnew,(5.1.6)-1
FMAT,2
INCH
T1C0.0394
T2C0.2402
T3C0.1181
%
G90
G05
T1
X3.55Y-2.4
X3.55Y-2.5
X3.55Y-2.6
X3.55Y-2.7
X3.55Y-2.8
X3.55Y-2.9
X3.55Y-3.0
X5.8Y-2.375
X5.8Y-2.475
X5.8Y-2.575
X5.8Y-2.675
X5.8Y-2.775
X5.8Y-2.875
X5.8Y-2.975
X5.8Y-3.275
X5.8Y-3.375
X5.8Y-3.475
X5.8Y-3.575
X5.8Y-3.675
X5.8Y-3.775
X5.8Y-3.875
X3.55Y-3.25
X3.55Y-3.35
X3.55Y-3.45
X3.55Y-3.55
X3.55Y-3.65
X3.55Y-3.75
X3.55Y-3.85
T2
X4.875Y-3.475
X5.3Y-4.275
X3.95Y-3.7
X4.85Y-3.0
X4.4Y-3.85
X3.95Y-2.7
X4.825Y-2.5
X4.375Y-2.375
X4.375Y-2.875
X3.95Y-3.225
X4.4Y-3.375
X3.85Y-4.2
X4.9Y-3.95
X3.925Y-2.175
T3
X6.05Y-4.15
X6.05Y-2.15
X6.075Y-3.125
X3.3Y-3.125
X3.3Y-4.1
X3.325Y-2.15
T0
M30
