M48
; DRILL file {KiCad (5.1.6)-1} date 11/14/20 14:50:55
; FORMAT={-:-/ absolute / inch / decimal}
; #@! TF.CreationDate,2020-11-14T14:50:55-06:00
; #@! TF.GenerationSoftware,Kicad,Pcbnew,(5.1.6)-1
FMAT,2
INCH
T1C0.0157
T2C0.0402
T3C0.2402
T4C0.1181
%
G90
G05
T1
X3.35Y-3.8
X4.05Y-3.65
X4.7Y-3.5
X5.05Y-2.35
X5.05Y-4.0
X5.1Y-2.9
X5.1Y-3.1
X5.25Y-2.8
T2
X3.25Y-2.1913
X3.25Y-2.3094
X3.25Y-2.4276
X3.25Y-2.5457
X3.25Y-2.6638
X3.25Y-2.7819
X3.25Y-2.9
X3.25Y-3.2413
X3.25Y-3.3594
X3.25Y-3.4776
X3.25Y-3.5957
X3.25Y-3.7138
X3.25Y-3.8319
X3.25Y-3.95
X5.95Y-2.4
X5.95Y-2.5181
X5.95Y-2.6362
X5.95Y-2.7543
X5.95Y-2.8724
X5.95Y-2.9906
X5.95Y-3.1087
X5.95Y-3.45
X5.95Y-3.5681
X5.95Y-3.6862
X5.95Y-3.8043
X5.95Y-3.9224
X5.95Y-4.0406
X5.95Y-4.1587
T3
X3.6Y-4.45
X4.2Y-3.25
X4.8Y-2.65
X3.6Y-2.65
X4.2Y-4.45
X3.6Y-2.05
X4.8Y-2.05
X4.8Y-3.25
X4.2Y-2.65
X4.2Y-2.05
X3.6Y-3.85
X3.6Y-3.25
X4.2Y-3.85
X4.8Y-3.85
T4
X3.0799Y-2.276
X3.0799Y-2.8154
X3.0799Y-3.326
X3.0799Y-3.8654
X6.1201Y-2.4846
X6.1201Y-3.024
X6.1201Y-3.5346
X6.1201Y-4.074
T0
M30
