%TF.GenerationSoftware,KiCad,Pcbnew,(5.1.6)-1*%
%TF.CreationDate,2020-11-13T18:32:27-06:00*%
%TF.ProjectId,BPS_Scrutineering,4250535f-5363-4727-9574-696e65657269,rev?*%
%TF.SameCoordinates,Original*%
%TF.FileFunction,Copper,L1,Top*%
%TF.FilePolarity,Positive*%
%FSLAX46Y46*%
G04 Gerber Fmt 4.6, Leading zero omitted, Abs format (unit mm)*
G04 Created by KiCad (PCBNEW (5.1.6)-1) date 2020-11-13 18:32:27*
%MOMM*%
%LPD*%
G01*
G04 APERTURE LIST*
%TA.AperFunction,SMDPad,CuDef*%
%ADD10R,2.160000X1.120000*%
%TD*%
%TA.AperFunction,ComponentPad*%
%ADD11C,10.160000*%
%TD*%
%TA.AperFunction,ComponentPad*%
%ADD12O,1.700000X1.700000*%
%TD*%
%TA.AperFunction,ComponentPad*%
%ADD13R,1.700000X1.700000*%
%TD*%
%TA.AperFunction,Conductor*%
%ADD14C,0.250000*%
%TD*%
%TA.AperFunction,Conductor*%
%ADD15C,0.500000*%
%TD*%
G04 APERTURE END LIST*
D10*
%TO.P,SW2,14*%
%TO.N,Net-(JC3-Pad7)*%
X142430000Y-83185000D03*
%TO.P,SW2,7*%
%TO.N,Net-(J14-Pad1)*%
X135700000Y-98425000D03*
%TO.P,SW2,13*%
%TO.N,Net-(JC3-Pad6)*%
X142430000Y-85725000D03*
%TO.P,SW2,6*%
%TO.N,Net-(J13-Pad1)*%
X135700000Y-95885000D03*
%TO.P,SW2,12*%
%TO.N,Net-(JC3-Pad5)*%
X142430000Y-88265000D03*
%TO.P,SW2,5*%
%TO.N,Net-(J12-Pad1)*%
X135700000Y-93345000D03*
%TO.P,SW2,11*%
%TO.N,Net-(JC3-Pad4)*%
X142430000Y-90805000D03*
%TO.P,SW2,4*%
%TO.N,Net-(J11-Pad1)*%
X135700000Y-90805000D03*
%TO.P,SW2,10*%
%TO.N,Net-(JC3-Pad3)*%
X142430000Y-93345000D03*
%TO.P,SW2,3*%
%TO.N,Net-(J10-Pad1)*%
X135700000Y-88265000D03*
%TO.P,SW2,9*%
%TO.N,Net-(JC3-Pad2)*%
X142430000Y-95885000D03*
%TO.P,SW2,2*%
%TO.N,Net-(J9-Pad1)*%
X135700000Y-85725000D03*
%TO.P,SW2,8*%
%TO.N,Net-(JC3-Pad1)*%
X142430000Y-98425000D03*
%TO.P,SW2,1*%
%TO.N,Net-(J8-Pad1)*%
X135700000Y-83185000D03*
%TD*%
%TO.P,SW1,14*%
%TO.N,Net-(JC2-Pad7)*%
X142430000Y-60325000D03*
%TO.P,SW1,7*%
%TO.N,Net-(J7-Pad1)*%
X135700000Y-75565000D03*
%TO.P,SW1,13*%
%TO.N,Net-(JC2-Pad6)*%
X142430000Y-62865000D03*
%TO.P,SW1,6*%
%TO.N,Net-(J6-Pad1)*%
X135700000Y-73025000D03*
%TO.P,SW1,12*%
%TO.N,Net-(JC2-Pad5)*%
X142430000Y-65405000D03*
%TO.P,SW1,5*%
%TO.N,Net-(J5-Pad1)*%
X135700000Y-70485000D03*
%TO.P,SW1,11*%
%TO.N,Net-(JC2-Pad4)*%
X142430000Y-67945000D03*
%TO.P,SW1,4*%
%TO.N,Net-(J4-Pad1)*%
X135700000Y-67945000D03*
%TO.P,SW1,10*%
%TO.N,Net-(JC2-Pad3)*%
X142430000Y-70485000D03*
%TO.P,SW1,3*%
%TO.N,Net-(J3-Pad1)*%
X135700000Y-65405000D03*
%TO.P,SW1,9*%
%TO.N,Net-(JC2-Pad2)*%
X142430000Y-73025000D03*
%TO.P,SW1,2*%
%TO.N,Net-(J2-Pad1)*%
X135700000Y-62865000D03*
%TO.P,SW1,8*%
%TO.N,Net-(JC2-Pad1)*%
X142430000Y-75565000D03*
%TO.P,SW1,1*%
%TO.N,Net-(J1-Pad1)*%
X135700000Y-60325000D03*
%TD*%
D11*
%TO.P,J14,1*%
%TO.N,Net-(J14-Pad1)*%
X134620000Y-108585000D03*
%TD*%
%TO.P,J13,1*%
%TO.N,Net-(J13-Pad1)*%
X97790000Y-106680000D03*
%TD*%
%TO.P,J12,1*%
%TO.N,Net-(J12-Pad1)*%
X124460000Y-100330000D03*
%TD*%
%TO.P,J11,1*%
%TO.N,Net-(J11-Pad1)*%
X111760000Y-97790000D03*
%TD*%
%TO.P,J10,1*%
%TO.N,Net-(J10-Pad1)*%
X100330000Y-93980000D03*
%TD*%
%TO.P,J9,1*%
%TO.N,Net-(J9-Pad1)*%
X123825000Y-88265000D03*
%TD*%
%TO.P,J8,1*%
%TO.N,Net-(J8-Pad1)*%
X111760000Y-85725000D03*
%TD*%
%TO.P,J7,1*%
%TO.N,Net-(J7-Pad1)*%
X100330000Y-81915000D03*
%TD*%
%TO.P,J6,1*%
%TO.N,Net-(J6-Pad1)*%
X123190000Y-76200000D03*
%TD*%
%TO.P,J5,1*%
%TO.N,Net-(J5-Pad1)*%
X111125000Y-73025000D03*
%TD*%
%TO.P,J4,1*%
%TO.N,Net-(J4-Pad1)*%
X100330000Y-68580000D03*
%TD*%
%TO.P,J3,1*%
%TO.N,Net-(J3-Pad1)*%
X122555000Y-63500000D03*
%TD*%
%TO.P,J2,1*%
%TO.N,Net-(J2-Pad1)*%
X111125000Y-60325000D03*
%TD*%
%TO.P,J1,1*%
%TO.N,Net-(J1-Pad1)*%
X99695000Y-55245000D03*
%TD*%
D12*
%TO.P,JC4,7*%
%TO.N,Net-(J14-Pad1)*%
X90170000Y-97790000D03*
%TO.P,JC4,6*%
%TO.N,Net-(J13-Pad1)*%
X90170000Y-95250000D03*
%TO.P,JC4,5*%
%TO.N,Net-(J12-Pad1)*%
X90170000Y-92710000D03*
%TO.P,JC4,4*%
%TO.N,Net-(J11-Pad1)*%
X90170000Y-90170000D03*
%TO.P,JC4,3*%
%TO.N,Net-(J10-Pad1)*%
X90170000Y-87630000D03*
%TO.P,JC4,2*%
%TO.N,Net-(J9-Pad1)*%
X90170000Y-85090000D03*
D13*
%TO.P,JC4,1*%
%TO.N,Net-(J8-Pad1)*%
X90170000Y-82550000D03*
%TD*%
D12*
%TO.P,JC3,7*%
%TO.N,Net-(JC3-Pad7)*%
X147320000Y-83185000D03*
%TO.P,JC3,6*%
%TO.N,Net-(JC3-Pad6)*%
X147320000Y-85725000D03*
%TO.P,JC3,5*%
%TO.N,Net-(JC3-Pad5)*%
X147320000Y-88265000D03*
%TO.P,JC3,4*%
%TO.N,Net-(JC3-Pad4)*%
X147320000Y-90805000D03*
%TO.P,JC3,3*%
%TO.N,Net-(JC3-Pad3)*%
X147320000Y-93345000D03*
%TO.P,JC3,2*%
%TO.N,Net-(JC3-Pad2)*%
X147320000Y-95885000D03*
D13*
%TO.P,JC3,1*%
%TO.N,Net-(JC3-Pad1)*%
X147320000Y-98425000D03*
%TD*%
D12*
%TO.P,JC2,7*%
%TO.N,Net-(JC2-Pad7)*%
X147320000Y-60325000D03*
%TO.P,JC2,6*%
%TO.N,Net-(JC2-Pad6)*%
X147320000Y-62865000D03*
%TO.P,JC2,5*%
%TO.N,Net-(JC2-Pad5)*%
X147320000Y-65405000D03*
%TO.P,JC2,4*%
%TO.N,Net-(JC2-Pad4)*%
X147320000Y-67945000D03*
%TO.P,JC2,3*%
%TO.N,Net-(JC2-Pad3)*%
X147320000Y-70485000D03*
%TO.P,JC2,2*%
%TO.N,Net-(JC2-Pad2)*%
X147320000Y-73025000D03*
D13*
%TO.P,JC2,1*%
%TO.N,Net-(JC2-Pad1)*%
X147320000Y-75565000D03*
%TD*%
D12*
%TO.P,JC1,7*%
%TO.N,Net-(J7-Pad1)*%
X90170000Y-76200000D03*
%TO.P,JC1,6*%
%TO.N,Net-(J6-Pad1)*%
X90170000Y-73660000D03*
%TO.P,JC1,5*%
%TO.N,Net-(J5-Pad1)*%
X90170000Y-71120000D03*
%TO.P,JC1,4*%
%TO.N,Net-(J4-Pad1)*%
X90170000Y-68580000D03*
%TO.P,JC1,3*%
%TO.N,Net-(J3-Pad1)*%
X90170000Y-66040000D03*
%TO.P,JC1,2*%
%TO.N,Net-(J2-Pad1)*%
X90170000Y-63500000D03*
D13*
%TO.P,JC1,1*%
%TO.N,Net-(J1-Pad1)*%
X90170000Y-60960000D03*
%TD*%
D14*
%TO.N,Net-(J1-Pad1)*%
X135700000Y-60325000D02*
X135700000Y-59500000D01*
X99695000Y-55245000D02*
X100145009Y-54794991D01*
X130169991Y-54794991D02*
X135700000Y-60325000D01*
X100145009Y-54794991D02*
X130169991Y-54794991D01*
%TO.N,Net-(J2-Pad1)*%
X116204999Y-55245001D02*
X111125000Y-60325000D01*
X128080001Y-55245001D02*
X116204999Y-55245001D01*
X135700000Y-62865000D02*
X128080001Y-55245001D01*
%TO.N,Net-(J3-Pad1)*%
X124460000Y-65405000D02*
X122555000Y-63500000D01*
X135700000Y-65405000D02*
X124460000Y-65405000D01*
%TO.N,Net-(J4-Pad1)*%
X134739999Y-68905001D02*
X135700000Y-67945000D01*
X118675597Y-67619999D02*
X119960599Y-68905001D01*
X119960599Y-68905001D02*
X134739999Y-68905001D01*
X107570598Y-68580000D02*
X108530599Y-67619999D01*
X108530599Y-67619999D02*
X118675597Y-67619999D01*
X100330000Y-68580000D02*
X107570598Y-68580000D01*
%TO.N,Net-(J5-Pad1)*%
X113665000Y-70485000D02*
X135700000Y-70485000D01*
X111125000Y-73025000D02*
X113665000Y-70485000D01*
%TO.N,Net-(J6-Pad1)*%
X123190000Y-76200000D02*
X126365000Y-76200000D01*
X129540000Y-73025000D02*
X135700000Y-73025000D01*
X126365000Y-76200000D02*
X129540000Y-73025000D01*
%TO.N,Net-(J7-Pad1)*%
X129659999Y-81605001D02*
X135700000Y-75565000D01*
X120595599Y-81605001D02*
X129659999Y-81605001D01*
X119310597Y-80319999D02*
X120595599Y-81605001D01*
X101925001Y-80319999D02*
X119310597Y-80319999D01*
X100330000Y-81915000D02*
X101925001Y-80319999D01*
%TO.N,Net-(J8-Pad1)*%
X121285000Y-82859999D02*
X134104999Y-82859999D01*
X135374999Y-82859999D02*
X135700000Y-83185000D01*
X114625001Y-82859999D02*
X135374999Y-82859999D01*
X111760000Y-85725000D02*
X114625001Y-82859999D01*
%TO.N,Net-(J9-Pad1)*%
X123825000Y-88265000D02*
X129540000Y-88265000D01*
X132080000Y-85725000D02*
X135700000Y-85725000D01*
X129540000Y-88265000D02*
X132080000Y-85725000D01*
%TO.N,Net-(J10-Pad1)*%
X126674999Y-93670001D02*
X115639403Y-93670001D01*
X115639403Y-93670001D02*
X130294999Y-93670001D01*
X130294999Y-93670001D02*
X135700000Y-88265000D01*
X114354401Y-92384999D02*
X115639403Y-93670001D01*
X101925001Y-92384999D02*
X114354401Y-92384999D01*
X100330000Y-93980000D02*
X101925001Y-92384999D01*
%TO.N,Net-(J11-Pad1)*%
X115429989Y-94120011D02*
X111760000Y-97790000D01*
X132340010Y-94164990D02*
X135700000Y-90805000D01*
X115385010Y-94164990D02*
X132340010Y-94164990D01*
X111760000Y-97790000D02*
X115385010Y-94164990D01*
%TO.N,Net-(J12-Pad1)*%
X128715000Y-100330000D02*
X135700000Y-93345000D01*
X124460000Y-100330000D02*
X128715000Y-100330000D01*
%TO.N,Net-(J13-Pad1)*%
X98734999Y-105735001D02*
X97790000Y-106680000D01*
X90170000Y-95250000D02*
X92075000Y-95250000D01*
X97790000Y-100965000D02*
X97790000Y-106680000D01*
X92075000Y-95250000D02*
X97790000Y-100965000D01*
X134294999Y-97290001D02*
X134294999Y-98750001D01*
X135700000Y-95885000D02*
X134294999Y-97290001D01*
X126365000Y-106680000D02*
X97790000Y-106680000D01*
X134294999Y-98750001D02*
X126365000Y-106680000D01*
%TO.N,Net-(J14-Pad1)*%
X135700000Y-107505000D02*
X134620000Y-108585000D01*
X134620000Y-99505000D02*
X135700000Y-98425000D01*
X134620000Y-108585000D02*
X134620000Y-99505000D01*
D15*
%TO.N,Net-(JC2-Pad7)*%
X147320000Y-60325000D02*
X142430000Y-60325000D01*
%TO.N,Net-(JC2-Pad6)*%
X147320000Y-62865000D02*
X142430000Y-62865000D01*
%TO.N,Net-(JC2-Pad5)*%
X147320000Y-65405000D02*
X142430000Y-65405000D01*
%TO.N,Net-(JC2-Pad4)*%
X147320000Y-67945000D02*
X142430000Y-67945000D01*
%TO.N,Net-(JC2-Pad3)*%
X147320000Y-70485000D02*
X142430000Y-70485000D01*
%TO.N,Net-(JC2-Pad2)*%
X147320000Y-73025000D02*
X142430000Y-73025000D01*
%TO.N,Net-(JC2-Pad1)*%
X147320000Y-75565000D02*
X142430000Y-75565000D01*
%TO.N,Net-(JC3-Pad7)*%
X142430000Y-83185000D02*
X147320000Y-83185000D01*
%TO.N,Net-(JC3-Pad6)*%
X142430000Y-85725000D02*
X147320000Y-85725000D01*
%TO.N,Net-(JC3-Pad5)*%
X142430000Y-88265000D02*
X147320000Y-88265000D01*
%TO.N,Net-(JC3-Pad4)*%
X147320000Y-90805000D02*
X142430000Y-90805000D01*
%TO.N,Net-(JC3-Pad3)*%
X147320000Y-93345000D02*
X142430000Y-93345000D01*
%TO.N,Net-(JC3-Pad2)*%
X142430000Y-95885000D02*
X147320000Y-95885000D01*
%TO.N,Net-(JC3-Pad1)*%
X147320000Y-98425000D02*
X142430000Y-98425000D01*
%TD*%
M02*
