%TF.GenerationSoftware,KiCad,Pcbnew,(5.1.6)-1*%
%TF.CreationDate,2020-10-19T16:41:56-05:00*%
%TF.ProjectId,BPS_Scrutineering,4250535f-5363-4727-9574-696e65657269,rev?*%
%TF.SameCoordinates,Original*%
%TF.FileFunction,Soldermask,Bot*%
%TF.FilePolarity,Negative*%
%FSLAX46Y46*%
G04 Gerber Fmt 4.6, Leading zero omitted, Abs format (unit mm)*
G04 Created by KiCad (PCBNEW (5.1.6)-1) date 2020-10-19 16:41:56*
%MOMM*%
%LPD*%
G01*
G04 APERTURE LIST*
%ADD10O,1.800000X1.800000*%
%ADD11R,1.800000X1.800000*%
G04 APERTURE END LIST*
D10*
%TO.C,JP16*%
X64770000Y-86995000D03*
D11*
X62230000Y-86995000D03*
%TD*%
D10*
%TO.C,JP15*%
X80010000Y-86995000D03*
D11*
X77470000Y-86995000D03*
%TD*%
D10*
%TO.C,JP14*%
X72390000Y-113030000D03*
D11*
X69850000Y-113030000D03*
%TD*%
D10*
%TO.C,JP13*%
X72390000Y-109220000D03*
D11*
X69850000Y-109220000D03*
%TD*%
D10*
%TO.C,JP12*%
X72390000Y-105410000D03*
D11*
X69850000Y-105410000D03*
%TD*%
D10*
%TO.C,JP11*%
X72390000Y-101600000D03*
D11*
X69850000Y-101600000D03*
%TD*%
D10*
%TO.C,JP10*%
X72390000Y-97790000D03*
D11*
X69850000Y-97790000D03*
%TD*%
D10*
%TO.C,JP9*%
X72390000Y-93980000D03*
D11*
X69850000Y-93980000D03*
%TD*%
D10*
%TO.C,JP8*%
X72390000Y-90170000D03*
D11*
X69850000Y-90170000D03*
%TD*%
D10*
%TO.C,JP7*%
X72390000Y-83820000D03*
D11*
X69850000Y-83820000D03*
%TD*%
D10*
%TO.C,JP6*%
X72390000Y-80010000D03*
D11*
X69850000Y-80010000D03*
%TD*%
D10*
%TO.C,JP5*%
X72390000Y-76200000D03*
D11*
X69850000Y-76200000D03*
%TD*%
D10*
%TO.C,JP4*%
X72390000Y-72390000D03*
D11*
X69850000Y-72390000D03*
%TD*%
D10*
%TO.C,JP3*%
X72390000Y-68580000D03*
D11*
X69850000Y-68580000D03*
%TD*%
D10*
%TO.C,JP2*%
X72390000Y-60960000D03*
D11*
X69850000Y-60960000D03*
%TD*%
D10*
%TO.C,JP1*%
X72390000Y-64770000D03*
D11*
X69850000Y-64770000D03*
%TD*%
D10*
%TO.C,J4*%
X60325000Y-107950000D03*
X60325000Y-105410000D03*
X60325000Y-102870000D03*
X60325000Y-100330000D03*
X60325000Y-97790000D03*
X60325000Y-95250000D03*
D11*
X60325000Y-92710000D03*
%TD*%
D10*
%TO.C,J3*%
X81280000Y-92710000D03*
X81280000Y-95250000D03*
X81280000Y-97790000D03*
X81280000Y-100330000D03*
X81280000Y-102870000D03*
X81280000Y-105410000D03*
D11*
X81280000Y-107950000D03*
%TD*%
D10*
%TO.C,J2*%
X81280000Y-63500000D03*
X81280000Y-66040000D03*
X81280000Y-68580000D03*
X81280000Y-71120000D03*
X81280000Y-73660000D03*
X81280000Y-76200000D03*
D11*
X81280000Y-78740000D03*
%TD*%
D10*
%TO.C,J1*%
X60325000Y-78740000D03*
X60325000Y-76200000D03*
X60325000Y-73660000D03*
X60325000Y-71120000D03*
X60325000Y-68580000D03*
X60325000Y-66040000D03*
D11*
X60325000Y-63500000D03*
%TD*%
M02*
