M48
; DRILL file {KiCad (5.1.6)-1} date 10/19/20 16:42:04
; FORMAT={-:-/ absolute / inch / decimal}
; #@! TF.CreationDate,2020-10-19T16:42:04-05:00
; #@! TF.GenerationSoftware,Kicad,Pcbnew,(5.1.6)-1
FMAT,2
INCH
T1C0.0394
%
G90
G05
T1
X3.2Y-2.5
X3.2Y-2.6
X3.2Y-2.7
X3.2Y-2.8
X3.2Y-2.9
X3.2Y-3.0
X3.2Y-3.1
X2.75Y-3.15
X2.85Y-3.15
X2.75Y-4.45
X2.85Y-4.45
X2.75Y-2.7
X2.85Y-2.7
X2.75Y-3.3
X2.85Y-3.3
X2.75Y-4.3
X2.85Y-4.3
X2.375Y-3.65
X2.375Y-3.75
X2.375Y-3.85
X2.375Y-3.95
X2.375Y-4.05
X2.375Y-4.15
X2.375Y-4.25
X2.75Y-4.0
X2.85Y-4.0
X2.75Y-3.55
X2.85Y-3.55
X2.375Y-2.5
X2.375Y-2.6
X2.375Y-2.7
X2.375Y-2.8
X2.375Y-2.9
X2.375Y-3.0
X2.375Y-3.1
X2.75Y-2.55
X2.85Y-2.55
X2.75Y-3.7
X2.85Y-3.7
X3.2Y-3.65
X3.2Y-3.75
X3.2Y-3.85
X3.2Y-3.95
X3.2Y-4.05
X3.2Y-4.15
X3.2Y-4.25
X2.75Y-3.85
X2.85Y-3.85
X2.75Y-2.4
X2.85Y-2.4
X2.75Y-4.15
X2.85Y-4.15
X2.45Y-3.425
X2.55Y-3.425
X2.75Y-3.0
X2.85Y-3.0
X3.05Y-3.425
X3.15Y-3.425
X2.75Y-2.85
X2.85Y-2.85
T0
M30
