%TF.GenerationSoftware,KiCad,Pcbnew,(5.1.6)-1*%
%TF.CreationDate,2020-10-19T16:41:55-05:00*%
%TF.ProjectId,BPS_Scrutineering,4250535f-5363-4727-9574-696e65657269,rev?*%
%TF.SameCoordinates,Original*%
%TF.FileFunction,Copper,L2,Bot*%
%TF.FilePolarity,Positive*%
%FSLAX46Y46*%
G04 Gerber Fmt 4.6, Leading zero omitted, Abs format (unit mm)*
G04 Created by KiCad (PCBNEW (5.1.6)-1) date 2020-10-19 16:41:55*
%MOMM*%
%LPD*%
G01*
G04 APERTURE LIST*
%TA.AperFunction,ComponentPad*%
%ADD10O,1.700000X1.700000*%
%TD*%
%TA.AperFunction,ComponentPad*%
%ADD11R,1.700000X1.700000*%
%TD*%
G04 APERTURE END LIST*
D10*
%TO.P,JP16,2*%
%TO.N,Net-(JP16-Pad2)*%
X64770000Y-86995000D03*
D11*
%TO.P,JP16,1*%
%TO.N,Net-(JP16-Pad1)*%
X62230000Y-86995000D03*
%TD*%
D10*
%TO.P,JP15,2*%
%TO.N,Net-(JP15-Pad2)*%
X80010000Y-86995000D03*
D11*
%TO.P,JP15,1*%
%TO.N,Net-(JP15-Pad1)*%
X77470000Y-86995000D03*
%TD*%
D10*
%TO.P,JP14,2*%
%TO.N,Net-(J3-Pad1)*%
X72390000Y-113030000D03*
D11*
%TO.P,JP14,1*%
%TO.N,Net-(J4-Pad7)*%
X69850000Y-113030000D03*
%TD*%
D10*
%TO.P,JP13,2*%
%TO.N,Net-(J3-Pad2)*%
X72390000Y-109220000D03*
D11*
%TO.P,JP13,1*%
%TO.N,Net-(J4-Pad6)*%
X69850000Y-109220000D03*
%TD*%
D10*
%TO.P,JP12,2*%
%TO.N,Net-(J3-Pad3)*%
X72390000Y-105410000D03*
D11*
%TO.P,JP12,1*%
%TO.N,Net-(J4-Pad5)*%
X69850000Y-105410000D03*
%TD*%
D10*
%TO.P,JP11,2*%
%TO.N,Net-(J3-Pad4)*%
X72390000Y-101600000D03*
D11*
%TO.P,JP11,1*%
%TO.N,Net-(J4-Pad4)*%
X69850000Y-101600000D03*
%TD*%
D10*
%TO.P,JP10,2*%
%TO.N,Net-(J3-Pad5)*%
X72390000Y-97790000D03*
D11*
%TO.P,JP10,1*%
%TO.N,Net-(J4-Pad3)*%
X69850000Y-97790000D03*
%TD*%
D10*
%TO.P,JP9,2*%
%TO.N,Net-(J3-Pad6)*%
X72390000Y-93980000D03*
D11*
%TO.P,JP9,1*%
%TO.N,Net-(J4-Pad2)*%
X69850000Y-93980000D03*
%TD*%
D10*
%TO.P,JP8,2*%
%TO.N,Net-(J3-Pad7)*%
X72390000Y-90170000D03*
D11*
%TO.P,JP8,1*%
%TO.N,Net-(J4-Pad1)*%
X69850000Y-90170000D03*
%TD*%
D10*
%TO.P,JP7,2*%
%TO.N,Net-(J2-Pad1)*%
X72390000Y-83820000D03*
D11*
%TO.P,JP7,1*%
%TO.N,Net-(J1-Pad7)*%
X69850000Y-83820000D03*
%TD*%
D10*
%TO.P,JP6,2*%
%TO.N,Net-(J2-Pad2)*%
X72390000Y-80010000D03*
D11*
%TO.P,JP6,1*%
%TO.N,Net-(J1-Pad6)*%
X69850000Y-80010000D03*
%TD*%
D10*
%TO.P,JP5,2*%
%TO.N,Net-(J2-Pad3)*%
X72390000Y-76200000D03*
D11*
%TO.P,JP5,1*%
%TO.N,Net-(J1-Pad5)*%
X69850000Y-76200000D03*
%TD*%
D10*
%TO.P,JP4,2*%
%TO.N,Net-(J2-Pad4)*%
X72390000Y-72390000D03*
D11*
%TO.P,JP4,1*%
%TO.N,Net-(J1-Pad4)*%
X69850000Y-72390000D03*
%TD*%
D10*
%TO.P,JP3,2*%
%TO.N,Net-(J2-Pad5)*%
X72390000Y-68580000D03*
D11*
%TO.P,JP3,1*%
%TO.N,Net-(J1-Pad3)*%
X69850000Y-68580000D03*
%TD*%
D10*
%TO.P,JP2,2*%
%TO.N,Net-(J2-Pad7)*%
X72390000Y-60960000D03*
D11*
%TO.P,JP2,1*%
%TO.N,Net-(J1-Pad1)*%
X69850000Y-60960000D03*
%TD*%
D10*
%TO.P,JP1,2*%
%TO.N,Net-(J2-Pad6)*%
X72390000Y-64770000D03*
D11*
%TO.P,JP1,1*%
%TO.N,Net-(J1-Pad2)*%
X69850000Y-64770000D03*
%TD*%
D10*
%TO.P,J4,7*%
%TO.N,Net-(J4-Pad7)*%
X60325000Y-107950000D03*
%TO.P,J4,6*%
%TO.N,Net-(J4-Pad6)*%
X60325000Y-105410000D03*
%TO.P,J4,5*%
%TO.N,Net-(J4-Pad5)*%
X60325000Y-102870000D03*
%TO.P,J4,4*%
%TO.N,Net-(J4-Pad4)*%
X60325000Y-100330000D03*
%TO.P,J4,3*%
%TO.N,Net-(J4-Pad3)*%
X60325000Y-97790000D03*
%TO.P,J4,2*%
%TO.N,Net-(J4-Pad2)*%
X60325000Y-95250000D03*
D11*
%TO.P,J4,1*%
%TO.N,Net-(J4-Pad1)*%
X60325000Y-92710000D03*
%TD*%
D10*
%TO.P,J3,7*%
%TO.N,Net-(J3-Pad7)*%
X81280000Y-92710000D03*
%TO.P,J3,6*%
%TO.N,Net-(J3-Pad6)*%
X81280000Y-95250000D03*
%TO.P,J3,5*%
%TO.N,Net-(J3-Pad5)*%
X81280000Y-97790000D03*
%TO.P,J3,4*%
%TO.N,Net-(J3-Pad4)*%
X81280000Y-100330000D03*
%TO.P,J3,3*%
%TO.N,Net-(J3-Pad3)*%
X81280000Y-102870000D03*
%TO.P,J3,2*%
%TO.N,Net-(J3-Pad2)*%
X81280000Y-105410000D03*
D11*
%TO.P,J3,1*%
%TO.N,Net-(J3-Pad1)*%
X81280000Y-107950000D03*
%TD*%
D10*
%TO.P,J2,7*%
%TO.N,Net-(J2-Pad7)*%
X81280000Y-63500000D03*
%TO.P,J2,6*%
%TO.N,Net-(J2-Pad6)*%
X81280000Y-66040000D03*
%TO.P,J2,5*%
%TO.N,Net-(J2-Pad5)*%
X81280000Y-68580000D03*
%TO.P,J2,4*%
%TO.N,Net-(J2-Pad4)*%
X81280000Y-71120000D03*
%TO.P,J2,3*%
%TO.N,Net-(J2-Pad3)*%
X81280000Y-73660000D03*
%TO.P,J2,2*%
%TO.N,Net-(J2-Pad2)*%
X81280000Y-76200000D03*
D11*
%TO.P,J2,1*%
%TO.N,Net-(J2-Pad1)*%
X81280000Y-78740000D03*
%TD*%
D10*
%TO.P,J1,7*%
%TO.N,Net-(J1-Pad7)*%
X60325000Y-78740000D03*
%TO.P,J1,6*%
%TO.N,Net-(J1-Pad6)*%
X60325000Y-76200000D03*
%TO.P,J1,5*%
%TO.N,Net-(J1-Pad5)*%
X60325000Y-73660000D03*
%TO.P,J1,4*%
%TO.N,Net-(J1-Pad4)*%
X60325000Y-71120000D03*
%TO.P,J1,3*%
%TO.N,Net-(J1-Pad3)*%
X60325000Y-68580000D03*
%TO.P,J1,2*%
%TO.N,Net-(J1-Pad2)*%
X60325000Y-66040000D03*
D11*
%TO.P,J1,1*%
%TO.N,Net-(J1-Pad1)*%
X60325000Y-63500000D03*
%TD*%
M02*
