%TF.GenerationSoftware,KiCad,Pcbnew,(5.1.6)-1*%
%TF.CreationDate,2020-11-13T18:32:28-06:00*%
%TF.ProjectId,BPS_Scrutineering,4250535f-5363-4727-9574-696e65657269,rev?*%
%TF.SameCoordinates,Original*%
%TF.FileFunction,Soldermask,Top*%
%TF.FilePolarity,Negative*%
%FSLAX46Y46*%
G04 Gerber Fmt 4.6, Leading zero omitted, Abs format (unit mm)*
G04 Created by KiCad (PCBNEW (5.1.6)-1) date 2020-11-13 18:32:28*
%MOMM*%
%LPD*%
G01*
G04 APERTURE LIST*
%ADD10R,2.260000X1.220000*%
%ADD11C,10.260000*%
%ADD12C,3.100000*%
%ADD13O,1.800000X1.800000*%
%ADD14R,1.800000X1.800000*%
G04 APERTURE END LIST*
D10*
%TO.C,SW2*%
X142430000Y-83185000D03*
X135700000Y-98425000D03*
X142430000Y-85725000D03*
X135700000Y-95885000D03*
X142430000Y-88265000D03*
X135700000Y-93345000D03*
X142430000Y-90805000D03*
X135700000Y-90805000D03*
X142430000Y-93345000D03*
X135700000Y-88265000D03*
X142430000Y-95885000D03*
X135700000Y-85725000D03*
X142430000Y-98425000D03*
X135700000Y-83185000D03*
%TD*%
%TO.C,SW1*%
X142430000Y-60325000D03*
X135700000Y-75565000D03*
X142430000Y-62865000D03*
X135700000Y-73025000D03*
X142430000Y-65405000D03*
X135700000Y-70485000D03*
X142430000Y-67945000D03*
X135700000Y-67945000D03*
X142430000Y-70485000D03*
X135700000Y-65405000D03*
X142430000Y-73025000D03*
X135700000Y-62865000D03*
X142430000Y-75565000D03*
X135700000Y-60325000D03*
%TD*%
D11*
%TO.C,J14*%
X134620000Y-108585000D03*
%TD*%
%TO.C,J13*%
X97790000Y-106680000D03*
%TD*%
%TO.C,J12*%
X124460000Y-100330000D03*
%TD*%
%TO.C,J11*%
X111760000Y-97790000D03*
%TD*%
%TO.C,J10*%
X100330000Y-93980000D03*
%TD*%
%TO.C,J9*%
X123825000Y-88265000D03*
%TD*%
%TO.C,J8*%
X111760000Y-85725000D03*
%TD*%
%TO.C,J7*%
X100330000Y-81915000D03*
%TD*%
%TO.C,J6*%
X123190000Y-76200000D03*
%TD*%
%TO.C,J5*%
X111125000Y-73025000D03*
%TD*%
%TO.C,J4*%
X100330000Y-68580000D03*
%TD*%
%TO.C,J3*%
X122555000Y-63500000D03*
%TD*%
%TO.C,J2*%
X111125000Y-60325000D03*
%TD*%
%TO.C,J1*%
X99695000Y-55245000D03*
%TD*%
D12*
%TO.C,H6*%
X83820000Y-104140000D03*
%TD*%
%TO.C,H5*%
X153670000Y-54610000D03*
%TD*%
%TO.C,H4*%
X154305000Y-79375000D03*
%TD*%
%TO.C,H3*%
X153670000Y-105410000D03*
%TD*%
%TO.C,H2*%
X83820000Y-79375000D03*
%TD*%
%TO.C,H1*%
X84455000Y-54610000D03*
%TD*%
D13*
%TO.C,JC4*%
X90170000Y-97790000D03*
X90170000Y-95250000D03*
X90170000Y-92710000D03*
X90170000Y-90170000D03*
X90170000Y-87630000D03*
X90170000Y-85090000D03*
D14*
X90170000Y-82550000D03*
%TD*%
D13*
%TO.C,JC3*%
X147320000Y-83185000D03*
X147320000Y-85725000D03*
X147320000Y-88265000D03*
X147320000Y-90805000D03*
X147320000Y-93345000D03*
X147320000Y-95885000D03*
D14*
X147320000Y-98425000D03*
%TD*%
D13*
%TO.C,JC2*%
X147320000Y-60325000D03*
X147320000Y-62865000D03*
X147320000Y-65405000D03*
X147320000Y-67945000D03*
X147320000Y-70485000D03*
X147320000Y-73025000D03*
D14*
X147320000Y-75565000D03*
%TD*%
D13*
%TO.C,JC1*%
X90170000Y-76200000D03*
X90170000Y-73660000D03*
X90170000Y-71120000D03*
X90170000Y-68580000D03*
X90170000Y-66040000D03*
X90170000Y-63500000D03*
D14*
X90170000Y-60960000D03*
%TD*%
M02*
