%TF.GenerationSoftware,KiCad,Pcbnew,(6.0.7)*%
%TF.CreationDate,2022-11-12T16:45:26-06:00*%
%TF.ProjectId,BPS_Scrutineering,4250535f-5363-4727-9574-696e65657269,rev?*%
%TF.SameCoordinates,Original*%
%TF.FileFunction,Legend,Top*%
%TF.FilePolarity,Positive*%
%FSLAX46Y46*%
G04 Gerber Fmt 4.6, Leading zero omitted, Abs format (unit mm)*
G04 Created by KiCad (PCBNEW (6.0.7)) date 2022-11-12 16:45:26*
%MOMM*%
%LPD*%
G01*
G04 APERTURE LIST*
%ADD10C,0.150000*%
%ADD11C,0.300000*%
%ADD12C,0.254000*%
%ADD13C,0.127000*%
%ADD14C,0.200000*%
%ADD15C,0.100000*%
%ADD16C,0.010000*%
%ADD17C,0.120000*%
G04 APERTURE END LIST*
D10*
X84698219Y-89184714D02*
X83983933Y-89184714D01*
X83841076Y-89137095D01*
X83745838Y-89041857D01*
X83698219Y-88899000D01*
X83698219Y-88803761D01*
X83698219Y-89803761D02*
X83745838Y-89708523D01*
X83793457Y-89660904D01*
X83888695Y-89613285D01*
X84174409Y-89613285D01*
X84269647Y-89660904D01*
X84317266Y-89708523D01*
X84364885Y-89803761D01*
X84364885Y-89946619D01*
X84317266Y-90041857D01*
X84269647Y-90089476D01*
X84174409Y-90137095D01*
X83888695Y-90137095D01*
X83793457Y-90089476D01*
X83745838Y-90041857D01*
X83698219Y-89946619D01*
X83698219Y-89803761D01*
X83698219Y-90565666D02*
X84364885Y-90565666D01*
X84174409Y-90565666D02*
X84269647Y-90613285D01*
X84317266Y-90660904D01*
X84364885Y-90756142D01*
X84364885Y-90851380D01*
X83698219Y-91613285D02*
X84698219Y-91613285D01*
X83745838Y-91613285D02*
X83698219Y-91518047D01*
X83698219Y-91327571D01*
X83745838Y-91232333D01*
X83793457Y-91184714D01*
X83888695Y-91137095D01*
X84174409Y-91137095D01*
X84269647Y-91184714D01*
X84317266Y-91232333D01*
X84364885Y-91327571D01*
X84364885Y-91518047D01*
X84317266Y-91613285D01*
X83698219Y-92518047D02*
X84222028Y-92518047D01*
X84317266Y-92470428D01*
X84364885Y-92375190D01*
X84364885Y-92184714D01*
X84317266Y-92089476D01*
X83745838Y-92518047D02*
X83698219Y-92422809D01*
X83698219Y-92184714D01*
X83745838Y-92089476D01*
X83841076Y-92041857D01*
X83936314Y-92041857D01*
X84031552Y-92089476D01*
X84079171Y-92184714D01*
X84079171Y-92422809D01*
X84126790Y-92518047D01*
X84364885Y-92994238D02*
X83698219Y-92994238D01*
X84269647Y-92994238D02*
X84317266Y-93041857D01*
X84364885Y-93137095D01*
X84364885Y-93279952D01*
X84317266Y-93375190D01*
X84222028Y-93422809D01*
X83698219Y-93422809D01*
X83698219Y-95089476D02*
X84222028Y-95089476D01*
X84317266Y-95041857D01*
X84364885Y-94946619D01*
X84364885Y-94756142D01*
X84317266Y-94660904D01*
X83745838Y-95089476D02*
X83698219Y-94994238D01*
X83698219Y-94756142D01*
X83745838Y-94660904D01*
X83841076Y-94613285D01*
X83936314Y-94613285D01*
X84031552Y-94660904D01*
X84079171Y-94756142D01*
X84079171Y-94994238D01*
X84126790Y-95089476D01*
X84364885Y-95565666D02*
X83698219Y-95565666D01*
X84269647Y-95565666D02*
X84317266Y-95613285D01*
X84364885Y-95708523D01*
X84364885Y-95851380D01*
X84317266Y-95946619D01*
X84222028Y-95994238D01*
X83698219Y-95994238D01*
X83698219Y-96899000D02*
X84698219Y-96899000D01*
X83745838Y-96899000D02*
X83698219Y-96803761D01*
X83698219Y-96613285D01*
X83745838Y-96518047D01*
X83793457Y-96470428D01*
X83888695Y-96422809D01*
X84174409Y-96422809D01*
X84269647Y-96470428D01*
X84317266Y-96518047D01*
X84364885Y-96613285D01*
X84364885Y-96803761D01*
X84317266Y-96899000D01*
X82088219Y-90803761D02*
X83088219Y-90803761D01*
X82088219Y-91375190D01*
X83088219Y-91375190D01*
X82088219Y-92279952D02*
X82612028Y-92279952D01*
X82707266Y-92232333D01*
X82754885Y-92137095D01*
X82754885Y-91946619D01*
X82707266Y-91851380D01*
X82135838Y-92279952D02*
X82088219Y-92184714D01*
X82088219Y-91946619D01*
X82135838Y-91851380D01*
X82231076Y-91803761D01*
X82326314Y-91803761D01*
X82421552Y-91851380D01*
X82469171Y-91946619D01*
X82469171Y-92184714D01*
X82516790Y-92279952D01*
X82754885Y-92756142D02*
X82088219Y-92756142D01*
X82659647Y-92756142D02*
X82707266Y-92803761D01*
X82754885Y-92899000D01*
X82754885Y-93041857D01*
X82707266Y-93137095D01*
X82612028Y-93184714D01*
X82088219Y-93184714D01*
X82088219Y-94089476D02*
X83088219Y-94089476D01*
X82135838Y-94089476D02*
X82088219Y-93994238D01*
X82088219Y-93803761D01*
X82135838Y-93708523D01*
X82183457Y-93660904D01*
X82278695Y-93613285D01*
X82564409Y-93613285D01*
X82659647Y-93660904D01*
X82707266Y-93708523D01*
X82754885Y-93803761D01*
X82754885Y-93994238D01*
X82707266Y-94089476D01*
X82754885Y-94994238D02*
X82088219Y-94994238D01*
X82754885Y-94565666D02*
X82231076Y-94565666D01*
X82135838Y-94613285D01*
X82088219Y-94708523D01*
X82088219Y-94851380D01*
X82135838Y-94946619D01*
X82183457Y-94994238D01*
X81144885Y-89351380D02*
X80478219Y-89541857D01*
X80954409Y-89732333D01*
X80478219Y-89922809D01*
X81144885Y-90113285D01*
X80525838Y-90875190D02*
X80478219Y-90779952D01*
X80478219Y-90589476D01*
X80525838Y-90494238D01*
X80621076Y-90446619D01*
X81002028Y-90446619D01*
X81097266Y-90494238D01*
X81144885Y-90589476D01*
X81144885Y-90779952D01*
X81097266Y-90875190D01*
X81002028Y-90922809D01*
X80906790Y-90922809D01*
X80811552Y-90446619D01*
X80478219Y-91351380D02*
X81144885Y-91351380D01*
X80954409Y-91351380D02*
X81049647Y-91399000D01*
X81097266Y-91446619D01*
X81144885Y-91541857D01*
X81144885Y-91637095D01*
X80525838Y-92351380D02*
X80478219Y-92256142D01*
X80478219Y-92065666D01*
X80525838Y-91970428D01*
X80621076Y-91922809D01*
X81002028Y-91922809D01*
X81097266Y-91970428D01*
X81144885Y-92065666D01*
X81144885Y-92256142D01*
X81097266Y-92351380D01*
X81002028Y-92399000D01*
X80906790Y-92399000D01*
X80811552Y-91922809D01*
X80478219Y-93589476D02*
X81478219Y-93589476D01*
X80478219Y-94018047D02*
X81002028Y-94018047D01*
X81097266Y-93970428D01*
X81144885Y-93875190D01*
X81144885Y-93732333D01*
X81097266Y-93637095D01*
X81049647Y-93589476D01*
X80525838Y-94875190D02*
X80478219Y-94779952D01*
X80478219Y-94589476D01*
X80525838Y-94494238D01*
X80621076Y-94446619D01*
X81002028Y-94446619D01*
X81097266Y-94494238D01*
X81144885Y-94589476D01*
X81144885Y-94779952D01*
X81097266Y-94875190D01*
X81002028Y-94922809D01*
X80906790Y-94922809D01*
X80811552Y-94446619D01*
X80478219Y-95351380D02*
X81144885Y-95351380D01*
X80954409Y-95351380D02*
X81049647Y-95399000D01*
X81097266Y-95446619D01*
X81144885Y-95541857D01*
X81144885Y-95637095D01*
X80525838Y-96351380D02*
X80478219Y-96256142D01*
X80478219Y-96065666D01*
X80525838Y-95970428D01*
X80621076Y-95922809D01*
X81002028Y-95922809D01*
X81097266Y-95970428D01*
X81144885Y-96065666D01*
X81144885Y-96256142D01*
X81097266Y-96351380D01*
X81002028Y-96399000D01*
X80906790Y-96399000D01*
X80811552Y-95922809D01*
X83745838Y-119911904D02*
X83698219Y-120054761D01*
X83698219Y-120292857D01*
X83745838Y-120388095D01*
X83793457Y-120435714D01*
X83888695Y-120483333D01*
X83983933Y-120483333D01*
X84079171Y-120435714D01*
X84126790Y-120388095D01*
X84174409Y-120292857D01*
X84222028Y-120102380D01*
X84269647Y-120007142D01*
X84317266Y-119959523D01*
X84412504Y-119911904D01*
X84507742Y-119911904D01*
X84602980Y-119959523D01*
X84650600Y-120007142D01*
X84698219Y-120102380D01*
X84698219Y-120340476D01*
X84650600Y-120483333D01*
X83698219Y-121054761D02*
X83745838Y-120959523D01*
X83793457Y-120911904D01*
X83888695Y-120864285D01*
X84174409Y-120864285D01*
X84269647Y-120911904D01*
X84317266Y-120959523D01*
X84364885Y-121054761D01*
X84364885Y-121197619D01*
X84317266Y-121292857D01*
X84269647Y-121340476D01*
X84174409Y-121388095D01*
X83888695Y-121388095D01*
X83793457Y-121340476D01*
X83745838Y-121292857D01*
X83698219Y-121197619D01*
X83698219Y-121054761D01*
X82754885Y-119411904D02*
X82088219Y-119602380D01*
X82564409Y-119792857D01*
X82088219Y-119983333D01*
X82754885Y-120173809D01*
X82088219Y-120983333D02*
X82612028Y-120983333D01*
X82707266Y-120935714D01*
X82754885Y-120840476D01*
X82754885Y-120650000D01*
X82707266Y-120554761D01*
X82135838Y-120983333D02*
X82088219Y-120888095D01*
X82088219Y-120650000D01*
X82135838Y-120554761D01*
X82231076Y-120507142D01*
X82326314Y-120507142D01*
X82421552Y-120554761D01*
X82469171Y-120650000D01*
X82469171Y-120888095D01*
X82516790Y-120983333D01*
X82135838Y-121411904D02*
X82088219Y-121507142D01*
X82088219Y-121697619D01*
X82135838Y-121792857D01*
X82231076Y-121840476D01*
X82278695Y-121840476D01*
X82373933Y-121792857D01*
X82421552Y-121697619D01*
X82421552Y-121554761D01*
X82469171Y-121459523D01*
X82564409Y-121411904D01*
X82612028Y-121411904D01*
X82707266Y-121459523D01*
X82754885Y-121554761D01*
X82754885Y-121697619D01*
X82707266Y-121792857D01*
X80573457Y-119221428D02*
X80525838Y-119173809D01*
X80478219Y-119030952D01*
X80478219Y-118935714D01*
X80525838Y-118792857D01*
X80621076Y-118697619D01*
X80716314Y-118650000D01*
X80906790Y-118602380D01*
X81049647Y-118602380D01*
X81240123Y-118650000D01*
X81335361Y-118697619D01*
X81430600Y-118792857D01*
X81478219Y-118935714D01*
X81478219Y-119030952D01*
X81430600Y-119173809D01*
X81382980Y-119221428D01*
X80478219Y-119650000D02*
X81478219Y-119650000D01*
X80478219Y-120078571D02*
X81002028Y-120078571D01*
X81097266Y-120030952D01*
X81144885Y-119935714D01*
X81144885Y-119792857D01*
X81097266Y-119697619D01*
X81049647Y-119650000D01*
X80478219Y-120983333D02*
X81002028Y-120983333D01*
X81097266Y-120935714D01*
X81144885Y-120840476D01*
X81144885Y-120650000D01*
X81097266Y-120554761D01*
X80525838Y-120983333D02*
X80478219Y-120888095D01*
X80478219Y-120650000D01*
X80525838Y-120554761D01*
X80621076Y-120507142D01*
X80716314Y-120507142D01*
X80811552Y-120554761D01*
X80859171Y-120650000D01*
X80859171Y-120888095D01*
X80906790Y-120983333D01*
X80525838Y-121411904D02*
X80478219Y-121507142D01*
X80478219Y-121697619D01*
X80525838Y-121792857D01*
X80621076Y-121840476D01*
X80668695Y-121840476D01*
X80763933Y-121792857D01*
X80811552Y-121697619D01*
X80811552Y-121554761D01*
X80859171Y-121459523D01*
X80954409Y-121411904D01*
X81002028Y-121411904D01*
X81097266Y-121459523D01*
X81144885Y-121554761D01*
X81144885Y-121697619D01*
X81097266Y-121792857D01*
X80525838Y-122650000D02*
X80478219Y-122554761D01*
X80478219Y-122364285D01*
X80525838Y-122269047D01*
X80621076Y-122221428D01*
X81002028Y-122221428D01*
X81097266Y-122269047D01*
X81144885Y-122364285D01*
X81144885Y-122554761D01*
X81097266Y-122650000D01*
X81002028Y-122697619D01*
X80906790Y-122697619D01*
X80811552Y-122221428D01*
X141872723Y-118023130D02*
X141301295Y-118023130D01*
X141587009Y-118023130D02*
X141587009Y-117023130D01*
X141491771Y-117165988D01*
X141396533Y-117261226D01*
X141301295Y-117308845D01*
X142491771Y-117023130D02*
X142587009Y-117023130D01*
X142682247Y-117070750D01*
X142729866Y-117118369D01*
X142777485Y-117213607D01*
X142825104Y-117404083D01*
X142825104Y-117642178D01*
X142777485Y-117832654D01*
X142729866Y-117927892D01*
X142682247Y-117975511D01*
X142587009Y-118023130D01*
X142491771Y-118023130D01*
X142396533Y-117975511D01*
X142348914Y-117927892D01*
X142301295Y-117832654D01*
X142253676Y-117642178D01*
X142253676Y-117404083D01*
X142301295Y-117213607D01*
X142348914Y-117118369D01*
X142396533Y-117070750D01*
X142491771Y-117023130D01*
X90855123Y-120679630D02*
X90283695Y-120679630D01*
X90569409Y-120679630D02*
X90569409Y-119679630D01*
X90474171Y-119822488D01*
X90378933Y-119917726D01*
X90283695Y-119965345D01*
X91807504Y-120679630D02*
X91236076Y-120679630D01*
X91521790Y-120679630D02*
X91521790Y-119679630D01*
X91426552Y-119822488D01*
X91331314Y-119917726D01*
X91236076Y-119965345D01*
X130032466Y-102023130D02*
X130699133Y-102023130D01*
X130270561Y-103023130D01*
X91236076Y-93012964D02*
X91236076Y-93679630D01*
X90997980Y-92632011D02*
X90759885Y-93346297D01*
X91378933Y-93346297D01*
X90855123Y-114679630D02*
X91045600Y-114679630D01*
X91140838Y-114632011D01*
X91188457Y-114584392D01*
X91283695Y-114441535D01*
X91331314Y-114251059D01*
X91331314Y-113870107D01*
X91283695Y-113774869D01*
X91236076Y-113727250D01*
X91140838Y-113679630D01*
X90950361Y-113679630D01*
X90855123Y-113727250D01*
X90807504Y-113774869D01*
X90759885Y-113870107D01*
X90759885Y-114108202D01*
X90807504Y-114203440D01*
X90855123Y-114251059D01*
X90950361Y-114298678D01*
X91140838Y-114298678D01*
X91236076Y-114251059D01*
X91283695Y-114203440D01*
X91331314Y-114108202D01*
X91236076Y-98679630D02*
X91045600Y-98679630D01*
X90950361Y-98727250D01*
X90902742Y-98774869D01*
X90807504Y-98917726D01*
X90759885Y-99108202D01*
X90759885Y-99489154D01*
X90807504Y-99584392D01*
X90855123Y-99632011D01*
X90950361Y-99679630D01*
X91140838Y-99679630D01*
X91236076Y-99632011D01*
X91283695Y-99584392D01*
X91331314Y-99489154D01*
X91331314Y-99251059D01*
X91283695Y-99155821D01*
X91236076Y-99108202D01*
X91140838Y-99060583D01*
X90950361Y-99060583D01*
X90855123Y-99108202D01*
X90807504Y-99155821D01*
X90759885Y-99251059D01*
D11*
X117647142Y-77283571D02*
X118504285Y-77283571D01*
X118075714Y-78783571D02*
X118075714Y-77283571D01*
X119218571Y-78783571D02*
X119075714Y-78712142D01*
X119004285Y-78640714D01*
X118932857Y-78497857D01*
X118932857Y-78069285D01*
X119004285Y-77926428D01*
X119075714Y-77855000D01*
X119218571Y-77783571D01*
X119432857Y-77783571D01*
X119575714Y-77855000D01*
X119647142Y-77926428D01*
X119718571Y-78069285D01*
X119718571Y-78497857D01*
X119647142Y-78640714D01*
X119575714Y-78712142D01*
X119432857Y-78783571D01*
X119218571Y-78783571D01*
X122004285Y-77997857D02*
X122218571Y-78069285D01*
X122290000Y-78140714D01*
X122361428Y-78283571D01*
X122361428Y-78497857D01*
X122290000Y-78640714D01*
X122218571Y-78712142D01*
X122075714Y-78783571D01*
X121504285Y-78783571D01*
X121504285Y-77283571D01*
X122004285Y-77283571D01*
X122147142Y-77355000D01*
X122218571Y-77426428D01*
X122290000Y-77569285D01*
X122290000Y-77712142D01*
X122218571Y-77855000D01*
X122147142Y-77926428D01*
X122004285Y-77997857D01*
X121504285Y-77997857D01*
X123004285Y-78783571D02*
X123004285Y-77283571D01*
X123575714Y-77283571D01*
X123718571Y-77355000D01*
X123790000Y-77426428D01*
X123861428Y-77569285D01*
X123861428Y-77783571D01*
X123790000Y-77926428D01*
X123718571Y-77997857D01*
X123575714Y-78069285D01*
X123004285Y-78069285D01*
X124432857Y-78712142D02*
X124647142Y-78783571D01*
X125004285Y-78783571D01*
X125147142Y-78712142D01*
X125218571Y-78640714D01*
X125290000Y-78497857D01*
X125290000Y-78355000D01*
X125218571Y-78212142D01*
X125147142Y-78140714D01*
X125004285Y-78069285D01*
X124718571Y-77997857D01*
X124575714Y-77926428D01*
X124504285Y-77855000D01*
X124432857Y-77712142D01*
X124432857Y-77569285D01*
X124504285Y-77426428D01*
X124575714Y-77355000D01*
X124718571Y-77283571D01*
X125075714Y-77283571D01*
X125290000Y-77355000D01*
X127075714Y-78783571D02*
X127075714Y-77283571D01*
X127575714Y-78355000D01*
X128075714Y-77283571D01*
X128075714Y-78783571D01*
X128790000Y-78783571D02*
X128790000Y-77783571D01*
X128790000Y-77283571D02*
X128718571Y-77355000D01*
X128790000Y-77426428D01*
X128861428Y-77355000D01*
X128790000Y-77283571D01*
X128790000Y-77426428D01*
X129504285Y-77783571D02*
X129504285Y-78783571D01*
X129504285Y-77926428D02*
X129575714Y-77855000D01*
X129718571Y-77783571D01*
X129932857Y-77783571D01*
X130075714Y-77855000D01*
X130147142Y-77997857D01*
X130147142Y-78783571D01*
X130861428Y-78783571D02*
X130861428Y-77783571D01*
X130861428Y-77283571D02*
X130790000Y-77355000D01*
X130861428Y-77426428D01*
X130932857Y-77355000D01*
X130861428Y-77283571D01*
X130861428Y-77426428D01*
X131790000Y-78783571D02*
X131647142Y-78712142D01*
X131575714Y-78640714D01*
X131504285Y-78497857D01*
X131504285Y-78069285D01*
X131575714Y-77926428D01*
X131647142Y-77855000D01*
X131790000Y-77783571D01*
X132004285Y-77783571D01*
X132147142Y-77855000D01*
X132218571Y-77926428D01*
X132290000Y-78069285D01*
X132290000Y-78497857D01*
X132218571Y-78640714D01*
X132147142Y-78712142D01*
X132004285Y-78783571D01*
X131790000Y-78783571D01*
X132932857Y-77783571D02*
X132932857Y-78783571D01*
X132932857Y-77926428D02*
X133004285Y-77855000D01*
X133147142Y-77783571D01*
X133361428Y-77783571D01*
X133504285Y-77855000D01*
X133575714Y-77997857D01*
X133575714Y-78783571D01*
X135932857Y-77997857D02*
X136147142Y-78069285D01*
X136218571Y-78140714D01*
X136290000Y-78283571D01*
X136290000Y-78497857D01*
X136218571Y-78640714D01*
X136147142Y-78712142D01*
X136004285Y-78783571D01*
X135432857Y-78783571D01*
X135432857Y-77283571D01*
X135932857Y-77283571D01*
X136075714Y-77355000D01*
X136147142Y-77426428D01*
X136218571Y-77569285D01*
X136218571Y-77712142D01*
X136147142Y-77855000D01*
X136075714Y-77926428D01*
X135932857Y-77997857D01*
X135432857Y-77997857D01*
X137147142Y-78783571D02*
X137004285Y-78712142D01*
X136932857Y-78640714D01*
X136861428Y-78497857D01*
X136861428Y-78069285D01*
X136932857Y-77926428D01*
X137004285Y-77855000D01*
X137147142Y-77783571D01*
X137361428Y-77783571D01*
X137504285Y-77855000D01*
X137575714Y-77926428D01*
X137647142Y-78069285D01*
X137647142Y-78497857D01*
X137575714Y-78640714D01*
X137504285Y-78712142D01*
X137361428Y-78783571D01*
X137147142Y-78783571D01*
X138932857Y-78783571D02*
X138932857Y-77997857D01*
X138861428Y-77855000D01*
X138718571Y-77783571D01*
X138432857Y-77783571D01*
X138290000Y-77855000D01*
X138932857Y-78712142D02*
X138790000Y-78783571D01*
X138432857Y-78783571D01*
X138290000Y-78712142D01*
X138218571Y-78569285D01*
X138218571Y-78426428D01*
X138290000Y-78283571D01*
X138432857Y-78212142D01*
X138790000Y-78212142D01*
X138932857Y-78140714D01*
X139647142Y-78783571D02*
X139647142Y-77783571D01*
X139647142Y-78069285D02*
X139718571Y-77926428D01*
X139790000Y-77855000D01*
X139932857Y-77783571D01*
X140075714Y-77783571D01*
X141218571Y-78783571D02*
X141218571Y-77283571D01*
X141218571Y-78712142D02*
X141075714Y-78783571D01*
X140790000Y-78783571D01*
X140647142Y-78712142D01*
X140575714Y-78640714D01*
X140504285Y-78497857D01*
X140504285Y-78069285D01*
X140575714Y-77926428D01*
X140647142Y-77855000D01*
X140790000Y-77783571D01*
X141075714Y-77783571D01*
X141218571Y-77855000D01*
D10*
X90712266Y-89679630D02*
X91331314Y-89679630D01*
X90997980Y-90060583D01*
X91140838Y-90060583D01*
X91236076Y-90108202D01*
X91283695Y-90155821D01*
X91331314Y-90251059D01*
X91331314Y-90489154D01*
X91283695Y-90584392D01*
X91236076Y-90632011D01*
X91140838Y-90679630D01*
X90855123Y-90679630D01*
X90759885Y-90632011D01*
X90712266Y-90584392D01*
X90855123Y-123679630D02*
X90283695Y-123679630D01*
X90569409Y-123679630D02*
X90569409Y-122679630D01*
X90474171Y-122822488D01*
X90378933Y-122917726D01*
X90283695Y-122965345D01*
X91236076Y-122774869D02*
X91283695Y-122727250D01*
X91378933Y-122679630D01*
X91617028Y-122679630D01*
X91712266Y-122727250D01*
X91759885Y-122774869D01*
X91807504Y-122870107D01*
X91807504Y-122965345D01*
X91759885Y-123108202D01*
X91188457Y-123679630D01*
X91807504Y-123679630D01*
X90712266Y-101679630D02*
X91378933Y-101679630D01*
X90950361Y-102679630D01*
X90855123Y-126721380D02*
X90283695Y-126721380D01*
X90569409Y-126721380D02*
X90569409Y-125721380D01*
X90474171Y-125864238D01*
X90378933Y-125959476D01*
X90283695Y-126007095D01*
X91188457Y-125721380D02*
X91807504Y-125721380D01*
X91474171Y-126102333D01*
X91617028Y-126102333D01*
X91712266Y-126149952D01*
X91759885Y-126197571D01*
X91807504Y-126292809D01*
X91807504Y-126530904D01*
X91759885Y-126626142D01*
X91712266Y-126673761D01*
X91617028Y-126721380D01*
X91331314Y-126721380D01*
X91236076Y-126673761D01*
X91188457Y-126626142D01*
X91283695Y-95679630D02*
X90807504Y-95679630D01*
X90759885Y-96155821D01*
X90807504Y-96108202D01*
X90902742Y-96060583D01*
X91140838Y-96060583D01*
X91236076Y-96108202D01*
X91283695Y-96155821D01*
X91331314Y-96251059D01*
X91331314Y-96489154D01*
X91283695Y-96584392D01*
X91236076Y-96632011D01*
X91140838Y-96679630D01*
X90902742Y-96679630D01*
X90807504Y-96632011D01*
X90759885Y-96584392D01*
X118262723Y-115023130D02*
X118453200Y-115023130D01*
X118548438Y-114975511D01*
X118596057Y-114927892D01*
X118691295Y-114785035D01*
X118738914Y-114594559D01*
X118738914Y-114213607D01*
X118691295Y-114118369D01*
X118643676Y-114070750D01*
X118548438Y-114023130D01*
X118357961Y-114023130D01*
X118262723Y-114070750D01*
X118215104Y-114118369D01*
X118167485Y-114213607D01*
X118167485Y-114451702D01*
X118215104Y-114546940D01*
X118262723Y-114594559D01*
X118357961Y-114642178D01*
X118548438Y-114642178D01*
X118643676Y-114594559D01*
X118691295Y-114546940D01*
X118738914Y-114451702D01*
X130270561Y-111451702D02*
X130175323Y-111404083D01*
X130127704Y-111356464D01*
X130080085Y-111261226D01*
X130080085Y-111213607D01*
X130127704Y-111118369D01*
X130175323Y-111070750D01*
X130270561Y-111023130D01*
X130461038Y-111023130D01*
X130556276Y-111070750D01*
X130603895Y-111118369D01*
X130651514Y-111213607D01*
X130651514Y-111261226D01*
X130603895Y-111356464D01*
X130556276Y-111404083D01*
X130461038Y-111451702D01*
X130270561Y-111451702D01*
X130175323Y-111499321D01*
X130127704Y-111546940D01*
X130080085Y-111642178D01*
X130080085Y-111832654D01*
X130127704Y-111927892D01*
X130175323Y-111975511D01*
X130270561Y-112023130D01*
X130461038Y-112023130D01*
X130556276Y-111975511D01*
X130603895Y-111927892D01*
X130651514Y-111832654D01*
X130651514Y-111642178D01*
X130603895Y-111546940D01*
X130556276Y-111499321D01*
X130461038Y-111451702D01*
X150142380Y-96899000D02*
X149142380Y-96899000D01*
X149142380Y-96518047D01*
X149190000Y-96422809D01*
X149237619Y-96375190D01*
X149332857Y-96327571D01*
X149475714Y-96327571D01*
X149570952Y-96375190D01*
X149618571Y-96422809D01*
X149666190Y-96518047D01*
X149666190Y-96899000D01*
X150142380Y-95899000D02*
X149475714Y-95899000D01*
X149666190Y-95899000D02*
X149570952Y-95851380D01*
X149523333Y-95803761D01*
X149475714Y-95708523D01*
X149475714Y-95613285D01*
X150142380Y-94851380D02*
X149618571Y-94851380D01*
X149523333Y-94899000D01*
X149475714Y-94994238D01*
X149475714Y-95184714D01*
X149523333Y-95279952D01*
X150094761Y-94851380D02*
X150142380Y-94946619D01*
X150142380Y-95184714D01*
X150094761Y-95279952D01*
X149999523Y-95327571D01*
X149904285Y-95327571D01*
X149809047Y-95279952D01*
X149761428Y-95184714D01*
X149761428Y-94946619D01*
X149713809Y-94851380D01*
X150142380Y-94375190D02*
X149475714Y-94375190D01*
X149570952Y-94375190D02*
X149523333Y-94327571D01*
X149475714Y-94232333D01*
X149475714Y-94089476D01*
X149523333Y-93994238D01*
X149618571Y-93946619D01*
X150142380Y-93946619D01*
X149618571Y-93946619D02*
X149523333Y-93899000D01*
X149475714Y-93803761D01*
X149475714Y-93660904D01*
X149523333Y-93565666D01*
X149618571Y-93518047D01*
X150142380Y-93518047D01*
X149475714Y-92613285D02*
X150142380Y-92613285D01*
X149475714Y-93041857D02*
X149999523Y-93041857D01*
X150094761Y-92994238D01*
X150142380Y-92899000D01*
X150142380Y-92756142D01*
X150094761Y-92660904D01*
X150047142Y-92613285D01*
X150142380Y-92137095D02*
X149142380Y-92137095D01*
X149761428Y-92041857D02*
X150142380Y-91756142D01*
X149475714Y-91756142D02*
X149856666Y-92137095D01*
X150142380Y-90899000D02*
X149618571Y-90899000D01*
X149523333Y-90946619D01*
X149475714Y-91041857D01*
X149475714Y-91232333D01*
X149523333Y-91327571D01*
X150094761Y-90899000D02*
X150142380Y-90994238D01*
X150142380Y-91232333D01*
X150094761Y-91327571D01*
X149999523Y-91375190D01*
X149904285Y-91375190D01*
X149809047Y-91327571D01*
X149761428Y-91232333D01*
X149761428Y-90994238D01*
X149713809Y-90899000D01*
X151085714Y-97137095D02*
X151752380Y-96946619D01*
X151276190Y-96756142D01*
X151752380Y-96565666D01*
X151085714Y-96375190D01*
X151752380Y-95565666D02*
X151228571Y-95565666D01*
X151133333Y-95613285D01*
X151085714Y-95708523D01*
X151085714Y-95899000D01*
X151133333Y-95994238D01*
X151704761Y-95565666D02*
X151752380Y-95660904D01*
X151752380Y-95899000D01*
X151704761Y-95994238D01*
X151609523Y-96041857D01*
X151514285Y-96041857D01*
X151419047Y-95994238D01*
X151371428Y-95899000D01*
X151371428Y-95660904D01*
X151323809Y-95565666D01*
X151704761Y-95137095D02*
X151752380Y-95041857D01*
X151752380Y-94851380D01*
X151704761Y-94756142D01*
X151609523Y-94708523D01*
X151561904Y-94708523D01*
X151466666Y-94756142D01*
X151419047Y-94851380D01*
X151419047Y-94994238D01*
X151371428Y-95089476D01*
X151276190Y-95137095D01*
X151228571Y-95137095D01*
X151133333Y-95089476D01*
X151085714Y-94994238D01*
X151085714Y-94851380D01*
X151133333Y-94756142D01*
X151752380Y-93518047D02*
X150752380Y-93518047D01*
X151752380Y-93089476D02*
X151228571Y-93089476D01*
X151133333Y-93137095D01*
X151085714Y-93232333D01*
X151085714Y-93375190D01*
X151133333Y-93470428D01*
X151180952Y-93518047D01*
X151704761Y-92232333D02*
X151752380Y-92327571D01*
X151752380Y-92518047D01*
X151704761Y-92613285D01*
X151609523Y-92660904D01*
X151228571Y-92660904D01*
X151133333Y-92613285D01*
X151085714Y-92518047D01*
X151085714Y-92327571D01*
X151133333Y-92232333D01*
X151228571Y-92184714D01*
X151323809Y-92184714D01*
X151419047Y-92660904D01*
X151752380Y-91756142D02*
X151085714Y-91756142D01*
X151276190Y-91756142D02*
X151180952Y-91708523D01*
X151133333Y-91660904D01*
X151085714Y-91565666D01*
X151085714Y-91470428D01*
X151704761Y-90756142D02*
X151752380Y-90851380D01*
X151752380Y-91041857D01*
X151704761Y-91137095D01*
X151609523Y-91184714D01*
X151228571Y-91184714D01*
X151133333Y-91137095D01*
X151085714Y-91041857D01*
X151085714Y-90851380D01*
X151133333Y-90756142D01*
X151228571Y-90708523D01*
X151323809Y-90708523D01*
X151419047Y-91184714D01*
X142348914Y-85023130D02*
X141777485Y-85023130D01*
X142063200Y-85023130D02*
X142063200Y-84023130D01*
X141967961Y-84165988D01*
X141872723Y-84261226D01*
X141777485Y-84308845D01*
X118643676Y-99023130D02*
X118453200Y-99023130D01*
X118357961Y-99070750D01*
X118310342Y-99118369D01*
X118215104Y-99261226D01*
X118167485Y-99451702D01*
X118167485Y-99832654D01*
X118215104Y-99927892D01*
X118262723Y-99975511D01*
X118357961Y-100023130D01*
X118548438Y-100023130D01*
X118643676Y-99975511D01*
X118691295Y-99927892D01*
X118738914Y-99832654D01*
X118738914Y-99594559D01*
X118691295Y-99499321D01*
X118643676Y-99451702D01*
X118548438Y-99404083D01*
X118357961Y-99404083D01*
X118262723Y-99451702D01*
X118215104Y-99499321D01*
X118167485Y-99594559D01*
X130175323Y-130023130D02*
X129603895Y-130023130D01*
X129889609Y-130023130D02*
X129889609Y-129023130D01*
X129794371Y-129165988D01*
X129699133Y-129261226D01*
X129603895Y-129308845D01*
X131032466Y-129356464D02*
X131032466Y-130023130D01*
X130794371Y-128975511D02*
X130556276Y-129689797D01*
X131175323Y-129689797D01*
X142253676Y-99023130D02*
X142063200Y-99023130D01*
X141967961Y-99070750D01*
X141920342Y-99118369D01*
X141825104Y-99261226D01*
X141777485Y-99451702D01*
X141777485Y-99832654D01*
X141825104Y-99927892D01*
X141872723Y-99975511D01*
X141967961Y-100023130D01*
X142158438Y-100023130D01*
X142253676Y-99975511D01*
X142301295Y-99927892D01*
X142348914Y-99832654D01*
X142348914Y-99594559D01*
X142301295Y-99499321D01*
X142253676Y-99451702D01*
X142158438Y-99404083D01*
X141967961Y-99404083D01*
X141872723Y-99451702D01*
X141825104Y-99499321D01*
X141777485Y-99594559D01*
X118643676Y-93356464D02*
X118643676Y-94023130D01*
X118405580Y-92975511D02*
X118167485Y-93689797D01*
X118786533Y-93689797D01*
X141872723Y-121023130D02*
X141301295Y-121023130D01*
X141587009Y-121023130D02*
X141587009Y-120023130D01*
X141491771Y-120165988D01*
X141396533Y-120261226D01*
X141301295Y-120308845D01*
X142825104Y-121023130D02*
X142253676Y-121023130D01*
X142539390Y-121023130D02*
X142539390Y-120023130D01*
X142444152Y-120165988D01*
X142348914Y-120261226D01*
X142253676Y-120308845D01*
D11*
X89841428Y-77283571D02*
X90698571Y-77283571D01*
X90270000Y-78783571D02*
X90270000Y-77283571D01*
X91412857Y-78783571D02*
X91270000Y-78712142D01*
X91198571Y-78640714D01*
X91127142Y-78497857D01*
X91127142Y-78069285D01*
X91198571Y-77926428D01*
X91270000Y-77855000D01*
X91412857Y-77783571D01*
X91627142Y-77783571D01*
X91770000Y-77855000D01*
X91841428Y-77926428D01*
X91912857Y-78069285D01*
X91912857Y-78497857D01*
X91841428Y-78640714D01*
X91770000Y-78712142D01*
X91627142Y-78783571D01*
X91412857Y-78783571D01*
X94198571Y-77997857D02*
X94412857Y-78069285D01*
X94484285Y-78140714D01*
X94555714Y-78283571D01*
X94555714Y-78497857D01*
X94484285Y-78640714D01*
X94412857Y-78712142D01*
X94270000Y-78783571D01*
X93698571Y-78783571D01*
X93698571Y-77283571D01*
X94198571Y-77283571D01*
X94341428Y-77355000D01*
X94412857Y-77426428D01*
X94484285Y-77569285D01*
X94484285Y-77712142D01*
X94412857Y-77855000D01*
X94341428Y-77926428D01*
X94198571Y-77997857D01*
X93698571Y-77997857D01*
X95841428Y-78783571D02*
X95841428Y-77997857D01*
X95770000Y-77855000D01*
X95627142Y-77783571D01*
X95341428Y-77783571D01*
X95198571Y-77855000D01*
X95841428Y-78712142D02*
X95698571Y-78783571D01*
X95341428Y-78783571D01*
X95198571Y-78712142D01*
X95127142Y-78569285D01*
X95127142Y-78426428D01*
X95198571Y-78283571D01*
X95341428Y-78212142D01*
X95698571Y-78212142D01*
X95841428Y-78140714D01*
X96341428Y-77783571D02*
X96912857Y-77783571D01*
X96555714Y-77283571D02*
X96555714Y-78569285D01*
X96627142Y-78712142D01*
X96770000Y-78783571D01*
X96912857Y-78783571D01*
X97198571Y-77783571D02*
X97770000Y-77783571D01*
X97412857Y-77283571D02*
X97412857Y-78569285D01*
X97484285Y-78712142D01*
X97627142Y-78783571D01*
X97770000Y-78783571D01*
X98841428Y-78712142D02*
X98698571Y-78783571D01*
X98412857Y-78783571D01*
X98270000Y-78712142D01*
X98198571Y-78569285D01*
X98198571Y-77997857D01*
X98270000Y-77855000D01*
X98412857Y-77783571D01*
X98698571Y-77783571D01*
X98841428Y-77855000D01*
X98912857Y-77997857D01*
X98912857Y-78140714D01*
X98198571Y-78283571D01*
X99555714Y-78783571D02*
X99555714Y-77783571D01*
X99555714Y-78069285D02*
X99627142Y-77926428D01*
X99698571Y-77855000D01*
X99841428Y-77783571D01*
X99984285Y-77783571D01*
X100484285Y-78783571D02*
X100484285Y-77783571D01*
X100484285Y-77283571D02*
X100412857Y-77355000D01*
X100484285Y-77426428D01*
X100555714Y-77355000D01*
X100484285Y-77283571D01*
X100484285Y-77426428D01*
X101770000Y-78712142D02*
X101627142Y-78783571D01*
X101341428Y-78783571D01*
X101198571Y-78712142D01*
X101127142Y-78569285D01*
X101127142Y-77997857D01*
X101198571Y-77855000D01*
X101341428Y-77783571D01*
X101627142Y-77783571D01*
X101770000Y-77855000D01*
X101841428Y-77997857D01*
X101841428Y-78140714D01*
X101127142Y-78283571D01*
X102412857Y-78712142D02*
X102555714Y-78783571D01*
X102841428Y-78783571D01*
X102984285Y-78712142D01*
X103055714Y-78569285D01*
X103055714Y-78497857D01*
X102984285Y-78355000D01*
X102841428Y-78283571D01*
X102627142Y-78283571D01*
X102484285Y-78212142D01*
X102412857Y-78069285D01*
X102412857Y-77997857D01*
X102484285Y-77855000D01*
X102627142Y-77783571D01*
X102841428Y-77783571D01*
X102984285Y-77855000D01*
D10*
X90759885Y-86774869D02*
X90807504Y-86727250D01*
X90902742Y-86679630D01*
X91140838Y-86679630D01*
X91236076Y-86727250D01*
X91283695Y-86774869D01*
X91331314Y-86870107D01*
X91331314Y-86965345D01*
X91283695Y-87108202D01*
X90712266Y-87679630D01*
X91331314Y-87679630D01*
X130175323Y-118023130D02*
X129603895Y-118023130D01*
X129889609Y-118023130D02*
X129889609Y-117023130D01*
X129794371Y-117165988D01*
X129699133Y-117261226D01*
X129603895Y-117308845D01*
X130794371Y-117023130D02*
X130889609Y-117023130D01*
X130984847Y-117070750D01*
X131032466Y-117118369D01*
X131080085Y-117213607D01*
X131127704Y-117404083D01*
X131127704Y-117642178D01*
X131080085Y-117832654D01*
X131032466Y-117927892D01*
X130984847Y-117975511D01*
X130889609Y-118023130D01*
X130794371Y-118023130D01*
X130699133Y-117975511D01*
X130651514Y-117927892D01*
X130603895Y-117832654D01*
X130556276Y-117642178D01*
X130556276Y-117404083D01*
X130603895Y-117213607D01*
X130651514Y-117118369D01*
X130699133Y-117070750D01*
X130794371Y-117023130D01*
X130603895Y-96023130D02*
X130127704Y-96023130D01*
X130080085Y-96499321D01*
X130127704Y-96451702D01*
X130222942Y-96404083D01*
X130461038Y-96404083D01*
X130556276Y-96451702D01*
X130603895Y-96499321D01*
X130651514Y-96594559D01*
X130651514Y-96832654D01*
X130603895Y-96927892D01*
X130556276Y-96975511D01*
X130461038Y-97023130D01*
X130222942Y-97023130D01*
X130127704Y-96975511D01*
X130080085Y-96927892D01*
X90950361Y-111108202D02*
X90855123Y-111060583D01*
X90807504Y-111012964D01*
X90759885Y-110917726D01*
X90759885Y-110870107D01*
X90807504Y-110774869D01*
X90855123Y-110727250D01*
X90950361Y-110679630D01*
X91140838Y-110679630D01*
X91236076Y-110727250D01*
X91283695Y-110774869D01*
X91331314Y-110870107D01*
X91331314Y-110917726D01*
X91283695Y-111012964D01*
X91236076Y-111060583D01*
X91140838Y-111108202D01*
X90950361Y-111108202D01*
X90855123Y-111155821D01*
X90807504Y-111203440D01*
X90759885Y-111298678D01*
X90759885Y-111489154D01*
X90807504Y-111584392D01*
X90855123Y-111632011D01*
X90950361Y-111679630D01*
X91140838Y-111679630D01*
X91236076Y-111632011D01*
X91283695Y-111584392D01*
X91331314Y-111489154D01*
X91331314Y-111298678D01*
X91283695Y-111203440D01*
X91236076Y-111155821D01*
X91140838Y-111108202D01*
X118167485Y-87118369D02*
X118215104Y-87070750D01*
X118310342Y-87023130D01*
X118548438Y-87023130D01*
X118643676Y-87070750D01*
X118691295Y-87118369D01*
X118738914Y-87213607D01*
X118738914Y-87308845D01*
X118691295Y-87451702D01*
X118119866Y-88023130D01*
X118738914Y-88023130D01*
X141872723Y-115023130D02*
X142063200Y-115023130D01*
X142158438Y-114975511D01*
X142206057Y-114927892D01*
X142301295Y-114785035D01*
X142348914Y-114594559D01*
X142348914Y-114213607D01*
X142301295Y-114118369D01*
X142253676Y-114070750D01*
X142158438Y-114023130D01*
X141967961Y-114023130D01*
X141872723Y-114070750D01*
X141825104Y-114118369D01*
X141777485Y-114213607D01*
X141777485Y-114451702D01*
X141825104Y-114546940D01*
X141872723Y-114594559D01*
X141967961Y-114642178D01*
X142158438Y-114642178D01*
X142253676Y-114594559D01*
X142301295Y-114546940D01*
X142348914Y-114451702D01*
X142253676Y-93356464D02*
X142253676Y-94023130D01*
X142015580Y-92975511D02*
X141777485Y-93689797D01*
X142396533Y-93689797D01*
D11*
X93885952Y-134216361D02*
X93885952Y-135835409D01*
X93981190Y-136025885D01*
X94076428Y-136121123D01*
X94266904Y-136216361D01*
X94647857Y-136216361D01*
X94838333Y-136121123D01*
X94933571Y-136025885D01*
X95028809Y-135835409D01*
X95028809Y-134216361D01*
X95695476Y-134216361D02*
X96838333Y-134216361D01*
X96266904Y-136216361D02*
X96266904Y-134216361D01*
X97409761Y-136121123D02*
X97695476Y-136216361D01*
X98171666Y-136216361D01*
X98362142Y-136121123D01*
X98457380Y-136025885D01*
X98552619Y-135835409D01*
X98552619Y-135644933D01*
X98457380Y-135454457D01*
X98362142Y-135359219D01*
X98171666Y-135263980D01*
X97790714Y-135168742D01*
X97600238Y-135073504D01*
X97505000Y-134978266D01*
X97409761Y-134787790D01*
X97409761Y-134597314D01*
X97505000Y-134406838D01*
X97600238Y-134311600D01*
X97790714Y-134216361D01*
X98266904Y-134216361D01*
X98552619Y-134311600D01*
X99124047Y-134216361D02*
X99790714Y-136216361D01*
X100457380Y-134216361D01*
X100838333Y-134216361D02*
X101981190Y-134216361D01*
X101409761Y-136216361D02*
X101409761Y-134216361D01*
X104171666Y-135454457D02*
X105695476Y-135454457D01*
X108838333Y-135168742D02*
X109124047Y-135263980D01*
X109219285Y-135359219D01*
X109314523Y-135549695D01*
X109314523Y-135835409D01*
X109219285Y-136025885D01*
X109124047Y-136121123D01*
X108933571Y-136216361D01*
X108171666Y-136216361D01*
X108171666Y-134216361D01*
X108838333Y-134216361D01*
X109028809Y-134311600D01*
X109124047Y-134406838D01*
X109219285Y-134597314D01*
X109219285Y-134787790D01*
X109124047Y-134978266D01*
X109028809Y-135073504D01*
X108838333Y-135168742D01*
X108171666Y-135168742D01*
X110171666Y-136216361D02*
X110171666Y-134216361D01*
X110933571Y-134216361D01*
X111124047Y-134311600D01*
X111219285Y-134406838D01*
X111314523Y-134597314D01*
X111314523Y-134883028D01*
X111219285Y-135073504D01*
X111124047Y-135168742D01*
X110933571Y-135263980D01*
X110171666Y-135263980D01*
X112076428Y-136121123D02*
X112362142Y-136216361D01*
X112838333Y-136216361D01*
X113028809Y-136121123D01*
X113124047Y-136025885D01*
X113219285Y-135835409D01*
X113219285Y-135644933D01*
X113124047Y-135454457D01*
X113028809Y-135359219D01*
X112838333Y-135263980D01*
X112457380Y-135168742D01*
X112266904Y-135073504D01*
X112171666Y-134978266D01*
X112076428Y-134787790D01*
X112076428Y-134597314D01*
X112171666Y-134406838D01*
X112266904Y-134311600D01*
X112457380Y-134216361D01*
X112933571Y-134216361D01*
X113219285Y-134311600D01*
X90076428Y-139341123D02*
X90362142Y-139436361D01*
X90838333Y-139436361D01*
X91028809Y-139341123D01*
X91124047Y-139245885D01*
X91219285Y-139055409D01*
X91219285Y-138864933D01*
X91124047Y-138674457D01*
X91028809Y-138579219D01*
X90838333Y-138483980D01*
X90457380Y-138388742D01*
X90266904Y-138293504D01*
X90171666Y-138198266D01*
X90076428Y-138007790D01*
X90076428Y-137817314D01*
X90171666Y-137626838D01*
X90266904Y-137531600D01*
X90457380Y-137436361D01*
X90933571Y-137436361D01*
X91219285Y-137531600D01*
X92933571Y-139341123D02*
X92743095Y-139436361D01*
X92362142Y-139436361D01*
X92171666Y-139341123D01*
X92076428Y-139245885D01*
X91981190Y-139055409D01*
X91981190Y-138483980D01*
X92076428Y-138293504D01*
X92171666Y-138198266D01*
X92362142Y-138103028D01*
X92743095Y-138103028D01*
X92933571Y-138198266D01*
X93790714Y-139436361D02*
X93790714Y-138103028D01*
X93790714Y-138483980D02*
X93885952Y-138293504D01*
X93981190Y-138198266D01*
X94171666Y-138103028D01*
X94362142Y-138103028D01*
X95885952Y-138103028D02*
X95885952Y-139436361D01*
X95028809Y-138103028D02*
X95028809Y-139150647D01*
X95124047Y-139341123D01*
X95314523Y-139436361D01*
X95600238Y-139436361D01*
X95790714Y-139341123D01*
X95885952Y-139245885D01*
X96552619Y-138103028D02*
X97314523Y-138103028D01*
X96838333Y-137436361D02*
X96838333Y-139150647D01*
X96933571Y-139341123D01*
X97124047Y-139436361D01*
X97314523Y-139436361D01*
X97981190Y-139436361D02*
X97981190Y-138103028D01*
X97981190Y-137436361D02*
X97885952Y-137531600D01*
X97981190Y-137626838D01*
X98076428Y-137531600D01*
X97981190Y-137436361D01*
X97981190Y-137626838D01*
X98933571Y-138103028D02*
X98933571Y-139436361D01*
X98933571Y-138293504D02*
X99028809Y-138198266D01*
X99219285Y-138103028D01*
X99505000Y-138103028D01*
X99695476Y-138198266D01*
X99790714Y-138388742D01*
X99790714Y-139436361D01*
X101505000Y-139341123D02*
X101314523Y-139436361D01*
X100933571Y-139436361D01*
X100743095Y-139341123D01*
X100647857Y-139150647D01*
X100647857Y-138388742D01*
X100743095Y-138198266D01*
X100933571Y-138103028D01*
X101314523Y-138103028D01*
X101505000Y-138198266D01*
X101600238Y-138388742D01*
X101600238Y-138579219D01*
X100647857Y-138769695D01*
X103219285Y-139341123D02*
X103028809Y-139436361D01*
X102647857Y-139436361D01*
X102457380Y-139341123D01*
X102362142Y-139150647D01*
X102362142Y-138388742D01*
X102457380Y-138198266D01*
X102647857Y-138103028D01*
X103028809Y-138103028D01*
X103219285Y-138198266D01*
X103314523Y-138388742D01*
X103314523Y-138579219D01*
X102362142Y-138769695D01*
X104171666Y-139436361D02*
X104171666Y-138103028D01*
X104171666Y-138483980D02*
X104266904Y-138293504D01*
X104362142Y-138198266D01*
X104552619Y-138103028D01*
X104743095Y-138103028D01*
X105409761Y-139436361D02*
X105409761Y-138103028D01*
X105409761Y-137436361D02*
X105314523Y-137531600D01*
X105409761Y-137626838D01*
X105505000Y-137531600D01*
X105409761Y-137436361D01*
X105409761Y-137626838D01*
X106362142Y-138103028D02*
X106362142Y-139436361D01*
X106362142Y-138293504D02*
X106457380Y-138198266D01*
X106647857Y-138103028D01*
X106933571Y-138103028D01*
X107124047Y-138198266D01*
X107219285Y-138388742D01*
X107219285Y-139436361D01*
X109028809Y-138103028D02*
X109028809Y-139722076D01*
X108933571Y-139912552D01*
X108838333Y-140007790D01*
X108647857Y-140103028D01*
X108362142Y-140103028D01*
X108171666Y-140007790D01*
X109028809Y-139341123D02*
X108838333Y-139436361D01*
X108457380Y-139436361D01*
X108266904Y-139341123D01*
X108171666Y-139245885D01*
X108076428Y-139055409D01*
X108076428Y-138483980D01*
X108171666Y-138293504D01*
X108266904Y-138198266D01*
X108457380Y-138103028D01*
X108838333Y-138103028D01*
X109028809Y-138198266D01*
X111314523Y-138103028D02*
X111790714Y-139436361D01*
X112266904Y-138103028D01*
X112933571Y-137626838D02*
X113028809Y-137531600D01*
X113219285Y-137436361D01*
X113695476Y-137436361D01*
X113885952Y-137531600D01*
X113981190Y-137626838D01*
X114076428Y-137817314D01*
X114076428Y-138007790D01*
X113981190Y-138293504D01*
X112838333Y-139436361D01*
X114076428Y-139436361D01*
X114933571Y-139245885D02*
X115028809Y-139341123D01*
X114933571Y-139436361D01*
X114838333Y-139341123D01*
X114933571Y-139245885D01*
X114933571Y-139436361D01*
X116266904Y-137436361D02*
X116457380Y-137436361D01*
X116647857Y-137531600D01*
X116743095Y-137626838D01*
X116838333Y-137817314D01*
X116933571Y-138198266D01*
X116933571Y-138674457D01*
X116838333Y-139055409D01*
X116743095Y-139245885D01*
X116647857Y-139341123D01*
X116457380Y-139436361D01*
X116266904Y-139436361D01*
X116076428Y-139341123D01*
X115981190Y-139245885D01*
X115885952Y-139055409D01*
X115790714Y-138674457D01*
X115790714Y-138198266D01*
X115885952Y-137817314D01*
X115981190Y-137626838D01*
X116076428Y-137531600D01*
X116266904Y-137436361D01*
X97266904Y-141608742D02*
X96600238Y-141608742D01*
X96600238Y-142656361D02*
X96600238Y-140656361D01*
X97552619Y-140656361D01*
X99171666Y-142656361D02*
X99171666Y-141608742D01*
X99076428Y-141418266D01*
X98885952Y-141323028D01*
X98505000Y-141323028D01*
X98314523Y-141418266D01*
X99171666Y-142561123D02*
X98981190Y-142656361D01*
X98505000Y-142656361D01*
X98314523Y-142561123D01*
X98219285Y-142370647D01*
X98219285Y-142180171D01*
X98314523Y-141989695D01*
X98505000Y-141894457D01*
X98981190Y-141894457D01*
X99171666Y-141799219D01*
X100409761Y-142656361D02*
X100219285Y-142561123D01*
X100124047Y-142370647D01*
X100124047Y-140656361D01*
X101457380Y-142656361D02*
X101266904Y-142561123D01*
X101171666Y-142370647D01*
X101171666Y-140656361D01*
X103647857Y-140846838D02*
X103743095Y-140751600D01*
X103933571Y-140656361D01*
X104409761Y-140656361D01*
X104600238Y-140751600D01*
X104695476Y-140846838D01*
X104790714Y-141037314D01*
X104790714Y-141227790D01*
X104695476Y-141513504D01*
X103552619Y-142656361D01*
X104790714Y-142656361D01*
X106028809Y-140656361D02*
X106219285Y-140656361D01*
X106409761Y-140751600D01*
X106505000Y-140846838D01*
X106600238Y-141037314D01*
X106695476Y-141418266D01*
X106695476Y-141894457D01*
X106600238Y-142275409D01*
X106505000Y-142465885D01*
X106409761Y-142561123D01*
X106219285Y-142656361D01*
X106028809Y-142656361D01*
X105838333Y-142561123D01*
X105743095Y-142465885D01*
X105647857Y-142275409D01*
X105552619Y-141894457D01*
X105552619Y-141418266D01*
X105647857Y-141037314D01*
X105743095Y-140846838D01*
X105838333Y-140751600D01*
X106028809Y-140656361D01*
X107457380Y-140846838D02*
X107552619Y-140751600D01*
X107743095Y-140656361D01*
X108219285Y-140656361D01*
X108409761Y-140751600D01*
X108505000Y-140846838D01*
X108600238Y-141037314D01*
X108600238Y-141227790D01*
X108505000Y-141513504D01*
X107362142Y-142656361D01*
X108600238Y-142656361D01*
X109362142Y-140846838D02*
X109457380Y-140751600D01*
X109647857Y-140656361D01*
X110124047Y-140656361D01*
X110314523Y-140751600D01*
X110409761Y-140846838D01*
X110505000Y-141037314D01*
X110505000Y-141227790D01*
X110409761Y-141513504D01*
X109266904Y-142656361D01*
X110505000Y-142656361D01*
D10*
X90855123Y-129721380D02*
X90283695Y-129721380D01*
X90569409Y-129721380D02*
X90569409Y-128721380D01*
X90474171Y-128864238D01*
X90378933Y-128959476D01*
X90283695Y-129007095D01*
X91712266Y-129054714D02*
X91712266Y-129721380D01*
X91474171Y-128673761D02*
X91236076Y-129388047D01*
X91855123Y-129388047D01*
X130175323Y-124023130D02*
X129603895Y-124023130D01*
X129889609Y-124023130D02*
X129889609Y-123023130D01*
X129794371Y-123165988D01*
X129699133Y-123261226D01*
X129603895Y-123308845D01*
X130556276Y-123118369D02*
X130603895Y-123070750D01*
X130699133Y-123023130D01*
X130937228Y-123023130D01*
X131032466Y-123070750D01*
X131080085Y-123118369D01*
X131127704Y-123213607D01*
X131127704Y-123308845D01*
X131080085Y-123451702D01*
X130508657Y-124023130D01*
X131127704Y-124023130D01*
X141967961Y-111451702D02*
X141872723Y-111404083D01*
X141825104Y-111356464D01*
X141777485Y-111261226D01*
X141777485Y-111213607D01*
X141825104Y-111118369D01*
X141872723Y-111070750D01*
X141967961Y-111023130D01*
X142158438Y-111023130D01*
X142253676Y-111070750D01*
X142301295Y-111118369D01*
X142348914Y-111213607D01*
X142348914Y-111261226D01*
X142301295Y-111356464D01*
X142253676Y-111404083D01*
X142158438Y-111451702D01*
X141967961Y-111451702D01*
X141872723Y-111499321D01*
X141825104Y-111546940D01*
X141777485Y-111642178D01*
X141777485Y-111832654D01*
X141825104Y-111927892D01*
X141872723Y-111975511D01*
X141967961Y-112023130D01*
X142158438Y-112023130D01*
X142253676Y-111975511D01*
X142301295Y-111927892D01*
X142348914Y-111832654D01*
X142348914Y-111642178D01*
X142301295Y-111546940D01*
X142253676Y-111499321D01*
X142158438Y-111451702D01*
X130032466Y-90023130D02*
X130651514Y-90023130D01*
X130318180Y-90404083D01*
X130461038Y-90404083D01*
X130556276Y-90451702D01*
X130603895Y-90499321D01*
X130651514Y-90594559D01*
X130651514Y-90832654D01*
X130603895Y-90927892D01*
X130556276Y-90975511D01*
X130461038Y-91023130D01*
X130175323Y-91023130D01*
X130080085Y-90975511D01*
X130032466Y-90927892D01*
X90855123Y-117679630D02*
X90283695Y-117679630D01*
X90569409Y-117679630D02*
X90569409Y-116679630D01*
X90474171Y-116822488D01*
X90378933Y-116917726D01*
X90283695Y-116965345D01*
X91474171Y-116679630D02*
X91569409Y-116679630D01*
X91664647Y-116727250D01*
X91712266Y-116774869D01*
X91759885Y-116870107D01*
X91807504Y-117060583D01*
X91807504Y-117298678D01*
X91759885Y-117489154D01*
X91712266Y-117584392D01*
X91664647Y-117632011D01*
X91569409Y-117679630D01*
X91474171Y-117679630D01*
X91378933Y-117632011D01*
X91331314Y-117584392D01*
X91283695Y-117489154D01*
X91236076Y-117298678D01*
X91236076Y-117060583D01*
X91283695Y-116870107D01*
X91331314Y-116774869D01*
X91378933Y-116727250D01*
X91474171Y-116679630D01*
X118262723Y-121023130D02*
X117691295Y-121023130D01*
X117977009Y-121023130D02*
X117977009Y-120023130D01*
X117881771Y-120165988D01*
X117786533Y-120261226D01*
X117691295Y-120308845D01*
X119215104Y-121023130D02*
X118643676Y-121023130D01*
X118929390Y-121023130D02*
X118929390Y-120023130D01*
X118834152Y-120165988D01*
X118738914Y-120261226D01*
X118643676Y-120308845D01*
X141872723Y-127023130D02*
X141301295Y-127023130D01*
X141587009Y-127023130D02*
X141587009Y-126023130D01*
X141491771Y-126165988D01*
X141396533Y-126261226D01*
X141301295Y-126308845D01*
X142206057Y-126023130D02*
X142825104Y-126023130D01*
X142491771Y-126404083D01*
X142634628Y-126404083D01*
X142729866Y-126451702D01*
X142777485Y-126499321D01*
X142825104Y-126594559D01*
X142825104Y-126832654D01*
X142777485Y-126927892D01*
X142729866Y-126975511D01*
X142634628Y-127023130D01*
X142348914Y-127023130D01*
X142253676Y-126975511D01*
X142206057Y-126927892D01*
X142301295Y-96023130D02*
X141825104Y-96023130D01*
X141777485Y-96499321D01*
X141825104Y-96451702D01*
X141920342Y-96404083D01*
X142158438Y-96404083D01*
X142253676Y-96451702D01*
X142301295Y-96499321D01*
X142348914Y-96594559D01*
X142348914Y-96832654D01*
X142301295Y-96927892D01*
X142253676Y-96975511D01*
X142158438Y-97023130D01*
X141920342Y-97023130D01*
X141825104Y-96975511D01*
X141777485Y-96927892D01*
X141872723Y-130023130D02*
X141301295Y-130023130D01*
X141587009Y-130023130D02*
X141587009Y-129023130D01*
X141491771Y-129165988D01*
X141396533Y-129261226D01*
X141301295Y-129308845D01*
X142729866Y-129356464D02*
X142729866Y-130023130D01*
X142491771Y-128975511D02*
X142253676Y-129689797D01*
X142872723Y-129689797D01*
X141729866Y-90023130D02*
X142348914Y-90023130D01*
X142015580Y-90404083D01*
X142158438Y-90404083D01*
X142253676Y-90451702D01*
X142301295Y-90499321D01*
X142348914Y-90594559D01*
X142348914Y-90832654D01*
X142301295Y-90927892D01*
X142253676Y-90975511D01*
X142158438Y-91023130D01*
X141872723Y-91023130D01*
X141777485Y-90975511D01*
X141729866Y-90927892D01*
X141729866Y-102023130D02*
X142396533Y-102023130D01*
X141967961Y-103023130D01*
X141872723Y-124023130D02*
X141301295Y-124023130D01*
X141587009Y-124023130D02*
X141587009Y-123023130D01*
X141491771Y-123165988D01*
X141396533Y-123261226D01*
X141301295Y-123308845D01*
X142253676Y-123118369D02*
X142301295Y-123070750D01*
X142396533Y-123023130D01*
X142634628Y-123023130D01*
X142729866Y-123070750D01*
X142777485Y-123118369D01*
X142825104Y-123213607D01*
X142825104Y-123308845D01*
X142777485Y-123451702D01*
X142206057Y-124023130D01*
X142825104Y-124023130D01*
X118262723Y-127023130D02*
X117691295Y-127023130D01*
X117977009Y-127023130D02*
X117977009Y-126023130D01*
X117881771Y-126165988D01*
X117786533Y-126261226D01*
X117691295Y-126308845D01*
X118596057Y-126023130D02*
X119215104Y-126023130D01*
X118881771Y-126404083D01*
X119024628Y-126404083D01*
X119119866Y-126451702D01*
X119167485Y-126499321D01*
X119215104Y-126594559D01*
X119215104Y-126832654D01*
X119167485Y-126927892D01*
X119119866Y-126975511D01*
X119024628Y-127023130D01*
X118738914Y-127023130D01*
X118643676Y-126975511D01*
X118596057Y-126927892D01*
X141777485Y-87118369D02*
X141825104Y-87070750D01*
X141920342Y-87023130D01*
X142158438Y-87023130D01*
X142253676Y-87070750D01*
X142301295Y-87118369D01*
X142348914Y-87213607D01*
X142348914Y-87308845D01*
X142301295Y-87451702D01*
X141729866Y-88023130D01*
X142348914Y-88023130D01*
X130651514Y-85023130D02*
X130080085Y-85023130D01*
X130365800Y-85023130D02*
X130365800Y-84023130D01*
X130270561Y-84165988D01*
X130175323Y-84261226D01*
X130080085Y-84308845D01*
X91331314Y-84679630D02*
X90759885Y-84679630D01*
X91045600Y-84679630D02*
X91045600Y-83679630D01*
X90950361Y-83822488D01*
X90855123Y-83917726D01*
X90759885Y-83965345D01*
D12*
%TO.C,JC1*%
X83482266Y-104703523D02*
X83482266Y-105610666D01*
X83421790Y-105792095D01*
X83300838Y-105913047D01*
X83119409Y-105973523D01*
X82998457Y-105973523D01*
X84812742Y-105852571D02*
X84752266Y-105913047D01*
X84570838Y-105973523D01*
X84449885Y-105973523D01*
X84268457Y-105913047D01*
X84147504Y-105792095D01*
X84087028Y-105671142D01*
X84026552Y-105429238D01*
X84026552Y-105247809D01*
X84087028Y-105005904D01*
X84147504Y-104884952D01*
X84268457Y-104764000D01*
X84449885Y-104703523D01*
X84570838Y-104703523D01*
X84752266Y-104764000D01*
X84812742Y-104824476D01*
X86022266Y-105973523D02*
X85296552Y-105973523D01*
X85659409Y-105973523D02*
X85659409Y-104703523D01*
X85538457Y-104884952D01*
X85417504Y-105005904D01*
X85296552Y-105066380D01*
%TO.C,JC2*%
X147482266Y-80875273D02*
X147482266Y-81782416D01*
X147421790Y-81963845D01*
X147300838Y-82084797D01*
X147119409Y-82145273D01*
X146998457Y-82145273D01*
X148812742Y-82024321D02*
X148752266Y-82084797D01*
X148570838Y-82145273D01*
X148449885Y-82145273D01*
X148268457Y-82084797D01*
X148147504Y-81963845D01*
X148087028Y-81842892D01*
X148026552Y-81600988D01*
X148026552Y-81419559D01*
X148087028Y-81177654D01*
X148147504Y-81056702D01*
X148268457Y-80935750D01*
X148449885Y-80875273D01*
X148570838Y-80875273D01*
X148752266Y-80935750D01*
X148812742Y-80996226D01*
X149296552Y-80996226D02*
X149357028Y-80935750D01*
X149477980Y-80875273D01*
X149780361Y-80875273D01*
X149901314Y-80935750D01*
X149961790Y-80996226D01*
X150022266Y-81117178D01*
X150022266Y-81238130D01*
X149961790Y-81419559D01*
X149236076Y-82145273D01*
X150022266Y-82145273D01*
%TO.C,SW1*%
X108499666Y-82362097D02*
X108681095Y-82422573D01*
X108983476Y-82422573D01*
X109104428Y-82362097D01*
X109164904Y-82301621D01*
X109225380Y-82180669D01*
X109225380Y-82059716D01*
X109164904Y-81938764D01*
X109104428Y-81878288D01*
X108983476Y-81817811D01*
X108741571Y-81757335D01*
X108620619Y-81696859D01*
X108560142Y-81636383D01*
X108499666Y-81515430D01*
X108499666Y-81394478D01*
X108560142Y-81273526D01*
X108620619Y-81213050D01*
X108741571Y-81152573D01*
X109043952Y-81152573D01*
X109225380Y-81213050D01*
X109648714Y-81152573D02*
X109951095Y-82422573D01*
X110193000Y-81515430D01*
X110434904Y-82422573D01*
X110737285Y-81152573D01*
X111886333Y-82422573D02*
X111160619Y-82422573D01*
X111523476Y-82422573D02*
X111523476Y-81152573D01*
X111402523Y-81334002D01*
X111281571Y-81454954D01*
X111160619Y-81515430D01*
%TO.C,SW2*%
X108347266Y-109362097D02*
X108528695Y-109422573D01*
X108831076Y-109422573D01*
X108952028Y-109362097D01*
X109012504Y-109301621D01*
X109072980Y-109180669D01*
X109072980Y-109059716D01*
X109012504Y-108938764D01*
X108952028Y-108878288D01*
X108831076Y-108817811D01*
X108589171Y-108757335D01*
X108468219Y-108696859D01*
X108407742Y-108636383D01*
X108347266Y-108515430D01*
X108347266Y-108394478D01*
X108407742Y-108273526D01*
X108468219Y-108213050D01*
X108589171Y-108152573D01*
X108891552Y-108152573D01*
X109072980Y-108213050D01*
X109496314Y-108152573D02*
X109798695Y-109422573D01*
X110040600Y-108515430D01*
X110282504Y-109422573D01*
X110584885Y-108152573D01*
X111008219Y-108273526D02*
X111068695Y-108213050D01*
X111189647Y-108152573D01*
X111492028Y-108152573D01*
X111612980Y-108213050D01*
X111673457Y-108273526D01*
X111733933Y-108394478D01*
X111733933Y-108515430D01*
X111673457Y-108696859D01*
X110947742Y-109422573D01*
X111733933Y-109422573D01*
%TO.C,JC4*%
X147482266Y-107703523D02*
X147482266Y-108610666D01*
X147421790Y-108792095D01*
X147300838Y-108913047D01*
X147119409Y-108973523D01*
X146998457Y-108973523D01*
X148812742Y-108852571D02*
X148752266Y-108913047D01*
X148570838Y-108973523D01*
X148449885Y-108973523D01*
X148268457Y-108913047D01*
X148147504Y-108792095D01*
X148087028Y-108671142D01*
X148026552Y-108429238D01*
X148026552Y-108247809D01*
X148087028Y-108005904D01*
X148147504Y-107884952D01*
X148268457Y-107764000D01*
X148449885Y-107703523D01*
X148570838Y-107703523D01*
X148752266Y-107764000D01*
X148812742Y-107824476D01*
X149901314Y-108126857D02*
X149901314Y-108973523D01*
X149598933Y-107643047D02*
X149296552Y-108550190D01*
X150082742Y-108550190D01*
%TO.C,F15*%
X99512504Y-83308285D02*
X99089171Y-83308285D01*
X99089171Y-83973523D02*
X99089171Y-82703523D01*
X99693933Y-82703523D01*
X100842980Y-83973523D02*
X100117266Y-83973523D01*
X100480123Y-83973523D02*
X100480123Y-82703523D01*
X100359171Y-82884952D01*
X100238219Y-83005904D01*
X100117266Y-83066380D01*
X101992028Y-82703523D02*
X101387266Y-82703523D01*
X101326790Y-83308285D01*
X101387266Y-83247809D01*
X101508219Y-83187333D01*
X101810600Y-83187333D01*
X101931552Y-83247809D01*
X101992028Y-83308285D01*
X102052504Y-83429238D01*
X102052504Y-83731619D01*
X101992028Y-83852571D01*
X101931552Y-83913047D01*
X101810600Y-83973523D01*
X101508219Y-83973523D01*
X101387266Y-83913047D01*
X101326790Y-83852571D01*
%TO.C,F14*%
X132012504Y-128308285D02*
X131589171Y-128308285D01*
X131589171Y-128973523D02*
X131589171Y-127703523D01*
X132193933Y-127703523D01*
X133342980Y-128973523D02*
X132617266Y-128973523D01*
X132980123Y-128973523D02*
X132980123Y-127703523D01*
X132859171Y-127884952D01*
X132738219Y-128005904D01*
X132617266Y-128066380D01*
X134431552Y-128126857D02*
X134431552Y-128973523D01*
X134129171Y-127643047D02*
X133826790Y-128550190D01*
X134612980Y-128550190D01*
%TO.C,F27*%
X99512504Y-125308285D02*
X99089171Y-125308285D01*
X99089171Y-125973523D02*
X99089171Y-124703523D01*
X99693933Y-124703523D01*
X100117266Y-124824476D02*
X100177742Y-124764000D01*
X100298695Y-124703523D01*
X100601076Y-124703523D01*
X100722028Y-124764000D01*
X100782504Y-124824476D01*
X100842980Y-124945428D01*
X100842980Y-125066380D01*
X100782504Y-125247809D01*
X100056790Y-125973523D01*
X100842980Y-125973523D01*
X101266314Y-124703523D02*
X102112980Y-124703523D01*
X101568695Y-125973523D01*
%TO.C,F25*%
X99512504Y-119308285D02*
X99089171Y-119308285D01*
X99089171Y-119973523D02*
X99089171Y-118703523D01*
X99693933Y-118703523D01*
X100117266Y-118824476D02*
X100177742Y-118764000D01*
X100298695Y-118703523D01*
X100601076Y-118703523D01*
X100722028Y-118764000D01*
X100782504Y-118824476D01*
X100842980Y-118945428D01*
X100842980Y-119066380D01*
X100782504Y-119247809D01*
X100056790Y-119973523D01*
X100842980Y-119973523D01*
X101992028Y-118703523D02*
X101387266Y-118703523D01*
X101326790Y-119308285D01*
X101387266Y-119247809D01*
X101508219Y-119187333D01*
X101810600Y-119187333D01*
X101931552Y-119247809D01*
X101992028Y-119308285D01*
X102052504Y-119429238D01*
X102052504Y-119731619D01*
X101992028Y-119852571D01*
X101931552Y-119913047D01*
X101810600Y-119973523D01*
X101508219Y-119973523D01*
X101387266Y-119913047D01*
X101326790Y-119852571D01*
D10*
%TO.C,TP8*%
X126301295Y-109025130D02*
X126872723Y-109025130D01*
X126587009Y-110025130D02*
X126587009Y-109025130D01*
X127206057Y-110025130D02*
X127206057Y-109025130D01*
X127587009Y-109025130D01*
X127682247Y-109072750D01*
X127729866Y-109120369D01*
X127777485Y-109215607D01*
X127777485Y-109358464D01*
X127729866Y-109453702D01*
X127682247Y-109501321D01*
X127587009Y-109548940D01*
X127206057Y-109548940D01*
X128348914Y-109453702D02*
X128253676Y-109406083D01*
X128206057Y-109358464D01*
X128158438Y-109263226D01*
X128158438Y-109215607D01*
X128206057Y-109120369D01*
X128253676Y-109072750D01*
X128348914Y-109025130D01*
X128539390Y-109025130D01*
X128634628Y-109072750D01*
X128682247Y-109120369D01*
X128729866Y-109215607D01*
X128729866Y-109263226D01*
X128682247Y-109358464D01*
X128634628Y-109406083D01*
X128539390Y-109453702D01*
X128348914Y-109453702D01*
X128253676Y-109501321D01*
X128206057Y-109548940D01*
X128158438Y-109644178D01*
X128158438Y-109834654D01*
X128206057Y-109929892D01*
X128253676Y-109977511D01*
X128348914Y-110025130D01*
X128539390Y-110025130D01*
X128634628Y-109977511D01*
X128682247Y-109929892D01*
X128729866Y-109834654D01*
X128729866Y-109644178D01*
X128682247Y-109548940D01*
X128634628Y-109501321D01*
X128539390Y-109453702D01*
D12*
%TO.C,F20*%
X99512504Y-98308285D02*
X99089171Y-98308285D01*
X99089171Y-98973523D02*
X99089171Y-97703523D01*
X99693933Y-97703523D01*
X100117266Y-97824476D02*
X100177742Y-97764000D01*
X100298695Y-97703523D01*
X100601076Y-97703523D01*
X100722028Y-97764000D01*
X100782504Y-97824476D01*
X100842980Y-97945428D01*
X100842980Y-98066380D01*
X100782504Y-98247809D01*
X100056790Y-98973523D01*
X100842980Y-98973523D01*
X101629171Y-97703523D02*
X101750123Y-97703523D01*
X101871076Y-97764000D01*
X101931552Y-97824476D01*
X101992028Y-97945428D01*
X102052504Y-98187333D01*
X102052504Y-98489714D01*
X101992028Y-98731619D01*
X101931552Y-98852571D01*
X101871076Y-98913047D01*
X101750123Y-98973523D01*
X101629171Y-98973523D01*
X101508219Y-98913047D01*
X101447742Y-98852571D01*
X101387266Y-98731619D01*
X101326790Y-98489714D01*
X101326790Y-98187333D01*
X101387266Y-97945428D01*
X101447742Y-97824476D01*
X101508219Y-97764000D01*
X101629171Y-97703523D01*
%TO.C,F9*%
X133117266Y-113308285D02*
X132693933Y-113308285D01*
X132693933Y-113973523D02*
X132693933Y-112703523D01*
X133298695Y-112703523D01*
X133842980Y-113973523D02*
X134084885Y-113973523D01*
X134205838Y-113913047D01*
X134266314Y-113852571D01*
X134387266Y-113671142D01*
X134447742Y-113429238D01*
X134447742Y-112945428D01*
X134387266Y-112824476D01*
X134326790Y-112764000D01*
X134205838Y-112703523D01*
X133963933Y-112703523D01*
X133842980Y-112764000D01*
X133782504Y-112824476D01*
X133722028Y-112945428D01*
X133722028Y-113247809D01*
X133782504Y-113368761D01*
X133842980Y-113429238D01*
X133963933Y-113489714D01*
X134205838Y-113489714D01*
X134326790Y-113429238D01*
X134387266Y-113368761D01*
X134447742Y-113247809D01*
%TO.C,F28*%
X99512504Y-128308285D02*
X99089171Y-128308285D01*
X99089171Y-128973523D02*
X99089171Y-127703523D01*
X99693933Y-127703523D01*
X100117266Y-127824476D02*
X100177742Y-127764000D01*
X100298695Y-127703523D01*
X100601076Y-127703523D01*
X100722028Y-127764000D01*
X100782504Y-127824476D01*
X100842980Y-127945428D01*
X100842980Y-128066380D01*
X100782504Y-128247809D01*
X100056790Y-128973523D01*
X100842980Y-128973523D01*
X101568695Y-128247809D02*
X101447742Y-128187333D01*
X101387266Y-128126857D01*
X101326790Y-128005904D01*
X101326790Y-127945428D01*
X101387266Y-127824476D01*
X101447742Y-127764000D01*
X101568695Y-127703523D01*
X101810600Y-127703523D01*
X101931552Y-127764000D01*
X101992028Y-127824476D01*
X102052504Y-127945428D01*
X102052504Y-128005904D01*
X101992028Y-128126857D01*
X101931552Y-128187333D01*
X101810600Y-128247809D01*
X101568695Y-128247809D01*
X101447742Y-128308285D01*
X101387266Y-128368761D01*
X101326790Y-128489714D01*
X101326790Y-128731619D01*
X101387266Y-128852571D01*
X101447742Y-128913047D01*
X101568695Y-128973523D01*
X101810600Y-128973523D01*
X101931552Y-128913047D01*
X101992028Y-128852571D01*
X102052504Y-128731619D01*
X102052504Y-128489714D01*
X101992028Y-128368761D01*
X101931552Y-128308285D01*
X101810600Y-128247809D01*
%TO.C,F11*%
X132012504Y-119308285D02*
X131589171Y-119308285D01*
X131589171Y-119973523D02*
X131589171Y-118703523D01*
X132193933Y-118703523D01*
X133342980Y-119973523D02*
X132617266Y-119973523D01*
X132980123Y-119973523D02*
X132980123Y-118703523D01*
X132859171Y-118884952D01*
X132738219Y-119005904D01*
X132617266Y-119066380D01*
X134552504Y-119973523D02*
X133826790Y-119973523D01*
X134189647Y-119973523D02*
X134189647Y-118703523D01*
X134068695Y-118884952D01*
X133947742Y-119005904D01*
X133826790Y-119066380D01*
%TO.C,F2*%
X133117266Y-86308285D02*
X132693933Y-86308285D01*
X132693933Y-86973523D02*
X132693933Y-85703523D01*
X133298695Y-85703523D01*
X133722028Y-85824476D02*
X133782504Y-85764000D01*
X133903457Y-85703523D01*
X134205838Y-85703523D01*
X134326790Y-85764000D01*
X134387266Y-85824476D01*
X134447742Y-85945428D01*
X134447742Y-86066380D01*
X134387266Y-86247809D01*
X133661552Y-86973523D01*
X134447742Y-86973523D01*
D10*
%TO.C,TP14*%
X125825104Y-127025130D02*
X126396533Y-127025130D01*
X126110819Y-128025130D02*
X126110819Y-127025130D01*
X126729866Y-128025130D02*
X126729866Y-127025130D01*
X127110819Y-127025130D01*
X127206057Y-127072750D01*
X127253676Y-127120369D01*
X127301295Y-127215607D01*
X127301295Y-127358464D01*
X127253676Y-127453702D01*
X127206057Y-127501321D01*
X127110819Y-127548940D01*
X126729866Y-127548940D01*
X128253676Y-128025130D02*
X127682247Y-128025130D01*
X127967961Y-128025130D02*
X127967961Y-127025130D01*
X127872723Y-127167988D01*
X127777485Y-127263226D01*
X127682247Y-127310845D01*
X129110819Y-127358464D02*
X129110819Y-128025130D01*
X128872723Y-126977511D02*
X128634628Y-127691797D01*
X129253676Y-127691797D01*
D12*
%TO.C,F23*%
X99512504Y-113308285D02*
X99089171Y-113308285D01*
X99089171Y-113973523D02*
X99089171Y-112703523D01*
X99693933Y-112703523D01*
X100117266Y-112824476D02*
X100177742Y-112764000D01*
X100298695Y-112703523D01*
X100601076Y-112703523D01*
X100722028Y-112764000D01*
X100782504Y-112824476D01*
X100842980Y-112945428D01*
X100842980Y-113066380D01*
X100782504Y-113247809D01*
X100056790Y-113973523D01*
X100842980Y-113973523D01*
X101266314Y-112703523D02*
X102052504Y-112703523D01*
X101629171Y-113187333D01*
X101810600Y-113187333D01*
X101931552Y-113247809D01*
X101992028Y-113308285D01*
X102052504Y-113429238D01*
X102052504Y-113731619D01*
X101992028Y-113852571D01*
X101931552Y-113913047D01*
X101810600Y-113973523D01*
X101447742Y-113973523D01*
X101326790Y-113913047D01*
X101266314Y-113852571D01*
%TO.C,JC3*%
X83482266Y-131703523D02*
X83482266Y-132610666D01*
X83421790Y-132792095D01*
X83300838Y-132913047D01*
X83119409Y-132973523D01*
X82998457Y-132973523D01*
X84812742Y-132852571D02*
X84752266Y-132913047D01*
X84570838Y-132973523D01*
X84449885Y-132973523D01*
X84268457Y-132913047D01*
X84147504Y-132792095D01*
X84087028Y-132671142D01*
X84026552Y-132429238D01*
X84026552Y-132247809D01*
X84087028Y-132005904D01*
X84147504Y-131884952D01*
X84268457Y-131764000D01*
X84449885Y-131703523D01*
X84570838Y-131703523D01*
X84752266Y-131764000D01*
X84812742Y-131824476D01*
X85236076Y-131703523D02*
X86022266Y-131703523D01*
X85598933Y-132187333D01*
X85780361Y-132187333D01*
X85901314Y-132247809D01*
X85961790Y-132308285D01*
X86022266Y-132429238D01*
X86022266Y-132731619D01*
X85961790Y-132852571D01*
X85901314Y-132913047D01*
X85780361Y-132973523D01*
X85417504Y-132973523D01*
X85296552Y-132913047D01*
X85236076Y-132852571D01*
D10*
%TO.C,TP9*%
X120301295Y-112025130D02*
X120872723Y-112025130D01*
X120587009Y-113025130D02*
X120587009Y-112025130D01*
X121206057Y-113025130D02*
X121206057Y-112025130D01*
X121587009Y-112025130D01*
X121682247Y-112072750D01*
X121729866Y-112120369D01*
X121777485Y-112215607D01*
X121777485Y-112358464D01*
X121729866Y-112453702D01*
X121682247Y-112501321D01*
X121587009Y-112548940D01*
X121206057Y-112548940D01*
X122253676Y-113025130D02*
X122444152Y-113025130D01*
X122539390Y-112977511D01*
X122587009Y-112929892D01*
X122682247Y-112787035D01*
X122729866Y-112596559D01*
X122729866Y-112215607D01*
X122682247Y-112120369D01*
X122634628Y-112072750D01*
X122539390Y-112025130D01*
X122348914Y-112025130D01*
X122253676Y-112072750D01*
X122206057Y-112120369D01*
X122158438Y-112215607D01*
X122158438Y-112453702D01*
X122206057Y-112548940D01*
X122253676Y-112596559D01*
X122348914Y-112644178D01*
X122539390Y-112644178D01*
X122634628Y-112596559D01*
X122682247Y-112548940D01*
X122729866Y-112453702D01*
D12*
%TO.C,F13*%
X132012504Y-125308285D02*
X131589171Y-125308285D01*
X131589171Y-125973523D02*
X131589171Y-124703523D01*
X132193933Y-124703523D01*
X133342980Y-125973523D02*
X132617266Y-125973523D01*
X132980123Y-125973523D02*
X132980123Y-124703523D01*
X132859171Y-124884952D01*
X132738219Y-125005904D01*
X132617266Y-125066380D01*
X133766314Y-124703523D02*
X134552504Y-124703523D01*
X134129171Y-125187333D01*
X134310600Y-125187333D01*
X134431552Y-125247809D01*
X134492028Y-125308285D01*
X134552504Y-125429238D01*
X134552504Y-125731619D01*
X134492028Y-125852571D01*
X134431552Y-125913047D01*
X134310600Y-125973523D01*
X133947742Y-125973523D01*
X133826790Y-125913047D01*
X133766314Y-125852571D01*
D10*
%TO.C,TP13*%
X119825104Y-124025130D02*
X120396533Y-124025130D01*
X120110819Y-125025130D02*
X120110819Y-124025130D01*
X120729866Y-125025130D02*
X120729866Y-124025130D01*
X121110819Y-124025130D01*
X121206057Y-124072750D01*
X121253676Y-124120369D01*
X121301295Y-124215607D01*
X121301295Y-124358464D01*
X121253676Y-124453702D01*
X121206057Y-124501321D01*
X121110819Y-124548940D01*
X120729866Y-124548940D01*
X122253676Y-125025130D02*
X121682247Y-125025130D01*
X121967961Y-125025130D02*
X121967961Y-124025130D01*
X121872723Y-124167988D01*
X121777485Y-124263226D01*
X121682247Y-124310845D01*
X122587009Y-124025130D02*
X123206057Y-124025130D01*
X122872723Y-124406083D01*
X123015580Y-124406083D01*
X123110819Y-124453702D01*
X123158438Y-124501321D01*
X123206057Y-124596559D01*
X123206057Y-124834654D01*
X123158438Y-124929892D01*
X123110819Y-124977511D01*
X123015580Y-125025130D01*
X122729866Y-125025130D01*
X122634628Y-124977511D01*
X122587009Y-124929892D01*
%TO.C,H2*%
X148278695Y-135851380D02*
X148278695Y-134851380D01*
X148278695Y-135327571D02*
X148850123Y-135327571D01*
X148850123Y-135851380D02*
X148850123Y-134851380D01*
X149278695Y-134946619D02*
X149326314Y-134899000D01*
X149421552Y-134851380D01*
X149659647Y-134851380D01*
X149754885Y-134899000D01*
X149802504Y-134946619D01*
X149850123Y-135041857D01*
X149850123Y-135137095D01*
X149802504Y-135279952D01*
X149231076Y-135851380D01*
X149850123Y-135851380D01*
D12*
%TO.C,F4*%
X133117266Y-92308285D02*
X132693933Y-92308285D01*
X132693933Y-92973523D02*
X132693933Y-91703523D01*
X133298695Y-91703523D01*
X134326790Y-92126857D02*
X134326790Y-92973523D01*
X134024409Y-91643047D02*
X133722028Y-92550190D01*
X134508219Y-92550190D01*
D10*
%TO.C,TP6*%
X120301295Y-97025130D02*
X120872723Y-97025130D01*
X120587009Y-98025130D02*
X120587009Y-97025130D01*
X121206057Y-98025130D02*
X121206057Y-97025130D01*
X121587009Y-97025130D01*
X121682247Y-97072750D01*
X121729866Y-97120369D01*
X121777485Y-97215607D01*
X121777485Y-97358464D01*
X121729866Y-97453702D01*
X121682247Y-97501321D01*
X121587009Y-97548940D01*
X121206057Y-97548940D01*
X122634628Y-97025130D02*
X122444152Y-97025130D01*
X122348914Y-97072750D01*
X122301295Y-97120369D01*
X122206057Y-97263226D01*
X122158438Y-97453702D01*
X122158438Y-97834654D01*
X122206057Y-97929892D01*
X122253676Y-97977511D01*
X122348914Y-98025130D01*
X122539390Y-98025130D01*
X122634628Y-97977511D01*
X122682247Y-97929892D01*
X122729866Y-97834654D01*
X122729866Y-97596559D01*
X122682247Y-97501321D01*
X122634628Y-97453702D01*
X122539390Y-97406083D01*
X122348914Y-97406083D01*
X122253676Y-97453702D01*
X122206057Y-97501321D01*
X122158438Y-97596559D01*
%TO.C,H3*%
X148278695Y-70851380D02*
X148278695Y-69851380D01*
X148278695Y-70327571D02*
X148850123Y-70327571D01*
X148850123Y-70851380D02*
X148850123Y-69851380D01*
X149231076Y-69851380D02*
X149850123Y-69851380D01*
X149516790Y-70232333D01*
X149659647Y-70232333D01*
X149754885Y-70279952D01*
X149802504Y-70327571D01*
X149850123Y-70422809D01*
X149850123Y-70660904D01*
X149802504Y-70756142D01*
X149754885Y-70803761D01*
X149659647Y-70851380D01*
X149373933Y-70851380D01*
X149278695Y-70803761D01*
X149231076Y-70756142D01*
%TO.C,TP12*%
X125825104Y-121025130D02*
X126396533Y-121025130D01*
X126110819Y-122025130D02*
X126110819Y-121025130D01*
X126729866Y-122025130D02*
X126729866Y-121025130D01*
X127110819Y-121025130D01*
X127206057Y-121072750D01*
X127253676Y-121120369D01*
X127301295Y-121215607D01*
X127301295Y-121358464D01*
X127253676Y-121453702D01*
X127206057Y-121501321D01*
X127110819Y-121548940D01*
X126729866Y-121548940D01*
X128253676Y-122025130D02*
X127682247Y-122025130D01*
X127967961Y-122025130D02*
X127967961Y-121025130D01*
X127872723Y-121167988D01*
X127777485Y-121263226D01*
X127682247Y-121310845D01*
X128634628Y-121120369D02*
X128682247Y-121072750D01*
X128777485Y-121025130D01*
X129015580Y-121025130D01*
X129110819Y-121072750D01*
X129158438Y-121120369D01*
X129206057Y-121215607D01*
X129206057Y-121310845D01*
X129158438Y-121453702D01*
X128587009Y-122025130D01*
X129206057Y-122025130D01*
D12*
%TO.C,F18*%
X99512504Y-92308285D02*
X99089171Y-92308285D01*
X99089171Y-92973523D02*
X99089171Y-91703523D01*
X99693933Y-91703523D01*
X100842980Y-92973523D02*
X100117266Y-92973523D01*
X100480123Y-92973523D02*
X100480123Y-91703523D01*
X100359171Y-91884952D01*
X100238219Y-92005904D01*
X100117266Y-92066380D01*
X101568695Y-92247809D02*
X101447742Y-92187333D01*
X101387266Y-92126857D01*
X101326790Y-92005904D01*
X101326790Y-91945428D01*
X101387266Y-91824476D01*
X101447742Y-91764000D01*
X101568695Y-91703523D01*
X101810600Y-91703523D01*
X101931552Y-91764000D01*
X101992028Y-91824476D01*
X102052504Y-91945428D01*
X102052504Y-92005904D01*
X101992028Y-92126857D01*
X101931552Y-92187333D01*
X101810600Y-92247809D01*
X101568695Y-92247809D01*
X101447742Y-92308285D01*
X101387266Y-92368761D01*
X101326790Y-92489714D01*
X101326790Y-92731619D01*
X101387266Y-92852571D01*
X101447742Y-92913047D01*
X101568695Y-92973523D01*
X101810600Y-92973523D01*
X101931552Y-92913047D01*
X101992028Y-92852571D01*
X102052504Y-92731619D01*
X102052504Y-92489714D01*
X101992028Y-92368761D01*
X101931552Y-92308285D01*
X101810600Y-92247809D01*
%TO.C,F6*%
X133117266Y-98308285D02*
X132693933Y-98308285D01*
X132693933Y-98973523D02*
X132693933Y-97703523D01*
X133298695Y-97703523D01*
X134326790Y-97703523D02*
X134084885Y-97703523D01*
X133963933Y-97764000D01*
X133903457Y-97824476D01*
X133782504Y-98005904D01*
X133722028Y-98247809D01*
X133722028Y-98731619D01*
X133782504Y-98852571D01*
X133842980Y-98913047D01*
X133963933Y-98973523D01*
X134205838Y-98973523D01*
X134326790Y-98913047D01*
X134387266Y-98852571D01*
X134447742Y-98731619D01*
X134447742Y-98429238D01*
X134387266Y-98308285D01*
X134326790Y-98247809D01*
X134205838Y-98187333D01*
X133963933Y-98187333D01*
X133842980Y-98247809D01*
X133782504Y-98308285D01*
X133722028Y-98429238D01*
%TO.C,F26*%
X99512504Y-122308285D02*
X99089171Y-122308285D01*
X99089171Y-122973523D02*
X99089171Y-121703523D01*
X99693933Y-121703523D01*
X100117266Y-121824476D02*
X100177742Y-121764000D01*
X100298695Y-121703523D01*
X100601076Y-121703523D01*
X100722028Y-121764000D01*
X100782504Y-121824476D01*
X100842980Y-121945428D01*
X100842980Y-122066380D01*
X100782504Y-122247809D01*
X100056790Y-122973523D01*
X100842980Y-122973523D01*
X101931552Y-121703523D02*
X101689647Y-121703523D01*
X101568695Y-121764000D01*
X101508219Y-121824476D01*
X101387266Y-122005904D01*
X101326790Y-122247809D01*
X101326790Y-122731619D01*
X101387266Y-122852571D01*
X101447742Y-122913047D01*
X101568695Y-122973523D01*
X101810600Y-122973523D01*
X101931552Y-122913047D01*
X101992028Y-122852571D01*
X102052504Y-122731619D01*
X102052504Y-122429238D01*
X101992028Y-122308285D01*
X101931552Y-122247809D01*
X101810600Y-122187333D01*
X101568695Y-122187333D01*
X101447742Y-122247809D01*
X101387266Y-122308285D01*
X101326790Y-122429238D01*
%TO.C,F10*%
X132012504Y-116308285D02*
X131589171Y-116308285D01*
X131589171Y-116973523D02*
X131589171Y-115703523D01*
X132193933Y-115703523D01*
X133342980Y-116973523D02*
X132617266Y-116973523D01*
X132980123Y-116973523D02*
X132980123Y-115703523D01*
X132859171Y-115884952D01*
X132738219Y-116005904D01*
X132617266Y-116066380D01*
X134129171Y-115703523D02*
X134250123Y-115703523D01*
X134371076Y-115764000D01*
X134431552Y-115824476D01*
X134492028Y-115945428D01*
X134552504Y-116187333D01*
X134552504Y-116489714D01*
X134492028Y-116731619D01*
X134431552Y-116852571D01*
X134371076Y-116913047D01*
X134250123Y-116973523D01*
X134129171Y-116973523D01*
X134008219Y-116913047D01*
X133947742Y-116852571D01*
X133887266Y-116731619D01*
X133826790Y-116489714D01*
X133826790Y-116187333D01*
X133887266Y-115945428D01*
X133947742Y-115824476D01*
X134008219Y-115764000D01*
X134129171Y-115703523D01*
%TO.C,F19*%
X99512504Y-95308285D02*
X99089171Y-95308285D01*
X99089171Y-95973523D02*
X99089171Y-94703523D01*
X99693933Y-94703523D01*
X100842980Y-95973523D02*
X100117266Y-95973523D01*
X100480123Y-95973523D02*
X100480123Y-94703523D01*
X100359171Y-94884952D01*
X100238219Y-95005904D01*
X100117266Y-95066380D01*
X101447742Y-95973523D02*
X101689647Y-95973523D01*
X101810600Y-95913047D01*
X101871076Y-95852571D01*
X101992028Y-95671142D01*
X102052504Y-95429238D01*
X102052504Y-94945428D01*
X101992028Y-94824476D01*
X101931552Y-94764000D01*
X101810600Y-94703523D01*
X101568695Y-94703523D01*
X101447742Y-94764000D01*
X101387266Y-94824476D01*
X101326790Y-94945428D01*
X101326790Y-95247809D01*
X101387266Y-95368761D01*
X101447742Y-95429238D01*
X101568695Y-95489714D01*
X101810600Y-95489714D01*
X101931552Y-95429238D01*
X101992028Y-95368761D01*
X102052504Y-95247809D01*
D10*
%TO.C,TP7*%
X126301295Y-100025130D02*
X126872723Y-100025130D01*
X126587009Y-101025130D02*
X126587009Y-100025130D01*
X127206057Y-101025130D02*
X127206057Y-100025130D01*
X127587009Y-100025130D01*
X127682247Y-100072750D01*
X127729866Y-100120369D01*
X127777485Y-100215607D01*
X127777485Y-100358464D01*
X127729866Y-100453702D01*
X127682247Y-100501321D01*
X127587009Y-100548940D01*
X127206057Y-100548940D01*
X128110819Y-100025130D02*
X128777485Y-100025130D01*
X128348914Y-101025130D01*
D12*
%TO.C,F17*%
X99512504Y-89308285D02*
X99089171Y-89308285D01*
X99089171Y-89973523D02*
X99089171Y-88703523D01*
X99693933Y-88703523D01*
X100842980Y-89973523D02*
X100117266Y-89973523D01*
X100480123Y-89973523D02*
X100480123Y-88703523D01*
X100359171Y-88884952D01*
X100238219Y-89005904D01*
X100117266Y-89066380D01*
X101266314Y-88703523D02*
X102112980Y-88703523D01*
X101568695Y-89973523D01*
%TO.C,F21*%
X99512504Y-101308285D02*
X99089171Y-101308285D01*
X99089171Y-101973523D02*
X99089171Y-100703523D01*
X99693933Y-100703523D01*
X100117266Y-100824476D02*
X100177742Y-100764000D01*
X100298695Y-100703523D01*
X100601076Y-100703523D01*
X100722028Y-100764000D01*
X100782504Y-100824476D01*
X100842980Y-100945428D01*
X100842980Y-101066380D01*
X100782504Y-101247809D01*
X100056790Y-101973523D01*
X100842980Y-101973523D01*
X102052504Y-101973523D02*
X101326790Y-101973523D01*
X101689647Y-101973523D02*
X101689647Y-100703523D01*
X101568695Y-100884952D01*
X101447742Y-101005904D01*
X101326790Y-101066380D01*
D10*
%TO.C,TP3*%
X126301295Y-87763130D02*
X126872723Y-87763130D01*
X126587009Y-88763130D02*
X126587009Y-87763130D01*
X127206057Y-88763130D02*
X127206057Y-87763130D01*
X127587009Y-87763130D01*
X127682247Y-87810750D01*
X127729866Y-87858369D01*
X127777485Y-87953607D01*
X127777485Y-88096464D01*
X127729866Y-88191702D01*
X127682247Y-88239321D01*
X127587009Y-88286940D01*
X127206057Y-88286940D01*
X128110819Y-87763130D02*
X128729866Y-87763130D01*
X128396533Y-88144083D01*
X128539390Y-88144083D01*
X128634628Y-88191702D01*
X128682247Y-88239321D01*
X128729866Y-88334559D01*
X128729866Y-88572654D01*
X128682247Y-88667892D01*
X128634628Y-88715511D01*
X128539390Y-88763130D01*
X128253676Y-88763130D01*
X128158438Y-88715511D01*
X128110819Y-88667892D01*
D12*
%TO.C,F12*%
X132012504Y-122308285D02*
X131589171Y-122308285D01*
X131589171Y-122973523D02*
X131589171Y-121703523D01*
X132193933Y-121703523D01*
X133342980Y-122973523D02*
X132617266Y-122973523D01*
X132980123Y-122973523D02*
X132980123Y-121703523D01*
X132859171Y-121884952D01*
X132738219Y-122005904D01*
X132617266Y-122066380D01*
X133826790Y-121824476D02*
X133887266Y-121764000D01*
X134008219Y-121703523D01*
X134310600Y-121703523D01*
X134431552Y-121764000D01*
X134492028Y-121824476D01*
X134552504Y-121945428D01*
X134552504Y-122066380D01*
X134492028Y-122247809D01*
X133766314Y-122973523D01*
X134552504Y-122973523D01*
D10*
%TO.C,TP11*%
X119825104Y-118025130D02*
X120396533Y-118025130D01*
X120110819Y-119025130D02*
X120110819Y-118025130D01*
X120729866Y-119025130D02*
X120729866Y-118025130D01*
X121110819Y-118025130D01*
X121206057Y-118072750D01*
X121253676Y-118120369D01*
X121301295Y-118215607D01*
X121301295Y-118358464D01*
X121253676Y-118453702D01*
X121206057Y-118501321D01*
X121110819Y-118548940D01*
X120729866Y-118548940D01*
X122253676Y-119025130D02*
X121682247Y-119025130D01*
X121967961Y-119025130D02*
X121967961Y-118025130D01*
X121872723Y-118167988D01*
X121777485Y-118263226D01*
X121682247Y-118310845D01*
X123206057Y-119025130D02*
X122634628Y-119025130D01*
X122920342Y-119025130D02*
X122920342Y-118025130D01*
X122825104Y-118167988D01*
X122729866Y-118263226D01*
X122634628Y-118310845D01*
%TO.C,H4*%
X83278695Y-70851380D02*
X83278695Y-69851380D01*
X83278695Y-70327571D02*
X83850123Y-70327571D01*
X83850123Y-70851380D02*
X83850123Y-69851380D01*
X84754885Y-70184714D02*
X84754885Y-70851380D01*
X84516790Y-69803761D02*
X84278695Y-70518047D01*
X84897742Y-70518047D01*
%TO.C,H1*%
X83278695Y-135851380D02*
X83278695Y-134851380D01*
X83278695Y-135327571D02*
X83850123Y-135327571D01*
X83850123Y-135851380D02*
X83850123Y-134851380D01*
X84850123Y-135851380D02*
X84278695Y-135851380D01*
X84564409Y-135851380D02*
X84564409Y-134851380D01*
X84469171Y-134994238D01*
X84373933Y-135089476D01*
X84278695Y-135137095D01*
D12*
%TO.C,F16*%
X99512504Y-86308285D02*
X99089171Y-86308285D01*
X99089171Y-86973523D02*
X99089171Y-85703523D01*
X99693933Y-85703523D01*
X100842980Y-86973523D02*
X100117266Y-86973523D01*
X100480123Y-86973523D02*
X100480123Y-85703523D01*
X100359171Y-85884952D01*
X100238219Y-86005904D01*
X100117266Y-86066380D01*
X101931552Y-85703523D02*
X101689647Y-85703523D01*
X101568695Y-85764000D01*
X101508219Y-85824476D01*
X101387266Y-86005904D01*
X101326790Y-86247809D01*
X101326790Y-86731619D01*
X101387266Y-86852571D01*
X101447742Y-86913047D01*
X101568695Y-86973523D01*
X101810600Y-86973523D01*
X101931552Y-86913047D01*
X101992028Y-86852571D01*
X102052504Y-86731619D01*
X102052504Y-86429238D01*
X101992028Y-86308285D01*
X101931552Y-86247809D01*
X101810600Y-86187333D01*
X101568695Y-86187333D01*
X101447742Y-86247809D01*
X101387266Y-86308285D01*
X101326790Y-86429238D01*
D10*
%TO.C,TP2*%
X120301295Y-85025130D02*
X120872723Y-85025130D01*
X120587009Y-86025130D02*
X120587009Y-85025130D01*
X121206057Y-86025130D02*
X121206057Y-85025130D01*
X121587009Y-85025130D01*
X121682247Y-85072750D01*
X121729866Y-85120369D01*
X121777485Y-85215607D01*
X121777485Y-85358464D01*
X121729866Y-85453702D01*
X121682247Y-85501321D01*
X121587009Y-85548940D01*
X121206057Y-85548940D01*
X122158438Y-85120369D02*
X122206057Y-85072750D01*
X122301295Y-85025130D01*
X122539390Y-85025130D01*
X122634628Y-85072750D01*
X122682247Y-85120369D01*
X122729866Y-85215607D01*
X122729866Y-85310845D01*
X122682247Y-85453702D01*
X122110819Y-86025130D01*
X122729866Y-86025130D01*
%TO.C,TP4*%
X120301295Y-91025130D02*
X120872723Y-91025130D01*
X120587009Y-92025130D02*
X120587009Y-91025130D01*
X121206057Y-92025130D02*
X121206057Y-91025130D01*
X121587009Y-91025130D01*
X121682247Y-91072750D01*
X121729866Y-91120369D01*
X121777485Y-91215607D01*
X121777485Y-91358464D01*
X121729866Y-91453702D01*
X121682247Y-91501321D01*
X121587009Y-91548940D01*
X121206057Y-91548940D01*
X122634628Y-91358464D02*
X122634628Y-92025130D01*
X122396533Y-90977511D02*
X122158438Y-91691797D01*
X122777485Y-91691797D01*
D12*
%TO.C,F7*%
X133117266Y-101808285D02*
X132693933Y-101808285D01*
X132693933Y-102473523D02*
X132693933Y-101203523D01*
X133298695Y-101203523D01*
X133661552Y-101203523D02*
X134508219Y-101203523D01*
X133963933Y-102473523D01*
%TO.C,F24*%
X99512504Y-116308285D02*
X99089171Y-116308285D01*
X99089171Y-116973523D02*
X99089171Y-115703523D01*
X99693933Y-115703523D01*
X100117266Y-115824476D02*
X100177742Y-115764000D01*
X100298695Y-115703523D01*
X100601076Y-115703523D01*
X100722028Y-115764000D01*
X100782504Y-115824476D01*
X100842980Y-115945428D01*
X100842980Y-116066380D01*
X100782504Y-116247809D01*
X100056790Y-116973523D01*
X100842980Y-116973523D01*
X101931552Y-116126857D02*
X101931552Y-116973523D01*
X101629171Y-115643047D02*
X101326790Y-116550190D01*
X102112980Y-116550190D01*
%TO.C,F1*%
X133117266Y-83308285D02*
X132693933Y-83308285D01*
X132693933Y-83973523D02*
X132693933Y-82703523D01*
X133298695Y-82703523D01*
X134447742Y-83973523D02*
X133722028Y-83973523D01*
X134084885Y-83973523D02*
X134084885Y-82703523D01*
X133963933Y-82884952D01*
X133842980Y-83005904D01*
X133722028Y-83066380D01*
%TO.C,F8*%
X133117266Y-110308285D02*
X132693933Y-110308285D01*
X132693933Y-110973523D02*
X132693933Y-109703523D01*
X133298695Y-109703523D01*
X133963933Y-110247809D02*
X133842980Y-110187333D01*
X133782504Y-110126857D01*
X133722028Y-110005904D01*
X133722028Y-109945428D01*
X133782504Y-109824476D01*
X133842980Y-109764000D01*
X133963933Y-109703523D01*
X134205838Y-109703523D01*
X134326790Y-109764000D01*
X134387266Y-109824476D01*
X134447742Y-109945428D01*
X134447742Y-110005904D01*
X134387266Y-110126857D01*
X134326790Y-110187333D01*
X134205838Y-110247809D01*
X133963933Y-110247809D01*
X133842980Y-110308285D01*
X133782504Y-110368761D01*
X133722028Y-110489714D01*
X133722028Y-110731619D01*
X133782504Y-110852571D01*
X133842980Y-110913047D01*
X133963933Y-110973523D01*
X134205838Y-110973523D01*
X134326790Y-110913047D01*
X134387266Y-110852571D01*
X134447742Y-110731619D01*
X134447742Y-110489714D01*
X134387266Y-110368761D01*
X134326790Y-110308285D01*
X134205838Y-110247809D01*
D10*
%TO.C,TP10*%
X125825104Y-114872980D02*
X126396533Y-114872980D01*
X126110819Y-115872980D02*
X126110819Y-114872980D01*
X126729866Y-115872980D02*
X126729866Y-114872980D01*
X127110819Y-114872980D01*
X127206057Y-114920600D01*
X127253676Y-114968219D01*
X127301295Y-115063457D01*
X127301295Y-115206314D01*
X127253676Y-115301552D01*
X127206057Y-115349171D01*
X127110819Y-115396790D01*
X126729866Y-115396790D01*
X128253676Y-115872980D02*
X127682247Y-115872980D01*
X127967961Y-115872980D02*
X127967961Y-114872980D01*
X127872723Y-115015838D01*
X127777485Y-115111076D01*
X127682247Y-115158695D01*
X128872723Y-114872980D02*
X128967961Y-114872980D01*
X129063200Y-114920600D01*
X129110819Y-114968219D01*
X129158438Y-115063457D01*
X129206057Y-115253933D01*
X129206057Y-115492028D01*
X129158438Y-115682504D01*
X129110819Y-115777742D01*
X129063200Y-115825361D01*
X128967961Y-115872980D01*
X128872723Y-115872980D01*
X128777485Y-115825361D01*
X128729866Y-115777742D01*
X128682247Y-115682504D01*
X128634628Y-115492028D01*
X128634628Y-115253933D01*
X128682247Y-115063457D01*
X128729866Y-114968219D01*
X128777485Y-114920600D01*
X128872723Y-114872980D01*
%TO.C,TP5*%
X126301295Y-94025130D02*
X126872723Y-94025130D01*
X126587009Y-95025130D02*
X126587009Y-94025130D01*
X127206057Y-95025130D02*
X127206057Y-94025130D01*
X127587009Y-94025130D01*
X127682247Y-94072750D01*
X127729866Y-94120369D01*
X127777485Y-94215607D01*
X127777485Y-94358464D01*
X127729866Y-94453702D01*
X127682247Y-94501321D01*
X127587009Y-94548940D01*
X127206057Y-94548940D01*
X128682247Y-94025130D02*
X128206057Y-94025130D01*
X128158438Y-94501321D01*
X128206057Y-94453702D01*
X128301295Y-94406083D01*
X128539390Y-94406083D01*
X128634628Y-94453702D01*
X128682247Y-94501321D01*
X128729866Y-94596559D01*
X128729866Y-94834654D01*
X128682247Y-94929892D01*
X128634628Y-94977511D01*
X128539390Y-95025130D01*
X128301295Y-95025130D01*
X128206057Y-94977511D01*
X128158438Y-94929892D01*
D12*
%TO.C,F3*%
X133117266Y-89308285D02*
X132693933Y-89308285D01*
X132693933Y-89973523D02*
X132693933Y-88703523D01*
X133298695Y-88703523D01*
X133661552Y-88703523D02*
X134447742Y-88703523D01*
X134024409Y-89187333D01*
X134205838Y-89187333D01*
X134326790Y-89247809D01*
X134387266Y-89308285D01*
X134447742Y-89429238D01*
X134447742Y-89731619D01*
X134387266Y-89852571D01*
X134326790Y-89913047D01*
X134205838Y-89973523D01*
X133842980Y-89973523D01*
X133722028Y-89913047D01*
X133661552Y-89852571D01*
%TO.C,F22*%
X99512504Y-110308285D02*
X99089171Y-110308285D01*
X99089171Y-110973523D02*
X99089171Y-109703523D01*
X99693933Y-109703523D01*
X100117266Y-109824476D02*
X100177742Y-109764000D01*
X100298695Y-109703523D01*
X100601076Y-109703523D01*
X100722028Y-109764000D01*
X100782504Y-109824476D01*
X100842980Y-109945428D01*
X100842980Y-110066380D01*
X100782504Y-110247809D01*
X100056790Y-110973523D01*
X100842980Y-110973523D01*
X101326790Y-109824476D02*
X101387266Y-109764000D01*
X101508219Y-109703523D01*
X101810600Y-109703523D01*
X101931552Y-109764000D01*
X101992028Y-109824476D01*
X102052504Y-109945428D01*
X102052504Y-110066380D01*
X101992028Y-110247809D01*
X101266314Y-110973523D01*
X102052504Y-110973523D01*
D10*
%TO.C,TP1*%
X126301295Y-82025130D02*
X126872723Y-82025130D01*
X126587009Y-83025130D02*
X126587009Y-82025130D01*
X127206057Y-83025130D02*
X127206057Y-82025130D01*
X127587009Y-82025130D01*
X127682247Y-82072750D01*
X127729866Y-82120369D01*
X127777485Y-82215607D01*
X127777485Y-82358464D01*
X127729866Y-82453702D01*
X127682247Y-82501321D01*
X127587009Y-82548940D01*
X127206057Y-82548940D01*
X128729866Y-83025130D02*
X128158438Y-83025130D01*
X128444152Y-83025130D02*
X128444152Y-82025130D01*
X128348914Y-82167988D01*
X128253676Y-82263226D01*
X128158438Y-82310845D01*
D12*
%TO.C,F5*%
X133117266Y-95308285D02*
X132693933Y-95308285D01*
X132693933Y-95973523D02*
X132693933Y-94703523D01*
X133298695Y-94703523D01*
X134387266Y-94703523D02*
X133782504Y-94703523D01*
X133722028Y-95308285D01*
X133782504Y-95247809D01*
X133903457Y-95187333D01*
X134205838Y-95187333D01*
X134326790Y-95247809D01*
X134387266Y-95308285D01*
X134447742Y-95429238D01*
X134447742Y-95731619D01*
X134387266Y-95852571D01*
X134326790Y-95913047D01*
X134205838Y-95973523D01*
X133903457Y-95973523D01*
X133782504Y-95913047D01*
X133722028Y-95852571D01*
D13*
%TO.C,JC1*%
X86540600Y-105727250D02*
X87040600Y-104727250D01*
X78085600Y-82302250D02*
X87995600Y-82302250D01*
X87540600Y-105727250D02*
X86540600Y-105727250D01*
X87040600Y-104727250D02*
X87540600Y-105727250D01*
X87995600Y-82302250D02*
X87995600Y-104152250D01*
X78085600Y-104152250D02*
X78085600Y-82302250D01*
X87995600Y-104152250D02*
X78085600Y-104152250D01*
%TO.C,JC2*%
X146540600Y-81070750D02*
X146040600Y-82070750D01*
X154995600Y-82645750D02*
X154995600Y-104495750D01*
X146040600Y-82070750D02*
X145540600Y-81070750D01*
X145085600Y-104495750D02*
X145085600Y-82645750D01*
X145085600Y-82645750D02*
X154995600Y-82645750D01*
X154995600Y-104495750D02*
X145085600Y-104495750D01*
X145540600Y-81070750D02*
X146540600Y-81070750D01*
D14*
%TO.C,SW1*%
X106940600Y-102617250D02*
X106940600Y-83837250D01*
D15*
X104340600Y-85627250D02*
X104340600Y-85627250D01*
D14*
X113140600Y-102617250D02*
X106940600Y-102617250D01*
D15*
X104440600Y-85627250D02*
X104440600Y-85627250D01*
D14*
X106940600Y-83837250D02*
X113140600Y-83837250D01*
X113140600Y-83837250D02*
X113140600Y-102617250D01*
D15*
X104340600Y-85627250D02*
G75*
G03*
X104440600Y-85627250I50000J0D01*
G01*
X104440600Y-85627250D02*
G75*
G03*
X104340600Y-85627250I-50000J0D01*
G01*
D14*
%TO.C,SW2*%
X113140600Y-110837250D02*
X113140600Y-129617250D01*
X106940600Y-129617250D02*
X106940600Y-110837250D01*
D15*
X104440600Y-112627250D02*
X104440600Y-112627250D01*
X104340600Y-112627250D02*
X104340600Y-112627250D01*
D14*
X113140600Y-129617250D02*
X106940600Y-129617250D01*
X106940600Y-110837250D02*
X113140600Y-110837250D01*
D15*
X104340600Y-112627250D02*
G75*
G03*
X104440600Y-112627250I50000J0D01*
G01*
X104440600Y-112627250D02*
G75*
G03*
X104340600Y-112627250I-50000J0D01*
G01*
%TO.C,UTSVT_Logo1*%
G36*
X133766616Y-138024884D02*
G01*
X134533095Y-138106699D01*
X135204321Y-138251139D01*
X135339667Y-138292989D01*
X135976279Y-138549973D01*
X136471666Y-138847975D01*
X136821375Y-139178364D01*
X137020952Y-139532511D01*
X137065944Y-139901786D01*
X136951897Y-140277560D01*
X136674357Y-140651203D01*
X136596059Y-140727501D01*
X136136706Y-141049800D01*
X135554328Y-141291745D01*
X134878434Y-141446518D01*
X134138531Y-141507305D01*
X133383722Y-141469577D01*
X132991259Y-141405619D01*
X132585114Y-141310150D01*
X132313042Y-141224726D01*
X131944244Y-141060908D01*
X131542742Y-140841585D01*
X131159164Y-140598294D01*
X130844138Y-140362570D01*
X130683000Y-140209358D01*
X130513667Y-140015501D01*
X130767667Y-140144686D01*
X131422755Y-140407412D01*
X132166130Y-140587303D01*
X132955448Y-140682579D01*
X133748366Y-140691459D01*
X134502542Y-140612163D01*
X135175632Y-140442909D01*
X135432139Y-140340870D01*
X135858518Y-140098059D01*
X136120214Y-139838225D01*
X136220009Y-139569425D01*
X136160686Y-139299717D01*
X135945027Y-139037160D01*
X135575815Y-138789810D01*
X135055831Y-138565726D01*
X134789334Y-138479350D01*
X133973203Y-138305229D01*
X133070398Y-138232743D01*
X132128694Y-138260587D01*
X131195866Y-138387453D01*
X130354889Y-138600601D01*
X130022610Y-138703953D01*
X129757131Y-138779913D01*
X129594974Y-138818382D01*
X129562758Y-138819647D01*
X129605005Y-138765450D01*
X129778575Y-138678737D01*
X130051235Y-138570844D01*
X130390752Y-138453111D01*
X130764894Y-138336876D01*
X131141428Y-138233478D01*
X131406657Y-138171034D01*
X132152297Y-138055467D01*
X132955983Y-138007279D01*
X133766616Y-138024884D01*
G37*
D16*
X133766616Y-138024884D02*
X134533095Y-138106699D01*
X135204321Y-138251139D01*
X135339667Y-138292989D01*
X135976279Y-138549973D01*
X136471666Y-138847975D01*
X136821375Y-139178364D01*
X137020952Y-139532511D01*
X137065944Y-139901786D01*
X136951897Y-140277560D01*
X136674357Y-140651203D01*
X136596059Y-140727501D01*
X136136706Y-141049800D01*
X135554328Y-141291745D01*
X134878434Y-141446518D01*
X134138531Y-141507305D01*
X133383722Y-141469577D01*
X132991259Y-141405619D01*
X132585114Y-141310150D01*
X132313042Y-141224726D01*
X131944244Y-141060908D01*
X131542742Y-140841585D01*
X131159164Y-140598294D01*
X130844138Y-140362570D01*
X130683000Y-140209358D01*
X130513667Y-140015501D01*
X130767667Y-140144686D01*
X131422755Y-140407412D01*
X132166130Y-140587303D01*
X132955448Y-140682579D01*
X133748366Y-140691459D01*
X134502542Y-140612163D01*
X135175632Y-140442909D01*
X135432139Y-140340870D01*
X135858518Y-140098059D01*
X136120214Y-139838225D01*
X136220009Y-139569425D01*
X136160686Y-139299717D01*
X135945027Y-139037160D01*
X135575815Y-138789810D01*
X135055831Y-138565726D01*
X134789334Y-138479350D01*
X133973203Y-138305229D01*
X133070398Y-138232743D01*
X132128694Y-138260587D01*
X131195866Y-138387453D01*
X130354889Y-138600601D01*
X130022610Y-138703953D01*
X129757131Y-138779913D01*
X129594974Y-138818382D01*
X129562758Y-138819647D01*
X129605005Y-138765450D01*
X129778575Y-138678737D01*
X130051235Y-138570844D01*
X130390752Y-138453111D01*
X130764894Y-138336876D01*
X131141428Y-138233478D01*
X131406657Y-138171034D01*
X132152297Y-138055467D01*
X132955983Y-138007279D01*
X133766616Y-138024884D01*
G36*
X128543943Y-137185662D02*
G01*
X130158301Y-137239837D01*
X131926221Y-137325813D01*
X133846529Y-137443673D01*
X134112000Y-137461663D01*
X134764946Y-137507680D01*
X135455556Y-137558602D01*
X136133333Y-137610553D01*
X136747778Y-137659655D01*
X137248393Y-137702030D01*
X137287000Y-137705458D01*
X138557000Y-137818801D01*
X136652000Y-137764567D01*
X135835080Y-137744732D01*
X134949053Y-137729324D01*
X134013882Y-137718234D01*
X133049527Y-137711357D01*
X132075950Y-137708585D01*
X131113113Y-137709811D01*
X130180978Y-137714927D01*
X129299507Y-137723828D01*
X128488660Y-137736404D01*
X127768401Y-137752551D01*
X127158690Y-137772159D01*
X126679489Y-137795123D01*
X126365000Y-137819767D01*
X125390440Y-137939425D01*
X124577746Y-138072204D01*
X123919780Y-138220644D01*
X123409406Y-138387283D01*
X123039487Y-138574661D01*
X122802886Y-138785318D01*
X122692467Y-139021793D01*
X122682000Y-139130189D01*
X122731925Y-139372824D01*
X122852500Y-139616887D01*
X122857099Y-139623430D01*
X122955263Y-139775554D01*
X122965725Y-139843634D01*
X122875276Y-139825003D01*
X122670705Y-139716997D01*
X122343334Y-139519745D01*
X121914626Y-139229938D01*
X121550792Y-138935182D01*
X121278285Y-138659932D01*
X121123559Y-138428643D01*
X121104892Y-138374878D01*
X121118979Y-138115570D01*
X121298382Y-137887240D01*
X121641926Y-137689968D01*
X122148435Y-137523839D01*
X122816734Y-137388934D01*
X123645647Y-137285336D01*
X124634000Y-137213127D01*
X125780618Y-137172390D01*
X127084323Y-137163208D01*
X128543943Y-137185662D01*
G37*
X128543943Y-137185662D02*
X130158301Y-137239837D01*
X131926221Y-137325813D01*
X133846529Y-137443673D01*
X134112000Y-137461663D01*
X134764946Y-137507680D01*
X135455556Y-137558602D01*
X136133333Y-137610553D01*
X136747778Y-137659655D01*
X137248393Y-137702030D01*
X137287000Y-137705458D01*
X138557000Y-137818801D01*
X136652000Y-137764567D01*
X135835080Y-137744732D01*
X134949053Y-137729324D01*
X134013882Y-137718234D01*
X133049527Y-137711357D01*
X132075950Y-137708585D01*
X131113113Y-137709811D01*
X130180978Y-137714927D01*
X129299507Y-137723828D01*
X128488660Y-137736404D01*
X127768401Y-137752551D01*
X127158690Y-137772159D01*
X126679489Y-137795123D01*
X126365000Y-137819767D01*
X125390440Y-137939425D01*
X124577746Y-138072204D01*
X123919780Y-138220644D01*
X123409406Y-138387283D01*
X123039487Y-138574661D01*
X122802886Y-138785318D01*
X122692467Y-139021793D01*
X122682000Y-139130189D01*
X122731925Y-139372824D01*
X122852500Y-139616887D01*
X122857099Y-139623430D01*
X122955263Y-139775554D01*
X122965725Y-139843634D01*
X122875276Y-139825003D01*
X122670705Y-139716997D01*
X122343334Y-139519745D01*
X121914626Y-139229938D01*
X121550792Y-138935182D01*
X121278285Y-138659932D01*
X121123559Y-138428643D01*
X121104892Y-138374878D01*
X121118979Y-138115570D01*
X121298382Y-137887240D01*
X121641926Y-137689968D01*
X122148435Y-137523839D01*
X122816734Y-137388934D01*
X123645647Y-137285336D01*
X124634000Y-137213127D01*
X125780618Y-137172390D01*
X127084323Y-137163208D01*
X128543943Y-137185662D01*
G36*
X128928000Y-138438171D02*
G01*
X129118544Y-138465224D01*
X129182975Y-138514973D01*
X129180591Y-138535834D01*
X129077889Y-138631847D01*
X128961868Y-138668722D01*
X128818364Y-138740816D01*
X128776844Y-138922722D01*
X128747513Y-139237587D01*
X128671073Y-139451292D01*
X128559432Y-139530663D01*
X128558575Y-139530667D01*
X128498213Y-139505620D01*
X128476959Y-139410418D01*
X128495037Y-139214973D01*
X128552673Y-138889193D01*
X128563775Y-138832167D01*
X128531544Y-138707742D01*
X128438463Y-138684000D01*
X128292358Y-138638815D01*
X128252284Y-138588517D01*
X128201169Y-138608527D01*
X128096145Y-138750276D01*
X127958902Y-138983984D01*
X127943930Y-139011851D01*
X127790318Y-139270806D01*
X127650268Y-139456760D01*
X127553380Y-139530593D01*
X127551376Y-139530667D01*
X127461830Y-139453915D01*
X127361428Y-139249296D01*
X127302341Y-139073136D01*
X127213659Y-138750851D01*
X127178360Y-138557502D01*
X127196067Y-138461449D01*
X127266406Y-138431054D01*
X127294720Y-138430000D01*
X127401642Y-138502943D01*
X127471125Y-138662834D01*
X127537921Y-138932998D01*
X127597097Y-139044036D01*
X127668480Y-139003914D01*
X127771897Y-138820599D01*
X127787167Y-138789834D01*
X127964694Y-138430000D01*
X128590069Y-138430000D01*
X128928000Y-138438171D01*
G37*
X128928000Y-138438171D02*
X129118544Y-138465224D01*
X129182975Y-138514973D01*
X129180591Y-138535834D01*
X129077889Y-138631847D01*
X128961868Y-138668722D01*
X128818364Y-138740816D01*
X128776844Y-138922722D01*
X128747513Y-139237587D01*
X128671073Y-139451292D01*
X128559432Y-139530663D01*
X128558575Y-139530667D01*
X128498213Y-139505620D01*
X128476959Y-139410418D01*
X128495037Y-139214973D01*
X128552673Y-138889193D01*
X128563775Y-138832167D01*
X128531544Y-138707742D01*
X128438463Y-138684000D01*
X128292358Y-138638815D01*
X128252284Y-138588517D01*
X128201169Y-138608527D01*
X128096145Y-138750276D01*
X127958902Y-138983984D01*
X127943930Y-139011851D01*
X127790318Y-139270806D01*
X127650268Y-139456760D01*
X127553380Y-139530593D01*
X127551376Y-139530667D01*
X127461830Y-139453915D01*
X127361428Y-139249296D01*
X127302341Y-139073136D01*
X127213659Y-138750851D01*
X127178360Y-138557502D01*
X127196067Y-138461449D01*
X127266406Y-138431054D01*
X127294720Y-138430000D01*
X127401642Y-138502943D01*
X127471125Y-138662834D01*
X127537921Y-138932998D01*
X127597097Y-139044036D01*
X127668480Y-139003914D01*
X127771897Y-138820599D01*
X127787167Y-138789834D01*
X127964694Y-138430000D01*
X128590069Y-138430000D01*
X128928000Y-138438171D01*
G36*
X130488417Y-139389313D02*
G01*
X130304990Y-139523627D01*
X130034708Y-139708048D01*
X129706558Y-139923760D01*
X129349526Y-140151948D01*
X128992599Y-140373795D01*
X128664765Y-140570486D01*
X128427621Y-140705489D01*
X127680408Y-141072640D01*
X126950966Y-141351038D01*
X126262950Y-141535144D01*
X125640012Y-141619424D01*
X125105807Y-141598339D01*
X124860343Y-141540469D01*
X124376869Y-141294277D01*
X123975459Y-140902205D01*
X123689551Y-140430429D01*
X123574503Y-140163420D01*
X123491827Y-139927845D01*
X123445925Y-139748973D01*
X123441199Y-139652074D01*
X123482050Y-139662418D01*
X123572879Y-139805274D01*
X123584449Y-139827000D01*
X123917640Y-140290842D01*
X124366388Y-140664930D01*
X124502334Y-140744921D01*
X124675425Y-140826448D01*
X124860015Y-140879418D01*
X125097005Y-140909376D01*
X125427296Y-140921869D01*
X125814667Y-140922887D01*
X126276913Y-140915070D01*
X126632277Y-140890514D01*
X126943059Y-140839661D01*
X127271558Y-140752955D01*
X127592667Y-140650125D01*
X127985692Y-140504784D01*
X128467735Y-140304941D01*
X128978793Y-140076511D01*
X129458863Y-139845408D01*
X129476500Y-139836512D01*
X129860340Y-139644671D01*
X130184034Y-139487028D01*
X130420927Y-139376240D01*
X130544364Y-139324964D01*
X130556000Y-139323923D01*
X130488417Y-139389313D01*
G37*
X130488417Y-139389313D02*
X130304990Y-139523627D01*
X130034708Y-139708048D01*
X129706558Y-139923760D01*
X129349526Y-140151948D01*
X128992599Y-140373795D01*
X128664765Y-140570486D01*
X128427621Y-140705489D01*
X127680408Y-141072640D01*
X126950966Y-141351038D01*
X126262950Y-141535144D01*
X125640012Y-141619424D01*
X125105807Y-141598339D01*
X124860343Y-141540469D01*
X124376869Y-141294277D01*
X123975459Y-140902205D01*
X123689551Y-140430429D01*
X123574503Y-140163420D01*
X123491827Y-139927845D01*
X123445925Y-139748973D01*
X123441199Y-139652074D01*
X123482050Y-139662418D01*
X123572879Y-139805274D01*
X123584449Y-139827000D01*
X123917640Y-140290842D01*
X124366388Y-140664930D01*
X124502334Y-140744921D01*
X124675425Y-140826448D01*
X124860015Y-140879418D01*
X125097005Y-140909376D01*
X125427296Y-140921869D01*
X125814667Y-140922887D01*
X126276913Y-140915070D01*
X126632277Y-140890514D01*
X126943059Y-140839661D01*
X127271558Y-140752955D01*
X127592667Y-140650125D01*
X127985692Y-140504784D01*
X128467735Y-140304941D01*
X128978793Y-140076511D01*
X129458863Y-139845408D01*
X129476500Y-139836512D01*
X129860340Y-139644671D01*
X130184034Y-139487028D01*
X130420927Y-139376240D01*
X130544364Y-139324964D01*
X130556000Y-139323923D01*
X130488417Y-139389313D01*
G36*
X125118617Y-138499315D02*
G01*
X125135314Y-138578167D01*
X125111556Y-138792794D01*
X125056406Y-139052471D01*
X124987108Y-139290123D01*
X124920907Y-139438676D01*
X124911082Y-139450361D01*
X124721009Y-139545001D01*
X124472331Y-139573677D01*
X124269500Y-139525932D01*
X124170859Y-139390585D01*
X124120401Y-139166812D01*
X124115347Y-138906811D01*
X124152919Y-138662782D01*
X124230335Y-138486923D01*
X124327858Y-138430000D01*
X124387526Y-138488109D01*
X124404710Y-138676093D01*
X124392373Y-138903009D01*
X124374174Y-139170789D01*
X124386265Y-139308448D01*
X124442683Y-139354415D01*
X124554740Y-139347509D01*
X124678993Y-139305283D01*
X124757221Y-139193762D01*
X124814798Y-138969613D01*
X124831741Y-138874500D01*
X124901395Y-138588155D01*
X124985765Y-138443690D01*
X125022241Y-138430000D01*
X125118617Y-138499315D01*
G37*
X125118617Y-138499315D02*
X125135314Y-138578167D01*
X125111556Y-138792794D01*
X125056406Y-139052471D01*
X124987108Y-139290123D01*
X124920907Y-139438676D01*
X124911082Y-139450361D01*
X124721009Y-139545001D01*
X124472331Y-139573677D01*
X124269500Y-139525932D01*
X124170859Y-139390585D01*
X124120401Y-139166812D01*
X124115347Y-138906811D01*
X124152919Y-138662782D01*
X124230335Y-138486923D01*
X124327858Y-138430000D01*
X124387526Y-138488109D01*
X124404710Y-138676093D01*
X124392373Y-138903009D01*
X124374174Y-139170789D01*
X124386265Y-139308448D01*
X124442683Y-139354415D01*
X124554740Y-139347509D01*
X124678993Y-139305283D01*
X124757221Y-139193762D01*
X124814798Y-138969613D01*
X124831741Y-138874500D01*
X124901395Y-138588155D01*
X124985765Y-138443690D01*
X125022241Y-138430000D01*
X125118617Y-138499315D01*
G36*
X126957135Y-138473696D02*
G01*
X126978412Y-138535834D01*
X126875971Y-138618619D01*
X126746000Y-138641667D01*
X126563919Y-138681982D01*
X126529271Y-138778427D01*
X126647901Y-138894247D01*
X126701474Y-138921596D01*
X126875609Y-139069319D01*
X126900343Y-139258490D01*
X126773769Y-139447372D01*
X126727161Y-139483533D01*
X126516083Y-139597544D01*
X126344919Y-139589270D01*
X126248320Y-139538836D01*
X126167683Y-139437447D01*
X126222926Y-139357410D01*
X126380992Y-139331665D01*
X126447646Y-139340225D01*
X126615718Y-139330631D01*
X126661882Y-139245169D01*
X126582230Y-139129420D01*
X126471328Y-139063910D01*
X126295049Y-138914940D01*
X126252433Y-138714311D01*
X126326042Y-138552933D01*
X126454838Y-138474772D01*
X126641927Y-138434491D01*
X126828847Y-138433621D01*
X126957135Y-138473696D01*
G37*
X126957135Y-138473696D02*
X126978412Y-138535834D01*
X126875971Y-138618619D01*
X126746000Y-138641667D01*
X126563919Y-138681982D01*
X126529271Y-138778427D01*
X126647901Y-138894247D01*
X126701474Y-138921596D01*
X126875609Y-139069319D01*
X126900343Y-139258490D01*
X126773769Y-139447372D01*
X126727161Y-139483533D01*
X126516083Y-139597544D01*
X126344919Y-139589270D01*
X126248320Y-139538836D01*
X126167683Y-139437447D01*
X126222926Y-139357410D01*
X126380992Y-139331665D01*
X126447646Y-139340225D01*
X126615718Y-139330631D01*
X126661882Y-139245169D01*
X126582230Y-139129420D01*
X126471328Y-139063910D01*
X126295049Y-138914940D01*
X126252433Y-138714311D01*
X126326042Y-138552933D01*
X126454838Y-138474772D01*
X126641927Y-138434491D01*
X126828847Y-138433621D01*
X126957135Y-138473696D01*
G36*
X132815022Y-135047039D02*
G01*
X133122668Y-135129318D01*
X133749242Y-135403482D01*
X134353510Y-135823275D01*
X134902345Y-136365341D01*
X134941770Y-136411975D01*
X135154432Y-136677321D01*
X135324812Y-136909225D01*
X135432543Y-137077853D01*
X135457260Y-137153370D01*
X135448479Y-137154302D01*
X135377298Y-137100987D01*
X135208916Y-136964039D01*
X134975169Y-136769479D01*
X134889559Y-136697442D01*
X134177133Y-136168873D01*
X133459895Y-135788433D01*
X132723426Y-135554838D01*
X131953309Y-135466807D01*
X131135127Y-135523057D01*
X130254463Y-135722308D01*
X129296897Y-136063276D01*
X129030314Y-136176400D01*
X128661517Y-136331373D01*
X128436415Y-136412557D01*
X128348855Y-136425023D01*
X128392683Y-136373842D01*
X128561746Y-136264085D01*
X128849890Y-136100824D01*
X129250962Y-135889130D01*
X129582334Y-135721458D01*
X130361464Y-135364603D01*
X131047658Y-135123189D01*
X131667555Y-134992760D01*
X132247797Y-134968863D01*
X132815022Y-135047039D01*
G37*
X132815022Y-135047039D02*
X133122668Y-135129318D01*
X133749242Y-135403482D01*
X134353510Y-135823275D01*
X134902345Y-136365341D01*
X134941770Y-136411975D01*
X135154432Y-136677321D01*
X135324812Y-136909225D01*
X135432543Y-137077853D01*
X135457260Y-137153370D01*
X135448479Y-137154302D01*
X135377298Y-137100987D01*
X135208916Y-136964039D01*
X134975169Y-136769479D01*
X134889559Y-136697442D01*
X134177133Y-136168873D01*
X133459895Y-135788433D01*
X132723426Y-135554838D01*
X131953309Y-135466807D01*
X131135127Y-135523057D01*
X130254463Y-135722308D01*
X129296897Y-136063276D01*
X129030314Y-136176400D01*
X128661517Y-136331373D01*
X128436415Y-136412557D01*
X128348855Y-136425023D01*
X128392683Y-136373842D01*
X128561746Y-136264085D01*
X128849890Y-136100824D01*
X129250962Y-135889130D01*
X129582334Y-135721458D01*
X130361464Y-135364603D01*
X131047658Y-135123189D01*
X131667555Y-134992760D01*
X132247797Y-134968863D01*
X132815022Y-135047039D01*
G36*
X125996219Y-138443596D02*
G01*
X126126244Y-138490668D01*
X126153334Y-138557000D01*
X126083050Y-138660509D01*
X125986916Y-138684000D01*
X125881195Y-138715175D01*
X125814996Y-138834676D01*
X125767834Y-139081465D01*
X125764342Y-139107334D01*
X125704866Y-139393175D01*
X125621182Y-139521210D01*
X125584148Y-139530667D01*
X125513253Y-139498698D01*
X125492093Y-139378218D01*
X125514936Y-139132366D01*
X125518334Y-139107334D01*
X125544950Y-138853201D01*
X125529181Y-138725507D01*
X125463926Y-138685076D01*
X125441612Y-138684000D01*
X125324343Y-138619644D01*
X125306667Y-138557000D01*
X125351986Y-138477135D01*
X125508894Y-138438127D01*
X125730000Y-138430000D01*
X125996219Y-138443596D01*
G37*
X125996219Y-138443596D02*
X126126244Y-138490668D01*
X126153334Y-138557000D01*
X126083050Y-138660509D01*
X125986916Y-138684000D01*
X125881195Y-138715175D01*
X125814996Y-138834676D01*
X125767834Y-139081465D01*
X125764342Y-139107334D01*
X125704866Y-139393175D01*
X125621182Y-139521210D01*
X125584148Y-139530667D01*
X125513253Y-139498698D01*
X125492093Y-139378218D01*
X125514936Y-139132366D01*
X125518334Y-139107334D01*
X125544950Y-138853201D01*
X125529181Y-138725507D01*
X125463926Y-138685076D01*
X125441612Y-138684000D01*
X125324343Y-138619644D01*
X125306667Y-138557000D01*
X125351986Y-138477135D01*
X125508894Y-138438127D01*
X125730000Y-138430000D01*
X125996219Y-138443596D01*
D13*
%TO.C,JC4*%
X145085600Y-131495750D02*
X145085600Y-109645750D01*
X146540600Y-108070750D02*
X146040600Y-109070750D01*
X146040600Y-109070750D02*
X145540600Y-108070750D01*
X154995600Y-131495750D02*
X145085600Y-131495750D01*
X145085600Y-109645750D02*
X154995600Y-109645750D01*
X154995600Y-109645750D02*
X154995600Y-131495750D01*
X145540600Y-108070750D02*
X146540600Y-108070750D01*
D14*
%TO.C,F15*%
X97045600Y-83965250D02*
X97045600Y-84489250D01*
%TO.C,F14*%
X136063200Y-129308750D02*
X136063200Y-129832750D01*
%TO.C,F27*%
X97040600Y-125965250D02*
X97040600Y-126489250D01*
%TO.C,F25*%
X97040600Y-119965250D02*
X97040600Y-120489250D01*
D17*
%TO.C,TP8*%
X128763200Y-111570750D02*
G75*
G03*
X128763200Y-111570750I-1200000J0D01*
G01*
D14*
%TO.C,F20*%
X97045600Y-98965250D02*
X97045600Y-99489250D01*
%TO.C,F9*%
X136063200Y-114308750D02*
X136063200Y-114832750D01*
%TO.C,F28*%
X97040600Y-128965250D02*
X97040600Y-129489250D01*
%TO.C,F11*%
X136063200Y-120308750D02*
X136063200Y-120832750D01*
%TO.C,F2*%
X136063200Y-87308750D02*
X136063200Y-87832750D01*
D17*
%TO.C,TP14*%
X128763200Y-129570750D02*
G75*
G03*
X128763200Y-129570750I-1200000J0D01*
G01*
D14*
%TO.C,F23*%
X97045600Y-113965250D02*
X97045600Y-114489250D01*
D13*
%TO.C,JC3*%
X78085600Y-131152250D02*
X78085600Y-109302250D01*
X87040600Y-131727250D02*
X87540600Y-132727250D01*
X87995600Y-109302250D02*
X87995600Y-131152250D01*
X87540600Y-132727250D02*
X86540600Y-132727250D01*
X87995600Y-131152250D02*
X78085600Y-131152250D01*
X86540600Y-132727250D02*
X87040600Y-131727250D01*
X78085600Y-109302250D02*
X87995600Y-109302250D01*
D17*
%TO.C,TP9*%
X122763200Y-114570750D02*
G75*
G03*
X122763200Y-114570750I-1200000J0D01*
G01*
D14*
%TO.C,F13*%
X136063200Y-126308750D02*
X136063200Y-126832750D01*
D17*
%TO.C,TP13*%
X122763200Y-126570750D02*
G75*
G03*
X122763200Y-126570750I-1200000J0D01*
G01*
D14*
%TO.C,F4*%
X136063200Y-93308750D02*
X136063200Y-93832750D01*
D17*
%TO.C,TP6*%
X122763200Y-99570750D02*
G75*
G03*
X122763200Y-99570750I-1200000J0D01*
G01*
%TO.C,TP12*%
X128763200Y-123570750D02*
G75*
G03*
X128763200Y-123570750I-1200000J0D01*
G01*
D14*
%TO.C,F18*%
X97045600Y-92965250D02*
X97045600Y-93489250D01*
%TO.C,F6*%
X136063200Y-99308750D02*
X136063200Y-99832750D01*
%TO.C,F26*%
X97040600Y-122965250D02*
X97040600Y-123489250D01*
%TO.C,F10*%
X136063200Y-117308750D02*
X136063200Y-117832750D01*
%TO.C,F19*%
X97045600Y-95965250D02*
X97045600Y-96489250D01*
D17*
%TO.C,TP7*%
X128763200Y-102570750D02*
G75*
G03*
X128763200Y-102570750I-1200000J0D01*
G01*
D14*
%TO.C,F17*%
X97045600Y-89965250D02*
X97045600Y-90489250D01*
%TO.C,F21*%
X97045600Y-101965250D02*
X97045600Y-102489250D01*
D17*
%TO.C,TP3*%
X128763200Y-90570750D02*
G75*
G03*
X128763200Y-90570750I-1200000J0D01*
G01*
D14*
%TO.C,F12*%
X136063200Y-123308750D02*
X136063200Y-123832750D01*
D17*
%TO.C,TP11*%
X122763200Y-120570750D02*
G75*
G03*
X122763200Y-120570750I-1200000J0D01*
G01*
D14*
%TO.C,F16*%
X97045600Y-86965250D02*
X97045600Y-87489250D01*
D17*
%TO.C,TP2*%
X122763200Y-87570750D02*
G75*
G03*
X122763200Y-87570750I-1200000J0D01*
G01*
%TO.C,TP4*%
X122763200Y-93570750D02*
G75*
G03*
X122763200Y-93570750I-1200000J0D01*
G01*
D14*
%TO.C,F7*%
X136063200Y-102308750D02*
X136063200Y-102832750D01*
%TO.C,F24*%
X97045600Y-116965250D02*
X97045600Y-117489250D01*
%TO.C,F1*%
X136063200Y-84308750D02*
X136063200Y-84832750D01*
%TO.C,F8*%
X136063200Y-111308750D02*
X136063200Y-111832750D01*
D17*
%TO.C,TP10*%
X128763200Y-117570750D02*
G75*
G03*
X128763200Y-117570750I-1200000J0D01*
G01*
%TO.C,TP5*%
X128763200Y-96570750D02*
G75*
G03*
X128763200Y-96570750I-1200000J0D01*
G01*
D14*
%TO.C,F3*%
X136063200Y-90308750D02*
X136063200Y-90832750D01*
%TO.C,F22*%
X97045600Y-110965250D02*
X97045600Y-111489250D01*
D17*
%TO.C,TP1*%
X128763200Y-84570750D02*
G75*
G03*
X128763200Y-84570750I-1200000J0D01*
G01*
D14*
%TO.C,F5*%
X136063200Y-96308750D02*
X136063200Y-96832750D01*
%TD*%
M02*
