%TF.GenerationSoftware,KiCad,Pcbnew,(5.1.5)-3*%
%TF.CreationDate,2021-01-06T02:35:00-06:00*%
%TF.ProjectId,BPS_Scrutineering,4250535f-5363-4727-9574-696e65657269,rev?*%
%TF.SameCoordinates,Original*%
%TF.FileFunction,Legend,Top*%
%TF.FilePolarity,Positive*%
%FSLAX46Y46*%
G04 Gerber Fmt 4.6, Leading zero omitted, Abs format (unit mm)*
G04 Created by KiCad (PCBNEW (5.1.5)-3) date 2021-01-06 02:35:00*
%MOMM*%
%LPD*%
G04 APERTURE LIST*
%ADD10C,0.150000*%
%ADD11C,0.120000*%
%ADD12C,0.152400*%
%ADD13C,0.300000*%
%ADD14C,0.010000*%
G04 APERTURE END LIST*
D10*
X127145238Y-101261904D02*
X127097619Y-101404761D01*
X127097619Y-101642857D01*
X127145238Y-101738095D01*
X127192857Y-101785714D01*
X127288095Y-101833333D01*
X127383333Y-101833333D01*
X127478571Y-101785714D01*
X127526190Y-101738095D01*
X127573809Y-101642857D01*
X127621428Y-101452380D01*
X127669047Y-101357142D01*
X127716666Y-101309523D01*
X127811904Y-101261904D01*
X127907142Y-101261904D01*
X128002380Y-101309523D01*
X128050000Y-101357142D01*
X128097619Y-101452380D01*
X128097619Y-101690476D01*
X128050000Y-101833333D01*
X127097619Y-102404761D02*
X127145238Y-102309523D01*
X127192857Y-102261904D01*
X127288095Y-102214285D01*
X127573809Y-102214285D01*
X127669047Y-102261904D01*
X127716666Y-102309523D01*
X127764285Y-102404761D01*
X127764285Y-102547619D01*
X127716666Y-102642857D01*
X127669047Y-102690476D01*
X127573809Y-102738095D01*
X127288095Y-102738095D01*
X127192857Y-102690476D01*
X127145238Y-102642857D01*
X127097619Y-102547619D01*
X127097619Y-102404761D01*
X126114285Y-100761904D02*
X125447619Y-100952380D01*
X125923809Y-101142857D01*
X125447619Y-101333333D01*
X126114285Y-101523809D01*
X125447619Y-102333333D02*
X125971428Y-102333333D01*
X126066666Y-102285714D01*
X126114285Y-102190476D01*
X126114285Y-102000000D01*
X126066666Y-101904761D01*
X125495238Y-102333333D02*
X125447619Y-102238095D01*
X125447619Y-102000000D01*
X125495238Y-101904761D01*
X125590476Y-101857142D01*
X125685714Y-101857142D01*
X125780952Y-101904761D01*
X125828571Y-102000000D01*
X125828571Y-102238095D01*
X125876190Y-102333333D01*
X125495238Y-102761904D02*
X125447619Y-102857142D01*
X125447619Y-103047619D01*
X125495238Y-103142857D01*
X125590476Y-103190476D01*
X125638095Y-103190476D01*
X125733333Y-103142857D01*
X125780952Y-103047619D01*
X125780952Y-102904761D01*
X125828571Y-102809523D01*
X125923809Y-102761904D01*
X125971428Y-102761904D01*
X126066666Y-102809523D01*
X126114285Y-102904761D01*
X126114285Y-103047619D01*
X126066666Y-103142857D01*
X123892857Y-100571428D02*
X123845238Y-100523809D01*
X123797619Y-100380952D01*
X123797619Y-100285714D01*
X123845238Y-100142857D01*
X123940476Y-100047619D01*
X124035714Y-100000000D01*
X124226190Y-99952380D01*
X124369047Y-99952380D01*
X124559523Y-100000000D01*
X124654761Y-100047619D01*
X124750000Y-100142857D01*
X124797619Y-100285714D01*
X124797619Y-100380952D01*
X124750000Y-100523809D01*
X124702380Y-100571428D01*
X123797619Y-101000000D02*
X124797619Y-101000000D01*
X123797619Y-101428571D02*
X124321428Y-101428571D01*
X124416666Y-101380952D01*
X124464285Y-101285714D01*
X124464285Y-101142857D01*
X124416666Y-101047619D01*
X124369047Y-101000000D01*
X123797619Y-102333333D02*
X124321428Y-102333333D01*
X124416666Y-102285714D01*
X124464285Y-102190476D01*
X124464285Y-102000000D01*
X124416666Y-101904761D01*
X123845238Y-102333333D02*
X123797619Y-102238095D01*
X123797619Y-102000000D01*
X123845238Y-101904761D01*
X123940476Y-101857142D01*
X124035714Y-101857142D01*
X124130952Y-101904761D01*
X124178571Y-102000000D01*
X124178571Y-102238095D01*
X124226190Y-102333333D01*
X123845238Y-102761904D02*
X123797619Y-102857142D01*
X123797619Y-103047619D01*
X123845238Y-103142857D01*
X123940476Y-103190476D01*
X123988095Y-103190476D01*
X124083333Y-103142857D01*
X124130952Y-103047619D01*
X124130952Y-102904761D01*
X124178571Y-102809523D01*
X124273809Y-102761904D01*
X124321428Y-102761904D01*
X124416666Y-102809523D01*
X124464285Y-102904761D01*
X124464285Y-103047619D01*
X124416666Y-103142857D01*
X123845238Y-104000000D02*
X123797619Y-103904761D01*
X123797619Y-103714285D01*
X123845238Y-103619047D01*
X123940476Y-103571428D01*
X124321428Y-103571428D01*
X124416666Y-103619047D01*
X124464285Y-103714285D01*
X124464285Y-103904761D01*
X124416666Y-104000000D01*
X124321428Y-104047619D01*
X124226190Y-104047619D01*
X124130952Y-103571428D01*
X128097619Y-71685714D02*
X127383333Y-71685714D01*
X127240476Y-71638095D01*
X127145238Y-71542857D01*
X127097619Y-71400000D01*
X127097619Y-71304761D01*
X127097619Y-72304761D02*
X127145238Y-72209523D01*
X127192857Y-72161904D01*
X127288095Y-72114285D01*
X127573809Y-72114285D01*
X127669047Y-72161904D01*
X127716666Y-72209523D01*
X127764285Y-72304761D01*
X127764285Y-72447619D01*
X127716666Y-72542857D01*
X127669047Y-72590476D01*
X127573809Y-72638095D01*
X127288095Y-72638095D01*
X127192857Y-72590476D01*
X127145238Y-72542857D01*
X127097619Y-72447619D01*
X127097619Y-72304761D01*
X127097619Y-73066666D02*
X127764285Y-73066666D01*
X127573809Y-73066666D02*
X127669047Y-73114285D01*
X127716666Y-73161904D01*
X127764285Y-73257142D01*
X127764285Y-73352380D01*
X127097619Y-74114285D02*
X128097619Y-74114285D01*
X127145238Y-74114285D02*
X127097619Y-74019047D01*
X127097619Y-73828571D01*
X127145238Y-73733333D01*
X127192857Y-73685714D01*
X127288095Y-73638095D01*
X127573809Y-73638095D01*
X127669047Y-73685714D01*
X127716666Y-73733333D01*
X127764285Y-73828571D01*
X127764285Y-74019047D01*
X127716666Y-74114285D01*
X127097619Y-75019047D02*
X127621428Y-75019047D01*
X127716666Y-74971428D01*
X127764285Y-74876190D01*
X127764285Y-74685714D01*
X127716666Y-74590476D01*
X127145238Y-75019047D02*
X127097619Y-74923809D01*
X127097619Y-74685714D01*
X127145238Y-74590476D01*
X127240476Y-74542857D01*
X127335714Y-74542857D01*
X127430952Y-74590476D01*
X127478571Y-74685714D01*
X127478571Y-74923809D01*
X127526190Y-75019047D01*
X127764285Y-75495238D02*
X127097619Y-75495238D01*
X127669047Y-75495238D02*
X127716666Y-75542857D01*
X127764285Y-75638095D01*
X127764285Y-75780952D01*
X127716666Y-75876190D01*
X127621428Y-75923809D01*
X127097619Y-75923809D01*
X127097619Y-77590476D02*
X127621428Y-77590476D01*
X127716666Y-77542857D01*
X127764285Y-77447619D01*
X127764285Y-77257142D01*
X127716666Y-77161904D01*
X127145238Y-77590476D02*
X127097619Y-77495238D01*
X127097619Y-77257142D01*
X127145238Y-77161904D01*
X127240476Y-77114285D01*
X127335714Y-77114285D01*
X127430952Y-77161904D01*
X127478571Y-77257142D01*
X127478571Y-77495238D01*
X127526190Y-77590476D01*
X127764285Y-78066666D02*
X127097619Y-78066666D01*
X127669047Y-78066666D02*
X127716666Y-78114285D01*
X127764285Y-78209523D01*
X127764285Y-78352380D01*
X127716666Y-78447619D01*
X127621428Y-78495238D01*
X127097619Y-78495238D01*
X127097619Y-79400000D02*
X128097619Y-79400000D01*
X127145238Y-79400000D02*
X127097619Y-79304761D01*
X127097619Y-79114285D01*
X127145238Y-79019047D01*
X127192857Y-78971428D01*
X127288095Y-78923809D01*
X127573809Y-78923809D01*
X127669047Y-78971428D01*
X127716666Y-79019047D01*
X127764285Y-79114285D01*
X127764285Y-79304761D01*
X127716666Y-79400000D01*
X125447619Y-73304761D02*
X126447619Y-73304761D01*
X125447619Y-73876190D01*
X126447619Y-73876190D01*
X125447619Y-74780952D02*
X125971428Y-74780952D01*
X126066666Y-74733333D01*
X126114285Y-74638095D01*
X126114285Y-74447619D01*
X126066666Y-74352380D01*
X125495238Y-74780952D02*
X125447619Y-74685714D01*
X125447619Y-74447619D01*
X125495238Y-74352380D01*
X125590476Y-74304761D01*
X125685714Y-74304761D01*
X125780952Y-74352380D01*
X125828571Y-74447619D01*
X125828571Y-74685714D01*
X125876190Y-74780952D01*
X126114285Y-75257142D02*
X125447619Y-75257142D01*
X126019047Y-75257142D02*
X126066666Y-75304761D01*
X126114285Y-75400000D01*
X126114285Y-75542857D01*
X126066666Y-75638095D01*
X125971428Y-75685714D01*
X125447619Y-75685714D01*
X125447619Y-76590476D02*
X126447619Y-76590476D01*
X125495238Y-76590476D02*
X125447619Y-76495238D01*
X125447619Y-76304761D01*
X125495238Y-76209523D01*
X125542857Y-76161904D01*
X125638095Y-76114285D01*
X125923809Y-76114285D01*
X126019047Y-76161904D01*
X126066666Y-76209523D01*
X126114285Y-76304761D01*
X126114285Y-76495238D01*
X126066666Y-76590476D01*
X126114285Y-77495238D02*
X125447619Y-77495238D01*
X126114285Y-77066666D02*
X125590476Y-77066666D01*
X125495238Y-77114285D01*
X125447619Y-77209523D01*
X125447619Y-77352380D01*
X125495238Y-77447619D01*
X125542857Y-77495238D01*
X124464285Y-71852380D02*
X123797619Y-72042857D01*
X124273809Y-72233333D01*
X123797619Y-72423809D01*
X124464285Y-72614285D01*
X123845238Y-73376190D02*
X123797619Y-73280952D01*
X123797619Y-73090476D01*
X123845238Y-72995238D01*
X123940476Y-72947619D01*
X124321428Y-72947619D01*
X124416666Y-72995238D01*
X124464285Y-73090476D01*
X124464285Y-73280952D01*
X124416666Y-73376190D01*
X124321428Y-73423809D01*
X124226190Y-73423809D01*
X124130952Y-72947619D01*
X123797619Y-73852380D02*
X124464285Y-73852380D01*
X124273809Y-73852380D02*
X124369047Y-73900000D01*
X124416666Y-73947619D01*
X124464285Y-74042857D01*
X124464285Y-74138095D01*
X123845238Y-74852380D02*
X123797619Y-74757142D01*
X123797619Y-74566666D01*
X123845238Y-74471428D01*
X123940476Y-74423809D01*
X124321428Y-74423809D01*
X124416666Y-74471428D01*
X124464285Y-74566666D01*
X124464285Y-74757142D01*
X124416666Y-74852380D01*
X124321428Y-74900000D01*
X124226190Y-74900000D01*
X124130952Y-74423809D01*
X123797619Y-76090476D02*
X124797619Y-76090476D01*
X123797619Y-76519047D02*
X124321428Y-76519047D01*
X124416666Y-76471428D01*
X124464285Y-76376190D01*
X124464285Y-76233333D01*
X124416666Y-76138095D01*
X124369047Y-76090476D01*
X123845238Y-77376190D02*
X123797619Y-77280952D01*
X123797619Y-77090476D01*
X123845238Y-76995238D01*
X123940476Y-76947619D01*
X124321428Y-76947619D01*
X124416666Y-76995238D01*
X124464285Y-77090476D01*
X124464285Y-77280952D01*
X124416666Y-77376190D01*
X124321428Y-77423809D01*
X124226190Y-77423809D01*
X124130952Y-76947619D01*
X123797619Y-77852380D02*
X124464285Y-77852380D01*
X124273809Y-77852380D02*
X124369047Y-77900000D01*
X124416666Y-77947619D01*
X124464285Y-78042857D01*
X124464285Y-78138095D01*
X123845238Y-78852380D02*
X123797619Y-78757142D01*
X123797619Y-78566666D01*
X123845238Y-78471428D01*
X123940476Y-78423809D01*
X124321428Y-78423809D01*
X124416666Y-78471428D01*
X124464285Y-78566666D01*
X124464285Y-78757142D01*
X124416666Y-78852380D01*
X124321428Y-78900000D01*
X124226190Y-78900000D01*
X124130952Y-78423809D01*
X156119047Y-122757142D02*
X156071428Y-122804761D01*
X155928571Y-122852380D01*
X155833333Y-122852380D01*
X155690476Y-122804761D01*
X155595238Y-122709523D01*
X155547619Y-122614285D01*
X155500000Y-122423809D01*
X155500000Y-122280952D01*
X155547619Y-122090476D01*
X155595238Y-121995238D01*
X155690476Y-121900000D01*
X155833333Y-121852380D01*
X155928571Y-121852380D01*
X156071428Y-121900000D01*
X156119047Y-121947619D01*
X156690476Y-122852380D02*
X156595238Y-122804761D01*
X156547619Y-122757142D01*
X156500000Y-122661904D01*
X156500000Y-122376190D01*
X156547619Y-122280952D01*
X156595238Y-122233333D01*
X156690476Y-122185714D01*
X156833333Y-122185714D01*
X156928571Y-122233333D01*
X156976190Y-122280952D01*
X157023809Y-122376190D01*
X157023809Y-122661904D01*
X156976190Y-122757142D01*
X156928571Y-122804761D01*
X156833333Y-122852380D01*
X156690476Y-122852380D01*
X157452380Y-122185714D02*
X157452380Y-122852380D01*
X157452380Y-122280952D02*
X157500000Y-122233333D01*
X157595238Y-122185714D01*
X157738095Y-122185714D01*
X157833333Y-122233333D01*
X157880952Y-122328571D01*
X157880952Y-122852380D01*
X158357142Y-122185714D02*
X158357142Y-122852380D01*
X158357142Y-122280952D02*
X158404761Y-122233333D01*
X158500000Y-122185714D01*
X158642857Y-122185714D01*
X158738095Y-122233333D01*
X158785714Y-122328571D01*
X158785714Y-122852380D01*
X159642857Y-122804761D02*
X159547619Y-122852380D01*
X159357142Y-122852380D01*
X159261904Y-122804761D01*
X159214285Y-122709523D01*
X159214285Y-122328571D01*
X159261904Y-122233333D01*
X159357142Y-122185714D01*
X159547619Y-122185714D01*
X159642857Y-122233333D01*
X159690476Y-122328571D01*
X159690476Y-122423809D01*
X159214285Y-122519047D01*
X160547619Y-122804761D02*
X160452380Y-122852380D01*
X160261904Y-122852380D01*
X160166666Y-122804761D01*
X160119047Y-122757142D01*
X160071428Y-122661904D01*
X160071428Y-122376190D01*
X160119047Y-122280952D01*
X160166666Y-122233333D01*
X160261904Y-122185714D01*
X160452380Y-122185714D01*
X160547619Y-122233333D01*
X160833333Y-122185714D02*
X161214285Y-122185714D01*
X160976190Y-121852380D02*
X160976190Y-122709523D01*
X161023809Y-122804761D01*
X161119047Y-122852380D01*
X161214285Y-122852380D01*
X161690476Y-122852380D02*
X161595238Y-122804761D01*
X161547619Y-122757142D01*
X161500000Y-122661904D01*
X161500000Y-122376190D01*
X161547619Y-122280952D01*
X161595238Y-122233333D01*
X161690476Y-122185714D01*
X161833333Y-122185714D01*
X161928571Y-122233333D01*
X161976190Y-122280952D01*
X162023809Y-122376190D01*
X162023809Y-122661904D01*
X161976190Y-122757142D01*
X161928571Y-122804761D01*
X161833333Y-122852380D01*
X161690476Y-122852380D01*
X162452380Y-122852380D02*
X162452380Y-122185714D01*
X162452380Y-122376190D02*
X162500000Y-122280952D01*
X162547619Y-122233333D01*
X162642857Y-122185714D01*
X162738095Y-122185714D01*
X163833333Y-122852380D02*
X163833333Y-121852380D01*
X164404761Y-122852380D02*
X163976190Y-122280952D01*
X164404761Y-121852380D02*
X163833333Y-122423809D01*
X165214285Y-122804761D02*
X165119047Y-122852380D01*
X164928571Y-122852380D01*
X164833333Y-122804761D01*
X164785714Y-122709523D01*
X164785714Y-122328571D01*
X164833333Y-122233333D01*
X164928571Y-122185714D01*
X165119047Y-122185714D01*
X165214285Y-122233333D01*
X165261904Y-122328571D01*
X165261904Y-122423809D01*
X164785714Y-122519047D01*
X165595238Y-122185714D02*
X165833333Y-122852380D01*
X166071428Y-122185714D02*
X165833333Y-122852380D01*
X165738095Y-123090476D01*
X165690476Y-123138095D01*
X165595238Y-123185714D01*
X166452380Y-122757142D02*
X166500000Y-122804761D01*
X166452380Y-122852380D01*
X166404761Y-122804761D01*
X166452380Y-122757142D01*
X166452380Y-122852380D01*
X166452380Y-122233333D02*
X166500000Y-122280952D01*
X166452380Y-122328571D01*
X166404761Y-122280952D01*
X166452380Y-122233333D01*
X166452380Y-122328571D01*
D11*
X172819804Y-123600000D02*
G75*
G03X172819804Y-123600000I-1019804J0D01*
G01*
X172819804Y-120800000D02*
G75*
G03X172819804Y-120800000I-1019804J0D01*
G01*
X172819804Y-118000000D02*
G75*
G03X172819804Y-118000000I-1019804J0D01*
G01*
X170619804Y-119400000D02*
G75*
G03X170619804Y-119400000I-1019804J0D01*
G01*
X170619804Y-122200000D02*
G75*
G03X170619804Y-122200000I-1019804J0D01*
G01*
X175219804Y-119400000D02*
G75*
G03X175219804Y-119400000I-1019804J0D01*
G01*
X175219804Y-122200000D02*
G75*
G03X175219804Y-122200000I-1019804J0D01*
G01*
X170619804Y-125000000D02*
G75*
G03X170619804Y-125000000I-1019804J0D01*
G01*
X175219804Y-125000000D02*
G75*
G03X175219804Y-125000000I-1019804J0D01*
G01*
X173019804Y-126400000D02*
G75*
G03X173019804Y-126400000I-1019804J0D01*
G01*
X178219804Y-126400000D02*
G75*
G03X178219804Y-126400000I-1019804J0D01*
G01*
X178219804Y-118000000D02*
G75*
G03X178219804Y-118000000I-1019804J0D01*
G01*
X178219804Y-120800000D02*
G75*
G03X178219804Y-120800000I-1019804J0D01*
G01*
X178219804Y-123600000D02*
G75*
G03X178219804Y-123600000I-1019804J0D01*
G01*
D12*
X171530983Y-117717504D02*
X171569688Y-117678800D01*
X171647098Y-117640095D01*
X171840621Y-117640095D01*
X171918031Y-117678800D01*
X171956736Y-117717504D01*
X171995440Y-117794914D01*
X171995440Y-117872323D01*
X171956736Y-117988438D01*
X171492279Y-118452895D01*
X171995440Y-118452895D01*
X177104469Y-118452895D02*
X176640012Y-118452895D01*
X176872240Y-118452895D02*
X176872240Y-117640095D01*
X176794831Y-117756209D01*
X176717421Y-117833619D01*
X176640012Y-117872323D01*
X169440926Y-119282628D02*
X169440926Y-119824495D01*
X169247402Y-118972990D02*
X169053879Y-119553561D01*
X169557040Y-119553561D01*
X174124202Y-119011695D02*
X174627364Y-119011695D01*
X174356431Y-119321333D01*
X174472545Y-119321333D01*
X174549955Y-119360038D01*
X174588660Y-119398742D01*
X174627364Y-119476152D01*
X174627364Y-119669676D01*
X174588660Y-119747085D01*
X174549955Y-119785790D01*
X174472545Y-119824495D01*
X174240317Y-119824495D01*
X174162907Y-119785790D01*
X174124202Y-119747085D01*
X171956736Y-120383295D02*
X171569688Y-120383295D01*
X171530983Y-120770342D01*
X171569688Y-120731638D01*
X171647098Y-120692933D01*
X171840621Y-120692933D01*
X171918031Y-120731638D01*
X171956736Y-120770342D01*
X171995440Y-120847752D01*
X171995440Y-121041276D01*
X171956736Y-121118685D01*
X171918031Y-121157390D01*
X171840621Y-121196095D01*
X171647098Y-121196095D01*
X171569688Y-121157390D01*
X171530983Y-121118685D01*
X177027060Y-120383295D02*
X176872240Y-120383295D01*
X176794831Y-120422000D01*
X176756126Y-120460704D01*
X176678717Y-120576819D01*
X176640012Y-120731638D01*
X176640012Y-121041276D01*
X176678717Y-121118685D01*
X176717421Y-121157390D01*
X176794831Y-121196095D01*
X176949650Y-121196095D01*
X177027060Y-121157390D01*
X177065764Y-121118685D01*
X177104469Y-121041276D01*
X177104469Y-120847752D01*
X177065764Y-120770342D01*
X177027060Y-120731638D01*
X176949650Y-120692933D01*
X176794831Y-120692933D01*
X176717421Y-120731638D01*
X176678717Y-120770342D01*
X176640012Y-120847752D01*
X169015174Y-121754895D02*
X169557040Y-121754895D01*
X169208698Y-122567695D01*
X174317726Y-122103238D02*
X174240317Y-122064533D01*
X174201612Y-122025828D01*
X174162907Y-121948419D01*
X174162907Y-121909714D01*
X174201612Y-121832304D01*
X174240317Y-121793600D01*
X174317726Y-121754895D01*
X174472545Y-121754895D01*
X174549955Y-121793600D01*
X174588660Y-121832304D01*
X174627364Y-121909714D01*
X174627364Y-121948419D01*
X174588660Y-122025828D01*
X174549955Y-122064533D01*
X174472545Y-122103238D01*
X174317726Y-122103238D01*
X174240317Y-122141942D01*
X174201612Y-122180647D01*
X174162907Y-122258057D01*
X174162907Y-122412876D01*
X174201612Y-122490285D01*
X174240317Y-122528990D01*
X174317726Y-122567695D01*
X174472545Y-122567695D01*
X174549955Y-122528990D01*
X174588660Y-122490285D01*
X174627364Y-122412876D01*
X174627364Y-122258057D01*
X174588660Y-122180647D01*
X174549955Y-122141942D01*
X174472545Y-122103238D01*
X171608393Y-123939295D02*
X171763212Y-123939295D01*
X171840621Y-123900590D01*
X171879326Y-123861885D01*
X171956736Y-123745771D01*
X171995440Y-123590952D01*
X171995440Y-123281314D01*
X171956736Y-123203904D01*
X171918031Y-123165200D01*
X171840621Y-123126495D01*
X171685802Y-123126495D01*
X171608393Y-123165200D01*
X171569688Y-123203904D01*
X171530983Y-123281314D01*
X171530983Y-123474838D01*
X171569688Y-123552247D01*
X171608393Y-123590952D01*
X171685802Y-123629657D01*
X171840621Y-123629657D01*
X171918031Y-123590952D01*
X171956736Y-123552247D01*
X171995440Y-123474838D01*
X177104469Y-123939295D02*
X176640012Y-123939295D01*
X176872240Y-123939295D02*
X176872240Y-123126495D01*
X176794831Y-123242609D01*
X176717421Y-123320019D01*
X176640012Y-123358723D01*
X177607631Y-123126495D02*
X177685040Y-123126495D01*
X177762450Y-123165200D01*
X177801155Y-123203904D01*
X177839860Y-123281314D01*
X177878564Y-123436133D01*
X177878564Y-123629657D01*
X177839860Y-123784476D01*
X177801155Y-123861885D01*
X177762450Y-123900590D01*
X177685040Y-123939295D01*
X177607631Y-123939295D01*
X177530221Y-123900590D01*
X177491517Y-123861885D01*
X177452812Y-123784476D01*
X177414107Y-123629657D01*
X177414107Y-123436133D01*
X177452812Y-123281314D01*
X177491517Y-123203904D01*
X177530221Y-123165200D01*
X177607631Y-123126495D01*
X169518336Y-125310895D02*
X169053879Y-125310895D01*
X169286107Y-125310895D02*
X169286107Y-124498095D01*
X169208698Y-124614209D01*
X169131288Y-124691619D01*
X169053879Y-124730323D01*
X169827974Y-124575504D02*
X169866679Y-124536800D01*
X169944088Y-124498095D01*
X170137612Y-124498095D01*
X170215021Y-124536800D01*
X170253726Y-124575504D01*
X170292431Y-124652914D01*
X170292431Y-124730323D01*
X170253726Y-124846438D01*
X169789269Y-125310895D01*
X170292431Y-125310895D01*
X174162907Y-125310895D02*
X173698450Y-125310895D01*
X173930679Y-125310895D02*
X173930679Y-124498095D01*
X173853269Y-124614209D01*
X173775860Y-124691619D01*
X173698450Y-124730323D01*
X174937002Y-125310895D02*
X174472545Y-125310895D01*
X174704774Y-125310895D02*
X174704774Y-124498095D01*
X174627364Y-124614209D01*
X174549955Y-124691619D01*
X174472545Y-124730323D01*
X171995440Y-126682495D02*
X171530983Y-126682495D01*
X171763212Y-126682495D02*
X171763212Y-125869695D01*
X171685802Y-125985809D01*
X171608393Y-126063219D01*
X171530983Y-126101923D01*
X172266374Y-125869695D02*
X172769536Y-125869695D01*
X172498602Y-126179333D01*
X172614717Y-126179333D01*
X172692126Y-126218038D01*
X172730831Y-126256742D01*
X172769536Y-126334152D01*
X172769536Y-126527676D01*
X172730831Y-126605085D01*
X172692126Y-126643790D01*
X172614717Y-126682495D01*
X172382488Y-126682495D01*
X172305079Y-126643790D01*
X172266374Y-126605085D01*
X177259288Y-126682495D02*
X176794831Y-126682495D01*
X177027060Y-126682495D02*
X177027060Y-125869695D01*
X176949650Y-125985809D01*
X176872240Y-126063219D01*
X176794831Y-126101923D01*
X177955974Y-126140628D02*
X177955974Y-126682495D01*
X177762450Y-125830990D02*
X177568926Y-126411561D01*
X178072088Y-126411561D01*
D10*
X204864523Y-97342380D02*
X205055000Y-97342380D01*
X205150238Y-97294761D01*
X205197857Y-97247142D01*
X205293095Y-97104285D01*
X205340714Y-96913809D01*
X205340714Y-96532857D01*
X205293095Y-96437619D01*
X205245476Y-96390000D01*
X205150238Y-96342380D01*
X204959761Y-96342380D01*
X204864523Y-96390000D01*
X204816904Y-96437619D01*
X204769285Y-96532857D01*
X204769285Y-96770952D01*
X204816904Y-96866190D01*
X204864523Y-96913809D01*
X204959761Y-96961428D01*
X205150238Y-96961428D01*
X205245476Y-96913809D01*
X205293095Y-96866190D01*
X205340714Y-96770952D01*
X204959761Y-94230952D02*
X204864523Y-94183333D01*
X204816904Y-94135714D01*
X204769285Y-94040476D01*
X204769285Y-93992857D01*
X204816904Y-93897619D01*
X204864523Y-93850000D01*
X204959761Y-93802380D01*
X205150238Y-93802380D01*
X205245476Y-93850000D01*
X205293095Y-93897619D01*
X205340714Y-93992857D01*
X205340714Y-94040476D01*
X205293095Y-94135714D01*
X205245476Y-94183333D01*
X205150238Y-94230952D01*
X204959761Y-94230952D01*
X204864523Y-94278571D01*
X204816904Y-94326190D01*
X204769285Y-94421428D01*
X204769285Y-94611904D01*
X204816904Y-94707142D01*
X204864523Y-94754761D01*
X204959761Y-94802380D01*
X205150238Y-94802380D01*
X205245476Y-94754761D01*
X205293095Y-94707142D01*
X205340714Y-94611904D01*
X205340714Y-94421428D01*
X205293095Y-94326190D01*
X205245476Y-94278571D01*
X205150238Y-94230952D01*
D13*
X123907142Y-59178571D02*
X124764285Y-59178571D01*
X124335714Y-60678571D02*
X124335714Y-59178571D01*
X125478571Y-60678571D02*
X125335714Y-60607142D01*
X125264285Y-60535714D01*
X125192857Y-60392857D01*
X125192857Y-59964285D01*
X125264285Y-59821428D01*
X125335714Y-59750000D01*
X125478571Y-59678571D01*
X125692857Y-59678571D01*
X125835714Y-59750000D01*
X125907142Y-59821428D01*
X125978571Y-59964285D01*
X125978571Y-60392857D01*
X125907142Y-60535714D01*
X125835714Y-60607142D01*
X125692857Y-60678571D01*
X125478571Y-60678571D01*
X128264285Y-59892857D02*
X128478571Y-59964285D01*
X128550000Y-60035714D01*
X128621428Y-60178571D01*
X128621428Y-60392857D01*
X128550000Y-60535714D01*
X128478571Y-60607142D01*
X128335714Y-60678571D01*
X127764285Y-60678571D01*
X127764285Y-59178571D01*
X128264285Y-59178571D01*
X128407142Y-59250000D01*
X128478571Y-59321428D01*
X128550000Y-59464285D01*
X128550000Y-59607142D01*
X128478571Y-59750000D01*
X128407142Y-59821428D01*
X128264285Y-59892857D01*
X127764285Y-59892857D01*
X129264285Y-60678571D02*
X129264285Y-59178571D01*
X129835714Y-59178571D01*
X129978571Y-59250000D01*
X130050000Y-59321428D01*
X130121428Y-59464285D01*
X130121428Y-59678571D01*
X130050000Y-59821428D01*
X129978571Y-59892857D01*
X129835714Y-59964285D01*
X129264285Y-59964285D01*
X130692857Y-60607142D02*
X130907142Y-60678571D01*
X131264285Y-60678571D01*
X131407142Y-60607142D01*
X131478571Y-60535714D01*
X131550000Y-60392857D01*
X131550000Y-60250000D01*
X131478571Y-60107142D01*
X131407142Y-60035714D01*
X131264285Y-59964285D01*
X130978571Y-59892857D01*
X130835714Y-59821428D01*
X130764285Y-59750000D01*
X130692857Y-59607142D01*
X130692857Y-59464285D01*
X130764285Y-59321428D01*
X130835714Y-59250000D01*
X130978571Y-59178571D01*
X131335714Y-59178571D01*
X131550000Y-59250000D01*
X133335714Y-60678571D02*
X133335714Y-59178571D01*
X133835714Y-60250000D01*
X134335714Y-59178571D01*
X134335714Y-60678571D01*
X135050000Y-60678571D02*
X135050000Y-59678571D01*
X135050000Y-59178571D02*
X134978571Y-59250000D01*
X135050000Y-59321428D01*
X135121428Y-59250000D01*
X135050000Y-59178571D01*
X135050000Y-59321428D01*
X135764285Y-59678571D02*
X135764285Y-60678571D01*
X135764285Y-59821428D02*
X135835714Y-59750000D01*
X135978571Y-59678571D01*
X136192857Y-59678571D01*
X136335714Y-59750000D01*
X136407142Y-59892857D01*
X136407142Y-60678571D01*
X137121428Y-60678571D02*
X137121428Y-59678571D01*
X137121428Y-59178571D02*
X137050000Y-59250000D01*
X137121428Y-59321428D01*
X137192857Y-59250000D01*
X137121428Y-59178571D01*
X137121428Y-59321428D01*
X138050000Y-60678571D02*
X137907142Y-60607142D01*
X137835714Y-60535714D01*
X137764285Y-60392857D01*
X137764285Y-59964285D01*
X137835714Y-59821428D01*
X137907142Y-59750000D01*
X138050000Y-59678571D01*
X138264285Y-59678571D01*
X138407142Y-59750000D01*
X138478571Y-59821428D01*
X138550000Y-59964285D01*
X138550000Y-60392857D01*
X138478571Y-60535714D01*
X138407142Y-60607142D01*
X138264285Y-60678571D01*
X138050000Y-60678571D01*
X139192857Y-59678571D02*
X139192857Y-60678571D01*
X139192857Y-59821428D02*
X139264285Y-59750000D01*
X139407142Y-59678571D01*
X139621428Y-59678571D01*
X139764285Y-59750000D01*
X139835714Y-59892857D01*
X139835714Y-60678571D01*
X142192857Y-59892857D02*
X142407142Y-59964285D01*
X142478571Y-60035714D01*
X142550000Y-60178571D01*
X142550000Y-60392857D01*
X142478571Y-60535714D01*
X142407142Y-60607142D01*
X142264285Y-60678571D01*
X141692857Y-60678571D01*
X141692857Y-59178571D01*
X142192857Y-59178571D01*
X142335714Y-59250000D01*
X142407142Y-59321428D01*
X142478571Y-59464285D01*
X142478571Y-59607142D01*
X142407142Y-59750000D01*
X142335714Y-59821428D01*
X142192857Y-59892857D01*
X141692857Y-59892857D01*
X143407142Y-60678571D02*
X143264285Y-60607142D01*
X143192857Y-60535714D01*
X143121428Y-60392857D01*
X143121428Y-59964285D01*
X143192857Y-59821428D01*
X143264285Y-59750000D01*
X143407142Y-59678571D01*
X143621428Y-59678571D01*
X143764285Y-59750000D01*
X143835714Y-59821428D01*
X143907142Y-59964285D01*
X143907142Y-60392857D01*
X143835714Y-60535714D01*
X143764285Y-60607142D01*
X143621428Y-60678571D01*
X143407142Y-60678571D01*
X145192857Y-60678571D02*
X145192857Y-59892857D01*
X145121428Y-59750000D01*
X144978571Y-59678571D01*
X144692857Y-59678571D01*
X144550000Y-59750000D01*
X145192857Y-60607142D02*
X145050000Y-60678571D01*
X144692857Y-60678571D01*
X144550000Y-60607142D01*
X144478571Y-60464285D01*
X144478571Y-60321428D01*
X144550000Y-60178571D01*
X144692857Y-60107142D01*
X145050000Y-60107142D01*
X145192857Y-60035714D01*
X145907142Y-60678571D02*
X145907142Y-59678571D01*
X145907142Y-59964285D02*
X145978571Y-59821428D01*
X146050000Y-59750000D01*
X146192857Y-59678571D01*
X146335714Y-59678571D01*
X147478571Y-60678571D02*
X147478571Y-59178571D01*
X147478571Y-60607142D02*
X147335714Y-60678571D01*
X147050000Y-60678571D01*
X146907142Y-60607142D01*
X146835714Y-60535714D01*
X146764285Y-60392857D01*
X146764285Y-59964285D01*
X146835714Y-59821428D01*
X146907142Y-59750000D01*
X147050000Y-59678571D01*
X147335714Y-59678571D01*
X147478571Y-59750000D01*
X202121428Y-58578571D02*
X202978571Y-58578571D01*
X202550000Y-60078571D02*
X202550000Y-58578571D01*
X203692857Y-60078571D02*
X203550000Y-60007142D01*
X203478571Y-59935714D01*
X203407142Y-59792857D01*
X203407142Y-59364285D01*
X203478571Y-59221428D01*
X203550000Y-59150000D01*
X203692857Y-59078571D01*
X203907142Y-59078571D01*
X204050000Y-59150000D01*
X204121428Y-59221428D01*
X204192857Y-59364285D01*
X204192857Y-59792857D01*
X204121428Y-59935714D01*
X204050000Y-60007142D01*
X203907142Y-60078571D01*
X203692857Y-60078571D01*
X206478571Y-59292857D02*
X206692857Y-59364285D01*
X206764285Y-59435714D01*
X206835714Y-59578571D01*
X206835714Y-59792857D01*
X206764285Y-59935714D01*
X206692857Y-60007142D01*
X206550000Y-60078571D01*
X205978571Y-60078571D01*
X205978571Y-58578571D01*
X206478571Y-58578571D01*
X206621428Y-58650000D01*
X206692857Y-58721428D01*
X206764285Y-58864285D01*
X206764285Y-59007142D01*
X206692857Y-59150000D01*
X206621428Y-59221428D01*
X206478571Y-59292857D01*
X205978571Y-59292857D01*
X208121428Y-60078571D02*
X208121428Y-59292857D01*
X208050000Y-59150000D01*
X207907142Y-59078571D01*
X207621428Y-59078571D01*
X207478571Y-59150000D01*
X208121428Y-60007142D02*
X207978571Y-60078571D01*
X207621428Y-60078571D01*
X207478571Y-60007142D01*
X207407142Y-59864285D01*
X207407142Y-59721428D01*
X207478571Y-59578571D01*
X207621428Y-59507142D01*
X207978571Y-59507142D01*
X208121428Y-59435714D01*
X208621428Y-59078571D02*
X209192857Y-59078571D01*
X208835714Y-58578571D02*
X208835714Y-59864285D01*
X208907142Y-60007142D01*
X209050000Y-60078571D01*
X209192857Y-60078571D01*
X209478571Y-59078571D02*
X210050000Y-59078571D01*
X209692857Y-58578571D02*
X209692857Y-59864285D01*
X209764285Y-60007142D01*
X209907142Y-60078571D01*
X210050000Y-60078571D01*
X211121428Y-60007142D02*
X210978571Y-60078571D01*
X210692857Y-60078571D01*
X210550000Y-60007142D01*
X210478571Y-59864285D01*
X210478571Y-59292857D01*
X210550000Y-59150000D01*
X210692857Y-59078571D01*
X210978571Y-59078571D01*
X211121428Y-59150000D01*
X211192857Y-59292857D01*
X211192857Y-59435714D01*
X210478571Y-59578571D01*
X211835714Y-60078571D02*
X211835714Y-59078571D01*
X211835714Y-59364285D02*
X211907142Y-59221428D01*
X211978571Y-59150000D01*
X212121428Y-59078571D01*
X212264285Y-59078571D01*
X212764285Y-60078571D02*
X212764285Y-59078571D01*
X212764285Y-58578571D02*
X212692857Y-58650000D01*
X212764285Y-58721428D01*
X212835714Y-58650000D01*
X212764285Y-58578571D01*
X212764285Y-58721428D01*
X214050000Y-60007142D02*
X213907142Y-60078571D01*
X213621428Y-60078571D01*
X213478571Y-60007142D01*
X213407142Y-59864285D01*
X213407142Y-59292857D01*
X213478571Y-59150000D01*
X213621428Y-59078571D01*
X213907142Y-59078571D01*
X214050000Y-59150000D01*
X214121428Y-59292857D01*
X214121428Y-59435714D01*
X213407142Y-59578571D01*
X214692857Y-60007142D02*
X214835714Y-60078571D01*
X215121428Y-60078571D01*
X215264285Y-60007142D01*
X215335714Y-59864285D01*
X215335714Y-59792857D01*
X215264285Y-59650000D01*
X215121428Y-59578571D01*
X214907142Y-59578571D01*
X214764285Y-59507142D01*
X214692857Y-59364285D01*
X214692857Y-59292857D01*
X214764285Y-59150000D01*
X214907142Y-59078571D01*
X215121428Y-59078571D01*
X215264285Y-59150000D01*
D10*
X205052523Y-99882380D02*
X204481095Y-99882380D01*
X204766809Y-99882380D02*
X204766809Y-98882380D01*
X204671571Y-99025238D01*
X204576333Y-99120476D01*
X204481095Y-99168095D01*
X205671571Y-98882380D02*
X205766809Y-98882380D01*
X205862047Y-98930000D01*
X205909666Y-98977619D01*
X205957285Y-99072857D01*
X206004904Y-99263333D01*
X206004904Y-99501428D01*
X205957285Y-99691904D01*
X205909666Y-99787142D01*
X205862047Y-99834761D01*
X205766809Y-99882380D01*
X205671571Y-99882380D01*
X205576333Y-99834761D01*
X205528714Y-99787142D01*
X205481095Y-99691904D01*
X205433476Y-99501428D01*
X205433476Y-99263333D01*
X205481095Y-99072857D01*
X205528714Y-98977619D01*
X205576333Y-98930000D01*
X205671571Y-98882380D01*
D13*
X191460952Y-118764761D02*
X191460952Y-120383809D01*
X191556190Y-120574285D01*
X191651428Y-120669523D01*
X191841904Y-120764761D01*
X192222857Y-120764761D01*
X192413333Y-120669523D01*
X192508571Y-120574285D01*
X192603809Y-120383809D01*
X192603809Y-118764761D01*
X193270476Y-118764761D02*
X194413333Y-118764761D01*
X193841904Y-120764761D02*
X193841904Y-118764761D01*
X194984761Y-120669523D02*
X195270476Y-120764761D01*
X195746666Y-120764761D01*
X195937142Y-120669523D01*
X196032380Y-120574285D01*
X196127619Y-120383809D01*
X196127619Y-120193333D01*
X196032380Y-120002857D01*
X195937142Y-119907619D01*
X195746666Y-119812380D01*
X195365714Y-119717142D01*
X195175238Y-119621904D01*
X195080000Y-119526666D01*
X194984761Y-119336190D01*
X194984761Y-119145714D01*
X195080000Y-118955238D01*
X195175238Y-118860000D01*
X195365714Y-118764761D01*
X195841904Y-118764761D01*
X196127619Y-118860000D01*
X196699047Y-118764761D02*
X197365714Y-120764761D01*
X198032380Y-118764761D01*
X198413333Y-118764761D02*
X199556190Y-118764761D01*
X198984761Y-120764761D02*
X198984761Y-118764761D01*
X201746666Y-120002857D02*
X203270476Y-120002857D01*
X206413333Y-119717142D02*
X206699047Y-119812380D01*
X206794285Y-119907619D01*
X206889523Y-120098095D01*
X206889523Y-120383809D01*
X206794285Y-120574285D01*
X206699047Y-120669523D01*
X206508571Y-120764761D01*
X205746666Y-120764761D01*
X205746666Y-118764761D01*
X206413333Y-118764761D01*
X206603809Y-118860000D01*
X206699047Y-118955238D01*
X206794285Y-119145714D01*
X206794285Y-119336190D01*
X206699047Y-119526666D01*
X206603809Y-119621904D01*
X206413333Y-119717142D01*
X205746666Y-119717142D01*
X207746666Y-120764761D02*
X207746666Y-118764761D01*
X208508571Y-118764761D01*
X208699047Y-118860000D01*
X208794285Y-118955238D01*
X208889523Y-119145714D01*
X208889523Y-119431428D01*
X208794285Y-119621904D01*
X208699047Y-119717142D01*
X208508571Y-119812380D01*
X207746666Y-119812380D01*
X209651428Y-120669523D02*
X209937142Y-120764761D01*
X210413333Y-120764761D01*
X210603809Y-120669523D01*
X210699047Y-120574285D01*
X210794285Y-120383809D01*
X210794285Y-120193333D01*
X210699047Y-120002857D01*
X210603809Y-119907619D01*
X210413333Y-119812380D01*
X210032380Y-119717142D01*
X209841904Y-119621904D01*
X209746666Y-119526666D01*
X209651428Y-119336190D01*
X209651428Y-119145714D01*
X209746666Y-118955238D01*
X209841904Y-118860000D01*
X210032380Y-118764761D01*
X210508571Y-118764761D01*
X210794285Y-118860000D01*
X187651428Y-123969523D02*
X187937142Y-124064761D01*
X188413333Y-124064761D01*
X188603809Y-123969523D01*
X188699047Y-123874285D01*
X188794285Y-123683809D01*
X188794285Y-123493333D01*
X188699047Y-123302857D01*
X188603809Y-123207619D01*
X188413333Y-123112380D01*
X188032380Y-123017142D01*
X187841904Y-122921904D01*
X187746666Y-122826666D01*
X187651428Y-122636190D01*
X187651428Y-122445714D01*
X187746666Y-122255238D01*
X187841904Y-122160000D01*
X188032380Y-122064761D01*
X188508571Y-122064761D01*
X188794285Y-122160000D01*
X190508571Y-123969523D02*
X190318095Y-124064761D01*
X189937142Y-124064761D01*
X189746666Y-123969523D01*
X189651428Y-123874285D01*
X189556190Y-123683809D01*
X189556190Y-123112380D01*
X189651428Y-122921904D01*
X189746666Y-122826666D01*
X189937142Y-122731428D01*
X190318095Y-122731428D01*
X190508571Y-122826666D01*
X191365714Y-124064761D02*
X191365714Y-122731428D01*
X191365714Y-123112380D02*
X191460952Y-122921904D01*
X191556190Y-122826666D01*
X191746666Y-122731428D01*
X191937142Y-122731428D01*
X193460952Y-122731428D02*
X193460952Y-124064761D01*
X192603809Y-122731428D02*
X192603809Y-123779047D01*
X192699047Y-123969523D01*
X192889523Y-124064761D01*
X193175238Y-124064761D01*
X193365714Y-123969523D01*
X193460952Y-123874285D01*
X194127619Y-122731428D02*
X194889523Y-122731428D01*
X194413333Y-122064761D02*
X194413333Y-123779047D01*
X194508571Y-123969523D01*
X194699047Y-124064761D01*
X194889523Y-124064761D01*
X195556190Y-124064761D02*
X195556190Y-122731428D01*
X195556190Y-122064761D02*
X195460952Y-122160000D01*
X195556190Y-122255238D01*
X195651428Y-122160000D01*
X195556190Y-122064761D01*
X195556190Y-122255238D01*
X196508571Y-122731428D02*
X196508571Y-124064761D01*
X196508571Y-122921904D02*
X196603809Y-122826666D01*
X196794285Y-122731428D01*
X197080000Y-122731428D01*
X197270476Y-122826666D01*
X197365714Y-123017142D01*
X197365714Y-124064761D01*
X199080000Y-123969523D02*
X198889523Y-124064761D01*
X198508571Y-124064761D01*
X198318095Y-123969523D01*
X198222857Y-123779047D01*
X198222857Y-123017142D01*
X198318095Y-122826666D01*
X198508571Y-122731428D01*
X198889523Y-122731428D01*
X199080000Y-122826666D01*
X199175238Y-123017142D01*
X199175238Y-123207619D01*
X198222857Y-123398095D01*
X200794285Y-123969523D02*
X200603809Y-124064761D01*
X200222857Y-124064761D01*
X200032380Y-123969523D01*
X199937142Y-123779047D01*
X199937142Y-123017142D01*
X200032380Y-122826666D01*
X200222857Y-122731428D01*
X200603809Y-122731428D01*
X200794285Y-122826666D01*
X200889523Y-123017142D01*
X200889523Y-123207619D01*
X199937142Y-123398095D01*
X201746666Y-124064761D02*
X201746666Y-122731428D01*
X201746666Y-123112380D02*
X201841904Y-122921904D01*
X201937142Y-122826666D01*
X202127619Y-122731428D01*
X202318095Y-122731428D01*
X202984761Y-124064761D02*
X202984761Y-122731428D01*
X202984761Y-122064761D02*
X202889523Y-122160000D01*
X202984761Y-122255238D01*
X203080000Y-122160000D01*
X202984761Y-122064761D01*
X202984761Y-122255238D01*
X203937142Y-122731428D02*
X203937142Y-124064761D01*
X203937142Y-122921904D02*
X204032380Y-122826666D01*
X204222857Y-122731428D01*
X204508571Y-122731428D01*
X204699047Y-122826666D01*
X204794285Y-123017142D01*
X204794285Y-124064761D01*
X206603809Y-122731428D02*
X206603809Y-124350476D01*
X206508571Y-124540952D01*
X206413333Y-124636190D01*
X206222857Y-124731428D01*
X205937142Y-124731428D01*
X205746666Y-124636190D01*
X206603809Y-123969523D02*
X206413333Y-124064761D01*
X206032380Y-124064761D01*
X205841904Y-123969523D01*
X205746666Y-123874285D01*
X205651428Y-123683809D01*
X205651428Y-123112380D01*
X205746666Y-122921904D01*
X205841904Y-122826666D01*
X206032380Y-122731428D01*
X206413333Y-122731428D01*
X206603809Y-122826666D01*
X208889523Y-122731428D02*
X209365714Y-124064761D01*
X209841904Y-122731428D01*
X211651428Y-124064761D02*
X210508571Y-124064761D01*
X211080000Y-124064761D02*
X211080000Y-122064761D01*
X210889523Y-122350476D01*
X210699047Y-122540952D01*
X210508571Y-122636190D01*
X212508571Y-123874285D02*
X212603809Y-123969523D01*
X212508571Y-124064761D01*
X212413333Y-123969523D01*
X212508571Y-123874285D01*
X212508571Y-124064761D01*
X213841904Y-122064761D02*
X214032380Y-122064761D01*
X214222857Y-122160000D01*
X214318095Y-122255238D01*
X214413333Y-122445714D01*
X214508571Y-122826666D01*
X214508571Y-123302857D01*
X214413333Y-123683809D01*
X214318095Y-123874285D01*
X214222857Y-123969523D01*
X214032380Y-124064761D01*
X213841904Y-124064761D01*
X213651428Y-123969523D01*
X213556190Y-123874285D01*
X213460952Y-123683809D01*
X213365714Y-123302857D01*
X213365714Y-122826666D01*
X213460952Y-122445714D01*
X213556190Y-122255238D01*
X213651428Y-122160000D01*
X213841904Y-122064761D01*
X194841904Y-126317142D02*
X194175238Y-126317142D01*
X194175238Y-127364761D02*
X194175238Y-125364761D01*
X195127619Y-125364761D01*
X196746666Y-127364761D02*
X196746666Y-126317142D01*
X196651428Y-126126666D01*
X196460952Y-126031428D01*
X196080000Y-126031428D01*
X195889523Y-126126666D01*
X196746666Y-127269523D02*
X196556190Y-127364761D01*
X196080000Y-127364761D01*
X195889523Y-127269523D01*
X195794285Y-127079047D01*
X195794285Y-126888571D01*
X195889523Y-126698095D01*
X196080000Y-126602857D01*
X196556190Y-126602857D01*
X196746666Y-126507619D01*
X197984761Y-127364761D02*
X197794285Y-127269523D01*
X197699047Y-127079047D01*
X197699047Y-125364761D01*
X199032380Y-127364761D02*
X198841904Y-127269523D01*
X198746666Y-127079047D01*
X198746666Y-125364761D01*
X201222857Y-125555238D02*
X201318095Y-125460000D01*
X201508571Y-125364761D01*
X201984761Y-125364761D01*
X202175238Y-125460000D01*
X202270476Y-125555238D01*
X202365714Y-125745714D01*
X202365714Y-125936190D01*
X202270476Y-126221904D01*
X201127619Y-127364761D01*
X202365714Y-127364761D01*
X203603809Y-125364761D02*
X203794285Y-125364761D01*
X203984761Y-125460000D01*
X204080000Y-125555238D01*
X204175238Y-125745714D01*
X204270476Y-126126666D01*
X204270476Y-126602857D01*
X204175238Y-126983809D01*
X204080000Y-127174285D01*
X203984761Y-127269523D01*
X203794285Y-127364761D01*
X203603809Y-127364761D01*
X203413333Y-127269523D01*
X203318095Y-127174285D01*
X203222857Y-126983809D01*
X203127619Y-126602857D01*
X203127619Y-126126666D01*
X203222857Y-125745714D01*
X203318095Y-125555238D01*
X203413333Y-125460000D01*
X203603809Y-125364761D01*
X205032380Y-125555238D02*
X205127619Y-125460000D01*
X205318095Y-125364761D01*
X205794285Y-125364761D01*
X205984761Y-125460000D01*
X206080000Y-125555238D01*
X206175238Y-125745714D01*
X206175238Y-125936190D01*
X206080000Y-126221904D01*
X204937142Y-127364761D01*
X206175238Y-127364761D01*
X207413333Y-125364761D02*
X207603809Y-125364761D01*
X207794285Y-125460000D01*
X207889523Y-125555238D01*
X207984761Y-125745714D01*
X208080000Y-126126666D01*
X208080000Y-126602857D01*
X207984761Y-126983809D01*
X207889523Y-127174285D01*
X207794285Y-127269523D01*
X207603809Y-127364761D01*
X207413333Y-127364761D01*
X207222857Y-127269523D01*
X207127619Y-127174285D01*
X207032380Y-126983809D01*
X206937142Y-126602857D01*
X206937142Y-126126666D01*
X207032380Y-125745714D01*
X207127619Y-125555238D01*
X207222857Y-125460000D01*
X207413333Y-125364761D01*
D10*
X205052523Y-110042380D02*
X204481095Y-110042380D01*
X204766809Y-110042380D02*
X204766809Y-109042380D01*
X204671571Y-109185238D01*
X204576333Y-109280476D01*
X204481095Y-109328095D01*
X205909666Y-109375714D02*
X205909666Y-110042380D01*
X205671571Y-108994761D02*
X205433476Y-109709047D01*
X206052523Y-109709047D01*
X205052523Y-107502380D02*
X204481095Y-107502380D01*
X204766809Y-107502380D02*
X204766809Y-106502380D01*
X204671571Y-106645238D01*
X204576333Y-106740476D01*
X204481095Y-106788095D01*
X205385857Y-106502380D02*
X206004904Y-106502380D01*
X205671571Y-106883333D01*
X205814428Y-106883333D01*
X205909666Y-106930952D01*
X205957285Y-106978571D01*
X206004904Y-107073809D01*
X206004904Y-107311904D01*
X205957285Y-107407142D01*
X205909666Y-107454761D01*
X205814428Y-107502380D01*
X205528714Y-107502380D01*
X205433476Y-107454761D01*
X205385857Y-107407142D01*
X205052523Y-104962380D02*
X204481095Y-104962380D01*
X204766809Y-104962380D02*
X204766809Y-103962380D01*
X204671571Y-104105238D01*
X204576333Y-104200476D01*
X204481095Y-104248095D01*
X205433476Y-104057619D02*
X205481095Y-104010000D01*
X205576333Y-103962380D01*
X205814428Y-103962380D01*
X205909666Y-104010000D01*
X205957285Y-104057619D01*
X206004904Y-104152857D01*
X206004904Y-104248095D01*
X205957285Y-104390952D01*
X205385857Y-104962380D01*
X206004904Y-104962380D01*
X205052523Y-102422380D02*
X204481095Y-102422380D01*
X204766809Y-102422380D02*
X204766809Y-101422380D01*
X204671571Y-101565238D01*
X204576333Y-101660476D01*
X204481095Y-101708095D01*
X206004904Y-102422380D02*
X205433476Y-102422380D01*
X205719190Y-102422380D02*
X205719190Y-101422380D01*
X205623952Y-101565238D01*
X205528714Y-101660476D01*
X205433476Y-101708095D01*
X133168523Y-111582380D02*
X132597095Y-111582380D01*
X132882809Y-111582380D02*
X132882809Y-110582380D01*
X132787571Y-110725238D01*
X132692333Y-110820476D01*
X132597095Y-110868095D01*
X134025666Y-110915714D02*
X134025666Y-111582380D01*
X133787571Y-110534761D02*
X133549476Y-111249047D01*
X134168523Y-111249047D01*
X133168523Y-108582380D02*
X132597095Y-108582380D01*
X132882809Y-108582380D02*
X132882809Y-107582380D01*
X132787571Y-107725238D01*
X132692333Y-107820476D01*
X132597095Y-107868095D01*
X133501857Y-107582380D02*
X134120904Y-107582380D01*
X133787571Y-107963333D01*
X133930428Y-107963333D01*
X134025666Y-108010952D01*
X134073285Y-108058571D01*
X134120904Y-108153809D01*
X134120904Y-108391904D01*
X134073285Y-108487142D01*
X134025666Y-108534761D01*
X133930428Y-108582380D01*
X133644714Y-108582380D01*
X133549476Y-108534761D01*
X133501857Y-108487142D01*
X133168523Y-105582380D02*
X132597095Y-105582380D01*
X132882809Y-105582380D02*
X132882809Y-104582380D01*
X132787571Y-104725238D01*
X132692333Y-104820476D01*
X132597095Y-104868095D01*
X133549476Y-104677619D02*
X133597095Y-104630000D01*
X133692333Y-104582380D01*
X133930428Y-104582380D01*
X134025666Y-104630000D01*
X134073285Y-104677619D01*
X134120904Y-104772857D01*
X134120904Y-104868095D01*
X134073285Y-105010952D01*
X133501857Y-105582380D01*
X134120904Y-105582380D01*
X133168523Y-102582380D02*
X132597095Y-102582380D01*
X132882809Y-102582380D02*
X132882809Y-101582380D01*
X132787571Y-101725238D01*
X132692333Y-101820476D01*
X132597095Y-101868095D01*
X134120904Y-102582380D02*
X133549476Y-102582380D01*
X133835190Y-102582380D02*
X133835190Y-101582380D01*
X133739952Y-101725238D01*
X133644714Y-101820476D01*
X133549476Y-101868095D01*
X133168523Y-99582380D02*
X132597095Y-99582380D01*
X132882809Y-99582380D02*
X132882809Y-98582380D01*
X132787571Y-98725238D01*
X132692333Y-98820476D01*
X132597095Y-98868095D01*
X133787571Y-98582380D02*
X133882809Y-98582380D01*
X133978047Y-98630000D01*
X134025666Y-98677619D01*
X134073285Y-98772857D01*
X134120904Y-98963333D01*
X134120904Y-99201428D01*
X134073285Y-99391904D01*
X134025666Y-99487142D01*
X133978047Y-99534761D01*
X133882809Y-99582380D01*
X133787571Y-99582380D01*
X133692333Y-99534761D01*
X133644714Y-99487142D01*
X133597095Y-99391904D01*
X133549476Y-99201428D01*
X133549476Y-98963333D01*
X133597095Y-98772857D01*
X133644714Y-98677619D01*
X133692333Y-98630000D01*
X133787571Y-98582380D01*
X133009523Y-96452380D02*
X133200000Y-96452380D01*
X133295238Y-96404761D01*
X133342857Y-96357142D01*
X133438095Y-96214285D01*
X133485714Y-96023809D01*
X133485714Y-95642857D01*
X133438095Y-95547619D01*
X133390476Y-95500000D01*
X133295238Y-95452380D01*
X133104761Y-95452380D01*
X133009523Y-95500000D01*
X132961904Y-95547619D01*
X132914285Y-95642857D01*
X132914285Y-95880952D01*
X132961904Y-95976190D01*
X133009523Y-96023809D01*
X133104761Y-96071428D01*
X133295238Y-96071428D01*
X133390476Y-96023809D01*
X133438095Y-95976190D01*
X133485714Y-95880952D01*
X133104761Y-92880952D02*
X133009523Y-92833333D01*
X132961904Y-92785714D01*
X132914285Y-92690476D01*
X132914285Y-92642857D01*
X132961904Y-92547619D01*
X133009523Y-92500000D01*
X133104761Y-92452380D01*
X133295238Y-92452380D01*
X133390476Y-92500000D01*
X133438095Y-92547619D01*
X133485714Y-92642857D01*
X133485714Y-92690476D01*
X133438095Y-92785714D01*
X133390476Y-92833333D01*
X133295238Y-92880952D01*
X133104761Y-92880952D01*
X133009523Y-92928571D01*
X132961904Y-92976190D01*
X132914285Y-93071428D01*
X132914285Y-93261904D01*
X132961904Y-93357142D01*
X133009523Y-93404761D01*
X133104761Y-93452380D01*
X133295238Y-93452380D01*
X133390476Y-93404761D01*
X133438095Y-93357142D01*
X133485714Y-93261904D01*
X133485714Y-93071428D01*
X133438095Y-92976190D01*
X133390476Y-92928571D01*
X133295238Y-92880952D01*
X204721666Y-82537380D02*
X205388333Y-82537380D01*
X204959761Y-83537380D01*
X205245476Y-79997380D02*
X205055000Y-79997380D01*
X204959761Y-80045000D01*
X204912142Y-80092619D01*
X204816904Y-80235476D01*
X204769285Y-80425952D01*
X204769285Y-80806904D01*
X204816904Y-80902142D01*
X204864523Y-80949761D01*
X204959761Y-80997380D01*
X205150238Y-80997380D01*
X205245476Y-80949761D01*
X205293095Y-80902142D01*
X205340714Y-80806904D01*
X205340714Y-80568809D01*
X205293095Y-80473571D01*
X205245476Y-80425952D01*
X205150238Y-80378333D01*
X204959761Y-80378333D01*
X204864523Y-80425952D01*
X204816904Y-80473571D01*
X204769285Y-80568809D01*
X205293095Y-77457380D02*
X204816904Y-77457380D01*
X204769285Y-77933571D01*
X204816904Y-77885952D01*
X204912142Y-77838333D01*
X205150238Y-77838333D01*
X205245476Y-77885952D01*
X205293095Y-77933571D01*
X205340714Y-78028809D01*
X205340714Y-78266904D01*
X205293095Y-78362142D01*
X205245476Y-78409761D01*
X205150238Y-78457380D01*
X204912142Y-78457380D01*
X204816904Y-78409761D01*
X204769285Y-78362142D01*
X205245476Y-75250714D02*
X205245476Y-75917380D01*
X205007380Y-74869761D02*
X204769285Y-75584047D01*
X205388333Y-75584047D01*
X204721666Y-72377380D02*
X205340714Y-72377380D01*
X205007380Y-72758333D01*
X205150238Y-72758333D01*
X205245476Y-72805952D01*
X205293095Y-72853571D01*
X205340714Y-72948809D01*
X205340714Y-73186904D01*
X205293095Y-73282142D01*
X205245476Y-73329761D01*
X205150238Y-73377380D01*
X204864523Y-73377380D01*
X204769285Y-73329761D01*
X204721666Y-73282142D01*
X204769285Y-69932619D02*
X204816904Y-69885000D01*
X204912142Y-69837380D01*
X205150238Y-69837380D01*
X205245476Y-69885000D01*
X205293095Y-69932619D01*
X205340714Y-70027857D01*
X205340714Y-70123095D01*
X205293095Y-70265952D01*
X204721666Y-70837380D01*
X205340714Y-70837380D01*
X205340714Y-68297380D02*
X204769285Y-68297380D01*
X205055000Y-68297380D02*
X205055000Y-67297380D01*
X204959761Y-67440238D01*
X204864523Y-67535476D01*
X204769285Y-67583095D01*
X132625666Y-83877380D02*
X133292333Y-83877380D01*
X132863761Y-84877380D01*
X133149476Y-80877380D02*
X132959000Y-80877380D01*
X132863761Y-80925000D01*
X132816142Y-80972619D01*
X132720904Y-81115476D01*
X132673285Y-81305952D01*
X132673285Y-81686904D01*
X132720904Y-81782142D01*
X132768523Y-81829761D01*
X132863761Y-81877380D01*
X133054238Y-81877380D01*
X133149476Y-81829761D01*
X133197095Y-81782142D01*
X133244714Y-81686904D01*
X133244714Y-81448809D01*
X133197095Y-81353571D01*
X133149476Y-81305952D01*
X133054238Y-81258333D01*
X132863761Y-81258333D01*
X132768523Y-81305952D01*
X132720904Y-81353571D01*
X132673285Y-81448809D01*
X133197095Y-77877380D02*
X132720904Y-77877380D01*
X132673285Y-78353571D01*
X132720904Y-78305952D01*
X132816142Y-78258333D01*
X133054238Y-78258333D01*
X133149476Y-78305952D01*
X133197095Y-78353571D01*
X133244714Y-78448809D01*
X133244714Y-78686904D01*
X133197095Y-78782142D01*
X133149476Y-78829761D01*
X133054238Y-78877380D01*
X132816142Y-78877380D01*
X132720904Y-78829761D01*
X132673285Y-78782142D01*
X133149476Y-75210714D02*
X133149476Y-75877380D01*
X132911380Y-74829761D02*
X132673285Y-75544047D01*
X133292333Y-75544047D01*
X132625666Y-71877380D02*
X133244714Y-71877380D01*
X132911380Y-72258333D01*
X133054238Y-72258333D01*
X133149476Y-72305952D01*
X133197095Y-72353571D01*
X133244714Y-72448809D01*
X133244714Y-72686904D01*
X133197095Y-72782142D01*
X133149476Y-72829761D01*
X133054238Y-72877380D01*
X132768523Y-72877380D01*
X132673285Y-72829761D01*
X132625666Y-72782142D01*
X132673285Y-68972619D02*
X132720904Y-68925000D01*
X132816142Y-68877380D01*
X133054238Y-68877380D01*
X133149476Y-68925000D01*
X133197095Y-68972619D01*
X133244714Y-69067857D01*
X133244714Y-69163095D01*
X133197095Y-69305952D01*
X132625666Y-69877380D01*
X133244714Y-69877380D01*
X133244714Y-67097380D02*
X132673285Y-67097380D01*
X132959000Y-67097380D02*
X132959000Y-66097380D01*
X132863761Y-66240238D01*
X132768523Y-66335476D01*
X132673285Y-66383095D01*
%TO.C,JC4*%
X217990000Y-113049000D02*
X217990000Y-90951000D01*
X210878000Y-114319000D02*
X216720000Y-114319000D01*
X207830000Y-114319000D02*
X207830000Y-89681000D01*
X217990000Y-113049000D02*
X216720000Y-114319000D01*
X210878000Y-114319000D02*
X207830000Y-114319000D01*
X207830000Y-89681000D02*
X216720000Y-89681000D01*
X216720000Y-89681000D02*
X217990000Y-90951000D01*
%TO.C,JC3*%
X121210000Y-90951000D02*
X121210000Y-113049000D01*
X128322000Y-89681000D02*
X122480000Y-89681000D01*
X131370000Y-89681000D02*
X131370000Y-114319000D01*
X121210000Y-90951000D02*
X122480000Y-89681000D01*
X128322000Y-89681000D02*
X131370000Y-89681000D01*
X131370000Y-114319000D02*
X122480000Y-114319000D01*
X122480000Y-114319000D02*
X121210000Y-113049000D01*
%TO.C,JC2*%
X217990000Y-86449000D02*
X217990000Y-64351000D01*
X210878000Y-87719000D02*
X216720000Y-87719000D01*
X207830000Y-87719000D02*
X207830000Y-63081000D01*
X217990000Y-86449000D02*
X216720000Y-87719000D01*
X210878000Y-87719000D02*
X207830000Y-87719000D01*
X207830000Y-63081000D02*
X216720000Y-63081000D01*
X216720000Y-63081000D02*
X217990000Y-64351000D01*
%TO.C,JC1*%
X121210000Y-64151000D02*
X121210000Y-86249000D01*
X128322000Y-62881000D02*
X122480000Y-62881000D01*
X131370000Y-62881000D02*
X131370000Y-87519000D01*
X121210000Y-64151000D02*
X122480000Y-62881000D01*
X128322000Y-62881000D02*
X131370000Y-62881000D01*
X131370000Y-87519000D02*
X122480000Y-87519000D01*
X122480000Y-87519000D02*
X121210000Y-86249000D01*
D14*
%TO.C,UTSVT_Logo1*%
G36*
X137475022Y-119617039D02*
G01*
X137782668Y-119699318D01*
X138409242Y-119973482D01*
X139013510Y-120393275D01*
X139562345Y-120935341D01*
X139601770Y-120981975D01*
X139814432Y-121247321D01*
X139984812Y-121479225D01*
X140092543Y-121647853D01*
X140117260Y-121723370D01*
X140108479Y-121724302D01*
X140037298Y-121670987D01*
X139868916Y-121534039D01*
X139635169Y-121339479D01*
X139549559Y-121267442D01*
X138837133Y-120738873D01*
X138119895Y-120358433D01*
X137383426Y-120124838D01*
X136613309Y-120036807D01*
X135795127Y-120093057D01*
X134914463Y-120292308D01*
X133956897Y-120633276D01*
X133690314Y-120746400D01*
X133321517Y-120901373D01*
X133096415Y-120982557D01*
X133008855Y-120995023D01*
X133052683Y-120943842D01*
X133221746Y-120834085D01*
X133509890Y-120670824D01*
X133910962Y-120459130D01*
X134242334Y-120291458D01*
X135021464Y-119934603D01*
X135707658Y-119693189D01*
X136327555Y-119562760D01*
X136907797Y-119538863D01*
X137475022Y-119617039D01*
G37*
X137475022Y-119617039D02*
X137782668Y-119699318D01*
X138409242Y-119973482D01*
X139013510Y-120393275D01*
X139562345Y-120935341D01*
X139601770Y-120981975D01*
X139814432Y-121247321D01*
X139984812Y-121479225D01*
X140092543Y-121647853D01*
X140117260Y-121723370D01*
X140108479Y-121724302D01*
X140037298Y-121670987D01*
X139868916Y-121534039D01*
X139635169Y-121339479D01*
X139549559Y-121267442D01*
X138837133Y-120738873D01*
X138119895Y-120358433D01*
X137383426Y-120124838D01*
X136613309Y-120036807D01*
X135795127Y-120093057D01*
X134914463Y-120292308D01*
X133956897Y-120633276D01*
X133690314Y-120746400D01*
X133321517Y-120901373D01*
X133096415Y-120982557D01*
X133008855Y-120995023D01*
X133052683Y-120943842D01*
X133221746Y-120834085D01*
X133509890Y-120670824D01*
X133910962Y-120459130D01*
X134242334Y-120291458D01*
X135021464Y-119934603D01*
X135707658Y-119693189D01*
X136327555Y-119562760D01*
X136907797Y-119538863D01*
X137475022Y-119617039D01*
G36*
X133588000Y-123008171D02*
G01*
X133778544Y-123035224D01*
X133842975Y-123084973D01*
X133840591Y-123105834D01*
X133737889Y-123201847D01*
X133621868Y-123238722D01*
X133478364Y-123310816D01*
X133436844Y-123492722D01*
X133407513Y-123807587D01*
X133331073Y-124021292D01*
X133219432Y-124100663D01*
X133218575Y-124100667D01*
X133158213Y-124075620D01*
X133136959Y-123980418D01*
X133155037Y-123784973D01*
X133212673Y-123459193D01*
X133223775Y-123402167D01*
X133191544Y-123277742D01*
X133098463Y-123254000D01*
X132952358Y-123208815D01*
X132912284Y-123158517D01*
X132861169Y-123178527D01*
X132756145Y-123320276D01*
X132618902Y-123553984D01*
X132603930Y-123581851D01*
X132450318Y-123840806D01*
X132310268Y-124026760D01*
X132213380Y-124100593D01*
X132211376Y-124100667D01*
X132121830Y-124023915D01*
X132021428Y-123819296D01*
X131962341Y-123643136D01*
X131873659Y-123320851D01*
X131838360Y-123127502D01*
X131856067Y-123031449D01*
X131926406Y-123001054D01*
X131954720Y-123000000D01*
X132061642Y-123072943D01*
X132131125Y-123232834D01*
X132197921Y-123502998D01*
X132257097Y-123614036D01*
X132328480Y-123573914D01*
X132431897Y-123390599D01*
X132447167Y-123359834D01*
X132624694Y-123000000D01*
X133250069Y-123000000D01*
X133588000Y-123008171D01*
G37*
X133588000Y-123008171D02*
X133778544Y-123035224D01*
X133842975Y-123084973D01*
X133840591Y-123105834D01*
X133737889Y-123201847D01*
X133621868Y-123238722D01*
X133478364Y-123310816D01*
X133436844Y-123492722D01*
X133407513Y-123807587D01*
X133331073Y-124021292D01*
X133219432Y-124100663D01*
X133218575Y-124100667D01*
X133158213Y-124075620D01*
X133136959Y-123980418D01*
X133155037Y-123784973D01*
X133212673Y-123459193D01*
X133223775Y-123402167D01*
X133191544Y-123277742D01*
X133098463Y-123254000D01*
X132952358Y-123208815D01*
X132912284Y-123158517D01*
X132861169Y-123178527D01*
X132756145Y-123320276D01*
X132618902Y-123553984D01*
X132603930Y-123581851D01*
X132450318Y-123840806D01*
X132310268Y-124026760D01*
X132213380Y-124100593D01*
X132211376Y-124100667D01*
X132121830Y-124023915D01*
X132021428Y-123819296D01*
X131962341Y-123643136D01*
X131873659Y-123320851D01*
X131838360Y-123127502D01*
X131856067Y-123031449D01*
X131926406Y-123001054D01*
X131954720Y-123000000D01*
X132061642Y-123072943D01*
X132131125Y-123232834D01*
X132197921Y-123502998D01*
X132257097Y-123614036D01*
X132328480Y-123573914D01*
X132431897Y-123390599D01*
X132447167Y-123359834D01*
X132624694Y-123000000D01*
X133250069Y-123000000D01*
X133588000Y-123008171D01*
G36*
X130656219Y-123013596D02*
G01*
X130786244Y-123060668D01*
X130813334Y-123127000D01*
X130743050Y-123230509D01*
X130646916Y-123254000D01*
X130541195Y-123285175D01*
X130474996Y-123404676D01*
X130427834Y-123651465D01*
X130424342Y-123677334D01*
X130364866Y-123963175D01*
X130281182Y-124091210D01*
X130244148Y-124100667D01*
X130173253Y-124068698D01*
X130152093Y-123948218D01*
X130174936Y-123702366D01*
X130178334Y-123677334D01*
X130204950Y-123423201D01*
X130189181Y-123295507D01*
X130123926Y-123255076D01*
X130101612Y-123254000D01*
X129984343Y-123189644D01*
X129966667Y-123127000D01*
X130011986Y-123047135D01*
X130168894Y-123008127D01*
X130390000Y-123000000D01*
X130656219Y-123013596D01*
G37*
X130656219Y-123013596D02*
X130786244Y-123060668D01*
X130813334Y-123127000D01*
X130743050Y-123230509D01*
X130646916Y-123254000D01*
X130541195Y-123285175D01*
X130474996Y-123404676D01*
X130427834Y-123651465D01*
X130424342Y-123677334D01*
X130364866Y-123963175D01*
X130281182Y-124091210D01*
X130244148Y-124100667D01*
X130173253Y-124068698D01*
X130152093Y-123948218D01*
X130174936Y-123702366D01*
X130178334Y-123677334D01*
X130204950Y-123423201D01*
X130189181Y-123295507D01*
X130123926Y-123255076D01*
X130101612Y-123254000D01*
X129984343Y-123189644D01*
X129966667Y-123127000D01*
X130011986Y-123047135D01*
X130168894Y-123008127D01*
X130390000Y-123000000D01*
X130656219Y-123013596D01*
G36*
X131617135Y-123043696D02*
G01*
X131638412Y-123105834D01*
X131535971Y-123188619D01*
X131406000Y-123211667D01*
X131223919Y-123251982D01*
X131189271Y-123348427D01*
X131307901Y-123464247D01*
X131361474Y-123491596D01*
X131535609Y-123639319D01*
X131560343Y-123828490D01*
X131433769Y-124017372D01*
X131387161Y-124053533D01*
X131176083Y-124167544D01*
X131004919Y-124159270D01*
X130908320Y-124108836D01*
X130827683Y-124007447D01*
X130882926Y-123927410D01*
X131040992Y-123901665D01*
X131107646Y-123910225D01*
X131275718Y-123900631D01*
X131321882Y-123815169D01*
X131242230Y-123699420D01*
X131131328Y-123633910D01*
X130955049Y-123484940D01*
X130912433Y-123284311D01*
X130986042Y-123122933D01*
X131114838Y-123044772D01*
X131301927Y-123004491D01*
X131488847Y-123003621D01*
X131617135Y-123043696D01*
G37*
X131617135Y-123043696D02*
X131638412Y-123105834D01*
X131535971Y-123188619D01*
X131406000Y-123211667D01*
X131223919Y-123251982D01*
X131189271Y-123348427D01*
X131307901Y-123464247D01*
X131361474Y-123491596D01*
X131535609Y-123639319D01*
X131560343Y-123828490D01*
X131433769Y-124017372D01*
X131387161Y-124053533D01*
X131176083Y-124167544D01*
X131004919Y-124159270D01*
X130908320Y-124108836D01*
X130827683Y-124007447D01*
X130882926Y-123927410D01*
X131040992Y-123901665D01*
X131107646Y-123910225D01*
X131275718Y-123900631D01*
X131321882Y-123815169D01*
X131242230Y-123699420D01*
X131131328Y-123633910D01*
X130955049Y-123484940D01*
X130912433Y-123284311D01*
X130986042Y-123122933D01*
X131114838Y-123044772D01*
X131301927Y-123004491D01*
X131488847Y-123003621D01*
X131617135Y-123043696D01*
G36*
X129778617Y-123069315D02*
G01*
X129795314Y-123148167D01*
X129771556Y-123362794D01*
X129716406Y-123622471D01*
X129647108Y-123860123D01*
X129580907Y-124008676D01*
X129571082Y-124020361D01*
X129381009Y-124115001D01*
X129132331Y-124143677D01*
X128929500Y-124095932D01*
X128830859Y-123960585D01*
X128780401Y-123736812D01*
X128775347Y-123476811D01*
X128812919Y-123232782D01*
X128890335Y-123056923D01*
X128987858Y-123000000D01*
X129047526Y-123058109D01*
X129064710Y-123246093D01*
X129052373Y-123473009D01*
X129034174Y-123740789D01*
X129046265Y-123878448D01*
X129102683Y-123924415D01*
X129214740Y-123917509D01*
X129338993Y-123875283D01*
X129417221Y-123763762D01*
X129474798Y-123539613D01*
X129491741Y-123444500D01*
X129561395Y-123158155D01*
X129645765Y-123013690D01*
X129682241Y-123000000D01*
X129778617Y-123069315D01*
G37*
X129778617Y-123069315D02*
X129795314Y-123148167D01*
X129771556Y-123362794D01*
X129716406Y-123622471D01*
X129647108Y-123860123D01*
X129580907Y-124008676D01*
X129571082Y-124020361D01*
X129381009Y-124115001D01*
X129132331Y-124143677D01*
X128929500Y-124095932D01*
X128830859Y-123960585D01*
X128780401Y-123736812D01*
X128775347Y-123476811D01*
X128812919Y-123232782D01*
X128890335Y-123056923D01*
X128987858Y-123000000D01*
X129047526Y-123058109D01*
X129064710Y-123246093D01*
X129052373Y-123473009D01*
X129034174Y-123740789D01*
X129046265Y-123878448D01*
X129102683Y-123924415D01*
X129214740Y-123917509D01*
X129338993Y-123875283D01*
X129417221Y-123763762D01*
X129474798Y-123539613D01*
X129491741Y-123444500D01*
X129561395Y-123158155D01*
X129645765Y-123013690D01*
X129682241Y-123000000D01*
X129778617Y-123069315D01*
G36*
X133203943Y-121755662D02*
G01*
X134818301Y-121809837D01*
X136586221Y-121895813D01*
X138506529Y-122013673D01*
X138772000Y-122031663D01*
X139424946Y-122077680D01*
X140115556Y-122128602D01*
X140793333Y-122180553D01*
X141407778Y-122229655D01*
X141908393Y-122272030D01*
X141947000Y-122275458D01*
X143217000Y-122388801D01*
X141312000Y-122334567D01*
X140495080Y-122314732D01*
X139609053Y-122299324D01*
X138673882Y-122288234D01*
X137709527Y-122281357D01*
X136735950Y-122278585D01*
X135773113Y-122279811D01*
X134840978Y-122284927D01*
X133959507Y-122293828D01*
X133148660Y-122306404D01*
X132428401Y-122322551D01*
X131818690Y-122342159D01*
X131339489Y-122365123D01*
X131025000Y-122389767D01*
X130050440Y-122509425D01*
X129237746Y-122642204D01*
X128579780Y-122790644D01*
X128069406Y-122957283D01*
X127699487Y-123144661D01*
X127462886Y-123355318D01*
X127352467Y-123591793D01*
X127342000Y-123700189D01*
X127391925Y-123942824D01*
X127512500Y-124186887D01*
X127517099Y-124193430D01*
X127615263Y-124345554D01*
X127625725Y-124413634D01*
X127535276Y-124395003D01*
X127330705Y-124286997D01*
X127003334Y-124089745D01*
X126574626Y-123799938D01*
X126210792Y-123505182D01*
X125938285Y-123229932D01*
X125783559Y-122998643D01*
X125764892Y-122944878D01*
X125778979Y-122685570D01*
X125958382Y-122457240D01*
X126301926Y-122259968D01*
X126808435Y-122093839D01*
X127476734Y-121958934D01*
X128305647Y-121855336D01*
X129294000Y-121783127D01*
X130440618Y-121742390D01*
X131744323Y-121733208D01*
X133203943Y-121755662D01*
G37*
X133203943Y-121755662D02*
X134818301Y-121809837D01*
X136586221Y-121895813D01*
X138506529Y-122013673D01*
X138772000Y-122031663D01*
X139424946Y-122077680D01*
X140115556Y-122128602D01*
X140793333Y-122180553D01*
X141407778Y-122229655D01*
X141908393Y-122272030D01*
X141947000Y-122275458D01*
X143217000Y-122388801D01*
X141312000Y-122334567D01*
X140495080Y-122314732D01*
X139609053Y-122299324D01*
X138673882Y-122288234D01*
X137709527Y-122281357D01*
X136735950Y-122278585D01*
X135773113Y-122279811D01*
X134840978Y-122284927D01*
X133959507Y-122293828D01*
X133148660Y-122306404D01*
X132428401Y-122322551D01*
X131818690Y-122342159D01*
X131339489Y-122365123D01*
X131025000Y-122389767D01*
X130050440Y-122509425D01*
X129237746Y-122642204D01*
X128579780Y-122790644D01*
X128069406Y-122957283D01*
X127699487Y-123144661D01*
X127462886Y-123355318D01*
X127352467Y-123591793D01*
X127342000Y-123700189D01*
X127391925Y-123942824D01*
X127512500Y-124186887D01*
X127517099Y-124193430D01*
X127615263Y-124345554D01*
X127625725Y-124413634D01*
X127535276Y-124395003D01*
X127330705Y-124286997D01*
X127003334Y-124089745D01*
X126574626Y-123799938D01*
X126210792Y-123505182D01*
X125938285Y-123229932D01*
X125783559Y-122998643D01*
X125764892Y-122944878D01*
X125778979Y-122685570D01*
X125958382Y-122457240D01*
X126301926Y-122259968D01*
X126808435Y-122093839D01*
X127476734Y-121958934D01*
X128305647Y-121855336D01*
X129294000Y-121783127D01*
X130440618Y-121742390D01*
X131744323Y-121733208D01*
X133203943Y-121755662D01*
G36*
X138426616Y-122594884D02*
G01*
X139193095Y-122676699D01*
X139864321Y-122821139D01*
X139999667Y-122862989D01*
X140636279Y-123119973D01*
X141131666Y-123417975D01*
X141481375Y-123748364D01*
X141680952Y-124102511D01*
X141725944Y-124471786D01*
X141611897Y-124847560D01*
X141334357Y-125221203D01*
X141256059Y-125297501D01*
X140796706Y-125619800D01*
X140214328Y-125861745D01*
X139538434Y-126016518D01*
X138798531Y-126077305D01*
X138043722Y-126039577D01*
X137651259Y-125975619D01*
X137245114Y-125880150D01*
X136973042Y-125794726D01*
X136604244Y-125630908D01*
X136202742Y-125411585D01*
X135819164Y-125168294D01*
X135504138Y-124932570D01*
X135343000Y-124779358D01*
X135173667Y-124585501D01*
X135427667Y-124714686D01*
X136082755Y-124977412D01*
X136826130Y-125157303D01*
X137615448Y-125252579D01*
X138408366Y-125261459D01*
X139162542Y-125182163D01*
X139835632Y-125012909D01*
X140092139Y-124910870D01*
X140518518Y-124668059D01*
X140780214Y-124408225D01*
X140880009Y-124139425D01*
X140820686Y-123869717D01*
X140605027Y-123607160D01*
X140235815Y-123359810D01*
X139715831Y-123135726D01*
X139449334Y-123049350D01*
X138633203Y-122875229D01*
X137730398Y-122802743D01*
X136788694Y-122830587D01*
X135855866Y-122957453D01*
X135014889Y-123170601D01*
X134682610Y-123273953D01*
X134417131Y-123349913D01*
X134254974Y-123388382D01*
X134222758Y-123389647D01*
X134265005Y-123335450D01*
X134438575Y-123248737D01*
X134711235Y-123140844D01*
X135050752Y-123023111D01*
X135424894Y-122906876D01*
X135801428Y-122803478D01*
X136066657Y-122741034D01*
X136812297Y-122625467D01*
X137615983Y-122577279D01*
X138426616Y-122594884D01*
G37*
X138426616Y-122594884D02*
X139193095Y-122676699D01*
X139864321Y-122821139D01*
X139999667Y-122862989D01*
X140636279Y-123119973D01*
X141131666Y-123417975D01*
X141481375Y-123748364D01*
X141680952Y-124102511D01*
X141725944Y-124471786D01*
X141611897Y-124847560D01*
X141334357Y-125221203D01*
X141256059Y-125297501D01*
X140796706Y-125619800D01*
X140214328Y-125861745D01*
X139538434Y-126016518D01*
X138798531Y-126077305D01*
X138043722Y-126039577D01*
X137651259Y-125975619D01*
X137245114Y-125880150D01*
X136973042Y-125794726D01*
X136604244Y-125630908D01*
X136202742Y-125411585D01*
X135819164Y-125168294D01*
X135504138Y-124932570D01*
X135343000Y-124779358D01*
X135173667Y-124585501D01*
X135427667Y-124714686D01*
X136082755Y-124977412D01*
X136826130Y-125157303D01*
X137615448Y-125252579D01*
X138408366Y-125261459D01*
X139162542Y-125182163D01*
X139835632Y-125012909D01*
X140092139Y-124910870D01*
X140518518Y-124668059D01*
X140780214Y-124408225D01*
X140880009Y-124139425D01*
X140820686Y-123869717D01*
X140605027Y-123607160D01*
X140235815Y-123359810D01*
X139715831Y-123135726D01*
X139449334Y-123049350D01*
X138633203Y-122875229D01*
X137730398Y-122802743D01*
X136788694Y-122830587D01*
X135855866Y-122957453D01*
X135014889Y-123170601D01*
X134682610Y-123273953D01*
X134417131Y-123349913D01*
X134254974Y-123388382D01*
X134222758Y-123389647D01*
X134265005Y-123335450D01*
X134438575Y-123248737D01*
X134711235Y-123140844D01*
X135050752Y-123023111D01*
X135424894Y-122906876D01*
X135801428Y-122803478D01*
X136066657Y-122741034D01*
X136812297Y-122625467D01*
X137615983Y-122577279D01*
X138426616Y-122594884D01*
G36*
X135148417Y-123959313D02*
G01*
X134964990Y-124093627D01*
X134694708Y-124278048D01*
X134366558Y-124493760D01*
X134009526Y-124721948D01*
X133652599Y-124943795D01*
X133324765Y-125140486D01*
X133087621Y-125275489D01*
X132340408Y-125642640D01*
X131610966Y-125921038D01*
X130922950Y-126105144D01*
X130300012Y-126189424D01*
X129765807Y-126168339D01*
X129520343Y-126110469D01*
X129036869Y-125864277D01*
X128635459Y-125472205D01*
X128349551Y-125000429D01*
X128234503Y-124733420D01*
X128151827Y-124497845D01*
X128105925Y-124318973D01*
X128101199Y-124222074D01*
X128142050Y-124232418D01*
X128232879Y-124375274D01*
X128244449Y-124397000D01*
X128577640Y-124860842D01*
X129026388Y-125234930D01*
X129162334Y-125314921D01*
X129335425Y-125396448D01*
X129520015Y-125449418D01*
X129757005Y-125479376D01*
X130087296Y-125491869D01*
X130474667Y-125492887D01*
X130936913Y-125485070D01*
X131292277Y-125460514D01*
X131603059Y-125409661D01*
X131931558Y-125322955D01*
X132252667Y-125220125D01*
X132645692Y-125074784D01*
X133127735Y-124874941D01*
X133638793Y-124646511D01*
X134118863Y-124415408D01*
X134136500Y-124406512D01*
X134520340Y-124214671D01*
X134844034Y-124057028D01*
X135080927Y-123946240D01*
X135204364Y-123894964D01*
X135216000Y-123893923D01*
X135148417Y-123959313D01*
G37*
X135148417Y-123959313D02*
X134964990Y-124093627D01*
X134694708Y-124278048D01*
X134366558Y-124493760D01*
X134009526Y-124721948D01*
X133652599Y-124943795D01*
X133324765Y-125140486D01*
X133087621Y-125275489D01*
X132340408Y-125642640D01*
X131610966Y-125921038D01*
X130922950Y-126105144D01*
X130300012Y-126189424D01*
X129765807Y-126168339D01*
X129520343Y-126110469D01*
X129036869Y-125864277D01*
X128635459Y-125472205D01*
X128349551Y-125000429D01*
X128234503Y-124733420D01*
X128151827Y-124497845D01*
X128105925Y-124318973D01*
X128101199Y-124222074D01*
X128142050Y-124232418D01*
X128232879Y-124375274D01*
X128244449Y-124397000D01*
X128577640Y-124860842D01*
X129026388Y-125234930D01*
X129162334Y-125314921D01*
X129335425Y-125396448D01*
X129520015Y-125449418D01*
X129757005Y-125479376D01*
X130087296Y-125491869D01*
X130474667Y-125492887D01*
X130936913Y-125485070D01*
X131292277Y-125460514D01*
X131603059Y-125409661D01*
X131931558Y-125322955D01*
X132252667Y-125220125D01*
X132645692Y-125074784D01*
X133127735Y-124874941D01*
X133638793Y-124646511D01*
X134118863Y-124415408D01*
X134136500Y-124406512D01*
X134520340Y-124214671D01*
X134844034Y-124057028D01*
X135080927Y-123946240D01*
X135204364Y-123894964D01*
X135216000Y-123893923D01*
X135148417Y-123959313D01*
D11*
%TO.C,SW2*%
X200003333Y-95015000D02*
X200003333Y-93745000D01*
X201210000Y-93815000D02*
X200003333Y-93815000D01*
X201210000Y-93935000D02*
X200003333Y-93935000D01*
X201210000Y-94055000D02*
X200003333Y-94055000D01*
X201210000Y-94175000D02*
X200003333Y-94175000D01*
X201210000Y-94295000D02*
X200003333Y-94295000D01*
X201210000Y-94415000D02*
X200003333Y-94415000D01*
X201210000Y-94535000D02*
X200003333Y-94535000D01*
X201210000Y-94655000D02*
X200003333Y-94655000D01*
X201210000Y-94775000D02*
X200003333Y-94775000D01*
X201210000Y-94895000D02*
X200003333Y-94895000D01*
X197590000Y-95015000D02*
X201210000Y-95015000D01*
X197590000Y-93745000D02*
X197590000Y-95015000D01*
X201210000Y-93745000D02*
X197590000Y-93745000D01*
X201210000Y-95015000D02*
X201210000Y-93745000D01*
X200003333Y-97555000D02*
X200003333Y-96285000D01*
X201210000Y-96355000D02*
X200003333Y-96355000D01*
X201210000Y-96475000D02*
X200003333Y-96475000D01*
X201210000Y-96595000D02*
X200003333Y-96595000D01*
X201210000Y-96715000D02*
X200003333Y-96715000D01*
X201210000Y-96835000D02*
X200003333Y-96835000D01*
X201210000Y-96955000D02*
X200003333Y-96955000D01*
X201210000Y-97075000D02*
X200003333Y-97075000D01*
X201210000Y-97195000D02*
X200003333Y-97195000D01*
X201210000Y-97315000D02*
X200003333Y-97315000D01*
X201210000Y-97435000D02*
X200003333Y-97435000D01*
X197590000Y-97555000D02*
X201210000Y-97555000D01*
X197590000Y-96285000D02*
X197590000Y-97555000D01*
X201210000Y-96285000D02*
X197590000Y-96285000D01*
X201210000Y-97555000D02*
X201210000Y-96285000D01*
X200003333Y-100095000D02*
X200003333Y-98825000D01*
X201210000Y-98895000D02*
X200003333Y-98895000D01*
X201210000Y-99015000D02*
X200003333Y-99015000D01*
X201210000Y-99135000D02*
X200003333Y-99135000D01*
X201210000Y-99255000D02*
X200003333Y-99255000D01*
X201210000Y-99375000D02*
X200003333Y-99375000D01*
X201210000Y-99495000D02*
X200003333Y-99495000D01*
X201210000Y-99615000D02*
X200003333Y-99615000D01*
X201210000Y-99735000D02*
X200003333Y-99735000D01*
X201210000Y-99855000D02*
X200003333Y-99855000D01*
X201210000Y-99975000D02*
X200003333Y-99975000D01*
X197590000Y-100095000D02*
X201210000Y-100095000D01*
X197590000Y-98825000D02*
X197590000Y-100095000D01*
X201210000Y-98825000D02*
X197590000Y-98825000D01*
X201210000Y-100095000D02*
X201210000Y-98825000D01*
X200003333Y-102635000D02*
X200003333Y-101365000D01*
X201210000Y-101435000D02*
X200003333Y-101435000D01*
X201210000Y-101555000D02*
X200003333Y-101555000D01*
X201210000Y-101675000D02*
X200003333Y-101675000D01*
X201210000Y-101795000D02*
X200003333Y-101795000D01*
X201210000Y-101915000D02*
X200003333Y-101915000D01*
X201210000Y-102035000D02*
X200003333Y-102035000D01*
X201210000Y-102155000D02*
X200003333Y-102155000D01*
X201210000Y-102275000D02*
X200003333Y-102275000D01*
X201210000Y-102395000D02*
X200003333Y-102395000D01*
X201210000Y-102515000D02*
X200003333Y-102515000D01*
X197590000Y-102635000D02*
X201210000Y-102635000D01*
X197590000Y-101365000D02*
X197590000Y-102635000D01*
X201210000Y-101365000D02*
X197590000Y-101365000D01*
X201210000Y-102635000D02*
X201210000Y-101365000D01*
X200003333Y-105175000D02*
X200003333Y-103905000D01*
X201210000Y-103975000D02*
X200003333Y-103975000D01*
X201210000Y-104095000D02*
X200003333Y-104095000D01*
X201210000Y-104215000D02*
X200003333Y-104215000D01*
X201210000Y-104335000D02*
X200003333Y-104335000D01*
X201210000Y-104455000D02*
X200003333Y-104455000D01*
X201210000Y-104575000D02*
X200003333Y-104575000D01*
X201210000Y-104695000D02*
X200003333Y-104695000D01*
X201210000Y-104815000D02*
X200003333Y-104815000D01*
X201210000Y-104935000D02*
X200003333Y-104935000D01*
X201210000Y-105055000D02*
X200003333Y-105055000D01*
X197590000Y-105175000D02*
X201210000Y-105175000D01*
X197590000Y-103905000D02*
X197590000Y-105175000D01*
X201210000Y-103905000D02*
X197590000Y-103905000D01*
X201210000Y-105175000D02*
X201210000Y-103905000D01*
X200003333Y-107715000D02*
X200003333Y-106445000D01*
X201210000Y-106515000D02*
X200003333Y-106515000D01*
X201210000Y-106635000D02*
X200003333Y-106635000D01*
X201210000Y-106755000D02*
X200003333Y-106755000D01*
X201210000Y-106875000D02*
X200003333Y-106875000D01*
X201210000Y-106995000D02*
X200003333Y-106995000D01*
X201210000Y-107115000D02*
X200003333Y-107115000D01*
X201210000Y-107235000D02*
X200003333Y-107235000D01*
X201210000Y-107355000D02*
X200003333Y-107355000D01*
X201210000Y-107475000D02*
X200003333Y-107475000D01*
X201210000Y-107595000D02*
X200003333Y-107595000D01*
X197590000Y-107715000D02*
X201210000Y-107715000D01*
X197590000Y-106445000D02*
X197590000Y-107715000D01*
X201210000Y-106445000D02*
X197590000Y-106445000D01*
X201210000Y-107715000D02*
X201210000Y-106445000D01*
X200003333Y-110255000D02*
X200003333Y-108985000D01*
X201210000Y-109055000D02*
X200003333Y-109055000D01*
X201210000Y-109175000D02*
X200003333Y-109175000D01*
X201210000Y-109295000D02*
X200003333Y-109295000D01*
X201210000Y-109415000D02*
X200003333Y-109415000D01*
X201210000Y-109535000D02*
X200003333Y-109535000D01*
X201210000Y-109655000D02*
X200003333Y-109655000D01*
X201210000Y-109775000D02*
X200003333Y-109775000D01*
X201210000Y-109895000D02*
X200003333Y-109895000D01*
X201210000Y-110015000D02*
X200003333Y-110015000D01*
X201210000Y-110135000D02*
X200003333Y-110135000D01*
X197590000Y-110255000D02*
X201210000Y-110255000D01*
X197590000Y-108985000D02*
X197590000Y-110255000D01*
X201210000Y-108985000D02*
X197590000Y-108985000D01*
X201210000Y-110255000D02*
X201210000Y-108985000D01*
X203050000Y-111970000D02*
X203050000Y-110587000D01*
X203050000Y-111970000D02*
X201667000Y-111970000D01*
X195990000Y-108820000D02*
X195990000Y-107880000D01*
X195990000Y-111730000D02*
X195990000Y-110420000D01*
X195990000Y-106280000D02*
X195990000Y-105340000D01*
X195990000Y-103740000D02*
X195990000Y-102800000D01*
X195990000Y-101200000D02*
X195990000Y-100260000D01*
X195990000Y-98660000D02*
X195990000Y-97720000D01*
X195990000Y-96120000D02*
X195990000Y-95180000D01*
X195990000Y-93580000D02*
X195990000Y-92270000D01*
X202810000Y-93580000D02*
X202810000Y-92270000D01*
X202810000Y-96120000D02*
X202810000Y-95180000D01*
X202810000Y-98660000D02*
X202810000Y-97720000D01*
X202810000Y-101200000D02*
X202810000Y-100260000D01*
X202810000Y-103740000D02*
X202810000Y-102800000D01*
X202810000Y-106280000D02*
X202810000Y-105340000D01*
X202810000Y-108820000D02*
X202810000Y-107880000D01*
X202810000Y-111730000D02*
X202810000Y-110420000D01*
X202810000Y-92270000D02*
X195990000Y-92270000D01*
X202810000Y-111730000D02*
X195990000Y-111730000D01*
%TO.C,SW1*%
X200003333Y-68415000D02*
X200003333Y-67145000D01*
X201210000Y-67215000D02*
X200003333Y-67215000D01*
X201210000Y-67335000D02*
X200003333Y-67335000D01*
X201210000Y-67455000D02*
X200003333Y-67455000D01*
X201210000Y-67575000D02*
X200003333Y-67575000D01*
X201210000Y-67695000D02*
X200003333Y-67695000D01*
X201210000Y-67815000D02*
X200003333Y-67815000D01*
X201210000Y-67935000D02*
X200003333Y-67935000D01*
X201210000Y-68055000D02*
X200003333Y-68055000D01*
X201210000Y-68175000D02*
X200003333Y-68175000D01*
X201210000Y-68295000D02*
X200003333Y-68295000D01*
X197590000Y-68415000D02*
X201210000Y-68415000D01*
X197590000Y-67145000D02*
X197590000Y-68415000D01*
X201210000Y-67145000D02*
X197590000Y-67145000D01*
X201210000Y-68415000D02*
X201210000Y-67145000D01*
X200003333Y-70955000D02*
X200003333Y-69685000D01*
X201210000Y-69755000D02*
X200003333Y-69755000D01*
X201210000Y-69875000D02*
X200003333Y-69875000D01*
X201210000Y-69995000D02*
X200003333Y-69995000D01*
X201210000Y-70115000D02*
X200003333Y-70115000D01*
X201210000Y-70235000D02*
X200003333Y-70235000D01*
X201210000Y-70355000D02*
X200003333Y-70355000D01*
X201210000Y-70475000D02*
X200003333Y-70475000D01*
X201210000Y-70595000D02*
X200003333Y-70595000D01*
X201210000Y-70715000D02*
X200003333Y-70715000D01*
X201210000Y-70835000D02*
X200003333Y-70835000D01*
X197590000Y-70955000D02*
X201210000Y-70955000D01*
X197590000Y-69685000D02*
X197590000Y-70955000D01*
X201210000Y-69685000D02*
X197590000Y-69685000D01*
X201210000Y-70955000D02*
X201210000Y-69685000D01*
X200003333Y-73495000D02*
X200003333Y-72225000D01*
X201210000Y-72295000D02*
X200003333Y-72295000D01*
X201210000Y-72415000D02*
X200003333Y-72415000D01*
X201210000Y-72535000D02*
X200003333Y-72535000D01*
X201210000Y-72655000D02*
X200003333Y-72655000D01*
X201210000Y-72775000D02*
X200003333Y-72775000D01*
X201210000Y-72895000D02*
X200003333Y-72895000D01*
X201210000Y-73015000D02*
X200003333Y-73015000D01*
X201210000Y-73135000D02*
X200003333Y-73135000D01*
X201210000Y-73255000D02*
X200003333Y-73255000D01*
X201210000Y-73375000D02*
X200003333Y-73375000D01*
X197590000Y-73495000D02*
X201210000Y-73495000D01*
X197590000Y-72225000D02*
X197590000Y-73495000D01*
X201210000Y-72225000D02*
X197590000Y-72225000D01*
X201210000Y-73495000D02*
X201210000Y-72225000D01*
X200003333Y-76035000D02*
X200003333Y-74765000D01*
X201210000Y-74835000D02*
X200003333Y-74835000D01*
X201210000Y-74955000D02*
X200003333Y-74955000D01*
X201210000Y-75075000D02*
X200003333Y-75075000D01*
X201210000Y-75195000D02*
X200003333Y-75195000D01*
X201210000Y-75315000D02*
X200003333Y-75315000D01*
X201210000Y-75435000D02*
X200003333Y-75435000D01*
X201210000Y-75555000D02*
X200003333Y-75555000D01*
X201210000Y-75675000D02*
X200003333Y-75675000D01*
X201210000Y-75795000D02*
X200003333Y-75795000D01*
X201210000Y-75915000D02*
X200003333Y-75915000D01*
X197590000Y-76035000D02*
X201210000Y-76035000D01*
X197590000Y-74765000D02*
X197590000Y-76035000D01*
X201210000Y-74765000D02*
X197590000Y-74765000D01*
X201210000Y-76035000D02*
X201210000Y-74765000D01*
X200003333Y-78575000D02*
X200003333Y-77305000D01*
X201210000Y-77375000D02*
X200003333Y-77375000D01*
X201210000Y-77495000D02*
X200003333Y-77495000D01*
X201210000Y-77615000D02*
X200003333Y-77615000D01*
X201210000Y-77735000D02*
X200003333Y-77735000D01*
X201210000Y-77855000D02*
X200003333Y-77855000D01*
X201210000Y-77975000D02*
X200003333Y-77975000D01*
X201210000Y-78095000D02*
X200003333Y-78095000D01*
X201210000Y-78215000D02*
X200003333Y-78215000D01*
X201210000Y-78335000D02*
X200003333Y-78335000D01*
X201210000Y-78455000D02*
X200003333Y-78455000D01*
X197590000Y-78575000D02*
X201210000Y-78575000D01*
X197590000Y-77305000D02*
X197590000Y-78575000D01*
X201210000Y-77305000D02*
X197590000Y-77305000D01*
X201210000Y-78575000D02*
X201210000Y-77305000D01*
X200003333Y-81115000D02*
X200003333Y-79845000D01*
X201210000Y-79915000D02*
X200003333Y-79915000D01*
X201210000Y-80035000D02*
X200003333Y-80035000D01*
X201210000Y-80155000D02*
X200003333Y-80155000D01*
X201210000Y-80275000D02*
X200003333Y-80275000D01*
X201210000Y-80395000D02*
X200003333Y-80395000D01*
X201210000Y-80515000D02*
X200003333Y-80515000D01*
X201210000Y-80635000D02*
X200003333Y-80635000D01*
X201210000Y-80755000D02*
X200003333Y-80755000D01*
X201210000Y-80875000D02*
X200003333Y-80875000D01*
X201210000Y-80995000D02*
X200003333Y-80995000D01*
X197590000Y-81115000D02*
X201210000Y-81115000D01*
X197590000Y-79845000D02*
X197590000Y-81115000D01*
X201210000Y-79845000D02*
X197590000Y-79845000D01*
X201210000Y-81115000D02*
X201210000Y-79845000D01*
X200003333Y-83655000D02*
X200003333Y-82385000D01*
X201210000Y-82455000D02*
X200003333Y-82455000D01*
X201210000Y-82575000D02*
X200003333Y-82575000D01*
X201210000Y-82695000D02*
X200003333Y-82695000D01*
X201210000Y-82815000D02*
X200003333Y-82815000D01*
X201210000Y-82935000D02*
X200003333Y-82935000D01*
X201210000Y-83055000D02*
X200003333Y-83055000D01*
X201210000Y-83175000D02*
X200003333Y-83175000D01*
X201210000Y-83295000D02*
X200003333Y-83295000D01*
X201210000Y-83415000D02*
X200003333Y-83415000D01*
X201210000Y-83535000D02*
X200003333Y-83535000D01*
X197590000Y-83655000D02*
X201210000Y-83655000D01*
X197590000Y-82385000D02*
X197590000Y-83655000D01*
X201210000Y-82385000D02*
X197590000Y-82385000D01*
X201210000Y-83655000D02*
X201210000Y-82385000D01*
X203050000Y-85370000D02*
X203050000Y-83987000D01*
X203050000Y-85370000D02*
X201667000Y-85370000D01*
X195990000Y-82220000D02*
X195990000Y-81280000D01*
X195990000Y-85130000D02*
X195990000Y-83820000D01*
X195990000Y-79680000D02*
X195990000Y-78740000D01*
X195990000Y-77140000D02*
X195990000Y-76200000D01*
X195990000Y-74600000D02*
X195990000Y-73660000D01*
X195990000Y-72060000D02*
X195990000Y-71120000D01*
X195990000Y-69520000D02*
X195990000Y-68580000D01*
X195990000Y-66980000D02*
X195990000Y-65670000D01*
X202810000Y-66980000D02*
X202810000Y-65670000D01*
X202810000Y-69520000D02*
X202810000Y-68580000D01*
X202810000Y-72060000D02*
X202810000Y-71120000D01*
X202810000Y-74600000D02*
X202810000Y-73660000D01*
X202810000Y-77140000D02*
X202810000Y-76200000D01*
X202810000Y-79680000D02*
X202810000Y-78740000D01*
X202810000Y-82220000D02*
X202810000Y-81280000D01*
X202810000Y-85130000D02*
X202810000Y-83820000D01*
X202810000Y-65670000D02*
X195990000Y-65670000D01*
X202810000Y-85130000D02*
X195990000Y-85130000D01*
%TO.C,JC4*%
D10*
X205366666Y-89752380D02*
X205366666Y-90466666D01*
X205319047Y-90609523D01*
X205223809Y-90704761D01*
X205080952Y-90752380D01*
X204985714Y-90752380D01*
X206414285Y-90657142D02*
X206366666Y-90704761D01*
X206223809Y-90752380D01*
X206128571Y-90752380D01*
X205985714Y-90704761D01*
X205890476Y-90609523D01*
X205842857Y-90514285D01*
X205795238Y-90323809D01*
X205795238Y-90180952D01*
X205842857Y-89990476D01*
X205890476Y-89895238D01*
X205985714Y-89800000D01*
X206128571Y-89752380D01*
X206223809Y-89752380D01*
X206366666Y-89800000D01*
X206414285Y-89847619D01*
X207271428Y-90085714D02*
X207271428Y-90752380D01*
X207033333Y-89704761D02*
X206795238Y-90419047D01*
X207414285Y-90419047D01*
%TO.C,JC3*%
X132166666Y-89652380D02*
X132166666Y-90366666D01*
X132119047Y-90509523D01*
X132023809Y-90604761D01*
X131880952Y-90652380D01*
X131785714Y-90652380D01*
X133214285Y-90557142D02*
X133166666Y-90604761D01*
X133023809Y-90652380D01*
X132928571Y-90652380D01*
X132785714Y-90604761D01*
X132690476Y-90509523D01*
X132642857Y-90414285D01*
X132595238Y-90223809D01*
X132595238Y-90080952D01*
X132642857Y-89890476D01*
X132690476Y-89795238D01*
X132785714Y-89700000D01*
X132928571Y-89652380D01*
X133023809Y-89652380D01*
X133166666Y-89700000D01*
X133214285Y-89747619D01*
X133547619Y-89652380D02*
X134166666Y-89652380D01*
X133833333Y-90033333D01*
X133976190Y-90033333D01*
X134071428Y-90080952D01*
X134119047Y-90128571D01*
X134166666Y-90223809D01*
X134166666Y-90461904D01*
X134119047Y-90557142D01*
X134071428Y-90604761D01*
X133976190Y-90652380D01*
X133690476Y-90652380D01*
X133595238Y-90604761D01*
X133547619Y-90557142D01*
%TO.C,JC2*%
X205366666Y-63052380D02*
X205366666Y-63766666D01*
X205319047Y-63909523D01*
X205223809Y-64004761D01*
X205080952Y-64052380D01*
X204985714Y-64052380D01*
X206414285Y-63957142D02*
X206366666Y-64004761D01*
X206223809Y-64052380D01*
X206128571Y-64052380D01*
X205985714Y-64004761D01*
X205890476Y-63909523D01*
X205842857Y-63814285D01*
X205795238Y-63623809D01*
X205795238Y-63480952D01*
X205842857Y-63290476D01*
X205890476Y-63195238D01*
X205985714Y-63100000D01*
X206128571Y-63052380D01*
X206223809Y-63052380D01*
X206366666Y-63100000D01*
X206414285Y-63147619D01*
X206795238Y-63147619D02*
X206842857Y-63100000D01*
X206938095Y-63052380D01*
X207176190Y-63052380D01*
X207271428Y-63100000D01*
X207319047Y-63147619D01*
X207366666Y-63242857D01*
X207366666Y-63338095D01*
X207319047Y-63480952D01*
X206747619Y-64052380D01*
X207366666Y-64052380D01*
%TO.C,JC1*%
X132066666Y-62852380D02*
X132066666Y-63566666D01*
X132019047Y-63709523D01*
X131923809Y-63804761D01*
X131780952Y-63852380D01*
X131685714Y-63852380D01*
X133114285Y-63757142D02*
X133066666Y-63804761D01*
X132923809Y-63852380D01*
X132828571Y-63852380D01*
X132685714Y-63804761D01*
X132590476Y-63709523D01*
X132542857Y-63614285D01*
X132495238Y-63423809D01*
X132495238Y-63280952D01*
X132542857Y-63090476D01*
X132590476Y-62995238D01*
X132685714Y-62900000D01*
X132828571Y-62852380D01*
X132923809Y-62852380D01*
X133066666Y-62900000D01*
X133114285Y-62947619D01*
X134066666Y-63852380D02*
X133495238Y-63852380D01*
X133780952Y-63852380D02*
X133780952Y-62852380D01*
X133685714Y-62995238D01*
X133590476Y-63090476D01*
X133495238Y-63138095D01*
%TO.C,J14*%
X172590476Y-92452380D02*
X172590476Y-93166666D01*
X172542857Y-93309523D01*
X172447619Y-93404761D01*
X172304761Y-93452380D01*
X172209523Y-93452380D01*
X173590476Y-93452380D02*
X173019047Y-93452380D01*
X173304761Y-93452380D02*
X173304761Y-92452380D01*
X173209523Y-92595238D01*
X173114285Y-92690476D01*
X173019047Y-92738095D01*
X174447619Y-92785714D02*
X174447619Y-93452380D01*
X174209523Y-92404761D02*
X173971428Y-93119047D01*
X174590476Y-93119047D01*
%TO.C,J13*%
X159990476Y-99652380D02*
X159990476Y-100366666D01*
X159942857Y-100509523D01*
X159847619Y-100604761D01*
X159704761Y-100652380D01*
X159609523Y-100652380D01*
X160990476Y-100652380D02*
X160419047Y-100652380D01*
X160704761Y-100652380D02*
X160704761Y-99652380D01*
X160609523Y-99795238D01*
X160514285Y-99890476D01*
X160419047Y-99938095D01*
X161323809Y-99652380D02*
X161942857Y-99652380D01*
X161609523Y-100033333D01*
X161752380Y-100033333D01*
X161847619Y-100080952D01*
X161895238Y-100128571D01*
X161942857Y-100223809D01*
X161942857Y-100461904D01*
X161895238Y-100557142D01*
X161847619Y-100604761D01*
X161752380Y-100652380D01*
X161466666Y-100652380D01*
X161371428Y-100604761D01*
X161323809Y-100557142D01*
%TO.C,J12*%
X185190476Y-99652380D02*
X185190476Y-100366666D01*
X185142857Y-100509523D01*
X185047619Y-100604761D01*
X184904761Y-100652380D01*
X184809523Y-100652380D01*
X186190476Y-100652380D02*
X185619047Y-100652380D01*
X185904761Y-100652380D02*
X185904761Y-99652380D01*
X185809523Y-99795238D01*
X185714285Y-99890476D01*
X185619047Y-99938095D01*
X186571428Y-99747619D02*
X186619047Y-99700000D01*
X186714285Y-99652380D01*
X186952380Y-99652380D01*
X187047619Y-99700000D01*
X187095238Y-99747619D01*
X187142857Y-99842857D01*
X187142857Y-99938095D01*
X187095238Y-100080952D01*
X186523809Y-100652380D01*
X187142857Y-100652380D01*
%TO.C,J11*%
X172590476Y-107052380D02*
X172590476Y-107766666D01*
X172542857Y-107909523D01*
X172447619Y-108004761D01*
X172304761Y-108052380D01*
X172209523Y-108052380D01*
X173590476Y-108052380D02*
X173019047Y-108052380D01*
X173304761Y-108052380D02*
X173304761Y-107052380D01*
X173209523Y-107195238D01*
X173114285Y-107290476D01*
X173019047Y-107338095D01*
X174542857Y-108052380D02*
X173971428Y-108052380D01*
X174257142Y-108052380D02*
X174257142Y-107052380D01*
X174161904Y-107195238D01*
X174066666Y-107290476D01*
X173971428Y-107338095D01*
%TO.C,J10*%
X147390476Y-107152380D02*
X147390476Y-107866666D01*
X147342857Y-108009523D01*
X147247619Y-108104761D01*
X147104761Y-108152380D01*
X147009523Y-108152380D01*
X148390476Y-108152380D02*
X147819047Y-108152380D01*
X148104761Y-108152380D02*
X148104761Y-107152380D01*
X148009523Y-107295238D01*
X147914285Y-107390476D01*
X147819047Y-107438095D01*
X149009523Y-107152380D02*
X149104761Y-107152380D01*
X149200000Y-107200000D01*
X149247619Y-107247619D01*
X149295238Y-107342857D01*
X149342857Y-107533333D01*
X149342857Y-107771428D01*
X149295238Y-107961904D01*
X149247619Y-108057142D01*
X149200000Y-108104761D01*
X149104761Y-108152380D01*
X149009523Y-108152380D01*
X148914285Y-108104761D01*
X148866666Y-108057142D01*
X148819047Y-107961904D01*
X148771428Y-107771428D01*
X148771428Y-107533333D01*
X148819047Y-107342857D01*
X148866666Y-107247619D01*
X148914285Y-107200000D01*
X149009523Y-107152380D01*
%TO.C,J9*%
X160466666Y-114252380D02*
X160466666Y-114966666D01*
X160419047Y-115109523D01*
X160323809Y-115204761D01*
X160180952Y-115252380D01*
X160085714Y-115252380D01*
X160990476Y-115252380D02*
X161180952Y-115252380D01*
X161276190Y-115204761D01*
X161323809Y-115157142D01*
X161419047Y-115014285D01*
X161466666Y-114823809D01*
X161466666Y-114442857D01*
X161419047Y-114347619D01*
X161371428Y-114300000D01*
X161276190Y-114252380D01*
X161085714Y-114252380D01*
X160990476Y-114300000D01*
X160942857Y-114347619D01*
X160895238Y-114442857D01*
X160895238Y-114680952D01*
X160942857Y-114776190D01*
X160990476Y-114823809D01*
X161085714Y-114871428D01*
X161276190Y-114871428D01*
X161371428Y-114823809D01*
X161419047Y-114776190D01*
X161466666Y-114680952D01*
%TO.C,J8*%
X185666666Y-114252380D02*
X185666666Y-114966666D01*
X185619047Y-115109523D01*
X185523809Y-115204761D01*
X185380952Y-115252380D01*
X185285714Y-115252380D01*
X186285714Y-114680952D02*
X186190476Y-114633333D01*
X186142857Y-114585714D01*
X186095238Y-114490476D01*
X186095238Y-114442857D01*
X186142857Y-114347619D01*
X186190476Y-114300000D01*
X186285714Y-114252380D01*
X186476190Y-114252380D01*
X186571428Y-114300000D01*
X186619047Y-114347619D01*
X186666666Y-114442857D01*
X186666666Y-114490476D01*
X186619047Y-114585714D01*
X186571428Y-114633333D01*
X186476190Y-114680952D01*
X186285714Y-114680952D01*
X186190476Y-114728571D01*
X186142857Y-114776190D01*
X186095238Y-114871428D01*
X186095238Y-115061904D01*
X186142857Y-115157142D01*
X186190476Y-115204761D01*
X186285714Y-115252380D01*
X186476190Y-115252380D01*
X186571428Y-115204761D01*
X186619047Y-115157142D01*
X186666666Y-115061904D01*
X186666666Y-114871428D01*
X186619047Y-114776190D01*
X186571428Y-114728571D01*
X186476190Y-114680952D01*
%TO.C,J7*%
X185666666Y-70452380D02*
X185666666Y-71166666D01*
X185619047Y-71309523D01*
X185523809Y-71404761D01*
X185380952Y-71452380D01*
X185285714Y-71452380D01*
X186047619Y-70452380D02*
X186714285Y-70452380D01*
X186285714Y-71452380D01*
%TO.C,J6*%
X160466666Y-70452380D02*
X160466666Y-71166666D01*
X160419047Y-71309523D01*
X160323809Y-71404761D01*
X160180952Y-71452380D01*
X160085714Y-71452380D01*
X161371428Y-70452380D02*
X161180952Y-70452380D01*
X161085714Y-70500000D01*
X161038095Y-70547619D01*
X160942857Y-70690476D01*
X160895238Y-70880952D01*
X160895238Y-71261904D01*
X160942857Y-71357142D01*
X160990476Y-71404761D01*
X161085714Y-71452380D01*
X161276190Y-71452380D01*
X161371428Y-71404761D01*
X161419047Y-71357142D01*
X161466666Y-71261904D01*
X161466666Y-71023809D01*
X161419047Y-70928571D01*
X161371428Y-70880952D01*
X161276190Y-70833333D01*
X161085714Y-70833333D01*
X160990476Y-70880952D01*
X160942857Y-70928571D01*
X160895238Y-71023809D01*
%TO.C,J5*%
X173066666Y-77852380D02*
X173066666Y-78566666D01*
X173019047Y-78709523D01*
X172923809Y-78804761D01*
X172780952Y-78852380D01*
X172685714Y-78852380D01*
X174019047Y-77852380D02*
X173542857Y-77852380D01*
X173495238Y-78328571D01*
X173542857Y-78280952D01*
X173638095Y-78233333D01*
X173876190Y-78233333D01*
X173971428Y-78280952D01*
X174019047Y-78328571D01*
X174066666Y-78423809D01*
X174066666Y-78661904D01*
X174019047Y-78757142D01*
X173971428Y-78804761D01*
X173876190Y-78852380D01*
X173638095Y-78852380D01*
X173542857Y-78804761D01*
X173495238Y-78757142D01*
%TO.C,J4*%
X147866666Y-77852380D02*
X147866666Y-78566666D01*
X147819047Y-78709523D01*
X147723809Y-78804761D01*
X147580952Y-78852380D01*
X147485714Y-78852380D01*
X148771428Y-78185714D02*
X148771428Y-78852380D01*
X148533333Y-77804761D02*
X148295238Y-78519047D01*
X148914285Y-78519047D01*
%TO.C,J3*%
X160466666Y-85052380D02*
X160466666Y-85766666D01*
X160419047Y-85909523D01*
X160323809Y-86004761D01*
X160180952Y-86052380D01*
X160085714Y-86052380D01*
X160847619Y-85052380D02*
X161466666Y-85052380D01*
X161133333Y-85433333D01*
X161276190Y-85433333D01*
X161371428Y-85480952D01*
X161419047Y-85528571D01*
X161466666Y-85623809D01*
X161466666Y-85861904D01*
X161419047Y-85957142D01*
X161371428Y-86004761D01*
X161276190Y-86052380D01*
X160990476Y-86052380D01*
X160895238Y-86004761D01*
X160847619Y-85957142D01*
%TO.C,J1*%
X147866666Y-92452380D02*
X147866666Y-93166666D01*
X147819047Y-93309523D01*
X147723809Y-93404761D01*
X147580952Y-93452380D01*
X147485714Y-93452380D01*
X148866666Y-93452380D02*
X148295238Y-93452380D01*
X148580952Y-93452380D02*
X148580952Y-92452380D01*
X148485714Y-92595238D01*
X148390476Y-92690476D01*
X148295238Y-92738095D01*
%TO.C,J2*%
X185666666Y-85052380D02*
X185666666Y-85766666D01*
X185619047Y-85909523D01*
X185523809Y-86004761D01*
X185380952Y-86052380D01*
X185285714Y-86052380D01*
X186095238Y-85147619D02*
X186142857Y-85100000D01*
X186238095Y-85052380D01*
X186476190Y-85052380D01*
X186571428Y-85100000D01*
X186619047Y-85147619D01*
X186666666Y-85242857D01*
X186666666Y-85338095D01*
X186619047Y-85480952D01*
X186047619Y-86052380D01*
X186666666Y-86052380D01*
%TO.C,SW2*%
X198066666Y-113134761D02*
X198209523Y-113182380D01*
X198447619Y-113182380D01*
X198542857Y-113134761D01*
X198590476Y-113087142D01*
X198638095Y-112991904D01*
X198638095Y-112896666D01*
X198590476Y-112801428D01*
X198542857Y-112753809D01*
X198447619Y-112706190D01*
X198257142Y-112658571D01*
X198161904Y-112610952D01*
X198114285Y-112563333D01*
X198066666Y-112468095D01*
X198066666Y-112372857D01*
X198114285Y-112277619D01*
X198161904Y-112230000D01*
X198257142Y-112182380D01*
X198495238Y-112182380D01*
X198638095Y-112230000D01*
X198971428Y-112182380D02*
X199209523Y-113182380D01*
X199400000Y-112468095D01*
X199590476Y-113182380D01*
X199828571Y-112182380D01*
X200161904Y-112277619D02*
X200209523Y-112230000D01*
X200304761Y-112182380D01*
X200542857Y-112182380D01*
X200638095Y-112230000D01*
X200685714Y-112277619D01*
X200733333Y-112372857D01*
X200733333Y-112468095D01*
X200685714Y-112610952D01*
X200114285Y-113182380D01*
X200733333Y-113182380D01*
%TO.C,SW1*%
X198066666Y-86534761D02*
X198209523Y-86582380D01*
X198447619Y-86582380D01*
X198542857Y-86534761D01*
X198590476Y-86487142D01*
X198638095Y-86391904D01*
X198638095Y-86296666D01*
X198590476Y-86201428D01*
X198542857Y-86153809D01*
X198447619Y-86106190D01*
X198257142Y-86058571D01*
X198161904Y-86010952D01*
X198114285Y-85963333D01*
X198066666Y-85868095D01*
X198066666Y-85772857D01*
X198114285Y-85677619D01*
X198161904Y-85630000D01*
X198257142Y-85582380D01*
X198495238Y-85582380D01*
X198638095Y-85630000D01*
X198971428Y-85582380D02*
X199209523Y-86582380D01*
X199400000Y-85868095D01*
X199590476Y-86582380D01*
X199828571Y-85582380D01*
X200733333Y-86582380D02*
X200161904Y-86582380D01*
X200447619Y-86582380D02*
X200447619Y-85582380D01*
X200352380Y-85725238D01*
X200257142Y-85820476D01*
X200161904Y-85868095D01*
%TD*%
M02*
