%TF.GenerationSoftware,KiCad,Pcbnew,(6.0.7)*%
%TF.CreationDate,2023-01-31T19:11:19-06:00*%
%TF.ProjectId,BPS_Scrutineering,4250535f-5363-4727-9574-696e65657269,rev?*%
%TF.SameCoordinates,Original*%
%TF.FileFunction,Legend,Bot*%
%TF.FilePolarity,Positive*%
%FSLAX46Y46*%
G04 Gerber Fmt 4.6, Leading zero omitted, Abs format (unit mm)*
G04 Created by KiCad (PCBNEW (6.0.7)) date 2023-01-31 19:11:19*
%MOMM*%
%LPD*%
G01*
G04 APERTURE LIST*
%ADD10C,0.300000*%
%ADD11C,0.010000*%
G04 APERTURE END LIST*
D10*
X115540600Y-141874761D02*
X115540600Y-139874761D01*
X115064409Y-139874761D01*
X114778695Y-139970000D01*
X114588219Y-140160476D01*
X114492980Y-140350952D01*
X114397742Y-140731904D01*
X114397742Y-141017619D01*
X114492980Y-141398571D01*
X114588219Y-141589047D01*
X114778695Y-141779523D01*
X115064409Y-141874761D01*
X115540600Y-141874761D01*
X113540600Y-141874761D02*
X113540600Y-140541428D01*
X113540600Y-140922380D02*
X113445361Y-140731904D01*
X113350123Y-140636666D01*
X113159647Y-140541428D01*
X112969171Y-140541428D01*
X112302504Y-141684285D02*
X112207266Y-141779523D01*
X112302504Y-141874761D01*
X112397742Y-141779523D01*
X112302504Y-141684285D01*
X112302504Y-141874761D01*
X108778695Y-139970000D02*
X108969171Y-139874761D01*
X109254885Y-139874761D01*
X109540600Y-139970000D01*
X109731076Y-140160476D01*
X109826314Y-140350952D01*
X109921552Y-140731904D01*
X109921552Y-141017619D01*
X109826314Y-141398571D01*
X109731076Y-141589047D01*
X109540600Y-141779523D01*
X109254885Y-141874761D01*
X109064409Y-141874761D01*
X108778695Y-141779523D01*
X108683457Y-141684285D01*
X108683457Y-141017619D01*
X109064409Y-141017619D01*
X106969171Y-141874761D02*
X106969171Y-140827142D01*
X107064409Y-140636666D01*
X107254885Y-140541428D01*
X107635838Y-140541428D01*
X107826314Y-140636666D01*
X106969171Y-141779523D02*
X107159647Y-141874761D01*
X107635838Y-141874761D01*
X107826314Y-141779523D01*
X107921552Y-141589047D01*
X107921552Y-141398571D01*
X107826314Y-141208095D01*
X107635838Y-141112857D01*
X107159647Y-141112857D01*
X106969171Y-141017619D01*
X106016790Y-141874761D02*
X106016790Y-140541428D01*
X106016790Y-140922380D02*
X105921552Y-140731904D01*
X105826314Y-140636666D01*
X105635838Y-140541428D01*
X105445361Y-140541428D01*
X104969171Y-140541428D02*
X104492980Y-141874761D01*
X104016790Y-140541428D02*
X104492980Y-141874761D01*
X104683457Y-142350952D01*
X104778695Y-142446190D01*
X104969171Y-142541428D01*
X101731076Y-141874761D02*
X101731076Y-139874761D01*
X101731076Y-140827142D02*
X100588219Y-140827142D01*
X100588219Y-141874761D02*
X100588219Y-139874761D01*
X98778695Y-141874761D02*
X98778695Y-140827142D01*
X98873933Y-140636666D01*
X99064409Y-140541428D01*
X99445361Y-140541428D01*
X99635838Y-140636666D01*
X98778695Y-141779523D02*
X98969171Y-141874761D01*
X99445361Y-141874761D01*
X99635838Y-141779523D01*
X99731076Y-141589047D01*
X99731076Y-141398571D01*
X99635838Y-141208095D01*
X99445361Y-141112857D01*
X98969171Y-141112857D01*
X98778695Y-141017619D01*
X97540600Y-141874761D02*
X97731076Y-141779523D01*
X97826314Y-141589047D01*
X97826314Y-139874761D01*
X96492980Y-141874761D02*
X96683457Y-141779523D01*
X96778695Y-141589047D01*
X96778695Y-139874761D01*
X95445361Y-141874761D02*
X95635838Y-141779523D01*
X95731076Y-141684285D01*
X95826314Y-141493809D01*
X95826314Y-140922380D01*
X95731076Y-140731904D01*
X95635838Y-140636666D01*
X95445361Y-140541428D01*
X95159647Y-140541428D01*
X94969171Y-140636666D01*
X94873933Y-140731904D01*
X94778695Y-140922380D01*
X94778695Y-141493809D01*
X94873933Y-141684285D01*
X94969171Y-141779523D01*
X95159647Y-141874761D01*
X95445361Y-141874761D01*
X93064409Y-141779523D02*
X93254885Y-141874761D01*
X93635838Y-141874761D01*
X93826314Y-141779523D01*
X93921552Y-141684285D01*
X94016790Y-141493809D01*
X94016790Y-140922380D01*
X93921552Y-140731904D01*
X93826314Y-140636666D01*
X93635838Y-140541428D01*
X93254885Y-140541428D01*
X93064409Y-140636666D01*
X92207266Y-141874761D02*
X92207266Y-139874761D01*
X92016790Y-141112857D02*
X91445361Y-141874761D01*
X91445361Y-140541428D02*
X92207266Y-141303333D01*
%TO.C,Dr_Hallock1*%
G36*
X91607068Y-130948635D02*
G01*
X91699812Y-130983154D01*
X91624544Y-131035884D01*
X91380797Y-131102119D01*
X91367353Y-131105152D01*
X91182623Y-131179167D01*
X91126280Y-131272977D01*
X91126971Y-131276196D01*
X91088175Y-131347101D01*
X90914614Y-131338711D01*
X90719708Y-131326677D01*
X90508667Y-131363754D01*
X90487552Y-131372312D01*
X90278804Y-131441062D01*
X90212783Y-131429138D01*
X90289476Y-131346247D01*
X90508871Y-131202099D01*
X90563610Y-131171891D01*
X90785374Y-131087186D01*
X90946093Y-131081124D01*
X91029661Y-131099655D01*
X91025560Y-131036055D01*
X91018246Y-130994841D01*
X91115316Y-130950716D01*
X91364448Y-130937000D01*
X91607068Y-130948635D01*
G37*
D11*
X91607068Y-130948635D02*
X91699812Y-130983154D01*
X91624544Y-131035884D01*
X91380797Y-131102119D01*
X91367353Y-131105152D01*
X91182623Y-131179167D01*
X91126280Y-131272977D01*
X91126971Y-131276196D01*
X91088175Y-131347101D01*
X90914614Y-131338711D01*
X90719708Y-131326677D01*
X90508667Y-131363754D01*
X90487552Y-131372312D01*
X90278804Y-131441062D01*
X90212783Y-131429138D01*
X90289476Y-131346247D01*
X90508871Y-131202099D01*
X90563610Y-131171891D01*
X90785374Y-131087186D01*
X90946093Y-131081124D01*
X91029661Y-131099655D01*
X91025560Y-131036055D01*
X91018246Y-130994841D01*
X91115316Y-130950716D01*
X91364448Y-130937000D01*
X91607068Y-130948635D01*
G36*
X99906667Y-122585238D02*
G01*
X99977970Y-122676730D01*
X100030974Y-122824119D01*
X99999839Y-122864242D01*
X99903974Y-122771651D01*
X99847415Y-122689981D01*
X99785821Y-122558542D01*
X99805723Y-122513147D01*
X99906667Y-122585238D01*
G37*
X99906667Y-122585238D02*
X99977970Y-122676730D01*
X100030974Y-122824119D01*
X99999839Y-122864242D01*
X99903974Y-122771651D01*
X99847415Y-122689981D01*
X99785821Y-122558542D01*
X99805723Y-122513147D01*
X99906667Y-122585238D01*
G36*
X109825128Y-136976425D02*
G01*
X109797330Y-137068596D01*
X109758804Y-137272758D01*
X109740433Y-137314710D01*
X109709302Y-137213735D01*
X109708332Y-137068997D01*
X109775627Y-136917402D01*
X109781777Y-136911786D01*
X109846993Y-136874966D01*
X109825128Y-136976425D01*
G37*
X109825128Y-136976425D02*
X109797330Y-137068596D01*
X109758804Y-137272758D01*
X109740433Y-137314710D01*
X109709302Y-137213735D01*
X109708332Y-137068997D01*
X109775627Y-136917402D01*
X109781777Y-136911786D01*
X109846993Y-136874966D01*
X109825128Y-136976425D01*
G36*
X90818895Y-131561949D02*
G01*
X90839804Y-131645433D01*
X90737362Y-131750845D01*
X90524936Y-131848847D01*
X90502142Y-131856179D01*
X90319825Y-131915364D01*
X90233500Y-131944357D01*
X90221540Y-131920811D01*
X90212334Y-131791593D01*
X90212355Y-131786884D01*
X90252274Y-131674025D01*
X90394907Y-131677930D01*
X90514137Y-131691720D01*
X90516910Y-131627670D01*
X90520501Y-131558452D01*
X90670346Y-131529667D01*
X90818895Y-131561949D01*
G37*
X90818895Y-131561949D02*
X90839804Y-131645433D01*
X90737362Y-131750845D01*
X90524936Y-131848847D01*
X90502142Y-131856179D01*
X90319825Y-131915364D01*
X90233500Y-131944357D01*
X90221540Y-131920811D01*
X90212334Y-131791593D01*
X90212355Y-131786884D01*
X90252274Y-131674025D01*
X90394907Y-131677930D01*
X90514137Y-131691720D01*
X90516910Y-131627670D01*
X90520501Y-131558452D01*
X90670346Y-131529667D01*
X90818895Y-131561949D01*
G36*
X99864334Y-121835334D02*
G01*
X99911073Y-122048357D01*
X99938983Y-122237500D01*
X99931213Y-122316448D01*
X99864334Y-122385667D01*
X99836810Y-122362773D01*
X99799809Y-122217808D01*
X99789684Y-121983500D01*
X99793511Y-121852979D01*
X99804539Y-121703640D01*
X99825759Y-121702498D01*
X99864334Y-121835334D01*
G37*
X99864334Y-121835334D02*
X99911073Y-122048357D01*
X99938983Y-122237500D01*
X99931213Y-122316448D01*
X99864334Y-122385667D01*
X99836810Y-122362773D01*
X99799809Y-122217808D01*
X99789684Y-121983500D01*
X99793511Y-121852979D01*
X99804539Y-121703640D01*
X99825759Y-121702498D01*
X99864334Y-121835334D01*
G36*
X101896334Y-124544667D02*
G01*
X101854000Y-124587000D01*
X101811667Y-124544667D01*
X101854000Y-124502334D01*
X101896334Y-124544667D01*
G37*
X101896334Y-124544667D02*
X101854000Y-124587000D01*
X101811667Y-124544667D01*
X101854000Y-124502334D01*
X101896334Y-124544667D01*
G36*
X106236734Y-132287234D02*
G01*
X106418510Y-132392475D01*
X106685463Y-132561757D01*
X107005129Y-132773152D01*
X107345045Y-133004731D01*
X107672749Y-133234564D01*
X107955777Y-133440723D01*
X108161667Y-133601279D01*
X108288795Y-133711959D01*
X108519378Y-133945117D01*
X108663946Y-134140105D01*
X108707449Y-134273947D01*
X108634839Y-134323667D01*
X108521126Y-134278175D01*
X108380512Y-134138888D01*
X108286373Y-134037313D01*
X108076280Y-133851558D01*
X107792599Y-133620785D01*
X107469251Y-133370595D01*
X107140156Y-133126587D01*
X106839235Y-132914362D01*
X106600410Y-132759520D01*
X106457600Y-132687661D01*
X106424513Y-132680444D01*
X106322163Y-132710163D01*
X106286233Y-132871093D01*
X106283204Y-132934157D01*
X106307441Y-133458643D01*
X106430256Y-134016615D01*
X106468509Y-134165672D01*
X106504929Y-134390908D01*
X106495518Y-134517513D01*
X106464256Y-134536549D01*
X106353454Y-134476361D01*
X106198037Y-134304522D01*
X106019879Y-134047309D01*
X105840852Y-133731000D01*
X105646259Y-133350000D01*
X105876672Y-132799667D01*
X105886088Y-132777334D01*
X106008988Y-132512657D01*
X106114924Y-132328633D01*
X106181876Y-132263916D01*
X106236734Y-132287234D01*
G37*
X106236734Y-132287234D02*
X106418510Y-132392475D01*
X106685463Y-132561757D01*
X107005129Y-132773152D01*
X107345045Y-133004731D01*
X107672749Y-133234564D01*
X107955777Y-133440723D01*
X108161667Y-133601279D01*
X108288795Y-133711959D01*
X108519378Y-133945117D01*
X108663946Y-134140105D01*
X108707449Y-134273947D01*
X108634839Y-134323667D01*
X108521126Y-134278175D01*
X108380512Y-134138888D01*
X108286373Y-134037313D01*
X108076280Y-133851558D01*
X107792599Y-133620785D01*
X107469251Y-133370595D01*
X107140156Y-133126587D01*
X106839235Y-132914362D01*
X106600410Y-132759520D01*
X106457600Y-132687661D01*
X106424513Y-132680444D01*
X106322163Y-132710163D01*
X106286233Y-132871093D01*
X106283204Y-132934157D01*
X106307441Y-133458643D01*
X106430256Y-134016615D01*
X106468509Y-134165672D01*
X106504929Y-134390908D01*
X106495518Y-134517513D01*
X106464256Y-134536549D01*
X106353454Y-134476361D01*
X106198037Y-134304522D01*
X106019879Y-134047309D01*
X105840852Y-133731000D01*
X105646259Y-133350000D01*
X105876672Y-132799667D01*
X105886088Y-132777334D01*
X106008988Y-132512657D01*
X106114924Y-132328633D01*
X106181876Y-132263916D01*
X106236734Y-132287234D01*
G36*
X99828260Y-120376552D02*
G01*
X99866220Y-120573878D01*
X99845560Y-120907084D01*
X99812185Y-121128701D01*
X99766427Y-121200334D01*
X99739622Y-121243582D01*
X99747649Y-121390834D01*
X99767625Y-121497999D01*
X99762563Y-121526516D01*
X99702792Y-121398064D01*
X99631280Y-121275128D01*
X99504794Y-121144064D01*
X99429314Y-121083496D01*
X99280289Y-120910009D01*
X99154981Y-120713142D01*
X99102334Y-120563503D01*
X99107296Y-120545331D01*
X99211082Y-120454518D01*
X99407079Y-120362153D01*
X99431512Y-120353530D01*
X99686399Y-120304505D01*
X99828260Y-120376552D01*
G37*
X99828260Y-120376552D02*
X99866220Y-120573878D01*
X99845560Y-120907084D01*
X99812185Y-121128701D01*
X99766427Y-121200334D01*
X99739622Y-121243582D01*
X99747649Y-121390834D01*
X99767625Y-121497999D01*
X99762563Y-121526516D01*
X99702792Y-121398064D01*
X99631280Y-121275128D01*
X99504794Y-121144064D01*
X99429314Y-121083496D01*
X99280289Y-120910009D01*
X99154981Y-120713142D01*
X99102334Y-120563503D01*
X99107296Y-120545331D01*
X99211082Y-120454518D01*
X99407079Y-120362153D01*
X99431512Y-120353530D01*
X99686399Y-120304505D01*
X99828260Y-120376552D01*
G36*
X93203033Y-129915282D02*
G01*
X93205967Y-129918250D01*
X93249937Y-129982775D01*
X93154500Y-129959291D01*
X93069041Y-129942450D01*
X93006334Y-129996608D01*
X92974518Y-130051133D01*
X92837000Y-130090334D01*
X92738594Y-130074765D01*
X92667667Y-130007280D01*
X92725619Y-129927376D01*
X92883533Y-129871318D01*
X93067601Y-129863003D01*
X93203033Y-129915282D01*
G37*
X93203033Y-129915282D02*
X93205967Y-129918250D01*
X93249937Y-129982775D01*
X93154500Y-129959291D01*
X93069041Y-129942450D01*
X93006334Y-129996608D01*
X92974518Y-130051133D01*
X92837000Y-130090334D01*
X92738594Y-130074765D01*
X92667667Y-130007280D01*
X92725619Y-129927376D01*
X92883533Y-129871318D01*
X93067601Y-129863003D01*
X93203033Y-129915282D01*
G36*
X91736334Y-131572000D02*
G01*
X91694000Y-131614334D01*
X91651667Y-131572000D01*
X91694000Y-131529667D01*
X91736334Y-131572000D01*
G37*
X91736334Y-131572000D02*
X91694000Y-131614334D01*
X91651667Y-131572000D01*
X91694000Y-131529667D01*
X91736334Y-131572000D01*
G36*
X92430164Y-130954424D02*
G01*
X92498334Y-131071056D01*
X92449463Y-131163566D01*
X92348009Y-131149350D01*
X92263737Y-131037542D01*
X92265532Y-130986229D01*
X92364278Y-130937000D01*
X92430164Y-130954424D01*
G37*
X92430164Y-130954424D02*
X92498334Y-131071056D01*
X92449463Y-131163566D01*
X92348009Y-131149350D01*
X92263737Y-131037542D01*
X92265532Y-130986229D01*
X92364278Y-130937000D01*
X92430164Y-130954424D01*
G36*
X106567841Y-131109494D02*
G01*
X106680000Y-131191000D01*
X106693564Y-131223501D01*
X106647661Y-131275667D01*
X106622826Y-131272506D01*
X106510667Y-131191000D01*
X106497104Y-131158499D01*
X106543007Y-131106334D01*
X106567841Y-131109494D01*
G37*
X106567841Y-131109494D02*
X106680000Y-131191000D01*
X106693564Y-131223501D01*
X106647661Y-131275667D01*
X106622826Y-131272506D01*
X106510667Y-131191000D01*
X106497104Y-131158499D01*
X106543007Y-131106334D01*
X106567841Y-131109494D01*
G36*
X98318482Y-117826114D02*
G01*
X98213804Y-117982481D01*
X98199246Y-117998516D01*
X98069579Y-118126498D01*
X98013670Y-118123897D01*
X98001667Y-117992059D01*
X98023365Y-117898044D01*
X98140785Y-117778399D01*
X98290046Y-117752652D01*
X98318482Y-117826114D01*
G37*
X98318482Y-117826114D02*
X98213804Y-117982481D01*
X98199246Y-117998516D01*
X98069579Y-118126498D01*
X98013670Y-118123897D01*
X98001667Y-117992059D01*
X98023365Y-117898044D01*
X98140785Y-117778399D01*
X98290046Y-117752652D01*
X98318482Y-117826114D01*
G36*
X93160786Y-130170099D02*
G01*
X93175667Y-130294691D01*
X93168317Y-130384837D01*
X93101092Y-130455031D01*
X92921667Y-130447060D01*
X92918097Y-130446531D01*
X92741105Y-130403701D01*
X92667667Y-130353286D01*
X92668000Y-130350264D01*
X92746648Y-130282626D01*
X92921667Y-130200917D01*
X93083589Y-130148190D01*
X93160786Y-130170099D01*
G37*
X93160786Y-130170099D02*
X93175667Y-130294691D01*
X93168317Y-130384837D01*
X93101092Y-130455031D01*
X92921667Y-130447060D01*
X92918097Y-130446531D01*
X92741105Y-130403701D01*
X92667667Y-130353286D01*
X92668000Y-130350264D01*
X92746648Y-130282626D01*
X92921667Y-130200917D01*
X93083589Y-130148190D01*
X93160786Y-130170099D01*
G36*
X106446798Y-124105845D02*
G01*
X106503309Y-124195066D01*
X106461042Y-124295283D01*
X106298270Y-124447623D01*
X106260322Y-124479290D01*
X106064473Y-124624771D01*
X105940806Y-124665823D01*
X105849676Y-124617453D01*
X105840130Y-124600682D01*
X105862574Y-124474597D01*
X105954834Y-124298793D01*
X106080639Y-124132815D01*
X106203719Y-124036211D01*
X106291880Y-124029248D01*
X106446798Y-124105845D01*
G37*
X106446798Y-124105845D02*
X106503309Y-124195066D01*
X106461042Y-124295283D01*
X106298270Y-124447623D01*
X106260322Y-124479290D01*
X106064473Y-124624771D01*
X105940806Y-124665823D01*
X105849676Y-124617453D01*
X105840130Y-124600682D01*
X105862574Y-124474597D01*
X105954834Y-124298793D01*
X106080639Y-124132815D01*
X106203719Y-124036211D01*
X106291880Y-124029248D01*
X106446798Y-124105845D01*
G36*
X101267025Y-122535036D02*
G01*
X101411170Y-122626553D01*
X101427051Y-122730184D01*
X101335745Y-122801219D01*
X101183039Y-122778683D01*
X101049712Y-122639750D01*
X101026226Y-122593823D01*
X101008392Y-122499641D01*
X101110233Y-122494033D01*
X101267025Y-122535036D01*
G37*
X101267025Y-122535036D02*
X101411170Y-122626553D01*
X101427051Y-122730184D01*
X101335745Y-122801219D01*
X101183039Y-122778683D01*
X101049712Y-122639750D01*
X101026226Y-122593823D01*
X101008392Y-122499641D01*
X101110233Y-122494033D01*
X101267025Y-122535036D01*
G36*
X98065167Y-115929502D02*
G01*
X98159949Y-115994282D01*
X98142797Y-116079514D01*
X98001027Y-116120334D01*
X97928648Y-116128033D01*
X97867047Y-116184914D01*
X97843604Y-116331423D01*
X97845680Y-116607167D01*
X97844037Y-116807822D01*
X97815575Y-117110563D01*
X97763749Y-117326834D01*
X97722018Y-117418916D01*
X97626479Y-117547885D01*
X97554634Y-117513929D01*
X97509394Y-117320866D01*
X97493667Y-116972512D01*
X97498716Y-116740435D01*
X97550592Y-116311611D01*
X97660624Y-116036559D01*
X97831315Y-115910711D01*
X98065167Y-115929502D01*
G37*
X98065167Y-115929502D02*
X98159949Y-115994282D01*
X98142797Y-116079514D01*
X98001027Y-116120334D01*
X97928648Y-116128033D01*
X97867047Y-116184914D01*
X97843604Y-116331423D01*
X97845680Y-116607167D01*
X97844037Y-116807822D01*
X97815575Y-117110563D01*
X97763749Y-117326834D01*
X97722018Y-117418916D01*
X97626479Y-117547885D01*
X97554634Y-117513929D01*
X97509394Y-117320866D01*
X97493667Y-116972512D01*
X97498716Y-116740435D01*
X97550592Y-116311611D01*
X97660624Y-116036559D01*
X97831315Y-115910711D01*
X98065167Y-115929502D01*
G36*
X98650778Y-118688556D02*
G01*
X98664024Y-118714022D01*
X98594334Y-118745000D01*
X98549512Y-118738890D01*
X98537889Y-118688556D01*
X98550299Y-118678423D01*
X98650778Y-118688556D01*
G37*
X98650778Y-118688556D02*
X98664024Y-118714022D01*
X98594334Y-118745000D01*
X98549512Y-118738890D01*
X98537889Y-118688556D01*
X98550299Y-118678423D01*
X98650778Y-118688556D01*
G36*
X91482334Y-131270670D02*
G01*
X91479080Y-131295246D01*
X91397667Y-131360334D01*
X91378506Y-131359363D01*
X91313000Y-131322997D01*
X91316897Y-131309416D01*
X91397667Y-131233334D01*
X91430464Y-131220104D01*
X91482334Y-131270670D01*
G37*
X91482334Y-131270670D02*
X91479080Y-131295246D01*
X91397667Y-131360334D01*
X91378506Y-131359363D01*
X91313000Y-131322997D01*
X91316897Y-131309416D01*
X91397667Y-131233334D01*
X91430464Y-131220104D01*
X91482334Y-131270670D01*
G36*
X101682729Y-123484725D02*
G01*
X101755499Y-123550734D01*
X101811667Y-123623700D01*
X101773441Y-123664819D01*
X101683267Y-123620730D01*
X101607121Y-123516691D01*
X101597147Y-123489845D01*
X101590938Y-123422951D01*
X101682729Y-123484725D01*
G37*
X101682729Y-123484725D02*
X101755499Y-123550734D01*
X101811667Y-123623700D01*
X101773441Y-123664819D01*
X101683267Y-123620730D01*
X101607121Y-123516691D01*
X101597147Y-123489845D01*
X101590938Y-123422951D01*
X101682729Y-123484725D01*
G36*
X107840434Y-134498516D02*
G01*
X107907667Y-134542727D01*
X107895225Y-134574200D01*
X107810965Y-134725556D01*
X107663889Y-134970509D01*
X107473729Y-135277671D01*
X107260216Y-135615652D01*
X107043083Y-135953064D01*
X106842062Y-136258516D01*
X106676885Y-136500620D01*
X106580882Y-136631043D01*
X106443346Y-136795008D01*
X106362500Y-136860454D01*
X106303394Y-136834343D01*
X106315677Y-136705143D01*
X106431079Y-136484572D01*
X106641908Y-136191062D01*
X106798905Y-135979338D01*
X107004527Y-135666417D01*
X107152094Y-135400292D01*
X107323132Y-135069353D01*
X107509805Y-134773753D01*
X107676847Y-134572322D01*
X107801834Y-134496262D01*
X107840434Y-134498516D01*
G37*
X107840434Y-134498516D02*
X107907667Y-134542727D01*
X107895225Y-134574200D01*
X107810965Y-134725556D01*
X107663889Y-134970509D01*
X107473729Y-135277671D01*
X107260216Y-135615652D01*
X107043083Y-135953064D01*
X106842062Y-136258516D01*
X106676885Y-136500620D01*
X106580882Y-136631043D01*
X106443346Y-136795008D01*
X106362500Y-136860454D01*
X106303394Y-136834343D01*
X106315677Y-136705143D01*
X106431079Y-136484572D01*
X106641908Y-136191062D01*
X106798905Y-135979338D01*
X107004527Y-135666417D01*
X107152094Y-135400292D01*
X107323132Y-135069353D01*
X107509805Y-134773753D01*
X107676847Y-134572322D01*
X107801834Y-134496262D01*
X107840434Y-134498516D01*
G36*
X108848864Y-134942762D02*
G01*
X108962132Y-135131477D01*
X109083651Y-135417330D01*
X109131919Y-135553929D01*
X109232926Y-135908804D01*
X109257444Y-136173299D01*
X109211129Y-136390589D01*
X109208240Y-136397841D01*
X109126881Y-136482157D01*
X109045395Y-136431119D01*
X109008334Y-136271000D01*
X108995346Y-136179057D01*
X108922286Y-136058480D01*
X108895661Y-136034779D01*
X108888108Y-135921373D01*
X108900312Y-135802452D01*
X108854297Y-135609723D01*
X108784569Y-135385897D01*
X108722010Y-135110591D01*
X108719580Y-135096018D01*
X108711487Y-134911375D01*
X108759948Y-134864842D01*
X108848864Y-134942762D01*
G37*
X108848864Y-134942762D02*
X108962132Y-135131477D01*
X109083651Y-135417330D01*
X109131919Y-135553929D01*
X109232926Y-135908804D01*
X109257444Y-136173299D01*
X109211129Y-136390589D01*
X109208240Y-136397841D01*
X109126881Y-136482157D01*
X109045395Y-136431119D01*
X109008334Y-136271000D01*
X108995346Y-136179057D01*
X108922286Y-136058480D01*
X108895661Y-136034779D01*
X108888108Y-135921373D01*
X108900312Y-135802452D01*
X108854297Y-135609723D01*
X108784569Y-135385897D01*
X108722010Y-135110591D01*
X108719580Y-135096018D01*
X108711487Y-134911375D01*
X108759948Y-134864842D01*
X108848864Y-134942762D01*
G36*
X100541667Y-121835334D02*
G01*
X100499334Y-121877667D01*
X100457000Y-121835334D01*
X100499334Y-121793000D01*
X100541667Y-121835334D01*
G37*
X100541667Y-121835334D02*
X100499334Y-121877667D01*
X100457000Y-121835334D01*
X100499334Y-121793000D01*
X100541667Y-121835334D01*
G36*
X91397667Y-131572000D02*
G01*
X91355334Y-131614334D01*
X91313000Y-131572000D01*
X91355334Y-131529667D01*
X91397667Y-131572000D01*
G37*
X91397667Y-131572000D02*
X91355334Y-131614334D01*
X91313000Y-131572000D01*
X91355334Y-131529667D01*
X91397667Y-131572000D01*
G36*
X101952778Y-123768556D02*
G01*
X101966024Y-123794022D01*
X101896334Y-123825000D01*
X101851512Y-123818890D01*
X101839889Y-123768556D01*
X101852299Y-123758423D01*
X101952778Y-123768556D01*
G37*
X101952778Y-123768556D02*
X101966024Y-123794022D01*
X101896334Y-123825000D01*
X101851512Y-123818890D01*
X101839889Y-123768556D01*
X101852299Y-123758423D01*
X101952778Y-123768556D01*
G36*
X90099197Y-131714298D02*
G01*
X90108024Y-131868334D01*
X90107205Y-131925778D01*
X90093845Y-132042851D01*
X90069304Y-132016500D01*
X90056137Y-131934901D01*
X90069304Y-131720167D01*
X90077220Y-131696144D01*
X90099197Y-131714298D01*
G37*
X90099197Y-131714298D02*
X90108024Y-131868334D01*
X90107205Y-131925778D01*
X90093845Y-132042851D01*
X90069304Y-132016500D01*
X90056137Y-131934901D01*
X90069304Y-131720167D01*
X90077220Y-131696144D01*
X90099197Y-131714298D01*
G36*
X90353445Y-133251222D02*
G01*
X90366691Y-133276689D01*
X90297000Y-133307667D01*
X90252178Y-133301557D01*
X90240556Y-133251222D01*
X90252965Y-133241089D01*
X90353445Y-133251222D01*
G37*
X90353445Y-133251222D02*
X90366691Y-133276689D01*
X90297000Y-133307667D01*
X90252178Y-133301557D01*
X90240556Y-133251222D01*
X90252965Y-133241089D01*
X90353445Y-133251222D01*
G36*
X92533954Y-130096981D02*
G01*
X92540667Y-130175000D01*
X92523290Y-130200338D01*
X92451004Y-130259667D01*
X92442554Y-130257466D01*
X92413667Y-130175000D01*
X92417113Y-130151794D01*
X92503331Y-130090334D01*
X92533954Y-130096981D01*
G37*
X92533954Y-130096981D02*
X92540667Y-130175000D01*
X92523290Y-130200338D01*
X92451004Y-130259667D01*
X92442554Y-130257466D01*
X92413667Y-130175000D01*
X92417113Y-130151794D01*
X92503331Y-130090334D01*
X92533954Y-130096981D01*
G36*
X108688151Y-134434685D02*
G01*
X108754334Y-134535334D01*
X108754281Y-134544197D01*
X108732008Y-134636016D01*
X108638693Y-134653693D01*
X108429677Y-134607098D01*
X108406397Y-134600625D01*
X108298405Y-134546817D01*
X108345010Y-134482550D01*
X108530743Y-134414691D01*
X108688151Y-134434685D01*
G37*
X108688151Y-134434685D02*
X108754334Y-134535334D01*
X108754281Y-134544197D01*
X108732008Y-134636016D01*
X108638693Y-134653693D01*
X108429677Y-134607098D01*
X108406397Y-134600625D01*
X108298405Y-134546817D01*
X108345010Y-134482550D01*
X108530743Y-134414691D01*
X108688151Y-134434685D01*
G36*
X107373758Y-131061856D02*
G01*
X107532593Y-131146471D01*
X107675972Y-131257796D01*
X107738334Y-131354359D01*
X107712015Y-131392601D01*
X107593707Y-131389281D01*
X107437117Y-131325995D01*
X107305709Y-131222138D01*
X107259947Y-131148491D01*
X107257960Y-131050485D01*
X107265025Y-131045422D01*
X107373758Y-131061856D01*
G37*
X107373758Y-131061856D02*
X107532593Y-131146471D01*
X107675972Y-131257796D01*
X107738334Y-131354359D01*
X107712015Y-131392601D01*
X107593707Y-131389281D01*
X107437117Y-131325995D01*
X107305709Y-131222138D01*
X107259947Y-131148491D01*
X107257960Y-131050485D01*
X107265025Y-131045422D01*
X107373758Y-131061856D01*
G36*
X90353445Y-132404556D02*
G01*
X90366691Y-132430022D01*
X90297000Y-132461000D01*
X90252178Y-132454890D01*
X90240556Y-132404556D01*
X90252965Y-132394423D01*
X90353445Y-132404556D01*
G37*
X90353445Y-132404556D02*
X90366691Y-132430022D01*
X90297000Y-132461000D01*
X90252178Y-132454890D01*
X90240556Y-132404556D01*
X90252965Y-132394423D01*
X90353445Y-132404556D01*
G36*
X102712567Y-125298628D02*
G01*
X102954667Y-125467104D01*
X103044678Y-125558738D01*
X103015188Y-125600307D01*
X102895457Y-125571077D01*
X102714112Y-125474863D01*
X102556395Y-125353644D01*
X102489000Y-125251617D01*
X102489018Y-125250221D01*
X102549751Y-125222817D01*
X102712567Y-125298628D01*
G37*
X102712567Y-125298628D02*
X102954667Y-125467104D01*
X103044678Y-125558738D01*
X103015188Y-125600307D01*
X102895457Y-125571077D01*
X102714112Y-125474863D01*
X102556395Y-125353644D01*
X102489000Y-125251617D01*
X102489018Y-125250221D01*
X102549751Y-125222817D01*
X102712567Y-125298628D01*
G36*
X108335211Y-132025021D02*
G01*
X108451244Y-132193935D01*
X108526661Y-132361091D01*
X108637332Y-132640939D01*
X108761451Y-132977646D01*
X108884048Y-133328278D01*
X108990152Y-133649903D01*
X109064793Y-133899586D01*
X109093000Y-134034394D01*
X109087709Y-134068222D01*
X109017807Y-134088527D01*
X108840841Y-134015561D01*
X108643993Y-133863630D01*
X108506791Y-133577551D01*
X108459113Y-133390474D01*
X108378567Y-133057251D01*
X108298598Y-132710286D01*
X108229159Y-132394126D01*
X108180199Y-132153319D01*
X108161667Y-132032413D01*
X108166077Y-131992339D01*
X108228093Y-131951094D01*
X108335211Y-132025021D01*
G37*
X108335211Y-132025021D02*
X108451244Y-132193935D01*
X108526661Y-132361091D01*
X108637332Y-132640939D01*
X108761451Y-132977646D01*
X108884048Y-133328278D01*
X108990152Y-133649903D01*
X109064793Y-133899586D01*
X109093000Y-134034394D01*
X109087709Y-134068222D01*
X109017807Y-134088527D01*
X108840841Y-134015561D01*
X108643993Y-133863630D01*
X108506791Y-133577551D01*
X108459113Y-133390474D01*
X108378567Y-133057251D01*
X108298598Y-132710286D01*
X108229159Y-132394126D01*
X108180199Y-132153319D01*
X108161667Y-132032413D01*
X108166077Y-131992339D01*
X108228093Y-131951094D01*
X108335211Y-132025021D01*
G36*
X108326303Y-128164675D02*
G01*
X108545496Y-128242082D01*
X108880636Y-128367555D01*
X109309475Y-128532614D01*
X109809763Y-128728780D01*
X110359253Y-128947575D01*
X110703888Y-129084822D01*
X111320727Y-129326134D01*
X111923262Y-129556879D01*
X112475898Y-129763644D01*
X112943040Y-129933016D01*
X113289092Y-130051583D01*
X113516408Y-130126055D01*
X113925484Y-130268568D01*
X114223535Y-130391855D01*
X114446531Y-130514323D01*
X114630444Y-130654376D01*
X114811246Y-130830420D01*
X114944969Y-130979908D01*
X115176034Y-131292882D01*
X115391937Y-131667510D01*
X115598073Y-132118959D01*
X115799834Y-132662395D01*
X116002617Y-133312984D01*
X116211813Y-134085892D01*
X116432820Y-134996287D01*
X116671029Y-136059334D01*
X116718686Y-136278169D01*
X116835387Y-136810183D01*
X116949504Y-137325675D01*
X117050011Y-137774974D01*
X117125882Y-138108409D01*
X117286455Y-138802817D01*
X116851561Y-138828075D01*
X116693795Y-138834217D01*
X116367787Y-138840214D01*
X115933518Y-138843730D01*
X115414119Y-138844961D01*
X114832723Y-138844105D01*
X114212465Y-138841359D01*
X113576476Y-138836920D01*
X112947890Y-138830986D01*
X112349839Y-138823753D01*
X111805457Y-138815419D01*
X111337876Y-138806181D01*
X110970230Y-138796237D01*
X110725651Y-138785782D01*
X110627273Y-138775015D01*
X110614076Y-138763032D01*
X110549559Y-138627705D01*
X110493963Y-138409769D01*
X110483009Y-138354433D01*
X110427206Y-138108246D01*
X110340723Y-137751784D01*
X110233124Y-137323954D01*
X110113970Y-136863667D01*
X110083825Y-136747833D01*
X109958687Y-136245960D01*
X109843531Y-135753305D01*
X109750044Y-135321205D01*
X109689915Y-135001000D01*
X109617304Y-134595847D01*
X109520205Y-134120689D01*
X109421383Y-133688667D01*
X109418771Y-133678064D01*
X109331319Y-133323702D01*
X109218005Y-132865249D01*
X109093189Y-132360772D01*
X108971230Y-131868334D01*
X108890230Y-131538912D01*
X108736995Y-130902744D01*
X108589263Y-130273994D01*
X108454170Y-129684027D01*
X108338850Y-129164212D01*
X108250438Y-128745914D01*
X108196069Y-128460500D01*
X108185449Y-128390303D01*
X108183236Y-128201283D01*
X108248034Y-128143000D01*
X108326303Y-128164675D01*
G37*
X108326303Y-128164675D02*
X108545496Y-128242082D01*
X108880636Y-128367555D01*
X109309475Y-128532614D01*
X109809763Y-128728780D01*
X110359253Y-128947575D01*
X110703888Y-129084822D01*
X111320727Y-129326134D01*
X111923262Y-129556879D01*
X112475898Y-129763644D01*
X112943040Y-129933016D01*
X113289092Y-130051583D01*
X113516408Y-130126055D01*
X113925484Y-130268568D01*
X114223535Y-130391855D01*
X114446531Y-130514323D01*
X114630444Y-130654376D01*
X114811246Y-130830420D01*
X114944969Y-130979908D01*
X115176034Y-131292882D01*
X115391937Y-131667510D01*
X115598073Y-132118959D01*
X115799834Y-132662395D01*
X116002617Y-133312984D01*
X116211813Y-134085892D01*
X116432820Y-134996287D01*
X116671029Y-136059334D01*
X116718686Y-136278169D01*
X116835387Y-136810183D01*
X116949504Y-137325675D01*
X117050011Y-137774974D01*
X117125882Y-138108409D01*
X117286455Y-138802817D01*
X116851561Y-138828075D01*
X116693795Y-138834217D01*
X116367787Y-138840214D01*
X115933518Y-138843730D01*
X115414119Y-138844961D01*
X114832723Y-138844105D01*
X114212465Y-138841359D01*
X113576476Y-138836920D01*
X112947890Y-138830986D01*
X112349839Y-138823753D01*
X111805457Y-138815419D01*
X111337876Y-138806181D01*
X110970230Y-138796237D01*
X110725651Y-138785782D01*
X110627273Y-138775015D01*
X110614076Y-138763032D01*
X110549559Y-138627705D01*
X110493963Y-138409769D01*
X110483009Y-138354433D01*
X110427206Y-138108246D01*
X110340723Y-137751784D01*
X110233124Y-137323954D01*
X110113970Y-136863667D01*
X110083825Y-136747833D01*
X109958687Y-136245960D01*
X109843531Y-135753305D01*
X109750044Y-135321205D01*
X109689915Y-135001000D01*
X109617304Y-134595847D01*
X109520205Y-134120689D01*
X109421383Y-133688667D01*
X109418771Y-133678064D01*
X109331319Y-133323702D01*
X109218005Y-132865249D01*
X109093189Y-132360772D01*
X108971230Y-131868334D01*
X108890230Y-131538912D01*
X108736995Y-130902744D01*
X108589263Y-130273994D01*
X108454170Y-129684027D01*
X108338850Y-129164212D01*
X108250438Y-128745914D01*
X108196069Y-128460500D01*
X108185449Y-128390303D01*
X108183236Y-128201283D01*
X108248034Y-128143000D01*
X108326303Y-128164675D01*
G36*
X99141079Y-118996022D02*
G01*
X99213671Y-119068891D01*
X99271667Y-119178700D01*
X99255506Y-119215466D01*
X99143620Y-119250855D01*
X98993342Y-119231436D01*
X98886108Y-119160956D01*
X98868087Y-119122972D01*
X98887954Y-119003070D01*
X98999267Y-118947611D01*
X99141079Y-118996022D01*
G37*
X99141079Y-118996022D02*
X99213671Y-119068891D01*
X99271667Y-119178700D01*
X99255506Y-119215466D01*
X99143620Y-119250855D01*
X98993342Y-119231436D01*
X98886108Y-119160956D01*
X98868087Y-119122972D01*
X98887954Y-119003070D01*
X98999267Y-118947611D01*
X99141079Y-118996022D01*
G36*
X91736334Y-130640948D02*
G01*
X91713969Y-130706993D01*
X91588167Y-130793971D01*
X91356509Y-130842249D01*
X91243202Y-130834637D01*
X91283521Y-130769517D01*
X91482334Y-130653357D01*
X91600350Y-130598378D01*
X91708856Y-130576023D01*
X91736334Y-130640948D01*
G37*
X91736334Y-130640948D02*
X91713969Y-130706993D01*
X91588167Y-130793971D01*
X91356509Y-130842249D01*
X91243202Y-130834637D01*
X91283521Y-130769517D01*
X91482334Y-130653357D01*
X91600350Y-130598378D01*
X91708856Y-130576023D01*
X91736334Y-130640948D01*
G36*
X103759000Y-127169334D02*
G01*
X103716667Y-127211667D01*
X103674334Y-127169334D01*
X103716667Y-127127000D01*
X103759000Y-127169334D01*
G37*
X103759000Y-127169334D02*
X103716667Y-127211667D01*
X103674334Y-127169334D01*
X103716667Y-127127000D01*
X103759000Y-127169334D01*
G36*
X98977915Y-117315529D02*
G01*
X99016072Y-117381746D01*
X98931908Y-117484882D01*
X98742500Y-117594851D01*
X98581532Y-117665196D01*
X98465088Y-117712841D01*
X98427652Y-117716681D01*
X98425000Y-117689965D01*
X98479213Y-117601473D01*
X98620260Y-117471380D01*
X98784191Y-117355656D01*
X98906632Y-117305667D01*
X98977915Y-117315529D01*
G37*
X98977915Y-117315529D02*
X99016072Y-117381746D01*
X98931908Y-117484882D01*
X98742500Y-117594851D01*
X98581532Y-117665196D01*
X98465088Y-117712841D01*
X98427652Y-117716681D01*
X98425000Y-117689965D01*
X98479213Y-117601473D01*
X98620260Y-117471380D01*
X98784191Y-117355656D01*
X98906632Y-117305667D01*
X98977915Y-117315529D01*
G36*
X100118334Y-118364000D02*
G01*
X100076000Y-118406334D01*
X100033667Y-118364000D01*
X100076000Y-118321667D01*
X100118334Y-118364000D01*
G37*
X100118334Y-118364000D02*
X100076000Y-118406334D01*
X100033667Y-118364000D01*
X100076000Y-118321667D01*
X100118334Y-118364000D01*
G36*
X90170000Y-132545667D02*
G01*
X90239075Y-132615025D01*
X90297000Y-132725367D01*
X90282751Y-132759459D01*
X90170000Y-132799667D01*
X90093557Y-132765951D01*
X90043000Y-132619967D01*
X90043697Y-132578890D01*
X90072687Y-132491133D01*
X90170000Y-132545667D01*
G37*
X90170000Y-132545667D02*
X90239075Y-132615025D01*
X90297000Y-132725367D01*
X90282751Y-132759459D01*
X90170000Y-132799667D01*
X90093557Y-132765951D01*
X90043000Y-132619967D01*
X90043697Y-132578890D01*
X90072687Y-132491133D01*
X90170000Y-132545667D01*
G36*
X108421314Y-108628554D02*
G01*
X108531254Y-108723652D01*
X108664167Y-108838623D01*
X108937157Y-109109026D01*
X109208443Y-109397158D01*
X109221975Y-109413574D01*
X109273083Y-109475576D01*
X109329941Y-109544556D01*
X109495297Y-109745163D01*
X109675626Y-109963936D01*
X110018947Y-110380451D01*
X110093312Y-110490000D01*
X110747466Y-111453656D01*
X110770221Y-111490886D01*
X110898136Y-111708251D01*
X110987601Y-111893925D01*
X111048508Y-112088040D01*
X111090751Y-112330731D01*
X111124222Y-112662130D01*
X111158814Y-113122371D01*
X111187706Y-113571246D01*
X111201333Y-113952975D01*
X111193713Y-114241585D01*
X111163605Y-114476892D01*
X111162011Y-114483458D01*
X111109773Y-114698715D01*
X111058002Y-114877760D01*
X110988024Y-115120517D01*
X110946713Y-115264817D01*
X110945291Y-115270470D01*
X110960434Y-115331887D01*
X111049739Y-115391845D01*
X111236227Y-115458759D01*
X111542918Y-115541039D01*
X111992834Y-115647098D01*
X112116680Y-115686829D01*
X112205154Y-115787962D01*
X112224739Y-115986278D01*
X112225667Y-115995680D01*
X112174446Y-116269663D01*
X111971667Y-116641770D01*
X111884151Y-116769785D01*
X111764564Y-116977147D01*
X111717667Y-117109435D01*
X111713640Y-117140241D01*
X111665318Y-117314939D01*
X111573846Y-117586509D01*
X111453799Y-117910697D01*
X111386801Y-118081544D01*
X111259888Y-118369553D01*
X111138733Y-118562828D01*
X110990617Y-118707076D01*
X110782822Y-118848003D01*
X110684958Y-118910443D01*
X110477071Y-119073522D01*
X110384959Y-119210667D01*
X110357827Y-119251065D01*
X110278359Y-119506893D01*
X110243626Y-119626383D01*
X110121926Y-119903590D01*
X109980483Y-120101093D01*
X109919495Y-120166929D01*
X109794784Y-120406645D01*
X109721909Y-120766070D01*
X109698847Y-120937733D01*
X109639966Y-121263527D01*
X109555842Y-121590546D01*
X109437678Y-121939383D01*
X109276682Y-122330634D01*
X109064057Y-122784895D01*
X108791008Y-123322760D01*
X108448742Y-123964824D01*
X108028463Y-124731683D01*
X107974578Y-124827953D01*
X107822732Y-125089496D01*
X107699601Y-125289289D01*
X107678679Y-125326560D01*
X107601484Y-125549853D01*
X107532210Y-125865117D01*
X107477643Y-126221142D01*
X107444569Y-126566718D01*
X107439774Y-126850634D01*
X107470043Y-127021681D01*
X107472226Y-127026140D01*
X107517379Y-127188408D01*
X107563364Y-127460302D01*
X107600551Y-127785453D01*
X107611745Y-127915066D01*
X107625117Y-128164665D01*
X107609751Y-128365479D01*
X107553870Y-128567555D01*
X107445702Y-128820940D01*
X107273471Y-129175680D01*
X107164344Y-129401763D01*
X107023757Y-129710239D01*
X106927415Y-129944052D01*
X106891667Y-130065113D01*
X106890806Y-130080881D01*
X106850974Y-130248408D01*
X106770044Y-130471523D01*
X106751012Y-130516635D01*
X106664664Y-130678702D01*
X106564372Y-130719828D01*
X106389044Y-130672188D01*
X106373057Y-130666509D01*
X106200629Y-130588983D01*
X106129667Y-130526052D01*
X106061433Y-130456250D01*
X105896834Y-130366290D01*
X105824995Y-130329299D01*
X105655255Y-130217334D01*
X106129667Y-130217334D01*
X106172000Y-130259667D01*
X106214334Y-130217334D01*
X106172000Y-130175000D01*
X106129667Y-130217334D01*
X105655255Y-130217334D01*
X105593511Y-130176606D01*
X105356971Y-129985789D01*
X105291058Y-129926505D01*
X105051170Y-129711227D01*
X104753277Y-129444347D01*
X104446804Y-129170159D01*
X104323955Y-129058056D01*
X104100125Y-128840149D01*
X103936239Y-128663167D01*
X103843738Y-128543379D01*
X103834065Y-128497053D01*
X103918663Y-128540455D01*
X104108973Y-128689854D01*
X104180244Y-128746874D01*
X104431917Y-128920449D01*
X104705860Y-129080561D01*
X104949346Y-129198027D01*
X105109650Y-129243667D01*
X105123770Y-129245305D01*
X105270265Y-129321834D01*
X105500124Y-129497597D01*
X105785507Y-129751667D01*
X105933169Y-129861971D01*
X106151995Y-129982685D01*
X106314433Y-130082331D01*
X106383667Y-130179233D01*
X106393411Y-130217334D01*
X106395321Y-130224805D01*
X106460094Y-130198787D01*
X106562625Y-130067697D01*
X106681052Y-129861820D01*
X106793514Y-129611443D01*
X106855114Y-129441447D01*
X106939121Y-129166296D01*
X107000233Y-128915216D01*
X107031777Y-128722666D01*
X107027082Y-128623108D01*
X106979475Y-128651000D01*
X106966330Y-128669695D01*
X106888226Y-128735376D01*
X106808297Y-128651000D01*
X106783248Y-128615619D01*
X106736208Y-128599350D01*
X106722334Y-128735667D01*
X106721904Y-128757545D01*
X106701577Y-128873682D01*
X106646954Y-128832461D01*
X106592687Y-128772651D01*
X106516254Y-128811294D01*
X106463999Y-128875957D01*
X106358790Y-128882718D01*
X106230934Y-128730785D01*
X106187959Y-128650291D01*
X106172410Y-128500039D01*
X106252901Y-128294444D01*
X106286492Y-128225783D01*
X106369071Y-128018751D01*
X106359639Y-127916455D01*
X106258617Y-127889000D01*
X106190458Y-127838422D01*
X106142637Y-127664685D01*
X106132272Y-127411968D01*
X106157512Y-127127251D01*
X106216507Y-126857513D01*
X106307409Y-126649732D01*
X106318586Y-126632560D01*
X106424104Y-126444387D01*
X106467776Y-126317181D01*
X106450374Y-126273568D01*
X106318486Y-126166116D01*
X106103061Y-126058202D01*
X105859397Y-125974996D01*
X105642792Y-125941667D01*
X105626540Y-125941404D01*
X105351278Y-125896452D01*
X104958846Y-125780293D01*
X104478667Y-125601525D01*
X104358929Y-125563803D01*
X104104033Y-125501503D01*
X103801334Y-125439866D01*
X103567547Y-125388287D01*
X103357065Y-125321239D01*
X103265112Y-125263052D01*
X103239070Y-125226028D01*
X103107777Y-125179667D01*
X103091782Y-125177094D01*
X102955321Y-125098142D01*
X102749701Y-124931170D01*
X102512865Y-124706367D01*
X102384810Y-124573493D01*
X102199613Y-124358216D01*
X102124180Y-124219450D01*
X102144559Y-124135575D01*
X102210745Y-124087675D01*
X102302026Y-124128217D01*
X102351656Y-124180373D01*
X102510167Y-124273019D01*
X102589568Y-124316787D01*
X102658334Y-124420006D01*
X102647590Y-124455318D01*
X102560585Y-124451915D01*
X102513270Y-124431315D01*
X102523249Y-124489252D01*
X102537867Y-124505551D01*
X102683443Y-124563554D01*
X102908272Y-124587000D01*
X103156449Y-124617779D01*
X103281618Y-124714000D01*
X103339538Y-124785829D01*
X103502343Y-124841000D01*
X103603669Y-124863892D01*
X103674334Y-124959452D01*
X103712739Y-125031829D01*
X103869310Y-125162325D01*
X104102353Y-125302539D01*
X104363821Y-125424561D01*
X104605667Y-125500480D01*
X104656252Y-125509062D01*
X104906016Y-125532463D01*
X105192488Y-125540585D01*
X105428472Y-125523193D01*
X105622409Y-125440861D01*
X105814019Y-125253002D01*
X105894405Y-125165179D01*
X105995987Y-125079434D01*
X106016700Y-125106584D01*
X106017071Y-125204168D01*
X106136002Y-125202542D01*
X106232263Y-125194975D01*
X106299000Y-125250521D01*
X106300550Y-125260436D01*
X106380472Y-125272405D01*
X106552465Y-125196896D01*
X106577637Y-125182244D01*
X106739848Y-125068442D01*
X106806465Y-124985738D01*
X106807763Y-124976239D01*
X106867041Y-124854532D01*
X106987222Y-124675048D01*
X107086275Y-124500694D01*
X107118925Y-124239719D01*
X107007610Y-124024715D01*
X106767871Y-123878778D01*
X106415246Y-123825000D01*
X106363999Y-123821533D01*
X106131227Y-123763681D01*
X105850863Y-123653897D01*
X105575342Y-123517360D01*
X105357102Y-123379251D01*
X105248577Y-123264750D01*
X105242551Y-123096947D01*
X105346629Y-122992106D01*
X105512020Y-122978485D01*
X105687400Y-123077933D01*
X105690389Y-123080885D01*
X105800717Y-123125934D01*
X105943833Y-123035600D01*
X106077362Y-122949285D01*
X106284501Y-122893667D01*
X106396646Y-122870041D01*
X106468334Y-122761345D01*
X106498912Y-122680453D01*
X106650040Y-122655512D01*
X106773521Y-122647326D01*
X106854984Y-122528596D01*
X106855665Y-122456799D01*
X106778560Y-122341385D01*
X106636041Y-122329281D01*
X106487033Y-122435410D01*
X106438778Y-122495948D01*
X106388885Y-122539334D01*
X106411953Y-122449167D01*
X106412951Y-122446240D01*
X106410796Y-122332723D01*
X106275177Y-122302297D01*
X106231055Y-122303185D01*
X106147202Y-122323686D01*
X106214334Y-122385667D01*
X106255072Y-122416931D01*
X106239227Y-122456973D01*
X106071164Y-122469037D01*
X106063837Y-122469041D01*
X105862114Y-122444332D01*
X105748667Y-122385667D01*
X105741886Y-122340824D01*
X105833334Y-122301000D01*
X105897895Y-122288063D01*
X105918000Y-122216334D01*
X105911287Y-122195956D01*
X105989000Y-122142080D01*
X106212654Y-122118746D01*
X106565771Y-122128196D01*
X106718873Y-122119268D01*
X106851875Y-122042993D01*
X106861409Y-121927772D01*
X106751739Y-121815553D01*
X106527133Y-121748287D01*
X106375781Y-121718515D01*
X106155283Y-121637376D01*
X106148864Y-121634053D01*
X105937803Y-121577094D01*
X105655697Y-121556379D01*
X105381172Y-121572751D01*
X105192854Y-121627053D01*
X105145029Y-121689287D01*
X105170316Y-121806702D01*
X105272881Y-121899754D01*
X105407627Y-121909195D01*
X105520421Y-121919979D01*
X105606560Y-122004705D01*
X105596043Y-122100846D01*
X105492222Y-122114673D01*
X105272708Y-122089491D01*
X104987441Y-122034697D01*
X104685175Y-121960996D01*
X104414665Y-121879095D01*
X104224667Y-121799700D01*
X104123272Y-121747360D01*
X103944806Y-121703954D01*
X103768730Y-121760079D01*
X103623049Y-121851763D01*
X103498118Y-121973470D01*
X103432258Y-122029116D01*
X103370544Y-121931098D01*
X103366060Y-121918080D01*
X103367633Y-121720184D01*
X103450427Y-121495439D01*
X103581476Y-121308931D01*
X103727812Y-121225745D01*
X103825254Y-121218848D01*
X104055334Y-121201640D01*
X104123431Y-121199649D01*
X104350954Y-121200130D01*
X104694512Y-121204780D01*
X105121164Y-121213107D01*
X105597970Y-121224622D01*
X105654646Y-121226103D01*
X106162907Y-121237171D01*
X106533900Y-121238581D01*
X106796755Y-121228193D01*
X106980604Y-121203866D01*
X107114576Y-121163458D01*
X107227803Y-121104828D01*
X107359663Y-121004826D01*
X107467640Y-120857428D01*
X107470009Y-120740159D01*
X107354677Y-120692334D01*
X107289436Y-120677964D01*
X107176285Y-120565333D01*
X107127843Y-120499027D01*
X106972272Y-120438334D01*
X106885144Y-120427980D01*
X106773392Y-120367783D01*
X106674168Y-120328914D01*
X106485355Y-120333109D01*
X106393771Y-120344835D01*
X106288852Y-120329438D01*
X106250535Y-120229021D01*
X106248794Y-120001492D01*
X106256667Y-119634000D01*
X105960334Y-119667665D01*
X105672010Y-119697210D01*
X105464067Y-119705576D01*
X105356083Y-119684363D01*
X105311922Y-119631558D01*
X105322061Y-119597821D01*
X105442845Y-119515247D01*
X105658742Y-119433025D01*
X105828105Y-119388887D01*
X106086318Y-119366579D01*
X106344469Y-119423368D01*
X106678731Y-119489845D01*
X107022515Y-119451280D01*
X107284517Y-119303866D01*
X107347441Y-119210667D01*
X109262334Y-119210667D01*
X109304667Y-119253000D01*
X109347000Y-119210667D01*
X109304667Y-119168334D01*
X109262334Y-119210667D01*
X107347441Y-119210667D01*
X107443297Y-119068690D01*
X107477410Y-118766839D01*
X107365415Y-118419397D01*
X107351536Y-118391272D01*
X107266541Y-118175784D01*
X107163348Y-117865423D01*
X107061227Y-117517334D01*
X106981148Y-117235475D01*
X106877795Y-116929235D01*
X106782213Y-116744016D01*
X106678904Y-116652741D01*
X106552371Y-116628334D01*
X106474856Y-116649763D01*
X106316944Y-116779492D01*
X106184951Y-116971821D01*
X106129667Y-117162562D01*
X106129274Y-117170989D01*
X106071228Y-117331764D01*
X105933507Y-117578959D01*
X105743157Y-117872815D01*
X105527223Y-118173576D01*
X105312752Y-118441485D01*
X105126790Y-118636782D01*
X105062990Y-118690908D01*
X104792147Y-118858837D01*
X104457826Y-118966715D01*
X104026007Y-119022680D01*
X103462667Y-119034872D01*
X103206314Y-119022500D01*
X102662787Y-118911312D01*
X102219295Y-118677895D01*
X101865925Y-118313258D01*
X101592764Y-117808406D01*
X101389900Y-117154347D01*
X101343168Y-116982524D01*
X101250505Y-116733169D01*
X101161418Y-116582847D01*
X101096967Y-116530620D01*
X100893789Y-116461744D01*
X100701101Y-116495394D01*
X100584554Y-116626590D01*
X100584055Y-116628137D01*
X100474903Y-116787944D01*
X100289023Y-116937334D01*
X100094988Y-117088792D01*
X99964030Y-117256577D01*
X99949204Y-117287528D01*
X99894155Y-117364519D01*
X99837962Y-117319991D01*
X99749154Y-117136334D01*
X99691167Y-117014054D01*
X99616079Y-116890878D01*
X99508874Y-116762710D01*
X99344939Y-116603843D01*
X99099660Y-116388570D01*
X98748423Y-116091186D01*
X98628660Y-115993334D01*
X99779667Y-115993334D01*
X99822000Y-116035667D01*
X99864334Y-115993334D01*
X99855086Y-115984086D01*
X100808970Y-115984086D01*
X100810620Y-115993334D01*
X100829181Y-116097403D01*
X100858083Y-116096092D01*
X100873650Y-115986278D01*
X100860092Y-115903055D01*
X100822497Y-115935125D01*
X100808970Y-115984086D01*
X99855086Y-115984086D01*
X99822000Y-115951000D01*
X99779667Y-115993334D01*
X98628660Y-115993334D01*
X98584576Y-115957315D01*
X98343453Y-115789749D01*
X98141989Y-115706294D01*
X97930083Y-115681893D01*
X97592655Y-115677236D01*
X97572025Y-115420158D01*
X101081163Y-115420158D01*
X101171221Y-115439319D01*
X101396815Y-115416120D01*
X101874928Y-115340478D01*
X102305065Y-115244067D01*
X102595193Y-115136843D01*
X102761283Y-115014098D01*
X102896481Y-114905189D01*
X103184616Y-114839445D01*
X103193026Y-114839491D01*
X103490749Y-114856635D01*
X103894864Y-114899276D01*
X104347935Y-114959773D01*
X104792526Y-115030482D01*
X105171201Y-115103763D01*
X105262694Y-115124671D01*
X105477721Y-115189834D01*
X105570769Y-115263390D01*
X105577375Y-115368503D01*
X105574389Y-115384926D01*
X105587542Y-115494157D01*
X105710341Y-115484062D01*
X105809967Y-115469947D01*
X105875667Y-115521961D01*
X105946882Y-115567893D01*
X106170872Y-115596700D01*
X106531834Y-115602512D01*
X106589665Y-115601565D01*
X107011949Y-115586820D01*
X107288104Y-115558253D01*
X107438706Y-115512485D01*
X107484334Y-115446137D01*
X107504076Y-115418397D01*
X107640988Y-115344111D01*
X107865334Y-115264528D01*
X107986217Y-115225401D01*
X108172815Y-115146521D01*
X108246334Y-115085849D01*
X108246443Y-115083924D01*
X108325095Y-115038476D01*
X108505900Y-115019667D01*
X108515062Y-115019622D01*
X108906405Y-114936815D01*
X109239420Y-114716009D01*
X109315590Y-114612375D01*
X109342000Y-114483458D01*
X109270260Y-114427000D01*
X109233053Y-114392675D01*
X109237802Y-114257667D01*
X109246739Y-114152296D01*
X109169790Y-114100219D01*
X108964042Y-114088334D01*
X108796127Y-114076685D01*
X108611210Y-114003757D01*
X108455134Y-113835118D01*
X108287627Y-113538000D01*
X108272221Y-113508772D01*
X108143630Y-113299124D01*
X107953330Y-113018788D01*
X107736544Y-112720040D01*
X107593433Y-112535831D01*
X107344638Y-112263991D01*
X107081955Y-112060847D01*
X106743171Y-111873374D01*
X106718128Y-111860899D01*
X106421258Y-111706263D01*
X106175050Y-111566736D01*
X106030614Y-111471166D01*
X105909089Y-111390462D01*
X105607409Y-111262679D01*
X105163254Y-111133769D01*
X104563334Y-110999459D01*
X103986989Y-110870283D01*
X103530493Y-110736845D01*
X103207692Y-110599242D01*
X103054855Y-110490000D01*
X103251000Y-110490000D01*
X103293334Y-110532334D01*
X103335667Y-110490000D01*
X103293334Y-110447667D01*
X103251000Y-110490000D01*
X103054855Y-110490000D01*
X103000442Y-110451108D01*
X102853225Y-110348615D01*
X102711152Y-110328359D01*
X102650453Y-110339406D01*
X102534901Y-110284106D01*
X102526205Y-110235891D01*
X102616000Y-110193667D01*
X102680562Y-110180729D01*
X102700667Y-110109000D01*
X102650917Y-110071664D01*
X105029000Y-110071664D01*
X105029825Y-110083500D01*
X105078835Y-110102145D01*
X105164085Y-110011252D01*
X105184686Y-109963936D01*
X105126749Y-109973915D01*
X105089137Y-110000051D01*
X105029000Y-110071664D01*
X102650917Y-110071664D01*
X102633683Y-110058730D01*
X102462837Y-110023037D01*
X102427023Y-110022385D01*
X102338268Y-110002719D01*
X102401882Y-109942974D01*
X102460806Y-109898337D01*
X102484939Y-109826889D01*
X102389096Y-109805681D01*
X102205677Y-109850054D01*
X102136190Y-109872756D01*
X101875358Y-109931886D01*
X101580101Y-109974322D01*
X101448290Y-109987373D01*
X101236559Y-110008566D01*
X101134334Y-110019144D01*
X101129245Y-110034223D01*
X101119486Y-110179766D01*
X101113335Y-110460045D01*
X101110999Y-110850673D01*
X101112687Y-111327262D01*
X101118606Y-111865423D01*
X101123880Y-112201096D01*
X101135529Y-112744133D01*
X101150212Y-113148199D01*
X101169538Y-113433423D01*
X101195116Y-113619935D01*
X101228556Y-113727866D01*
X101271468Y-113777346D01*
X101333608Y-113830512D01*
X101320591Y-113947001D01*
X101247289Y-114076830D01*
X101197414Y-114234833D01*
X101190123Y-114353188D01*
X101236853Y-114373634D01*
X101274590Y-114382940D01*
X101292915Y-114503681D01*
X101277795Y-114707376D01*
X101235864Y-114947368D01*
X101173755Y-115176998D01*
X101098101Y-115349608D01*
X101096646Y-115351958D01*
X101081163Y-115420158D01*
X97572025Y-115420158D01*
X97527204Y-114861618D01*
X97523067Y-114809700D01*
X97469797Y-114007064D01*
X97453351Y-113343630D01*
X97479761Y-112793539D01*
X97555059Y-112330933D01*
X97685278Y-111929954D01*
X97876450Y-111564745D01*
X98134606Y-111209447D01*
X98465779Y-110838202D01*
X98674098Y-110611851D01*
X98895617Y-110350003D01*
X99046557Y-110145398D01*
X99102334Y-110029278D01*
X99124308Y-109919809D01*
X99210557Y-109743660D01*
X104993472Y-109743660D01*
X105113667Y-109756965D01*
X105230137Y-109745163D01*
X105219500Y-109714260D01*
X105181176Y-109703078D01*
X105007834Y-109714260D01*
X104993472Y-109743660D01*
X99210557Y-109743660D01*
X99248968Y-109665212D01*
X99313494Y-109570022D01*
X106059977Y-109570022D01*
X106129667Y-109601000D01*
X106174489Y-109594890D01*
X106186112Y-109544556D01*
X106173702Y-109534423D01*
X106073223Y-109544556D01*
X106059977Y-109570022D01*
X99313494Y-109570022D01*
X99407280Y-109431667D01*
X105283000Y-109431667D01*
X105288289Y-109446911D01*
X105396542Y-109493408D01*
X105600500Y-109507894D01*
X105628153Y-109507130D01*
X105802875Y-109497278D01*
X105824143Y-109475576D01*
X105706334Y-109431667D01*
X105506084Y-109375720D01*
X105335668Y-109363889D01*
X105283000Y-109431667D01*
X99407280Y-109431667D01*
X99464822Y-109346780D01*
X99590722Y-109191669D01*
X105877383Y-109191669D01*
X105881220Y-109229213D01*
X106045000Y-109304667D01*
X106177056Y-109351791D01*
X106371678Y-109404536D01*
X106481486Y-109413574D01*
X106480149Y-109379174D01*
X106341334Y-109301609D01*
X106114507Y-109220859D01*
X105918000Y-109187927D01*
X105877383Y-109191669D01*
X99590722Y-109191669D01*
X99750121Y-108995288D01*
X100083114Y-108641510D01*
X100093000Y-108631791D01*
X100120207Y-108609012D01*
X105030612Y-108609012D01*
X105079410Y-108637580D01*
X105283000Y-108708922D01*
X105339909Y-108727982D01*
X105567628Y-108801562D01*
X105697329Y-108827760D01*
X105782259Y-108810658D01*
X105875667Y-108754334D01*
X105916085Y-108723652D01*
X105903172Y-108683111D01*
X105738084Y-108670963D01*
X105479774Y-108658102D01*
X105187750Y-108625540D01*
X105129348Y-108616864D01*
X105030612Y-108609012D01*
X100120207Y-108609012D01*
X100615694Y-108194172D01*
X103982674Y-108194172D01*
X103995405Y-108220676D01*
X104140000Y-108229828D01*
X104166293Y-108229269D01*
X104278750Y-108214611D01*
X104244222Y-108187660D01*
X104158302Y-108174049D01*
X103990222Y-108190798D01*
X103982674Y-108194172D01*
X100615694Y-108194172D01*
X100684673Y-108136420D01*
X104863801Y-108136420D01*
X104948567Y-108152600D01*
X105104122Y-108176643D01*
X105186563Y-108214611D01*
X105244900Y-108241478D01*
X105267926Y-108259192D01*
X105430427Y-108333553D01*
X105664000Y-108405061D01*
X105721209Y-108419242D01*
X105980286Y-108484089D01*
X106172000Y-108532981D01*
X106290067Y-108545948D01*
X106510667Y-108508926D01*
X106598604Y-108471155D01*
X106621209Y-108429934D01*
X106488271Y-108379765D01*
X106376727Y-108318512D01*
X106353186Y-108227156D01*
X106370581Y-108183652D01*
X106305576Y-108199936D01*
X106257480Y-108212683D01*
X106072351Y-108194397D01*
X105830312Y-108122680D01*
X105691118Y-108074103D01*
X105403387Y-108024126D01*
X105095985Y-108062261D01*
X104941614Y-108100497D01*
X104863801Y-108136420D01*
X100684673Y-108136420D01*
X100738083Y-108091703D01*
X101377465Y-107696000D01*
X103928334Y-107696000D01*
X103970667Y-107738334D01*
X104013000Y-107696000D01*
X103970667Y-107653667D01*
X103928334Y-107696000D01*
X101377465Y-107696000D01*
X101464415Y-107642188D01*
X102212111Y-107320407D01*
X102331107Y-107283299D01*
X102756214Y-107179268D01*
X103215694Y-107100539D01*
X103660387Y-107052891D01*
X104041133Y-107042103D01*
X104308775Y-107073952D01*
X104535241Y-107121094D01*
X104803631Y-107145667D01*
X105084184Y-107178260D01*
X105516289Y-107288223D01*
X106045967Y-107467330D01*
X106620414Y-107696000D01*
X106647517Y-107706789D01*
X107295238Y-107997812D01*
X107439430Y-108066535D01*
X107852361Y-108271893D01*
X108130820Y-108429934D01*
X108165184Y-108449438D01*
X108421314Y-108628554D01*
G37*
X108421314Y-108628554D02*
X108531254Y-108723652D01*
X108664167Y-108838623D01*
X108937157Y-109109026D01*
X109208443Y-109397158D01*
X109221975Y-109413574D01*
X109273083Y-109475576D01*
X109329941Y-109544556D01*
X109495297Y-109745163D01*
X109675626Y-109963936D01*
X110018947Y-110380451D01*
X110093312Y-110490000D01*
X110747466Y-111453656D01*
X110770221Y-111490886D01*
X110898136Y-111708251D01*
X110987601Y-111893925D01*
X111048508Y-112088040D01*
X111090751Y-112330731D01*
X111124222Y-112662130D01*
X111158814Y-113122371D01*
X111187706Y-113571246D01*
X111201333Y-113952975D01*
X111193713Y-114241585D01*
X111163605Y-114476892D01*
X111162011Y-114483458D01*
X111109773Y-114698715D01*
X111058002Y-114877760D01*
X110988024Y-115120517D01*
X110946713Y-115264817D01*
X110945291Y-115270470D01*
X110960434Y-115331887D01*
X111049739Y-115391845D01*
X111236227Y-115458759D01*
X111542918Y-115541039D01*
X111992834Y-115647098D01*
X112116680Y-115686829D01*
X112205154Y-115787962D01*
X112224739Y-115986278D01*
X112225667Y-115995680D01*
X112174446Y-116269663D01*
X111971667Y-116641770D01*
X111884151Y-116769785D01*
X111764564Y-116977147D01*
X111717667Y-117109435D01*
X111713640Y-117140241D01*
X111665318Y-117314939D01*
X111573846Y-117586509D01*
X111453799Y-117910697D01*
X111386801Y-118081544D01*
X111259888Y-118369553D01*
X111138733Y-118562828D01*
X110990617Y-118707076D01*
X110782822Y-118848003D01*
X110684958Y-118910443D01*
X110477071Y-119073522D01*
X110384959Y-119210667D01*
X110357827Y-119251065D01*
X110278359Y-119506893D01*
X110243626Y-119626383D01*
X110121926Y-119903590D01*
X109980483Y-120101093D01*
X109919495Y-120166929D01*
X109794784Y-120406645D01*
X109721909Y-120766070D01*
X109698847Y-120937733D01*
X109639966Y-121263527D01*
X109555842Y-121590546D01*
X109437678Y-121939383D01*
X109276682Y-122330634D01*
X109064057Y-122784895D01*
X108791008Y-123322760D01*
X108448742Y-123964824D01*
X108028463Y-124731683D01*
X107974578Y-124827953D01*
X107822732Y-125089496D01*
X107699601Y-125289289D01*
X107678679Y-125326560D01*
X107601484Y-125549853D01*
X107532210Y-125865117D01*
X107477643Y-126221142D01*
X107444569Y-126566718D01*
X107439774Y-126850634D01*
X107470043Y-127021681D01*
X107472226Y-127026140D01*
X107517379Y-127188408D01*
X107563364Y-127460302D01*
X107600551Y-127785453D01*
X107611745Y-127915066D01*
X107625117Y-128164665D01*
X107609751Y-128365479D01*
X107553870Y-128567555D01*
X107445702Y-128820940D01*
X107273471Y-129175680D01*
X107164344Y-129401763D01*
X107023757Y-129710239D01*
X106927415Y-129944052D01*
X106891667Y-130065113D01*
X106890806Y-130080881D01*
X106850974Y-130248408D01*
X106770044Y-130471523D01*
X106751012Y-130516635D01*
X106664664Y-130678702D01*
X106564372Y-130719828D01*
X106389044Y-130672188D01*
X106373057Y-130666509D01*
X106200629Y-130588983D01*
X106129667Y-130526052D01*
X106061433Y-130456250D01*
X105896834Y-130366290D01*
X105824995Y-130329299D01*
X105655255Y-130217334D01*
X106129667Y-130217334D01*
X106172000Y-130259667D01*
X106214334Y-130217334D01*
X106172000Y-130175000D01*
X106129667Y-130217334D01*
X105655255Y-130217334D01*
X105593511Y-130176606D01*
X105356971Y-129985789D01*
X105291058Y-129926505D01*
X105051170Y-129711227D01*
X104753277Y-129444347D01*
X104446804Y-129170159D01*
X104323955Y-129058056D01*
X104100125Y-128840149D01*
X103936239Y-128663167D01*
X103843738Y-128543379D01*
X103834065Y-128497053D01*
X103918663Y-128540455D01*
X104108973Y-128689854D01*
X104180244Y-128746874D01*
X104431917Y-128920449D01*
X104705860Y-129080561D01*
X104949346Y-129198027D01*
X105109650Y-129243667D01*
X105123770Y-129245305D01*
X105270265Y-129321834D01*
X105500124Y-129497597D01*
X105785507Y-129751667D01*
X105933169Y-129861971D01*
X106151995Y-129982685D01*
X106314433Y-130082331D01*
X106383667Y-130179233D01*
X106393411Y-130217334D01*
X106395321Y-130224805D01*
X106460094Y-130198787D01*
X106562625Y-130067697D01*
X106681052Y-129861820D01*
X106793514Y-129611443D01*
X106855114Y-129441447D01*
X106939121Y-129166296D01*
X107000233Y-128915216D01*
X107031777Y-128722666D01*
X107027082Y-128623108D01*
X106979475Y-128651000D01*
X106966330Y-128669695D01*
X106888226Y-128735376D01*
X106808297Y-128651000D01*
X106783248Y-128615619D01*
X106736208Y-128599350D01*
X106722334Y-128735667D01*
X106721904Y-128757545D01*
X106701577Y-128873682D01*
X106646954Y-128832461D01*
X106592687Y-128772651D01*
X106516254Y-128811294D01*
X106463999Y-128875957D01*
X106358790Y-128882718D01*
X106230934Y-128730785D01*
X106187959Y-128650291D01*
X106172410Y-128500039D01*
X106252901Y-128294444D01*
X106286492Y-128225783D01*
X106369071Y-128018751D01*
X106359639Y-127916455D01*
X106258617Y-127889000D01*
X106190458Y-127838422D01*
X106142637Y-127664685D01*
X106132272Y-127411968D01*
X106157512Y-127127251D01*
X106216507Y-126857513D01*
X106307409Y-126649732D01*
X106318586Y-126632560D01*
X106424104Y-126444387D01*
X106467776Y-126317181D01*
X106450374Y-126273568D01*
X106318486Y-126166116D01*
X106103061Y-126058202D01*
X105859397Y-125974996D01*
X105642792Y-125941667D01*
X105626540Y-125941404D01*
X105351278Y-125896452D01*
X104958846Y-125780293D01*
X104478667Y-125601525D01*
X104358929Y-125563803D01*
X104104033Y-125501503D01*
X103801334Y-125439866D01*
X103567547Y-125388287D01*
X103357065Y-125321239D01*
X103265112Y-125263052D01*
X103239070Y-125226028D01*
X103107777Y-125179667D01*
X103091782Y-125177094D01*
X102955321Y-125098142D01*
X102749701Y-124931170D01*
X102512865Y-124706367D01*
X102384810Y-124573493D01*
X102199613Y-124358216D01*
X102124180Y-124219450D01*
X102144559Y-124135575D01*
X102210745Y-124087675D01*
X102302026Y-124128217D01*
X102351656Y-124180373D01*
X102510167Y-124273019D01*
X102589568Y-124316787D01*
X102658334Y-124420006D01*
X102647590Y-124455318D01*
X102560585Y-124451915D01*
X102513270Y-124431315D01*
X102523249Y-124489252D01*
X102537867Y-124505551D01*
X102683443Y-124563554D01*
X102908272Y-124587000D01*
X103156449Y-124617779D01*
X103281618Y-124714000D01*
X103339538Y-124785829D01*
X103502343Y-124841000D01*
X103603669Y-124863892D01*
X103674334Y-124959452D01*
X103712739Y-125031829D01*
X103869310Y-125162325D01*
X104102353Y-125302539D01*
X104363821Y-125424561D01*
X104605667Y-125500480D01*
X104656252Y-125509062D01*
X104906016Y-125532463D01*
X105192488Y-125540585D01*
X105428472Y-125523193D01*
X105622409Y-125440861D01*
X105814019Y-125253002D01*
X105894405Y-125165179D01*
X105995987Y-125079434D01*
X106016700Y-125106584D01*
X106017071Y-125204168D01*
X106136002Y-125202542D01*
X106232263Y-125194975D01*
X106299000Y-125250521D01*
X106300550Y-125260436D01*
X106380472Y-125272405D01*
X106552465Y-125196896D01*
X106577637Y-125182244D01*
X106739848Y-125068442D01*
X106806465Y-124985738D01*
X106807763Y-124976239D01*
X106867041Y-124854532D01*
X106987222Y-124675048D01*
X107086275Y-124500694D01*
X107118925Y-124239719D01*
X107007610Y-124024715D01*
X106767871Y-123878778D01*
X106415246Y-123825000D01*
X106363999Y-123821533D01*
X106131227Y-123763681D01*
X105850863Y-123653897D01*
X105575342Y-123517360D01*
X105357102Y-123379251D01*
X105248577Y-123264750D01*
X105242551Y-123096947D01*
X105346629Y-122992106D01*
X105512020Y-122978485D01*
X105687400Y-123077933D01*
X105690389Y-123080885D01*
X105800717Y-123125934D01*
X105943833Y-123035600D01*
X106077362Y-122949285D01*
X106284501Y-122893667D01*
X106396646Y-122870041D01*
X106468334Y-122761345D01*
X106498912Y-122680453D01*
X106650040Y-122655512D01*
X106773521Y-122647326D01*
X106854984Y-122528596D01*
X106855665Y-122456799D01*
X106778560Y-122341385D01*
X106636041Y-122329281D01*
X106487033Y-122435410D01*
X106438778Y-122495948D01*
X106388885Y-122539334D01*
X106411953Y-122449167D01*
X106412951Y-122446240D01*
X106410796Y-122332723D01*
X106275177Y-122302297D01*
X106231055Y-122303185D01*
X106147202Y-122323686D01*
X106214334Y-122385667D01*
X106255072Y-122416931D01*
X106239227Y-122456973D01*
X106071164Y-122469037D01*
X106063837Y-122469041D01*
X105862114Y-122444332D01*
X105748667Y-122385667D01*
X105741886Y-122340824D01*
X105833334Y-122301000D01*
X105897895Y-122288063D01*
X105918000Y-122216334D01*
X105911287Y-122195956D01*
X105989000Y-122142080D01*
X106212654Y-122118746D01*
X106565771Y-122128196D01*
X106718873Y-122119268D01*
X106851875Y-122042993D01*
X106861409Y-121927772D01*
X106751739Y-121815553D01*
X106527133Y-121748287D01*
X106375781Y-121718515D01*
X106155283Y-121637376D01*
X106148864Y-121634053D01*
X105937803Y-121577094D01*
X105655697Y-121556379D01*
X105381172Y-121572751D01*
X105192854Y-121627053D01*
X105145029Y-121689287D01*
X105170316Y-121806702D01*
X105272881Y-121899754D01*
X105407627Y-121909195D01*
X105520421Y-121919979D01*
X105606560Y-122004705D01*
X105596043Y-122100846D01*
X105492222Y-122114673D01*
X105272708Y-122089491D01*
X104987441Y-122034697D01*
X104685175Y-121960996D01*
X104414665Y-121879095D01*
X104224667Y-121799700D01*
X104123272Y-121747360D01*
X103944806Y-121703954D01*
X103768730Y-121760079D01*
X103623049Y-121851763D01*
X103498118Y-121973470D01*
X103432258Y-122029116D01*
X103370544Y-121931098D01*
X103366060Y-121918080D01*
X103367633Y-121720184D01*
X103450427Y-121495439D01*
X103581476Y-121308931D01*
X103727812Y-121225745D01*
X103825254Y-121218848D01*
X104055334Y-121201640D01*
X104123431Y-121199649D01*
X104350954Y-121200130D01*
X104694512Y-121204780D01*
X105121164Y-121213107D01*
X105597970Y-121224622D01*
X105654646Y-121226103D01*
X106162907Y-121237171D01*
X106533900Y-121238581D01*
X106796755Y-121228193D01*
X106980604Y-121203866D01*
X107114576Y-121163458D01*
X107227803Y-121104828D01*
X107359663Y-121004826D01*
X107467640Y-120857428D01*
X107470009Y-120740159D01*
X107354677Y-120692334D01*
X107289436Y-120677964D01*
X107176285Y-120565333D01*
X107127843Y-120499027D01*
X106972272Y-120438334D01*
X106885144Y-120427980D01*
X106773392Y-120367783D01*
X106674168Y-120328914D01*
X106485355Y-120333109D01*
X106393771Y-120344835D01*
X106288852Y-120329438D01*
X106250535Y-120229021D01*
X106248794Y-120001492D01*
X106256667Y-119634000D01*
X105960334Y-119667665D01*
X105672010Y-119697210D01*
X105464067Y-119705576D01*
X105356083Y-119684363D01*
X105311922Y-119631558D01*
X105322061Y-119597821D01*
X105442845Y-119515247D01*
X105658742Y-119433025D01*
X105828105Y-119388887D01*
X106086318Y-119366579D01*
X106344469Y-119423368D01*
X106678731Y-119489845D01*
X107022515Y-119451280D01*
X107284517Y-119303866D01*
X107347441Y-119210667D01*
X109262334Y-119210667D01*
X109304667Y-119253000D01*
X109347000Y-119210667D01*
X109304667Y-119168334D01*
X109262334Y-119210667D01*
X107347441Y-119210667D01*
X107443297Y-119068690D01*
X107477410Y-118766839D01*
X107365415Y-118419397D01*
X107351536Y-118391272D01*
X107266541Y-118175784D01*
X107163348Y-117865423D01*
X107061227Y-117517334D01*
X106981148Y-117235475D01*
X106877795Y-116929235D01*
X106782213Y-116744016D01*
X106678904Y-116652741D01*
X106552371Y-116628334D01*
X106474856Y-116649763D01*
X106316944Y-116779492D01*
X106184951Y-116971821D01*
X106129667Y-117162562D01*
X106129274Y-117170989D01*
X106071228Y-117331764D01*
X105933507Y-117578959D01*
X105743157Y-117872815D01*
X105527223Y-118173576D01*
X105312752Y-118441485D01*
X105126790Y-118636782D01*
X105062990Y-118690908D01*
X104792147Y-118858837D01*
X104457826Y-118966715D01*
X104026007Y-119022680D01*
X103462667Y-119034872D01*
X103206314Y-119022500D01*
X102662787Y-118911312D01*
X102219295Y-118677895D01*
X101865925Y-118313258D01*
X101592764Y-117808406D01*
X101389900Y-117154347D01*
X101343168Y-116982524D01*
X101250505Y-116733169D01*
X101161418Y-116582847D01*
X101096967Y-116530620D01*
X100893789Y-116461744D01*
X100701101Y-116495394D01*
X100584554Y-116626590D01*
X100584055Y-116628137D01*
X100474903Y-116787944D01*
X100289023Y-116937334D01*
X100094988Y-117088792D01*
X99964030Y-117256577D01*
X99949204Y-117287528D01*
X99894155Y-117364519D01*
X99837962Y-117319991D01*
X99749154Y-117136334D01*
X99691167Y-117014054D01*
X99616079Y-116890878D01*
X99508874Y-116762710D01*
X99344939Y-116603843D01*
X99099660Y-116388570D01*
X98748423Y-116091186D01*
X98628660Y-115993334D01*
X99779667Y-115993334D01*
X99822000Y-116035667D01*
X99864334Y-115993334D01*
X99855086Y-115984086D01*
X100808970Y-115984086D01*
X100810620Y-115993334D01*
X100829181Y-116097403D01*
X100858083Y-116096092D01*
X100873650Y-115986278D01*
X100860092Y-115903055D01*
X100822497Y-115935125D01*
X100808970Y-115984086D01*
X99855086Y-115984086D01*
X99822000Y-115951000D01*
X99779667Y-115993334D01*
X98628660Y-115993334D01*
X98584576Y-115957315D01*
X98343453Y-115789749D01*
X98141989Y-115706294D01*
X97930083Y-115681893D01*
X97592655Y-115677236D01*
X97572025Y-115420158D01*
X101081163Y-115420158D01*
X101171221Y-115439319D01*
X101396815Y-115416120D01*
X101874928Y-115340478D01*
X102305065Y-115244067D01*
X102595193Y-115136843D01*
X102761283Y-115014098D01*
X102896481Y-114905189D01*
X103184616Y-114839445D01*
X103193026Y-114839491D01*
X103490749Y-114856635D01*
X103894864Y-114899276D01*
X104347935Y-114959773D01*
X104792526Y-115030482D01*
X105171201Y-115103763D01*
X105262694Y-115124671D01*
X105477721Y-115189834D01*
X105570769Y-115263390D01*
X105577375Y-115368503D01*
X105574389Y-115384926D01*
X105587542Y-115494157D01*
X105710341Y-115484062D01*
X105809967Y-115469947D01*
X105875667Y-115521961D01*
X105946882Y-115567893D01*
X106170872Y-115596700D01*
X106531834Y-115602512D01*
X106589665Y-115601565D01*
X107011949Y-115586820D01*
X107288104Y-115558253D01*
X107438706Y-115512485D01*
X107484334Y-115446137D01*
X107504076Y-115418397D01*
X107640988Y-115344111D01*
X107865334Y-115264528D01*
X107986217Y-115225401D01*
X108172815Y-115146521D01*
X108246334Y-115085849D01*
X108246443Y-115083924D01*
X108325095Y-115038476D01*
X108505900Y-115019667D01*
X108515062Y-115019622D01*
X108906405Y-114936815D01*
X109239420Y-114716009D01*
X109315590Y-114612375D01*
X109342000Y-114483458D01*
X109270260Y-114427000D01*
X109233053Y-114392675D01*
X109237802Y-114257667D01*
X109246739Y-114152296D01*
X109169790Y-114100219D01*
X108964042Y-114088334D01*
X108796127Y-114076685D01*
X108611210Y-114003757D01*
X108455134Y-113835118D01*
X108287627Y-113538000D01*
X108272221Y-113508772D01*
X108143630Y-113299124D01*
X107953330Y-113018788D01*
X107736544Y-112720040D01*
X107593433Y-112535831D01*
X107344638Y-112263991D01*
X107081955Y-112060847D01*
X106743171Y-111873374D01*
X106718128Y-111860899D01*
X106421258Y-111706263D01*
X106175050Y-111566736D01*
X106030614Y-111471166D01*
X105909089Y-111390462D01*
X105607409Y-111262679D01*
X105163254Y-111133769D01*
X104563334Y-110999459D01*
X103986989Y-110870283D01*
X103530493Y-110736845D01*
X103207692Y-110599242D01*
X103054855Y-110490000D01*
X103251000Y-110490000D01*
X103293334Y-110532334D01*
X103335667Y-110490000D01*
X103293334Y-110447667D01*
X103251000Y-110490000D01*
X103054855Y-110490000D01*
X103000442Y-110451108D01*
X102853225Y-110348615D01*
X102711152Y-110328359D01*
X102650453Y-110339406D01*
X102534901Y-110284106D01*
X102526205Y-110235891D01*
X102616000Y-110193667D01*
X102680562Y-110180729D01*
X102700667Y-110109000D01*
X102650917Y-110071664D01*
X105029000Y-110071664D01*
X105029825Y-110083500D01*
X105078835Y-110102145D01*
X105164085Y-110011252D01*
X105184686Y-109963936D01*
X105126749Y-109973915D01*
X105089137Y-110000051D01*
X105029000Y-110071664D01*
X102650917Y-110071664D01*
X102633683Y-110058730D01*
X102462837Y-110023037D01*
X102427023Y-110022385D01*
X102338268Y-110002719D01*
X102401882Y-109942974D01*
X102460806Y-109898337D01*
X102484939Y-109826889D01*
X102389096Y-109805681D01*
X102205677Y-109850054D01*
X102136190Y-109872756D01*
X101875358Y-109931886D01*
X101580101Y-109974322D01*
X101448290Y-109987373D01*
X101236559Y-110008566D01*
X101134334Y-110019144D01*
X101129245Y-110034223D01*
X101119486Y-110179766D01*
X101113335Y-110460045D01*
X101110999Y-110850673D01*
X101112687Y-111327262D01*
X101118606Y-111865423D01*
X101123880Y-112201096D01*
X101135529Y-112744133D01*
X101150212Y-113148199D01*
X101169538Y-113433423D01*
X101195116Y-113619935D01*
X101228556Y-113727866D01*
X101271468Y-113777346D01*
X101333608Y-113830512D01*
X101320591Y-113947001D01*
X101247289Y-114076830D01*
X101197414Y-114234833D01*
X101190123Y-114353188D01*
X101236853Y-114373634D01*
X101274590Y-114382940D01*
X101292915Y-114503681D01*
X101277795Y-114707376D01*
X101235864Y-114947368D01*
X101173755Y-115176998D01*
X101098101Y-115349608D01*
X101096646Y-115351958D01*
X101081163Y-115420158D01*
X97572025Y-115420158D01*
X97527204Y-114861618D01*
X97523067Y-114809700D01*
X97469797Y-114007064D01*
X97453351Y-113343630D01*
X97479761Y-112793539D01*
X97555059Y-112330933D01*
X97685278Y-111929954D01*
X97876450Y-111564745D01*
X98134606Y-111209447D01*
X98465779Y-110838202D01*
X98674098Y-110611851D01*
X98895617Y-110350003D01*
X99046557Y-110145398D01*
X99102334Y-110029278D01*
X99124308Y-109919809D01*
X99210557Y-109743660D01*
X104993472Y-109743660D01*
X105113667Y-109756965D01*
X105230137Y-109745163D01*
X105219500Y-109714260D01*
X105181176Y-109703078D01*
X105007834Y-109714260D01*
X104993472Y-109743660D01*
X99210557Y-109743660D01*
X99248968Y-109665212D01*
X99313494Y-109570022D01*
X106059977Y-109570022D01*
X106129667Y-109601000D01*
X106174489Y-109594890D01*
X106186112Y-109544556D01*
X106173702Y-109534423D01*
X106073223Y-109544556D01*
X106059977Y-109570022D01*
X99313494Y-109570022D01*
X99407280Y-109431667D01*
X105283000Y-109431667D01*
X105288289Y-109446911D01*
X105396542Y-109493408D01*
X105600500Y-109507894D01*
X105628153Y-109507130D01*
X105802875Y-109497278D01*
X105824143Y-109475576D01*
X105706334Y-109431667D01*
X105506084Y-109375720D01*
X105335668Y-109363889D01*
X105283000Y-109431667D01*
X99407280Y-109431667D01*
X99464822Y-109346780D01*
X99590722Y-109191669D01*
X105877383Y-109191669D01*
X105881220Y-109229213D01*
X106045000Y-109304667D01*
X106177056Y-109351791D01*
X106371678Y-109404536D01*
X106481486Y-109413574D01*
X106480149Y-109379174D01*
X106341334Y-109301609D01*
X106114507Y-109220859D01*
X105918000Y-109187927D01*
X105877383Y-109191669D01*
X99590722Y-109191669D01*
X99750121Y-108995288D01*
X100083114Y-108641510D01*
X100093000Y-108631791D01*
X100120207Y-108609012D01*
X105030612Y-108609012D01*
X105079410Y-108637580D01*
X105283000Y-108708922D01*
X105339909Y-108727982D01*
X105567628Y-108801562D01*
X105697329Y-108827760D01*
X105782259Y-108810658D01*
X105875667Y-108754334D01*
X105916085Y-108723652D01*
X105903172Y-108683111D01*
X105738084Y-108670963D01*
X105479774Y-108658102D01*
X105187750Y-108625540D01*
X105129348Y-108616864D01*
X105030612Y-108609012D01*
X100120207Y-108609012D01*
X100615694Y-108194172D01*
X103982674Y-108194172D01*
X103995405Y-108220676D01*
X104140000Y-108229828D01*
X104166293Y-108229269D01*
X104278750Y-108214611D01*
X104244222Y-108187660D01*
X104158302Y-108174049D01*
X103990222Y-108190798D01*
X103982674Y-108194172D01*
X100615694Y-108194172D01*
X100684673Y-108136420D01*
X104863801Y-108136420D01*
X104948567Y-108152600D01*
X105104122Y-108176643D01*
X105186563Y-108214611D01*
X105244900Y-108241478D01*
X105267926Y-108259192D01*
X105430427Y-108333553D01*
X105664000Y-108405061D01*
X105721209Y-108419242D01*
X105980286Y-108484089D01*
X106172000Y-108532981D01*
X106290067Y-108545948D01*
X106510667Y-108508926D01*
X106598604Y-108471155D01*
X106621209Y-108429934D01*
X106488271Y-108379765D01*
X106376727Y-108318512D01*
X106353186Y-108227156D01*
X106370581Y-108183652D01*
X106305576Y-108199936D01*
X106257480Y-108212683D01*
X106072351Y-108194397D01*
X105830312Y-108122680D01*
X105691118Y-108074103D01*
X105403387Y-108024126D01*
X105095985Y-108062261D01*
X104941614Y-108100497D01*
X104863801Y-108136420D01*
X100684673Y-108136420D01*
X100738083Y-108091703D01*
X101377465Y-107696000D01*
X103928334Y-107696000D01*
X103970667Y-107738334D01*
X104013000Y-107696000D01*
X103970667Y-107653667D01*
X103928334Y-107696000D01*
X101377465Y-107696000D01*
X101464415Y-107642188D01*
X102212111Y-107320407D01*
X102331107Y-107283299D01*
X102756214Y-107179268D01*
X103215694Y-107100539D01*
X103660387Y-107052891D01*
X104041133Y-107042103D01*
X104308775Y-107073952D01*
X104535241Y-107121094D01*
X104803631Y-107145667D01*
X105084184Y-107178260D01*
X105516289Y-107288223D01*
X106045967Y-107467330D01*
X106620414Y-107696000D01*
X106647517Y-107706789D01*
X107295238Y-107997812D01*
X107439430Y-108066535D01*
X107852361Y-108271893D01*
X108130820Y-108429934D01*
X108165184Y-108449438D01*
X108421314Y-108628554D01*
G36*
X99604616Y-127239889D02*
G01*
X99652667Y-127261566D01*
X99657769Y-127262876D01*
X99820724Y-127353761D01*
X99859667Y-127478128D01*
X99758500Y-127586550D01*
X99734954Y-127611251D01*
X99837839Y-127602925D01*
X99844798Y-127601743D01*
X99934196Y-127609769D01*
X100028787Y-127677904D01*
X100061361Y-127719667D01*
X100146504Y-127828832D01*
X100165777Y-127859956D01*
X100209976Y-127931334D01*
X100262403Y-128016000D01*
X100305278Y-128085242D01*
X100314013Y-128100667D01*
X100457837Y-128354667D01*
X100523040Y-128469820D01*
X100564996Y-128545748D01*
X100720671Y-128827475D01*
X100732209Y-128848556D01*
X100802082Y-128976230D01*
X100869760Y-129099896D01*
X100892900Y-129142180D01*
X100962886Y-129271889D01*
X101019540Y-129376890D01*
X101064982Y-129464574D01*
X101082132Y-129497667D01*
X101143589Y-129614261D01*
X101149341Y-129624667D01*
X101208109Y-129730996D01*
X101242931Y-129794000D01*
X101271438Y-129845579D01*
X101287480Y-129874122D01*
X101350033Y-129985425D01*
X101389167Y-130055056D01*
X101446275Y-130156671D01*
X101577009Y-130386667D01*
X101649198Y-130513667D01*
X101721315Y-130640667D01*
X101753101Y-130696644D01*
X101863063Y-130894667D01*
X101916036Y-130990063D01*
X102076185Y-131289112D01*
X102102466Y-131340091D01*
X102131088Y-131395611D01*
X102245954Y-131618427D01*
X102370704Y-131868334D01*
X102434100Y-131995334D01*
X102437747Y-132002640D01*
X102663969Y-132466384D01*
X102844568Y-132842000D01*
X102912516Y-132983320D01*
X102937023Y-133034293D01*
X103040487Y-133251222D01*
X103228934Y-133646334D01*
X103269314Y-133731000D01*
X103389941Y-133966693D01*
X103421948Y-134029232D01*
X103508945Y-134178603D01*
X103584192Y-134307800D01*
X103692806Y-134462371D01*
X103714328Y-134493000D01*
X103832454Y-134638420D01*
X103861191Y-134673798D01*
X103910853Y-134747000D01*
X104029442Y-134921804D01*
X104039996Y-134944556D01*
X104103133Y-135080670D01*
X104116910Y-135110373D01*
X104116516Y-135113889D01*
X104106043Y-135207491D01*
X104098674Y-135222512D01*
X104111598Y-135316097D01*
X104167950Y-135501527D01*
X104183371Y-135544278D01*
X104271774Y-135789363D01*
X104297712Y-135856286D01*
X104392815Y-136101667D01*
X104427115Y-136190167D01*
X104442601Y-136228667D01*
X104638017Y-136714499D01*
X104873223Y-137287000D01*
X104908523Y-137372923D01*
X104932962Y-137431655D01*
X105071789Y-137765299D01*
X105172220Y-138006667D01*
X105242678Y-138176000D01*
X105330793Y-138401187D01*
X105405956Y-138619451D01*
X105425419Y-138684000D01*
X105463079Y-138808903D01*
X102346206Y-138831118D01*
X101845505Y-138834203D01*
X100910877Y-138838086D01*
X99883496Y-138840439D01*
X98811056Y-138841240D01*
X97741253Y-138840468D01*
X96721781Y-138838101D01*
X95800334Y-138834116D01*
X95712684Y-138833626D01*
X94909941Y-138829270D01*
X94115521Y-138825176D01*
X93356258Y-138821466D01*
X92658987Y-138818265D01*
X92050543Y-138815696D01*
X91557760Y-138813883D01*
X91207472Y-138812949D01*
X90043611Y-138811000D01*
X90043950Y-138684000D01*
X91736334Y-138684000D01*
X91778667Y-138726334D01*
X91821000Y-138684000D01*
X91778667Y-138641667D01*
X91736334Y-138684000D01*
X90043950Y-138684000D01*
X90045838Y-137976259D01*
X90999486Y-137976259D01*
X91004457Y-138045780D01*
X91010676Y-138042692D01*
X91045955Y-138006667D01*
X91228334Y-138006667D01*
X91270667Y-138049000D01*
X91313000Y-138006667D01*
X91270667Y-137964334D01*
X91228334Y-138006667D01*
X91045955Y-138006667D01*
X91087316Y-137964431D01*
X91182009Y-137844228D01*
X91228334Y-137765299D01*
X91220159Y-137748001D01*
X91122500Y-137687859D01*
X91050065Y-137703063D01*
X91004457Y-137848134D01*
X90999486Y-137976259D01*
X90045838Y-137976259D01*
X90047351Y-137409003D01*
X91059000Y-137409003D01*
X91060657Y-137451751D01*
X91100651Y-137537258D01*
X91182385Y-137462184D01*
X91193890Y-137431655D01*
X91145048Y-137330187D01*
X91100657Y-137321801D01*
X91059000Y-137409003D01*
X90047351Y-137409003D01*
X90047794Y-137242965D01*
X90823090Y-137242965D01*
X90833223Y-137343445D01*
X90858689Y-137356690D01*
X90889667Y-137287000D01*
X90883557Y-137242178D01*
X90833223Y-137230556D01*
X90823090Y-137242965D01*
X90047794Y-137242965D01*
X90050500Y-136228667D01*
X90381667Y-136228667D01*
X90424000Y-136271000D01*
X90466334Y-136228667D01*
X90424000Y-136186334D01*
X90381667Y-136228667D01*
X90050500Y-136228667D01*
X90051121Y-135995834D01*
X90051763Y-135834629D01*
X90140892Y-135834629D01*
X90143851Y-135989207D01*
X90156871Y-136050198D01*
X90186036Y-136095494D01*
X90203636Y-136057632D01*
X92431756Y-136057632D01*
X92441889Y-136158111D01*
X92467356Y-136171357D01*
X92498334Y-136101667D01*
X92492224Y-136056845D01*
X92441889Y-136045222D01*
X92431756Y-136057632D01*
X90203636Y-136057632D01*
X90237995Y-135983715D01*
X90266950Y-135856286D01*
X90240383Y-135762173D01*
X90162516Y-135784596D01*
X90140892Y-135834629D01*
X90051763Y-135834629D01*
X90052927Y-135542086D01*
X90140970Y-135542086D01*
X90161181Y-135655403D01*
X90190083Y-135654092D01*
X90205650Y-135544278D01*
X90192092Y-135461055D01*
X90154497Y-135493125D01*
X90140970Y-135542086D01*
X90052927Y-135542086D01*
X90053070Y-135506134D01*
X90055766Y-135132997D01*
X91905667Y-135132997D01*
X91907868Y-135141447D01*
X91990334Y-135170334D01*
X92013540Y-135166888D01*
X92033167Y-135139355D01*
X92513310Y-135139355D01*
X92583000Y-135170334D01*
X92627823Y-135164223D01*
X92639445Y-135113889D01*
X92627036Y-135103756D01*
X92526556Y-135113889D01*
X92513310Y-135139355D01*
X92033167Y-135139355D01*
X92075000Y-135080670D01*
X92068353Y-135050046D01*
X91990334Y-135043334D01*
X91964996Y-135060711D01*
X91905667Y-135132997D01*
X90055766Y-135132997D01*
X90056944Y-134970022D01*
X91581977Y-134970022D01*
X91651667Y-135001000D01*
X91696489Y-134994890D01*
X91708112Y-134944556D01*
X91695702Y-134934423D01*
X91595223Y-134944556D01*
X91581977Y-134970022D01*
X90056944Y-134970022D01*
X90057565Y-134884133D01*
X90059822Y-134688189D01*
X91345788Y-134688189D01*
X91371671Y-134735313D01*
X91371718Y-134735284D01*
X91755786Y-134735284D01*
X91775690Y-134824066D01*
X91878452Y-134783068D01*
X91905342Y-134756875D01*
X92159667Y-134756875D01*
X92161122Y-134772688D01*
X92231885Y-134829847D01*
X92351653Y-134806330D01*
X92440608Y-134714250D01*
X92440689Y-134702965D01*
X92770423Y-134702965D01*
X92780556Y-134803445D01*
X92806022Y-134816690D01*
X92837000Y-134747000D01*
X92830890Y-134702178D01*
X92780556Y-134690556D01*
X92770423Y-134702965D01*
X92440689Y-134702965D01*
X92441149Y-134638420D01*
X92322666Y-134639458D01*
X92229915Y-134677092D01*
X92159667Y-134756875D01*
X91905342Y-134756875D01*
X92047427Y-134618470D01*
X92069834Y-134592012D01*
X92151454Y-134462371D01*
X92132094Y-134411026D01*
X92025846Y-134441017D01*
X91854385Y-134567832D01*
X91757500Y-134726140D01*
X91755786Y-134735284D01*
X91371718Y-134735284D01*
X91494848Y-134658940D01*
X91706637Y-134463540D01*
X91765073Y-134406103D01*
X91895190Y-134286330D01*
X92329000Y-134286330D01*
X92329825Y-134298166D01*
X92378835Y-134316812D01*
X92464085Y-134225918D01*
X92484686Y-134178603D01*
X92426749Y-134188582D01*
X92389137Y-134214718D01*
X92329000Y-134286330D01*
X91895190Y-134286330D01*
X91977124Y-134210910D01*
X92149502Y-134069667D01*
X92175215Y-134051087D01*
X92269420Y-133966693D01*
X92245982Y-133894315D01*
X92094532Y-133779148D01*
X91863334Y-133615628D01*
X92013963Y-133788535D01*
X92015071Y-133789808D01*
X92092647Y-133892865D01*
X92093312Y-133977161D01*
X91997258Y-134082425D01*
X91784675Y-134248388D01*
X91743212Y-134281334D01*
X91629746Y-134371495D01*
X91449428Y-134534265D01*
X91361536Y-134641167D01*
X91345788Y-134688189D01*
X90059822Y-134688189D01*
X90063856Y-134338045D01*
X90064829Y-134281334D01*
X91313000Y-134281334D01*
X91355334Y-134323667D01*
X91397667Y-134281334D01*
X91355334Y-134239000D01*
X91313000Y-134281334D01*
X90064829Y-134281334D01*
X90069188Y-134027334D01*
X91059000Y-134027334D01*
X91101334Y-134069667D01*
X91143667Y-134027334D01*
X91101334Y-133985000D01*
X91059000Y-134027334D01*
X90069188Y-134027334D01*
X90071604Y-133886553D01*
X90080470Y-133548343D01*
X90090117Y-133342097D01*
X90100205Y-133286500D01*
X90124071Y-133325986D01*
X90256861Y-133392334D01*
X90322264Y-133423216D01*
X90337882Y-133569204D01*
X90330224Y-133612524D01*
X90338464Y-133696008D01*
X90428528Y-133642576D01*
X90490974Y-133567650D01*
X90530952Y-133405275D01*
X90536768Y-133335900D01*
X90637305Y-133244789D01*
X90735900Y-133245722D01*
X90899318Y-133317247D01*
X91012944Y-133436126D01*
X91020046Y-133556200D01*
X90966682Y-133611242D01*
X90863178Y-133569044D01*
X90808895Y-133522860D01*
X90687883Y-133480767D01*
X90635667Y-133551792D01*
X90678673Y-133612985D01*
X90826167Y-133688569D01*
X90956168Y-133731145D01*
X91080167Y-133772527D01*
X91182274Y-133791428D01*
X91376500Y-133811034D01*
X91482116Y-133820711D01*
X91538163Y-133844750D01*
X91446191Y-133891479D01*
X91381775Y-133917720D01*
X91331479Y-133962717D01*
X91435756Y-134013989D01*
X91508000Y-134027334D01*
X91533238Y-134031996D01*
X91691355Y-133987195D01*
X91748536Y-133954239D01*
X91863531Y-133964568D01*
X91897011Y-133977346D01*
X91862395Y-133899184D01*
X91777714Y-133767244D01*
X91668271Y-133625466D01*
X91609715Y-133578825D01*
X98019078Y-133578825D01*
X98030261Y-133752167D01*
X98059660Y-133766529D01*
X98072965Y-133646334D01*
X98061163Y-133529864D01*
X98030261Y-133540500D01*
X98027168Y-133551097D01*
X98019078Y-133578825D01*
X91609715Y-133578825D01*
X91551775Y-133532675D01*
X91430858Y-133569255D01*
X91364109Y-133606766D01*
X91225824Y-133602449D01*
X91195395Y-133537789D01*
X91303959Y-133423004D01*
X91353120Y-133388570D01*
X91658951Y-133388570D01*
X91725828Y-133499578D01*
X91736979Y-133510517D01*
X91799001Y-133551097D01*
X91773224Y-133452182D01*
X91731000Y-133373168D01*
X91668019Y-133347760D01*
X91658951Y-133388570D01*
X91353120Y-133388570D01*
X91476687Y-133302020D01*
X91451356Y-133276689D01*
X100471977Y-133276689D01*
X100541667Y-133307667D01*
X100586489Y-133301557D01*
X100598112Y-133251222D01*
X100585702Y-133241089D01*
X100485223Y-133251222D01*
X100471977Y-133276689D01*
X91451356Y-133276689D01*
X91302840Y-133128173D01*
X91135666Y-133012205D01*
X90903497Y-133006568D01*
X90891335Y-133009343D01*
X90764110Y-133025380D01*
X90790663Y-132983521D01*
X90815603Y-132963793D01*
X90807370Y-132905923D01*
X90642496Y-132856066D01*
X90632152Y-132853944D01*
X90454893Y-132797507D01*
X90381667Y-132735372D01*
X90383319Y-132729619D01*
X91404988Y-132729619D01*
X91413837Y-132796155D01*
X91532504Y-132909453D01*
X91541614Y-132916174D01*
X91679445Y-132994959D01*
X91736334Y-132983320D01*
X91736331Y-132982684D01*
X91672185Y-132860087D01*
X91648889Y-132842000D01*
X92667667Y-132842000D01*
X92710000Y-132884334D01*
X92752334Y-132842000D01*
X92710000Y-132799667D01*
X92667667Y-132842000D01*
X91648889Y-132842000D01*
X91535749Y-132754157D01*
X91408350Y-132728162D01*
X91404988Y-132729619D01*
X90383319Y-132729619D01*
X90388948Y-132710012D01*
X90494264Y-132606692D01*
X90525309Y-132588000D01*
X91059000Y-132588000D01*
X91101334Y-132630334D01*
X91143667Y-132588000D01*
X91101334Y-132545667D01*
X91059000Y-132588000D01*
X90525309Y-132588000D01*
X90672229Y-132499539D01*
X90854944Y-132424813D01*
X90974508Y-132418774D01*
X91009663Y-132430976D01*
X91059000Y-132366572D01*
X91061454Y-132352923D01*
X91132093Y-132356269D01*
X91270333Y-132460687D01*
X91294726Y-132482886D01*
X91444635Y-132588000D01*
X91446401Y-132589239D01*
X91538778Y-132602111D01*
X91543986Y-132594252D01*
X91515167Y-132489349D01*
X91397354Y-132333666D01*
X91368299Y-132301496D01*
X91282109Y-132173999D01*
X91299071Y-132122334D01*
X91399854Y-132163627D01*
X91544312Y-132291667D01*
X91672913Y-132400489D01*
X91839817Y-132461000D01*
X91926382Y-132445552D01*
X91988248Y-132358556D01*
X91904286Y-132248480D01*
X91877567Y-132225223D01*
X91866950Y-132116483D01*
X91876336Y-132103359D01*
X92014057Y-132040808D01*
X92185838Y-132064528D01*
X92298196Y-132164181D01*
X92323355Y-132212595D01*
X92405059Y-132249265D01*
X92469100Y-132173563D01*
X92469949Y-132022932D01*
X92468435Y-131995334D01*
X93006334Y-131995334D01*
X93048667Y-132037667D01*
X93091000Y-131995334D01*
X93048667Y-131953000D01*
X93006334Y-131995334D01*
X92468435Y-131995334D01*
X92464389Y-131921601D01*
X92504568Y-131868334D01*
X92752334Y-131868334D01*
X92755779Y-131891540D01*
X92841997Y-131953000D01*
X92872621Y-131946352D01*
X92879334Y-131868334D01*
X92861956Y-131842996D01*
X92789670Y-131783667D01*
X92781221Y-131785868D01*
X92752334Y-131868334D01*
X92504568Y-131868334D01*
X92547239Y-131811763D01*
X92636377Y-131741377D01*
X92658627Y-131606962D01*
X92561834Y-131504972D01*
X92502233Y-131452779D01*
X92572417Y-131349750D01*
X92669798Y-131279951D01*
X92727639Y-131339167D01*
X92753151Y-131381405D01*
X92886389Y-131445000D01*
X92938670Y-131434407D01*
X93007630Y-131339167D01*
X93024783Y-131290114D01*
X93100284Y-131360334D01*
X93117274Y-131383653D01*
X93166149Y-131432708D01*
X93156440Y-131393419D01*
X98014970Y-131393419D01*
X98035181Y-131506736D01*
X98064083Y-131505425D01*
X98079650Y-131395611D01*
X98066092Y-131312388D01*
X98028497Y-131344459D01*
X98014970Y-131393419D01*
X93156440Y-131393419D01*
X93141321Y-131332242D01*
X93134692Y-131309181D01*
X99379264Y-131309181D01*
X99380575Y-131338083D01*
X99490389Y-131353649D01*
X99573612Y-131340091D01*
X99541542Y-131302497D01*
X99492581Y-131288969D01*
X99379264Y-131309181D01*
X93134692Y-131309181D01*
X93114875Y-131240246D01*
X93091000Y-131107335D01*
X93050394Y-131074195D01*
X92908296Y-131085298D01*
X92795978Y-131111281D01*
X92779059Y-131085407D01*
X92887129Y-130969115D01*
X92909390Y-130946987D01*
X93024665Y-130865540D01*
X93076973Y-130918243D01*
X93093417Y-130954880D01*
X93200670Y-131005347D01*
X93326659Y-130967712D01*
X93387334Y-130858230D01*
X93396100Y-130808105D01*
X93493167Y-130704167D01*
X93550091Y-130707809D01*
X93599000Y-130812003D01*
X93617576Y-130890059D01*
X93721689Y-130908037D01*
X93793540Y-130897736D01*
X93797297Y-130983645D01*
X93789916Y-131053772D01*
X93886275Y-131106334D01*
X93976030Y-131067661D01*
X94022334Y-130894667D01*
X100541667Y-130894667D01*
X100584000Y-130937000D01*
X100626334Y-130894667D01*
X100584000Y-130852334D01*
X100541667Y-130894667D01*
X94022334Y-130894667D01*
X94000418Y-130755434D01*
X93934094Y-130683000D01*
X93876083Y-130669460D01*
X93830933Y-130640667D01*
X98425000Y-130640667D01*
X98467334Y-130683000D01*
X98509667Y-130640667D01*
X100541667Y-130640667D01*
X100584000Y-130683000D01*
X100626334Y-130640667D01*
X100584000Y-130598334D01*
X100541667Y-130640667D01*
X98509667Y-130640667D01*
X98467334Y-130598334D01*
X98425000Y-130640667D01*
X93830933Y-130640667D01*
X93735137Y-130579576D01*
X93667540Y-130480816D01*
X93721844Y-130386667D01*
X100457000Y-130386667D01*
X100499334Y-130429000D01*
X100541667Y-130386667D01*
X100499334Y-130344334D01*
X100457000Y-130386667D01*
X93721844Y-130386667D01*
X93732663Y-130367909D01*
X93800981Y-130315998D01*
X93973953Y-130259667D01*
X94051392Y-130230360D01*
X94107000Y-130090334D01*
X94080206Y-130021542D01*
X98952403Y-130021542D01*
X99036097Y-130132989D01*
X99137647Y-130147774D01*
X99187000Y-130055056D01*
X99169577Y-129989170D01*
X99125374Y-129963334D01*
X99864334Y-129963334D01*
X99906667Y-130005667D01*
X99949000Y-129963334D01*
X99940180Y-129954514D01*
X100225931Y-129954514D01*
X100226332Y-129963334D01*
X100227242Y-129983416D01*
X100337056Y-129998983D01*
X100420279Y-129985425D01*
X100388209Y-129947830D01*
X100339248Y-129934303D01*
X100225931Y-129954514D01*
X99940180Y-129954514D01*
X99906667Y-129921000D01*
X99864334Y-129963334D01*
X99125374Y-129963334D01*
X99052945Y-129921000D01*
X98989252Y-129935175D01*
X98977237Y-129963334D01*
X98952403Y-130021542D01*
X94080206Y-130021542D01*
X94058263Y-129965205D01*
X94052891Y-129963334D01*
X94530334Y-129963334D01*
X94572667Y-130005667D01*
X94615000Y-129963334D01*
X94572667Y-129921000D01*
X94530334Y-129963334D01*
X94052891Y-129963334D01*
X93893455Y-129907808D01*
X93590795Y-129914377D01*
X93500246Y-129900474D01*
X93347595Y-129797126D01*
X93312334Y-129749443D01*
X94107000Y-129749443D01*
X94144887Y-129802119D01*
X94276334Y-129901351D01*
X94333949Y-129935607D01*
X94425299Y-129956579D01*
X94445667Y-129855194D01*
X94435280Y-129819400D01*
X97663000Y-129819400D01*
X97664909Y-129855194D01*
X97668541Y-129923312D01*
X97690453Y-129963334D01*
X97710811Y-130000521D01*
X97746650Y-129963334D01*
X98255667Y-129963334D01*
X98298000Y-130005667D01*
X98340334Y-129963334D01*
X98298000Y-129921000D01*
X98255667Y-129963334D01*
X97746650Y-129963334D01*
X97794560Y-129913623D01*
X97810139Y-129859881D01*
X97757223Y-129727356D01*
X97755258Y-129725405D01*
X97753272Y-129724604D01*
X98110239Y-129724604D01*
X98199176Y-129791225D01*
X98270440Y-129813913D01*
X98416193Y-129859881D01*
X98467334Y-129876010D01*
X98498879Y-129884648D01*
X98587563Y-129874122D01*
X98556646Y-129794965D01*
X98555453Y-129794000D01*
X100203000Y-129794000D01*
X100245334Y-129836334D01*
X100287667Y-129794000D01*
X100245334Y-129751667D01*
X100203000Y-129794000D01*
X98555453Y-129794000D01*
X98415018Y-129680415D01*
X98278943Y-129619456D01*
X98146861Y-129657273D01*
X98110239Y-129724604D01*
X97753272Y-129724604D01*
X97683743Y-129696567D01*
X97663000Y-129819400D01*
X94435280Y-129819400D01*
X94419126Y-129763734D01*
X94276334Y-129703286D01*
X94178190Y-129711887D01*
X94107000Y-129749443D01*
X93312334Y-129749443D01*
X93305059Y-129739605D01*
X93314463Y-129680477D01*
X93466630Y-129667000D01*
X93610279Y-129645220D01*
X93616066Y-129636022D01*
X95137977Y-129636022D01*
X95207667Y-129667000D01*
X95252489Y-129660890D01*
X95264112Y-129610556D01*
X95251702Y-129600423D01*
X95151223Y-129610556D01*
X95137977Y-129636022D01*
X93616066Y-129636022D01*
X93639856Y-129598209D01*
X98698403Y-129598209D01*
X98704070Y-129610556D01*
X98712389Y-129628686D01*
X98832516Y-129732283D01*
X98883963Y-129730996D01*
X98881666Y-129631742D01*
X98868427Y-129602637D01*
X98809182Y-129540000D01*
X99102334Y-129540000D01*
X99105173Y-129576365D01*
X99175966Y-129664487D01*
X99267465Y-129624667D01*
X99779667Y-129624667D01*
X99822000Y-129667000D01*
X99864334Y-129624667D01*
X99822000Y-129582334D01*
X99779667Y-129624667D01*
X99267465Y-129624667D01*
X99299889Y-129610556D01*
X99324923Y-129581668D01*
X99345943Y-129464574D01*
X99229334Y-129413000D01*
X99170107Y-129427752D01*
X99102334Y-129540000D01*
X98809182Y-129540000D01*
X98783534Y-129512883D01*
X98706272Y-129507640D01*
X98703460Y-129540000D01*
X98698403Y-129598209D01*
X93639856Y-129598209D01*
X93645551Y-129589157D01*
X93642939Y-129568825D01*
X93672203Y-129541288D01*
X94141369Y-129541288D01*
X94229004Y-129582334D01*
X94292085Y-129571971D01*
X94321737Y-129540000D01*
X97578334Y-129540000D01*
X97620667Y-129582334D01*
X97663000Y-129540000D01*
X97620667Y-129497667D01*
X97578334Y-129540000D01*
X94321737Y-129540000D01*
X94361000Y-129497667D01*
X94358720Y-129477579D01*
X94281331Y-129413000D01*
X94257577Y-129416230D01*
X94149334Y-129497667D01*
X94141369Y-129541288D01*
X93672203Y-129541288D01*
X93727319Y-129489424D01*
X93915721Y-129406941D01*
X94067371Y-129346412D01*
X94331739Y-129212689D01*
X98016644Y-129212689D01*
X98086334Y-129243667D01*
X98131156Y-129237557D01*
X98139520Y-129201334D01*
X98425000Y-129201334D01*
X98467334Y-129243667D01*
X98721334Y-129243667D01*
X98738636Y-129266548D01*
X98858327Y-129328334D01*
X98886797Y-129321810D01*
X98890667Y-129243667D01*
X98873365Y-129220786D01*
X98753674Y-129159000D01*
X98725204Y-129165523D01*
X98723430Y-129201334D01*
X98721334Y-129243667D01*
X98467334Y-129243667D01*
X98509667Y-129201334D01*
X98467334Y-129159000D01*
X98425000Y-129201334D01*
X98139520Y-129201334D01*
X98142778Y-129187222D01*
X98130369Y-129177089D01*
X98029889Y-129187222D01*
X98016644Y-129212689D01*
X94331739Y-129212689D01*
X94363019Y-129196867D01*
X94495303Y-129116667D01*
X94869000Y-129116667D01*
X94911334Y-129159000D01*
X94953667Y-129116667D01*
X94911334Y-129074334D01*
X94869000Y-129116667D01*
X94495303Y-129116667D01*
X94656204Y-129019118D01*
X94679988Y-129003778D01*
X97451334Y-129003778D01*
X97461148Y-129047046D01*
X97538680Y-129116667D01*
X97565253Y-129140529D01*
X97628986Y-129141120D01*
X97631627Y-129128022D01*
X99455977Y-129128022D01*
X99525667Y-129159000D01*
X99570489Y-129152890D01*
X99580917Y-129107733D01*
X99726603Y-129107733D01*
X99779667Y-129201334D01*
X99821349Y-129243667D01*
X99874398Y-129297545D01*
X99935811Y-129325086D01*
X99926588Y-129297355D01*
X100217977Y-129297355D01*
X100287667Y-129328334D01*
X100332489Y-129322223D01*
X100344112Y-129271889D01*
X100331702Y-129261756D01*
X100231223Y-129271889D01*
X100217977Y-129297355D01*
X99926588Y-129297355D01*
X99911136Y-129250898D01*
X99900945Y-129213824D01*
X99969640Y-129130582D01*
X99988477Y-129099896D01*
X99875134Y-129081018D01*
X99809386Y-129080355D01*
X99742256Y-129102556D01*
X99726603Y-129107733D01*
X99580917Y-129107733D01*
X99582112Y-129102556D01*
X99569702Y-129092423D01*
X99469223Y-129102556D01*
X99455977Y-129128022D01*
X97631627Y-129128022D01*
X97649920Y-129037279D01*
X97597807Y-128945632D01*
X97850423Y-128945632D01*
X97859666Y-129037279D01*
X97860556Y-129046111D01*
X97886022Y-129059357D01*
X97917000Y-128989667D01*
X97910890Y-128944845D01*
X97860556Y-128933222D01*
X97850423Y-128945632D01*
X97597807Y-128945632D01*
X97586854Y-128926370D01*
X97496853Y-128908504D01*
X97481023Y-128941636D01*
X97451334Y-129003778D01*
X94679988Y-129003778D01*
X94827407Y-128908698D01*
X96179049Y-128908698D01*
X96185292Y-128958408D01*
X96303337Y-128989667D01*
X96419420Y-128981754D01*
X96468694Y-128941636D01*
X96368027Y-128883834D01*
X98087630Y-128883834D01*
X98103481Y-128989667D01*
X98105421Y-129002625D01*
X98171000Y-129074334D01*
X98199354Y-129071714D01*
X98249783Y-128995541D01*
X98171000Y-128820334D01*
X98150800Y-128790535D01*
X98100998Y-128760119D01*
X98099065Y-128778000D01*
X98087630Y-128883834D01*
X96368027Y-128883834D01*
X96353379Y-128875423D01*
X96289191Y-128862573D01*
X96179049Y-128908698D01*
X94827407Y-128908698D01*
X94850507Y-128893799D01*
X95047227Y-128779674D01*
X95051216Y-128778000D01*
X95800334Y-128778000D01*
X95842667Y-128820334D01*
X95885000Y-128778000D01*
X95842667Y-128735667D01*
X95800334Y-128778000D01*
X95051216Y-128778000D01*
X95152083Y-128735667D01*
X95157886Y-128734815D01*
X95268694Y-128674403D01*
X95468197Y-128538333D01*
X95545292Y-128481667D01*
X95927334Y-128481667D01*
X95944636Y-128504548D01*
X96064327Y-128566334D01*
X96092797Y-128559810D01*
X96095943Y-128496283D01*
X97280267Y-128496283D01*
X97312328Y-128660136D01*
X97398146Y-128718975D01*
X97499608Y-128641388D01*
X97572348Y-128570623D01*
X97676408Y-128630541D01*
X97680445Y-128634533D01*
X97802544Y-128719419D01*
X97884701Y-128726705D01*
X97880610Y-128695841D01*
X98533130Y-128695841D01*
X98631683Y-128780693D01*
X98715966Y-128864518D01*
X98695183Y-128905000D01*
X98660827Y-128909728D01*
X98594334Y-128983648D01*
X98596969Y-128993993D01*
X98600458Y-128995541D01*
X98694886Y-129037446D01*
X98890288Y-129047148D01*
X98928354Y-129044660D01*
X99111788Y-129013804D01*
X99186621Y-128966887D01*
X99248800Y-128937623D01*
X99411295Y-128958068D01*
X99453021Y-128967975D01*
X99577547Y-128976230D01*
X99570933Y-128909745D01*
X99509252Y-128874022D01*
X99879310Y-128874022D01*
X99949000Y-128905000D01*
X99993823Y-128898890D01*
X100005445Y-128848556D01*
X99993036Y-128838423D01*
X99892556Y-128848556D01*
X99879310Y-128874022D01*
X99509252Y-128874022D01*
X99464140Y-128847895D01*
X99208290Y-128861029D01*
X99045997Y-128885411D01*
X98953529Y-128867635D01*
X98961329Y-128783965D01*
X98973922Y-128734651D01*
X98942378Y-128693334D01*
X99187000Y-128693334D01*
X99229334Y-128735667D01*
X99256434Y-128708567D01*
X99314000Y-128708567D01*
X99610334Y-128718897D01*
X99772727Y-128705673D01*
X99960565Y-128640539D01*
X100070138Y-128545748D01*
X100056800Y-128448355D01*
X100034206Y-128428454D01*
X99917509Y-128406251D01*
X99908532Y-128425222D01*
X99868472Y-128509889D01*
X99864334Y-128518636D01*
X99791880Y-128614973D01*
X99589167Y-128674419D01*
X99436748Y-128693334D01*
X99314000Y-128708567D01*
X99256434Y-128708567D01*
X99271667Y-128693334D01*
X99229334Y-128651000D01*
X99187000Y-128693334D01*
X98942378Y-128693334D01*
X98924185Y-128669504D01*
X98739843Y-128653693D01*
X98563307Y-128661482D01*
X98533130Y-128695841D01*
X97880610Y-128695841D01*
X97874667Y-128651000D01*
X97872321Y-128601709D01*
X97975504Y-128560383D01*
X98030268Y-128557388D01*
X98071553Y-128537586D01*
X98034214Y-128518980D01*
X98502108Y-128518980D01*
X98547083Y-128538167D01*
X98721334Y-128544982D01*
X98813674Y-128542786D01*
X98867573Y-128535355D01*
X99201977Y-128535355D01*
X99271667Y-128566334D01*
X99316489Y-128560223D01*
X99328112Y-128509889D01*
X99315702Y-128499756D01*
X99215223Y-128509889D01*
X99205409Y-128528756D01*
X99201977Y-128535355D01*
X98867573Y-128535355D01*
X98915438Y-128528756D01*
X98868513Y-128506452D01*
X98733168Y-128492390D01*
X98529847Y-128508161D01*
X98502108Y-128518980D01*
X98034214Y-128518980D01*
X97959334Y-128481667D01*
X97900445Y-128450689D01*
X99455977Y-128450689D01*
X99525667Y-128481667D01*
X99570489Y-128475557D01*
X99582112Y-128425222D01*
X99569702Y-128415089D01*
X99469223Y-128425222D01*
X99455977Y-128450689D01*
X97900445Y-128450689D01*
X97880102Y-128439988D01*
X97906803Y-128411168D01*
X98086334Y-128397000D01*
X98233833Y-128387252D01*
X98295170Y-128363204D01*
X98263678Y-128345847D01*
X98955931Y-128345847D01*
X98956719Y-128363204D01*
X98957242Y-128374749D01*
X99067056Y-128390316D01*
X99150279Y-128376758D01*
X99131435Y-128354667D01*
X100118334Y-128354667D01*
X100160667Y-128397000D01*
X100203000Y-128354667D01*
X100160667Y-128312334D01*
X100118334Y-128354667D01*
X99131435Y-128354667D01*
X99118209Y-128339163D01*
X99069248Y-128325636D01*
X98955931Y-128345847D01*
X98263678Y-128345847D01*
X98213334Y-128318099D01*
X98099367Y-128286283D01*
X97948361Y-128286864D01*
X97942461Y-128288589D01*
X97825520Y-128244844D01*
X97695740Y-128118971D01*
X98213334Y-128118971D01*
X98552000Y-128123930D01*
X98789321Y-128100667D01*
X99102334Y-128100667D01*
X99144667Y-128143000D01*
X99187000Y-128100667D01*
X99144667Y-128058334D01*
X99102334Y-128100667D01*
X98789321Y-128100667D01*
X98803858Y-128099242D01*
X98954566Y-128016000D01*
X99779667Y-128016000D01*
X99822000Y-128058334D01*
X99864334Y-128016000D01*
X99822000Y-127973667D01*
X99779667Y-128016000D01*
X98954566Y-128016000D01*
X99032480Y-127972965D01*
X99059777Y-127942658D01*
X99067660Y-127931334D01*
X99525667Y-127931334D01*
X99568000Y-127973667D01*
X99610334Y-127931334D01*
X99568000Y-127889000D01*
X99525667Y-127931334D01*
X99067660Y-127931334D01*
X99117347Y-127859956D01*
X99060549Y-127839647D01*
X98863146Y-127865005D01*
X98724763Y-127888282D01*
X98549161Y-127931575D01*
X98535063Y-127964856D01*
X98686056Y-127985681D01*
X98742644Y-127992774D01*
X98726722Y-128018816D01*
X98552000Y-128058334D01*
X98213334Y-128118971D01*
X97695740Y-128118971D01*
X97682175Y-128105814D01*
X97640455Y-128055116D01*
X97475279Y-127912854D01*
X97362513Y-127920712D01*
X97333117Y-128016000D01*
X97313528Y-128079500D01*
X97306382Y-128185334D01*
X97304642Y-128211117D01*
X97282655Y-128462586D01*
X97281302Y-128481667D01*
X97280267Y-128496283D01*
X96095943Y-128496283D01*
X96096667Y-128481667D01*
X96079365Y-128458786D01*
X95959674Y-128397000D01*
X95931204Y-128403523D01*
X95927334Y-128481667D01*
X95545292Y-128481667D01*
X95718557Y-128354314D01*
X95936445Y-128185334D01*
X96223667Y-128185334D01*
X96266000Y-128227667D01*
X96308334Y-128185334D01*
X96266000Y-128143000D01*
X96223667Y-128185334D01*
X95936445Y-128185334D01*
X95981936Y-128150054D01*
X96144442Y-128016000D01*
X96477667Y-128016000D01*
X96520000Y-128058334D01*
X96562334Y-128016000D01*
X96520000Y-127973667D01*
X96477667Y-128016000D01*
X96144442Y-128016000D01*
X96220495Y-127953262D01*
X96521761Y-127719667D01*
X98509667Y-127719667D01*
X98543726Y-127769790D01*
X98683997Y-127804334D01*
X98780077Y-127786307D01*
X98806000Y-127719667D01*
X98775819Y-127686600D01*
X98631670Y-127635000D01*
X98577882Y-127643728D01*
X98509667Y-127719667D01*
X96521761Y-127719667D01*
X96589328Y-127667277D01*
X96939003Y-127454040D01*
X97223110Y-127342303D01*
X97264864Y-127330515D01*
X97397714Y-127254000D01*
X98509667Y-127254000D01*
X98552000Y-127296334D01*
X98582979Y-127265355D01*
X98863310Y-127265355D01*
X98933000Y-127296334D01*
X98977823Y-127290223D01*
X98989445Y-127239889D01*
X98977036Y-127229756D01*
X98876556Y-127239889D01*
X98869216Y-127254000D01*
X98863310Y-127265355D01*
X98582979Y-127265355D01*
X98594334Y-127254000D01*
X98552000Y-127211667D01*
X98509667Y-127254000D01*
X97397714Y-127254000D01*
X97437801Y-127230912D01*
X97501048Y-127169334D01*
X98171000Y-127169334D01*
X98213334Y-127211667D01*
X98255667Y-127169334D01*
X98213334Y-127127000D01*
X98171000Y-127169334D01*
X97501048Y-127169334D01*
X97588010Y-127084667D01*
X98425000Y-127084667D01*
X98467334Y-127127000D01*
X98509667Y-127084667D01*
X98467334Y-127042334D01*
X98425000Y-127084667D01*
X97588010Y-127084667D01*
X97639494Y-127034541D01*
X97881189Y-126727486D01*
X98174133Y-126295830D01*
X98529573Y-125725657D01*
X98686413Y-125481011D01*
X98875142Y-125221847D01*
X99034939Y-125038783D01*
X99145621Y-124954371D01*
X99187000Y-124991164D01*
X99161532Y-125070567D01*
X99054602Y-125215303D01*
X98987856Y-125312473D01*
X98988989Y-125454184D01*
X99018865Y-125528590D01*
X99029831Y-125718088D01*
X99030407Y-125801138D01*
X99085818Y-125824874D01*
X99143186Y-125827295D01*
X99210720Y-125938560D01*
X99218398Y-126039603D01*
X99161283Y-126133684D01*
X99132612Y-126168170D01*
X99139187Y-126305115D01*
X99198831Y-126483272D01*
X99286822Y-126637753D01*
X99378438Y-126703667D01*
X99392714Y-126704997D01*
X99519858Y-126788545D01*
X99638257Y-126949973D01*
X99692308Y-127116200D01*
X99692401Y-127121270D01*
X99668340Y-127188682D01*
X99568000Y-127127000D01*
X99485541Y-127073799D01*
X99473797Y-127084667D01*
X99441000Y-127115020D01*
X99479397Y-127169334D01*
X99493996Y-127189986D01*
X99604616Y-127239889D01*
G37*
X99604616Y-127239889D02*
X99652667Y-127261566D01*
X99657769Y-127262876D01*
X99820724Y-127353761D01*
X99859667Y-127478128D01*
X99758500Y-127586550D01*
X99734954Y-127611251D01*
X99837839Y-127602925D01*
X99844798Y-127601743D01*
X99934196Y-127609769D01*
X100028787Y-127677904D01*
X100061361Y-127719667D01*
X100146504Y-127828832D01*
X100165777Y-127859956D01*
X100209976Y-127931334D01*
X100262403Y-128016000D01*
X100305278Y-128085242D01*
X100314013Y-128100667D01*
X100457837Y-128354667D01*
X100523040Y-128469820D01*
X100564996Y-128545748D01*
X100720671Y-128827475D01*
X100732209Y-128848556D01*
X100802082Y-128976230D01*
X100869760Y-129099896D01*
X100892900Y-129142180D01*
X100962886Y-129271889D01*
X101019540Y-129376890D01*
X101064982Y-129464574D01*
X101082132Y-129497667D01*
X101143589Y-129614261D01*
X101149341Y-129624667D01*
X101208109Y-129730996D01*
X101242931Y-129794000D01*
X101271438Y-129845579D01*
X101287480Y-129874122D01*
X101350033Y-129985425D01*
X101389167Y-130055056D01*
X101446275Y-130156671D01*
X101577009Y-130386667D01*
X101649198Y-130513667D01*
X101721315Y-130640667D01*
X101753101Y-130696644D01*
X101863063Y-130894667D01*
X101916036Y-130990063D01*
X102076185Y-131289112D01*
X102102466Y-131340091D01*
X102131088Y-131395611D01*
X102245954Y-131618427D01*
X102370704Y-131868334D01*
X102434100Y-131995334D01*
X102437747Y-132002640D01*
X102663969Y-132466384D01*
X102844568Y-132842000D01*
X102912516Y-132983320D01*
X102937023Y-133034293D01*
X103040487Y-133251222D01*
X103228934Y-133646334D01*
X103269314Y-133731000D01*
X103389941Y-133966693D01*
X103421948Y-134029232D01*
X103508945Y-134178603D01*
X103584192Y-134307800D01*
X103692806Y-134462371D01*
X103714328Y-134493000D01*
X103832454Y-134638420D01*
X103861191Y-134673798D01*
X103910853Y-134747000D01*
X104029442Y-134921804D01*
X104039996Y-134944556D01*
X104103133Y-135080670D01*
X104116910Y-135110373D01*
X104116516Y-135113889D01*
X104106043Y-135207491D01*
X104098674Y-135222512D01*
X104111598Y-135316097D01*
X104167950Y-135501527D01*
X104183371Y-135544278D01*
X104271774Y-135789363D01*
X104297712Y-135856286D01*
X104392815Y-136101667D01*
X104427115Y-136190167D01*
X104442601Y-136228667D01*
X104638017Y-136714499D01*
X104873223Y-137287000D01*
X104908523Y-137372923D01*
X104932962Y-137431655D01*
X105071789Y-137765299D01*
X105172220Y-138006667D01*
X105242678Y-138176000D01*
X105330793Y-138401187D01*
X105405956Y-138619451D01*
X105425419Y-138684000D01*
X105463079Y-138808903D01*
X102346206Y-138831118D01*
X101845505Y-138834203D01*
X100910877Y-138838086D01*
X99883496Y-138840439D01*
X98811056Y-138841240D01*
X97741253Y-138840468D01*
X96721781Y-138838101D01*
X95800334Y-138834116D01*
X95712684Y-138833626D01*
X94909941Y-138829270D01*
X94115521Y-138825176D01*
X93356258Y-138821466D01*
X92658987Y-138818265D01*
X92050543Y-138815696D01*
X91557760Y-138813883D01*
X91207472Y-138812949D01*
X90043611Y-138811000D01*
X90043950Y-138684000D01*
X91736334Y-138684000D01*
X91778667Y-138726334D01*
X91821000Y-138684000D01*
X91778667Y-138641667D01*
X91736334Y-138684000D01*
X90043950Y-138684000D01*
X90045838Y-137976259D01*
X90999486Y-137976259D01*
X91004457Y-138045780D01*
X91010676Y-138042692D01*
X91045955Y-138006667D01*
X91228334Y-138006667D01*
X91270667Y-138049000D01*
X91313000Y-138006667D01*
X91270667Y-137964334D01*
X91228334Y-138006667D01*
X91045955Y-138006667D01*
X91087316Y-137964431D01*
X91182009Y-137844228D01*
X91228334Y-137765299D01*
X91220159Y-137748001D01*
X91122500Y-137687859D01*
X91050065Y-137703063D01*
X91004457Y-137848134D01*
X90999486Y-137976259D01*
X90045838Y-137976259D01*
X90047351Y-137409003D01*
X91059000Y-137409003D01*
X91060657Y-137451751D01*
X91100651Y-137537258D01*
X91182385Y-137462184D01*
X91193890Y-137431655D01*
X91145048Y-137330187D01*
X91100657Y-137321801D01*
X91059000Y-137409003D01*
X90047351Y-137409003D01*
X90047794Y-137242965D01*
X90823090Y-137242965D01*
X90833223Y-137343445D01*
X90858689Y-137356690D01*
X90889667Y-137287000D01*
X90883557Y-137242178D01*
X90833223Y-137230556D01*
X90823090Y-137242965D01*
X90047794Y-137242965D01*
X90050500Y-136228667D01*
X90381667Y-136228667D01*
X90424000Y-136271000D01*
X90466334Y-136228667D01*
X90424000Y-136186334D01*
X90381667Y-136228667D01*
X90050500Y-136228667D01*
X90051121Y-135995834D01*
X90051763Y-135834629D01*
X90140892Y-135834629D01*
X90143851Y-135989207D01*
X90156871Y-136050198D01*
X90186036Y-136095494D01*
X90203636Y-136057632D01*
X92431756Y-136057632D01*
X92441889Y-136158111D01*
X92467356Y-136171357D01*
X92498334Y-136101667D01*
X92492224Y-136056845D01*
X92441889Y-136045222D01*
X92431756Y-136057632D01*
X90203636Y-136057632D01*
X90237995Y-135983715D01*
X90266950Y-135856286D01*
X90240383Y-135762173D01*
X90162516Y-135784596D01*
X90140892Y-135834629D01*
X90051763Y-135834629D01*
X90052927Y-135542086D01*
X90140970Y-135542086D01*
X90161181Y-135655403D01*
X90190083Y-135654092D01*
X90205650Y-135544278D01*
X90192092Y-135461055D01*
X90154497Y-135493125D01*
X90140970Y-135542086D01*
X90052927Y-135542086D01*
X90053070Y-135506134D01*
X90055766Y-135132997D01*
X91905667Y-135132997D01*
X91907868Y-135141447D01*
X91990334Y-135170334D01*
X92013540Y-135166888D01*
X92033167Y-135139355D01*
X92513310Y-135139355D01*
X92583000Y-135170334D01*
X92627823Y-135164223D01*
X92639445Y-135113889D01*
X92627036Y-135103756D01*
X92526556Y-135113889D01*
X92513310Y-135139355D01*
X92033167Y-135139355D01*
X92075000Y-135080670D01*
X92068353Y-135050046D01*
X91990334Y-135043334D01*
X91964996Y-135060711D01*
X91905667Y-135132997D01*
X90055766Y-135132997D01*
X90056944Y-134970022D01*
X91581977Y-134970022D01*
X91651667Y-135001000D01*
X91696489Y-134994890D01*
X91708112Y-134944556D01*
X91695702Y-134934423D01*
X91595223Y-134944556D01*
X91581977Y-134970022D01*
X90056944Y-134970022D01*
X90057565Y-134884133D01*
X90059822Y-134688189D01*
X91345788Y-134688189D01*
X91371671Y-134735313D01*
X91371718Y-134735284D01*
X91755786Y-134735284D01*
X91775690Y-134824066D01*
X91878452Y-134783068D01*
X91905342Y-134756875D01*
X92159667Y-134756875D01*
X92161122Y-134772688D01*
X92231885Y-134829847D01*
X92351653Y-134806330D01*
X92440608Y-134714250D01*
X92440689Y-134702965D01*
X92770423Y-134702965D01*
X92780556Y-134803445D01*
X92806022Y-134816690D01*
X92837000Y-134747000D01*
X92830890Y-134702178D01*
X92780556Y-134690556D01*
X92770423Y-134702965D01*
X92440689Y-134702965D01*
X92441149Y-134638420D01*
X92322666Y-134639458D01*
X92229915Y-134677092D01*
X92159667Y-134756875D01*
X91905342Y-134756875D01*
X92047427Y-134618470D01*
X92069834Y-134592012D01*
X92151454Y-134462371D01*
X92132094Y-134411026D01*
X92025846Y-134441017D01*
X91854385Y-134567832D01*
X91757500Y-134726140D01*
X91755786Y-134735284D01*
X91371718Y-134735284D01*
X91494848Y-134658940D01*
X91706637Y-134463540D01*
X91765073Y-134406103D01*
X91895190Y-134286330D01*
X92329000Y-134286330D01*
X92329825Y-134298166D01*
X92378835Y-134316812D01*
X92464085Y-134225918D01*
X92484686Y-134178603D01*
X92426749Y-134188582D01*
X92389137Y-134214718D01*
X92329000Y-134286330D01*
X91895190Y-134286330D01*
X91977124Y-134210910D01*
X92149502Y-134069667D01*
X92175215Y-134051087D01*
X92269420Y-133966693D01*
X92245982Y-133894315D01*
X92094532Y-133779148D01*
X91863334Y-133615628D01*
X92013963Y-133788535D01*
X92015071Y-133789808D01*
X92092647Y-133892865D01*
X92093312Y-133977161D01*
X91997258Y-134082425D01*
X91784675Y-134248388D01*
X91743212Y-134281334D01*
X91629746Y-134371495D01*
X91449428Y-134534265D01*
X91361536Y-134641167D01*
X91345788Y-134688189D01*
X90059822Y-134688189D01*
X90063856Y-134338045D01*
X90064829Y-134281334D01*
X91313000Y-134281334D01*
X91355334Y-134323667D01*
X91397667Y-134281334D01*
X91355334Y-134239000D01*
X91313000Y-134281334D01*
X90064829Y-134281334D01*
X90069188Y-134027334D01*
X91059000Y-134027334D01*
X91101334Y-134069667D01*
X91143667Y-134027334D01*
X91101334Y-133985000D01*
X91059000Y-134027334D01*
X90069188Y-134027334D01*
X90071604Y-133886553D01*
X90080470Y-133548343D01*
X90090117Y-133342097D01*
X90100205Y-133286500D01*
X90124071Y-133325986D01*
X90256861Y-133392334D01*
X90322264Y-133423216D01*
X90337882Y-133569204D01*
X90330224Y-133612524D01*
X90338464Y-133696008D01*
X90428528Y-133642576D01*
X90490974Y-133567650D01*
X90530952Y-133405275D01*
X90536768Y-133335900D01*
X90637305Y-133244789D01*
X90735900Y-133245722D01*
X90899318Y-133317247D01*
X91012944Y-133436126D01*
X91020046Y-133556200D01*
X90966682Y-133611242D01*
X90863178Y-133569044D01*
X90808895Y-133522860D01*
X90687883Y-133480767D01*
X90635667Y-133551792D01*
X90678673Y-133612985D01*
X90826167Y-133688569D01*
X90956168Y-133731145D01*
X91080167Y-133772527D01*
X91182274Y-133791428D01*
X91376500Y-133811034D01*
X91482116Y-133820711D01*
X91538163Y-133844750D01*
X91446191Y-133891479D01*
X91381775Y-133917720D01*
X91331479Y-133962717D01*
X91435756Y-134013989D01*
X91508000Y-134027334D01*
X91533238Y-134031996D01*
X91691355Y-133987195D01*
X91748536Y-133954239D01*
X91863531Y-133964568D01*
X91897011Y-133977346D01*
X91862395Y-133899184D01*
X91777714Y-133767244D01*
X91668271Y-133625466D01*
X91609715Y-133578825D01*
X98019078Y-133578825D01*
X98030261Y-133752167D01*
X98059660Y-133766529D01*
X98072965Y-133646334D01*
X98061163Y-133529864D01*
X98030261Y-133540500D01*
X98027168Y-133551097D01*
X98019078Y-133578825D01*
X91609715Y-133578825D01*
X91551775Y-133532675D01*
X91430858Y-133569255D01*
X91364109Y-133606766D01*
X91225824Y-133602449D01*
X91195395Y-133537789D01*
X91303959Y-133423004D01*
X91353120Y-133388570D01*
X91658951Y-133388570D01*
X91725828Y-133499578D01*
X91736979Y-133510517D01*
X91799001Y-133551097D01*
X91773224Y-133452182D01*
X91731000Y-133373168D01*
X91668019Y-133347760D01*
X91658951Y-133388570D01*
X91353120Y-133388570D01*
X91476687Y-133302020D01*
X91451356Y-133276689D01*
X100471977Y-133276689D01*
X100541667Y-133307667D01*
X100586489Y-133301557D01*
X100598112Y-133251222D01*
X100585702Y-133241089D01*
X100485223Y-133251222D01*
X100471977Y-133276689D01*
X91451356Y-133276689D01*
X91302840Y-133128173D01*
X91135666Y-133012205D01*
X90903497Y-133006568D01*
X90891335Y-133009343D01*
X90764110Y-133025380D01*
X90790663Y-132983521D01*
X90815603Y-132963793D01*
X90807370Y-132905923D01*
X90642496Y-132856066D01*
X90632152Y-132853944D01*
X90454893Y-132797507D01*
X90381667Y-132735372D01*
X90383319Y-132729619D01*
X91404988Y-132729619D01*
X91413837Y-132796155D01*
X91532504Y-132909453D01*
X91541614Y-132916174D01*
X91679445Y-132994959D01*
X91736334Y-132983320D01*
X91736331Y-132982684D01*
X91672185Y-132860087D01*
X91648889Y-132842000D01*
X92667667Y-132842000D01*
X92710000Y-132884334D01*
X92752334Y-132842000D01*
X92710000Y-132799667D01*
X92667667Y-132842000D01*
X91648889Y-132842000D01*
X91535749Y-132754157D01*
X91408350Y-132728162D01*
X91404988Y-132729619D01*
X90383319Y-132729619D01*
X90388948Y-132710012D01*
X90494264Y-132606692D01*
X90525309Y-132588000D01*
X91059000Y-132588000D01*
X91101334Y-132630334D01*
X91143667Y-132588000D01*
X91101334Y-132545667D01*
X91059000Y-132588000D01*
X90525309Y-132588000D01*
X90672229Y-132499539D01*
X90854944Y-132424813D01*
X90974508Y-132418774D01*
X91009663Y-132430976D01*
X91059000Y-132366572D01*
X91061454Y-132352923D01*
X91132093Y-132356269D01*
X91270333Y-132460687D01*
X91294726Y-132482886D01*
X91444635Y-132588000D01*
X91446401Y-132589239D01*
X91538778Y-132602111D01*
X91543986Y-132594252D01*
X91515167Y-132489349D01*
X91397354Y-132333666D01*
X91368299Y-132301496D01*
X91282109Y-132173999D01*
X91299071Y-132122334D01*
X91399854Y-132163627D01*
X91544312Y-132291667D01*
X91672913Y-132400489D01*
X91839817Y-132461000D01*
X91926382Y-132445552D01*
X91988248Y-132358556D01*
X91904286Y-132248480D01*
X91877567Y-132225223D01*
X91866950Y-132116483D01*
X91876336Y-132103359D01*
X92014057Y-132040808D01*
X92185838Y-132064528D01*
X92298196Y-132164181D01*
X92323355Y-132212595D01*
X92405059Y-132249265D01*
X92469100Y-132173563D01*
X92469949Y-132022932D01*
X92468435Y-131995334D01*
X93006334Y-131995334D01*
X93048667Y-132037667D01*
X93091000Y-131995334D01*
X93048667Y-131953000D01*
X93006334Y-131995334D01*
X92468435Y-131995334D01*
X92464389Y-131921601D01*
X92504568Y-131868334D01*
X92752334Y-131868334D01*
X92755779Y-131891540D01*
X92841997Y-131953000D01*
X92872621Y-131946352D01*
X92879334Y-131868334D01*
X92861956Y-131842996D01*
X92789670Y-131783667D01*
X92781221Y-131785868D01*
X92752334Y-131868334D01*
X92504568Y-131868334D01*
X92547239Y-131811763D01*
X92636377Y-131741377D01*
X92658627Y-131606962D01*
X92561834Y-131504972D01*
X92502233Y-131452779D01*
X92572417Y-131349750D01*
X92669798Y-131279951D01*
X92727639Y-131339167D01*
X92753151Y-131381405D01*
X92886389Y-131445000D01*
X92938670Y-131434407D01*
X93007630Y-131339167D01*
X93024783Y-131290114D01*
X93100284Y-131360334D01*
X93117274Y-131383653D01*
X93166149Y-131432708D01*
X93156440Y-131393419D01*
X98014970Y-131393419D01*
X98035181Y-131506736D01*
X98064083Y-131505425D01*
X98079650Y-131395611D01*
X98066092Y-131312388D01*
X98028497Y-131344459D01*
X98014970Y-131393419D01*
X93156440Y-131393419D01*
X93141321Y-131332242D01*
X93134692Y-131309181D01*
X99379264Y-131309181D01*
X99380575Y-131338083D01*
X99490389Y-131353649D01*
X99573612Y-131340091D01*
X99541542Y-131302497D01*
X99492581Y-131288969D01*
X99379264Y-131309181D01*
X93134692Y-131309181D01*
X93114875Y-131240246D01*
X93091000Y-131107335D01*
X93050394Y-131074195D01*
X92908296Y-131085298D01*
X92795978Y-131111281D01*
X92779059Y-131085407D01*
X92887129Y-130969115D01*
X92909390Y-130946987D01*
X93024665Y-130865540D01*
X93076973Y-130918243D01*
X93093417Y-130954880D01*
X93200670Y-131005347D01*
X93326659Y-130967712D01*
X93387334Y-130858230D01*
X93396100Y-130808105D01*
X93493167Y-130704167D01*
X93550091Y-130707809D01*
X93599000Y-130812003D01*
X93617576Y-130890059D01*
X93721689Y-130908037D01*
X93793540Y-130897736D01*
X93797297Y-130983645D01*
X93789916Y-131053772D01*
X93886275Y-131106334D01*
X93976030Y-131067661D01*
X94022334Y-130894667D01*
X100541667Y-130894667D01*
X100584000Y-130937000D01*
X100626334Y-130894667D01*
X100584000Y-130852334D01*
X100541667Y-130894667D01*
X94022334Y-130894667D01*
X94000418Y-130755434D01*
X93934094Y-130683000D01*
X93876083Y-130669460D01*
X93830933Y-130640667D01*
X98425000Y-130640667D01*
X98467334Y-130683000D01*
X98509667Y-130640667D01*
X100541667Y-130640667D01*
X100584000Y-130683000D01*
X100626334Y-130640667D01*
X100584000Y-130598334D01*
X100541667Y-130640667D01*
X98509667Y-130640667D01*
X98467334Y-130598334D01*
X98425000Y-130640667D01*
X93830933Y-130640667D01*
X93735137Y-130579576D01*
X93667540Y-130480816D01*
X93721844Y-130386667D01*
X100457000Y-130386667D01*
X100499334Y-130429000D01*
X100541667Y-130386667D01*
X100499334Y-130344334D01*
X100457000Y-130386667D01*
X93721844Y-130386667D01*
X93732663Y-130367909D01*
X93800981Y-130315998D01*
X93973953Y-130259667D01*
X94051392Y-130230360D01*
X94107000Y-130090334D01*
X94080206Y-130021542D01*
X98952403Y-130021542D01*
X99036097Y-130132989D01*
X99137647Y-130147774D01*
X99187000Y-130055056D01*
X99169577Y-129989170D01*
X99125374Y-129963334D01*
X99864334Y-129963334D01*
X99906667Y-130005667D01*
X99949000Y-129963334D01*
X99940180Y-129954514D01*
X100225931Y-129954514D01*
X100226332Y-129963334D01*
X100227242Y-129983416D01*
X100337056Y-129998983D01*
X100420279Y-129985425D01*
X100388209Y-129947830D01*
X100339248Y-129934303D01*
X100225931Y-129954514D01*
X99940180Y-129954514D01*
X99906667Y-129921000D01*
X99864334Y-129963334D01*
X99125374Y-129963334D01*
X99052945Y-129921000D01*
X98989252Y-129935175D01*
X98977237Y-129963334D01*
X98952403Y-130021542D01*
X94080206Y-130021542D01*
X94058263Y-129965205D01*
X94052891Y-129963334D01*
X94530334Y-129963334D01*
X94572667Y-130005667D01*
X94615000Y-129963334D01*
X94572667Y-129921000D01*
X94530334Y-129963334D01*
X94052891Y-129963334D01*
X93893455Y-129907808D01*
X93590795Y-129914377D01*
X93500246Y-129900474D01*
X93347595Y-129797126D01*
X93312334Y-129749443D01*
X94107000Y-129749443D01*
X94144887Y-129802119D01*
X94276334Y-129901351D01*
X94333949Y-129935607D01*
X94425299Y-129956579D01*
X94445667Y-129855194D01*
X94435280Y-129819400D01*
X97663000Y-129819400D01*
X97664909Y-129855194D01*
X97668541Y-129923312D01*
X97690453Y-129963334D01*
X97710811Y-130000521D01*
X97746650Y-129963334D01*
X98255667Y-129963334D01*
X98298000Y-130005667D01*
X98340334Y-129963334D01*
X98298000Y-129921000D01*
X98255667Y-129963334D01*
X97746650Y-129963334D01*
X97794560Y-129913623D01*
X97810139Y-129859881D01*
X97757223Y-129727356D01*
X97755258Y-129725405D01*
X97753272Y-129724604D01*
X98110239Y-129724604D01*
X98199176Y-129791225D01*
X98270440Y-129813913D01*
X98416193Y-129859881D01*
X98467334Y-129876010D01*
X98498879Y-129884648D01*
X98587563Y-129874122D01*
X98556646Y-129794965D01*
X98555453Y-129794000D01*
X100203000Y-129794000D01*
X100245334Y-129836334D01*
X100287667Y-129794000D01*
X100245334Y-129751667D01*
X100203000Y-129794000D01*
X98555453Y-129794000D01*
X98415018Y-129680415D01*
X98278943Y-129619456D01*
X98146861Y-129657273D01*
X98110239Y-129724604D01*
X97753272Y-129724604D01*
X97683743Y-129696567D01*
X97663000Y-129819400D01*
X94435280Y-129819400D01*
X94419126Y-129763734D01*
X94276334Y-129703286D01*
X94178190Y-129711887D01*
X94107000Y-129749443D01*
X93312334Y-129749443D01*
X93305059Y-129739605D01*
X93314463Y-129680477D01*
X93466630Y-129667000D01*
X93610279Y-129645220D01*
X93616066Y-129636022D01*
X95137977Y-129636022D01*
X95207667Y-129667000D01*
X95252489Y-129660890D01*
X95264112Y-129610556D01*
X95251702Y-129600423D01*
X95151223Y-129610556D01*
X95137977Y-129636022D01*
X93616066Y-129636022D01*
X93639856Y-129598209D01*
X98698403Y-129598209D01*
X98704070Y-129610556D01*
X98712389Y-129628686D01*
X98832516Y-129732283D01*
X98883963Y-129730996D01*
X98881666Y-129631742D01*
X98868427Y-129602637D01*
X98809182Y-129540000D01*
X99102334Y-129540000D01*
X99105173Y-129576365D01*
X99175966Y-129664487D01*
X99267465Y-129624667D01*
X99779667Y-129624667D01*
X99822000Y-129667000D01*
X99864334Y-129624667D01*
X99822000Y-129582334D01*
X99779667Y-129624667D01*
X99267465Y-129624667D01*
X99299889Y-129610556D01*
X99324923Y-129581668D01*
X99345943Y-129464574D01*
X99229334Y-129413000D01*
X99170107Y-129427752D01*
X99102334Y-129540000D01*
X98809182Y-129540000D01*
X98783534Y-129512883D01*
X98706272Y-129507640D01*
X98703460Y-129540000D01*
X98698403Y-129598209D01*
X93639856Y-129598209D01*
X93645551Y-129589157D01*
X93642939Y-129568825D01*
X93672203Y-129541288D01*
X94141369Y-129541288D01*
X94229004Y-129582334D01*
X94292085Y-129571971D01*
X94321737Y-129540000D01*
X97578334Y-129540000D01*
X97620667Y-129582334D01*
X97663000Y-129540000D01*
X97620667Y-129497667D01*
X97578334Y-129540000D01*
X94321737Y-129540000D01*
X94361000Y-129497667D01*
X94358720Y-129477579D01*
X94281331Y-129413000D01*
X94257577Y-129416230D01*
X94149334Y-129497667D01*
X94141369Y-129541288D01*
X93672203Y-129541288D01*
X93727319Y-129489424D01*
X93915721Y-129406941D01*
X94067371Y-129346412D01*
X94331739Y-129212689D01*
X98016644Y-129212689D01*
X98086334Y-129243667D01*
X98131156Y-129237557D01*
X98139520Y-129201334D01*
X98425000Y-129201334D01*
X98467334Y-129243667D01*
X98721334Y-129243667D01*
X98738636Y-129266548D01*
X98858327Y-129328334D01*
X98886797Y-129321810D01*
X98890667Y-129243667D01*
X98873365Y-129220786D01*
X98753674Y-129159000D01*
X98725204Y-129165523D01*
X98723430Y-129201334D01*
X98721334Y-129243667D01*
X98467334Y-129243667D01*
X98509667Y-129201334D01*
X98467334Y-129159000D01*
X98425000Y-129201334D01*
X98139520Y-129201334D01*
X98142778Y-129187222D01*
X98130369Y-129177089D01*
X98029889Y-129187222D01*
X98016644Y-129212689D01*
X94331739Y-129212689D01*
X94363019Y-129196867D01*
X94495303Y-129116667D01*
X94869000Y-129116667D01*
X94911334Y-129159000D01*
X94953667Y-129116667D01*
X94911334Y-129074334D01*
X94869000Y-129116667D01*
X94495303Y-129116667D01*
X94656204Y-129019118D01*
X94679988Y-129003778D01*
X97451334Y-129003778D01*
X97461148Y-129047046D01*
X97538680Y-129116667D01*
X97565253Y-129140529D01*
X97628986Y-129141120D01*
X97631627Y-129128022D01*
X99455977Y-129128022D01*
X99525667Y-129159000D01*
X99570489Y-129152890D01*
X99580917Y-129107733D01*
X99726603Y-129107733D01*
X99779667Y-129201334D01*
X99821349Y-129243667D01*
X99874398Y-129297545D01*
X99935811Y-129325086D01*
X99926588Y-129297355D01*
X100217977Y-129297355D01*
X100287667Y-129328334D01*
X100332489Y-129322223D01*
X100344112Y-129271889D01*
X100331702Y-129261756D01*
X100231223Y-129271889D01*
X100217977Y-129297355D01*
X99926588Y-129297355D01*
X99911136Y-129250898D01*
X99900945Y-129213824D01*
X99969640Y-129130582D01*
X99988477Y-129099896D01*
X99875134Y-129081018D01*
X99809386Y-129080355D01*
X99742256Y-129102556D01*
X99726603Y-129107733D01*
X99580917Y-129107733D01*
X99582112Y-129102556D01*
X99569702Y-129092423D01*
X99469223Y-129102556D01*
X99455977Y-129128022D01*
X97631627Y-129128022D01*
X97649920Y-129037279D01*
X97597807Y-128945632D01*
X97850423Y-128945632D01*
X97859666Y-129037279D01*
X97860556Y-129046111D01*
X97886022Y-129059357D01*
X97917000Y-128989667D01*
X97910890Y-128944845D01*
X97860556Y-128933222D01*
X97850423Y-128945632D01*
X97597807Y-128945632D01*
X97586854Y-128926370D01*
X97496853Y-128908504D01*
X97481023Y-128941636D01*
X97451334Y-129003778D01*
X94679988Y-129003778D01*
X94827407Y-128908698D01*
X96179049Y-128908698D01*
X96185292Y-128958408D01*
X96303337Y-128989667D01*
X96419420Y-128981754D01*
X96468694Y-128941636D01*
X96368027Y-128883834D01*
X98087630Y-128883834D01*
X98103481Y-128989667D01*
X98105421Y-129002625D01*
X98171000Y-129074334D01*
X98199354Y-129071714D01*
X98249783Y-128995541D01*
X98171000Y-128820334D01*
X98150800Y-128790535D01*
X98100998Y-128760119D01*
X98099065Y-128778000D01*
X98087630Y-128883834D01*
X96368027Y-128883834D01*
X96353379Y-128875423D01*
X96289191Y-128862573D01*
X96179049Y-128908698D01*
X94827407Y-128908698D01*
X94850507Y-128893799D01*
X95047227Y-128779674D01*
X95051216Y-128778000D01*
X95800334Y-128778000D01*
X95842667Y-128820334D01*
X95885000Y-128778000D01*
X95842667Y-128735667D01*
X95800334Y-128778000D01*
X95051216Y-128778000D01*
X95152083Y-128735667D01*
X95157886Y-128734815D01*
X95268694Y-128674403D01*
X95468197Y-128538333D01*
X95545292Y-128481667D01*
X95927334Y-128481667D01*
X95944636Y-128504548D01*
X96064327Y-128566334D01*
X96092797Y-128559810D01*
X96095943Y-128496283D01*
X97280267Y-128496283D01*
X97312328Y-128660136D01*
X97398146Y-128718975D01*
X97499608Y-128641388D01*
X97572348Y-128570623D01*
X97676408Y-128630541D01*
X97680445Y-128634533D01*
X97802544Y-128719419D01*
X97884701Y-128726705D01*
X97880610Y-128695841D01*
X98533130Y-128695841D01*
X98631683Y-128780693D01*
X98715966Y-128864518D01*
X98695183Y-128905000D01*
X98660827Y-128909728D01*
X98594334Y-128983648D01*
X98596969Y-128993993D01*
X98600458Y-128995541D01*
X98694886Y-129037446D01*
X98890288Y-129047148D01*
X98928354Y-129044660D01*
X99111788Y-129013804D01*
X99186621Y-128966887D01*
X99248800Y-128937623D01*
X99411295Y-128958068D01*
X99453021Y-128967975D01*
X99577547Y-128976230D01*
X99570933Y-128909745D01*
X99509252Y-128874022D01*
X99879310Y-128874022D01*
X99949000Y-128905000D01*
X99993823Y-128898890D01*
X100005445Y-128848556D01*
X99993036Y-128838423D01*
X99892556Y-128848556D01*
X99879310Y-128874022D01*
X99509252Y-128874022D01*
X99464140Y-128847895D01*
X99208290Y-128861029D01*
X99045997Y-128885411D01*
X98953529Y-128867635D01*
X98961329Y-128783965D01*
X98973922Y-128734651D01*
X98942378Y-128693334D01*
X99187000Y-128693334D01*
X99229334Y-128735667D01*
X99256434Y-128708567D01*
X99314000Y-128708567D01*
X99610334Y-128718897D01*
X99772727Y-128705673D01*
X99960565Y-128640539D01*
X100070138Y-128545748D01*
X100056800Y-128448355D01*
X100034206Y-128428454D01*
X99917509Y-128406251D01*
X99908532Y-128425222D01*
X99868472Y-128509889D01*
X99864334Y-128518636D01*
X99791880Y-128614973D01*
X99589167Y-128674419D01*
X99436748Y-128693334D01*
X99314000Y-128708567D01*
X99256434Y-128708567D01*
X99271667Y-128693334D01*
X99229334Y-128651000D01*
X99187000Y-128693334D01*
X98942378Y-128693334D01*
X98924185Y-128669504D01*
X98739843Y-128653693D01*
X98563307Y-128661482D01*
X98533130Y-128695841D01*
X97880610Y-128695841D01*
X97874667Y-128651000D01*
X97872321Y-128601709D01*
X97975504Y-128560383D01*
X98030268Y-128557388D01*
X98071553Y-128537586D01*
X98034214Y-128518980D01*
X98502108Y-128518980D01*
X98547083Y-128538167D01*
X98721334Y-128544982D01*
X98813674Y-128542786D01*
X98867573Y-128535355D01*
X99201977Y-128535355D01*
X99271667Y-128566334D01*
X99316489Y-128560223D01*
X99328112Y-128509889D01*
X99315702Y-128499756D01*
X99215223Y-128509889D01*
X99205409Y-128528756D01*
X99201977Y-128535355D01*
X98867573Y-128535355D01*
X98915438Y-128528756D01*
X98868513Y-128506452D01*
X98733168Y-128492390D01*
X98529847Y-128508161D01*
X98502108Y-128518980D01*
X98034214Y-128518980D01*
X97959334Y-128481667D01*
X97900445Y-128450689D01*
X99455977Y-128450689D01*
X99525667Y-128481667D01*
X99570489Y-128475557D01*
X99582112Y-128425222D01*
X99569702Y-128415089D01*
X99469223Y-128425222D01*
X99455977Y-128450689D01*
X97900445Y-128450689D01*
X97880102Y-128439988D01*
X97906803Y-128411168D01*
X98086334Y-128397000D01*
X98233833Y-128387252D01*
X98295170Y-128363204D01*
X98263678Y-128345847D01*
X98955931Y-128345847D01*
X98956719Y-128363204D01*
X98957242Y-128374749D01*
X99067056Y-128390316D01*
X99150279Y-128376758D01*
X99131435Y-128354667D01*
X100118334Y-128354667D01*
X100160667Y-128397000D01*
X100203000Y-128354667D01*
X100160667Y-128312334D01*
X100118334Y-128354667D01*
X99131435Y-128354667D01*
X99118209Y-128339163D01*
X99069248Y-128325636D01*
X98955931Y-128345847D01*
X98263678Y-128345847D01*
X98213334Y-128318099D01*
X98099367Y-128286283D01*
X97948361Y-128286864D01*
X97942461Y-128288589D01*
X97825520Y-128244844D01*
X97695740Y-128118971D01*
X98213334Y-128118971D01*
X98552000Y-128123930D01*
X98789321Y-128100667D01*
X99102334Y-128100667D01*
X99144667Y-128143000D01*
X99187000Y-128100667D01*
X99144667Y-128058334D01*
X99102334Y-128100667D01*
X98789321Y-128100667D01*
X98803858Y-128099242D01*
X98954566Y-128016000D01*
X99779667Y-128016000D01*
X99822000Y-128058334D01*
X99864334Y-128016000D01*
X99822000Y-127973667D01*
X99779667Y-128016000D01*
X98954566Y-128016000D01*
X99032480Y-127972965D01*
X99059777Y-127942658D01*
X99067660Y-127931334D01*
X99525667Y-127931334D01*
X99568000Y-127973667D01*
X99610334Y-127931334D01*
X99568000Y-127889000D01*
X99525667Y-127931334D01*
X99067660Y-127931334D01*
X99117347Y-127859956D01*
X99060549Y-127839647D01*
X98863146Y-127865005D01*
X98724763Y-127888282D01*
X98549161Y-127931575D01*
X98535063Y-127964856D01*
X98686056Y-127985681D01*
X98742644Y-127992774D01*
X98726722Y-128018816D01*
X98552000Y-128058334D01*
X98213334Y-128118971D01*
X97695740Y-128118971D01*
X97682175Y-128105814D01*
X97640455Y-128055116D01*
X97475279Y-127912854D01*
X97362513Y-127920712D01*
X97333117Y-128016000D01*
X97313528Y-128079500D01*
X97306382Y-128185334D01*
X97304642Y-128211117D01*
X97282655Y-128462586D01*
X97281302Y-128481667D01*
X97280267Y-128496283D01*
X96095943Y-128496283D01*
X96096667Y-128481667D01*
X96079365Y-128458786D01*
X95959674Y-128397000D01*
X95931204Y-128403523D01*
X95927334Y-128481667D01*
X95545292Y-128481667D01*
X95718557Y-128354314D01*
X95936445Y-128185334D01*
X96223667Y-128185334D01*
X96266000Y-128227667D01*
X96308334Y-128185334D01*
X96266000Y-128143000D01*
X96223667Y-128185334D01*
X95936445Y-128185334D01*
X95981936Y-128150054D01*
X96144442Y-128016000D01*
X96477667Y-128016000D01*
X96520000Y-128058334D01*
X96562334Y-128016000D01*
X96520000Y-127973667D01*
X96477667Y-128016000D01*
X96144442Y-128016000D01*
X96220495Y-127953262D01*
X96521761Y-127719667D01*
X98509667Y-127719667D01*
X98543726Y-127769790D01*
X98683997Y-127804334D01*
X98780077Y-127786307D01*
X98806000Y-127719667D01*
X98775819Y-127686600D01*
X98631670Y-127635000D01*
X98577882Y-127643728D01*
X98509667Y-127719667D01*
X96521761Y-127719667D01*
X96589328Y-127667277D01*
X96939003Y-127454040D01*
X97223110Y-127342303D01*
X97264864Y-127330515D01*
X97397714Y-127254000D01*
X98509667Y-127254000D01*
X98552000Y-127296334D01*
X98582979Y-127265355D01*
X98863310Y-127265355D01*
X98933000Y-127296334D01*
X98977823Y-127290223D01*
X98989445Y-127239889D01*
X98977036Y-127229756D01*
X98876556Y-127239889D01*
X98869216Y-127254000D01*
X98863310Y-127265355D01*
X98582979Y-127265355D01*
X98594334Y-127254000D01*
X98552000Y-127211667D01*
X98509667Y-127254000D01*
X97397714Y-127254000D01*
X97437801Y-127230912D01*
X97501048Y-127169334D01*
X98171000Y-127169334D01*
X98213334Y-127211667D01*
X98255667Y-127169334D01*
X98213334Y-127127000D01*
X98171000Y-127169334D01*
X97501048Y-127169334D01*
X97588010Y-127084667D01*
X98425000Y-127084667D01*
X98467334Y-127127000D01*
X98509667Y-127084667D01*
X98467334Y-127042334D01*
X98425000Y-127084667D01*
X97588010Y-127084667D01*
X97639494Y-127034541D01*
X97881189Y-126727486D01*
X98174133Y-126295830D01*
X98529573Y-125725657D01*
X98686413Y-125481011D01*
X98875142Y-125221847D01*
X99034939Y-125038783D01*
X99145621Y-124954371D01*
X99187000Y-124991164D01*
X99161532Y-125070567D01*
X99054602Y-125215303D01*
X98987856Y-125312473D01*
X98988989Y-125454184D01*
X99018865Y-125528590D01*
X99029831Y-125718088D01*
X99030407Y-125801138D01*
X99085818Y-125824874D01*
X99143186Y-125827295D01*
X99210720Y-125938560D01*
X99218398Y-126039603D01*
X99161283Y-126133684D01*
X99132612Y-126168170D01*
X99139187Y-126305115D01*
X99198831Y-126483272D01*
X99286822Y-126637753D01*
X99378438Y-126703667D01*
X99392714Y-126704997D01*
X99519858Y-126788545D01*
X99638257Y-126949973D01*
X99692308Y-127116200D01*
X99692401Y-127121270D01*
X99668340Y-127188682D01*
X99568000Y-127127000D01*
X99485541Y-127073799D01*
X99473797Y-127084667D01*
X99441000Y-127115020D01*
X99479397Y-127169334D01*
X99493996Y-127189986D01*
X99604616Y-127239889D01*
G36*
X93530085Y-130100696D02*
G01*
X93599000Y-130175000D01*
X93596720Y-130195088D01*
X93519331Y-130259667D01*
X93495577Y-130256437D01*
X93387334Y-130175000D01*
X93379369Y-130131379D01*
X93467004Y-130090334D01*
X93530085Y-130100696D01*
G37*
X93530085Y-130100696D02*
X93599000Y-130175000D01*
X93596720Y-130195088D01*
X93519331Y-130259667D01*
X93495577Y-130256437D01*
X93387334Y-130175000D01*
X93379369Y-130131379D01*
X93467004Y-130090334D01*
X93530085Y-130100696D01*
G36*
X100071956Y-117665500D02*
G01*
X100095477Y-117759325D01*
X100071956Y-117961834D01*
X100049484Y-118012309D01*
X100006350Y-118065640D01*
X99972023Y-117961834D01*
X99960076Y-117881534D01*
X99972023Y-117665500D01*
X99984596Y-117615024D01*
X100017272Y-117561694D01*
X100071956Y-117665500D01*
G37*
X100071956Y-117665500D02*
X100095477Y-117759325D01*
X100071956Y-117961834D01*
X100049484Y-118012309D01*
X100006350Y-118065640D01*
X99972023Y-117961834D01*
X99960076Y-117881534D01*
X99972023Y-117665500D01*
X99984596Y-117615024D01*
X100017272Y-117561694D01*
X100071956Y-117665500D01*
G36*
X91698893Y-131787477D02*
G01*
X91778667Y-131868334D01*
X91794437Y-131898310D01*
X91788661Y-131953000D01*
X91773775Y-131949190D01*
X91694000Y-131868334D01*
X91678230Y-131838357D01*
X91684007Y-131783667D01*
X91698893Y-131787477D01*
G37*
X91698893Y-131787477D02*
X91778667Y-131868334D01*
X91794437Y-131898310D01*
X91788661Y-131953000D01*
X91773775Y-131949190D01*
X91694000Y-131868334D01*
X91678230Y-131838357D01*
X91684007Y-131783667D01*
X91698893Y-131787477D01*
G36*
X107992334Y-131741334D02*
G01*
X107950000Y-131783667D01*
X107907667Y-131741334D01*
X107950000Y-131699000D01*
X107992334Y-131741334D01*
G37*
X107992334Y-131741334D02*
X107950000Y-131783667D01*
X107907667Y-131741334D01*
X107950000Y-131699000D01*
X107992334Y-131741334D01*
G36*
X91482334Y-131826000D02*
G01*
X91440000Y-131868334D01*
X91397667Y-131826000D01*
X91440000Y-131783667D01*
X91482334Y-131826000D01*
G37*
X91482334Y-131826000D02*
X91440000Y-131868334D01*
X91397667Y-131826000D01*
X91440000Y-131783667D01*
X91482334Y-131826000D01*
G36*
X92347673Y-130318643D02*
G01*
X92413667Y-130432048D01*
X92383467Y-130477995D01*
X92251459Y-130473595D01*
X92218944Y-130465320D01*
X92080874Y-130478732D01*
X92016945Y-130551372D01*
X92073619Y-130639813D01*
X92098050Y-130658203D01*
X92159667Y-130772664D01*
X92157143Y-130802181D01*
X92098854Y-130855470D01*
X92001120Y-130801090D01*
X91914383Y-130661834D01*
X91892247Y-130494062D01*
X92005705Y-130357949D01*
X92011046Y-130354271D01*
X92192207Y-130288856D01*
X92347673Y-130318643D01*
G37*
X92347673Y-130318643D02*
X92413667Y-130432048D01*
X92383467Y-130477995D01*
X92251459Y-130473595D01*
X92218944Y-130465320D01*
X92080874Y-130478732D01*
X92016945Y-130551372D01*
X92073619Y-130639813D01*
X92098050Y-130658203D01*
X92159667Y-130772664D01*
X92157143Y-130802181D01*
X92098854Y-130855470D01*
X92001120Y-130801090D01*
X91914383Y-130661834D01*
X91892247Y-130494062D01*
X92005705Y-130357949D01*
X92011046Y-130354271D01*
X92192207Y-130288856D01*
X92347673Y-130318643D01*
G36*
X99291246Y-126283587D02*
G01*
X99356334Y-126365000D01*
X99355363Y-126384161D01*
X99318997Y-126449667D01*
X99305416Y-126445771D01*
X99229334Y-126365000D01*
X99216104Y-126332203D01*
X99266670Y-126280334D01*
X99291246Y-126283587D01*
G37*
X99291246Y-126283587D02*
X99356334Y-126365000D01*
X99355363Y-126384161D01*
X99318997Y-126449667D01*
X99305416Y-126445771D01*
X99229334Y-126365000D01*
X99216104Y-126332203D01*
X99266670Y-126280334D01*
X99291246Y-126283587D01*
G36*
X100541667Y-124798667D02*
G01*
X100499334Y-124841000D01*
X100457000Y-124798667D01*
X100499334Y-124756334D01*
X100541667Y-124798667D01*
G37*
X100541667Y-124798667D02*
X100499334Y-124841000D01*
X100457000Y-124798667D01*
X100499334Y-124756334D01*
X100541667Y-124798667D01*
G36*
X103928334Y-127254000D02*
G01*
X103886000Y-127296334D01*
X103843667Y-127254000D01*
X103886000Y-127211667D01*
X103928334Y-127254000D01*
G37*
X103928334Y-127254000D02*
X103886000Y-127296334D01*
X103843667Y-127254000D01*
X103886000Y-127211667D01*
X103928334Y-127254000D01*
%TD*%
M02*
