%TF.GenerationSoftware,KiCad,Pcbnew,(5.1.5)-3*%
%TF.CreationDate,2021-01-06T02:35:00-06:00*%
%TF.ProjectId,BPS_Scrutineering,4250535f-5363-4727-9574-696e65657269,rev?*%
%TF.SameCoordinates,Original*%
%TF.FileFunction,Soldermask,Top*%
%TF.FilePolarity,Negative*%
%FSLAX46Y46*%
G04 Gerber Fmt 4.6, Leading zero omitted, Abs format (unit mm)*
G04 Created by KiCad (PCBNEW (5.1.5)-3) date 2021-01-06 02:35:00*
%MOMM*%
%LPD*%
G04 APERTURE LIST*
%ADD10C,3.600000*%
%ADD11C,1.600000*%
%ADD12C,4.100000*%
%ADD13R,2.260000X1.220000*%
G04 APERTURE END LIST*
D10*
%TO.C,JC4*%
X213418000Y-95159000D03*
X213418000Y-108841000D03*
D11*
X209100000Y-111000000D03*
X209100000Y-108000000D03*
X209100000Y-105000000D03*
X209100000Y-102000000D03*
X209100000Y-99000000D03*
X209100000Y-96000000D03*
X209100000Y-93000000D03*
%TD*%
D10*
%TO.C,JC3*%
X125782000Y-108841000D03*
X125782000Y-95159000D03*
D11*
X130100000Y-93000000D03*
X130100000Y-96000000D03*
X130100000Y-99000000D03*
X130100000Y-102000000D03*
X130100000Y-105000000D03*
X130100000Y-108000000D03*
X130100000Y-111000000D03*
%TD*%
D10*
%TO.C,JC2*%
X213418000Y-68559000D03*
X213418000Y-82241000D03*
D11*
X209100000Y-84400000D03*
X209100000Y-81400000D03*
X209100000Y-78400000D03*
X209100000Y-75400000D03*
X209100000Y-72400000D03*
X209100000Y-69400000D03*
X209100000Y-66400000D03*
%TD*%
D10*
%TO.C,JC1*%
X125782000Y-82041000D03*
X125782000Y-68359000D03*
D11*
X130100000Y-66200000D03*
X130100000Y-69200000D03*
X130100000Y-72200000D03*
X130100000Y-75200000D03*
X130100000Y-78200000D03*
X130100000Y-81200000D03*
X130100000Y-84200000D03*
%TD*%
D12*
%TO.C,J14*%
X173400000Y-89800000D03*
%TD*%
%TO.C,J13*%
X160800000Y-97000000D03*
%TD*%
%TO.C,J12*%
X186000000Y-97000000D03*
%TD*%
%TO.C,J11*%
X173400000Y-104400000D03*
%TD*%
%TO.C,J10*%
X148200000Y-104400000D03*
%TD*%
%TO.C,J9*%
X160800000Y-111600000D03*
%TD*%
%TO.C,J8*%
X186000000Y-111600000D03*
%TD*%
%TO.C,J7*%
X186000000Y-67800000D03*
%TD*%
%TO.C,J6*%
X160800000Y-67800000D03*
%TD*%
%TO.C,J5*%
X173400000Y-75200000D03*
%TD*%
%TO.C,J4*%
X148200000Y-75200000D03*
%TD*%
%TO.C,J3*%
X160800000Y-82400000D03*
%TD*%
%TO.C,J1*%
X148200000Y-89800000D03*
%TD*%
%TO.C,J2*%
X186000000Y-82400000D03*
%TD*%
D13*
%TO.C,SW2*%
X196035000Y-109620000D03*
X202765000Y-94380000D03*
X196035000Y-107080000D03*
X202765000Y-96920000D03*
X196035000Y-104540000D03*
X202765000Y-99460000D03*
X196035000Y-102000000D03*
X202765000Y-102000000D03*
X196035000Y-99460000D03*
X202765000Y-104540000D03*
X196035000Y-96920000D03*
X202765000Y-107080000D03*
X196035000Y-94380000D03*
X202765000Y-109620000D03*
%TD*%
%TO.C,SW1*%
X196035000Y-83020000D03*
X202765000Y-67780000D03*
X196035000Y-80480000D03*
X202765000Y-70320000D03*
X196035000Y-77940000D03*
X202765000Y-72860000D03*
X196035000Y-75400000D03*
X202765000Y-75400000D03*
X196035000Y-72860000D03*
X202765000Y-77940000D03*
X196035000Y-70320000D03*
X202765000Y-80480000D03*
X196035000Y-67780000D03*
X202765000Y-83020000D03*
%TD*%
M02*
