M48
; DRILL file {KiCad (6.0.7)} date Tue Jan 31 19:12:28 2023
; FORMAT={-:-/ absolute / inch / decimal}
; #@! TF.CreationDate,2023-01-31T19:12:28-06:00
; #@! TF.GenerationSoftware,Kicad,Pcbnew,(6.0.7)
; #@! TF.FileFunction,MixedPlating,1,2
FMAT,2
INCH
; #@! TA.AperFunction,Plated,PTH,ComponentDrill
T1C0.0402
; #@! TA.AperFunction,Plated,PTH,ComponentDrill
T2C0.0630
; #@! TA.AperFunction,Plated,PTH,ComponentDrill
T3C0.1181
; #@! TA.AperFunction,NonPlated,NPTH,ComponentDrill
T4C0.1181
%
G90
G05
T1
X3.4268Y-3.316
X3.4268Y-3.4341
X3.4268Y-3.5523
X3.4268Y-3.6704
X3.4268Y-3.7885
X3.4268Y-3.9066
X3.4268Y-4.0247
X3.4268Y-4.379
X3.4268Y-4.4971
X3.4268Y-4.6152
X3.4268Y-4.7334
X3.4268Y-4.8515
X3.4268Y-4.9696
X3.4268Y-5.0877
X5.7496Y-3.3296
X5.7496Y-3.4477
X5.7496Y-3.5658
X5.7496Y-3.6839
X5.7496Y-3.802
X5.7496Y-3.9201
X5.7496Y-4.0382
X5.7496Y-4.3925
X5.7496Y-4.5107
X5.7496Y-4.6288
X5.7496Y-4.7469
X5.7496Y-4.865
X5.7496Y-4.9831
X5.7496Y-5.1012
T2
X4.786Y-3.4477
X4.786Y-3.6839
X4.786Y-3.9201
X4.786Y-4.5107
X4.786Y-4.7469
X4.786Y-4.9831
X5.0222Y-3.3296
X5.0222Y-3.5658
X5.0222Y-3.802
X5.0222Y-4.0382
X5.0222Y-4.3925
X5.0222Y-4.6288
X5.0222Y-4.865
X5.0222Y-5.1012
T3
X3.3087Y-2.9291
X3.3087Y-5.4881
X5.8677Y-2.9291
X5.8677Y-5.4881
T4
X3.2575Y-3.4011
X3.2575Y-3.9397
X3.2575Y-4.4641
X3.2575Y-5.0026
X5.9189Y-3.4146
X5.9189Y-3.9532
X5.9189Y-4.4776
X5.9189Y-5.0162
T0
M30
