M48
; DRILL file {KiCad (6.0.7)} date Sat Feb  4 11:03:53 2023
; FORMAT={-:-/ absolute / inch / decimal}
; #@! TF.CreationDate,2023-02-04T11:03:53-06:00
; #@! TF.GenerationSoftware,Kicad,Pcbnew,(6.0.7)
; #@! TF.FileFunction,Plated,1,2,PTH
FMAT,2
INCH
; #@! TA.AperFunction,Plated,PTH,ComponentDrill
T1C0.0402
; #@! TA.AperFunction,Plated,PTH,ComponentDrill
T2C0.0630
; #@! TA.AperFunction,Plated,PTH,ComponentDrill
T3C0.1181
%
G90
G05
T1
X3.4268Y-3.316
X3.4268Y-3.4341
X3.4268Y-3.5523
X3.4268Y-3.6704
X3.4268Y-3.7885
X3.4268Y-3.9066
X3.4268Y-4.0247
X3.4268Y-4.379
X3.4268Y-4.4971
X3.4268Y-4.6152
X3.4268Y-4.7334
X3.4268Y-4.8515
X3.4268Y-4.9696
X3.4268Y-5.0877
X5.7496Y-3.3296
X5.7496Y-3.4477
X5.7496Y-3.5658
X5.7496Y-3.6839
X5.7496Y-3.802
X5.7496Y-3.9201
X5.7496Y-4.0382
X5.7496Y-4.3925
X5.7496Y-4.5107
X5.7496Y-4.6288
X5.7496Y-4.7469
X5.7496Y-4.865
X5.7496Y-4.9831
X5.7496Y-5.1012
T2
X4.786Y-3.4477
X4.786Y-3.6839
X4.786Y-3.9201
X4.786Y-4.5107
X4.786Y-4.7469
X4.786Y-4.9831
X5.0222Y-3.3296
X5.0222Y-3.5658
X5.0222Y-3.802
X5.0222Y-4.0382
X5.0222Y-4.3925
X5.0222Y-4.6288
X5.0222Y-4.865
X5.0222Y-5.1012
T3
X3.3087Y-2.9291
X3.3087Y-5.4881
X5.8677Y-2.9291
X5.8677Y-5.4881
T0
M30
