%TF.GenerationSoftware,KiCad,Pcbnew,(5.1.5)-3*%
%TF.CreationDate,2021-01-06T02:35:00-06:00*%
%TF.ProjectId,BPS_Scrutineering,4250535f-5363-4727-9574-696e65657269,rev?*%
%TF.SameCoordinates,Original*%
%TF.FileFunction,Copper,L2,Bot*%
%TF.FilePolarity,Positive*%
%FSLAX46Y46*%
G04 Gerber Fmt 4.6, Leading zero omitted, Abs format (unit mm)*
G04 Created by KiCad (PCBNEW (5.1.5)-3) date 2021-01-06 02:35:00*
%MOMM*%
%LPD*%
G04 APERTURE LIST*
%TA.AperFunction,ComponentPad*%
%ADD10C,3.500000*%
%TD*%
%TA.AperFunction,ComponentPad*%
%ADD11C,1.500000*%
%TD*%
%TA.AperFunction,ComponentPad*%
%ADD12C,4.000000*%
%TD*%
G04 APERTURE END LIST*
D10*
%TO.P,JC4,*%
%TO.N,*%
X213418000Y-95159000D03*
X213418000Y-108841000D03*
D11*
%TO.P,JC4,7*%
%TO.N,Net-(JC4-Pad7)*%
X209100000Y-111000000D03*
%TO.P,JC4,6*%
%TO.N,Net-(JC4-Pad6)*%
X209100000Y-108000000D03*
%TO.P,JC4,5*%
%TO.N,Net-(JC4-Pad5)*%
X209100000Y-105000000D03*
%TO.P,JC4,4*%
%TO.N,Net-(JC4-Pad4)*%
X209100000Y-102000000D03*
%TO.P,JC4,3*%
%TO.N,Net-(JC4-Pad3)*%
X209100000Y-99000000D03*
%TO.P,JC4,2*%
%TO.N,Net-(JC4-Pad2)*%
X209100000Y-96000000D03*
%TO.P,JC4,1*%
%TO.N,Net-(JC4-Pad1)*%
X209100000Y-93000000D03*
%TD*%
D10*
%TO.P,JC3,*%
%TO.N,*%
X125782000Y-108841000D03*
X125782000Y-95159000D03*
D11*
%TO.P,JC3,7*%
%TO.N,Net-(J14-Pad1)*%
X130100000Y-93000000D03*
%TO.P,JC3,6*%
%TO.N,Net-(J13-Pad1)*%
X130100000Y-96000000D03*
%TO.P,JC3,5*%
%TO.N,Net-(J12-Pad1)*%
X130100000Y-99000000D03*
%TO.P,JC3,4*%
%TO.N,Net-(J11-Pad1)*%
X130100000Y-102000000D03*
%TO.P,JC3,3*%
%TO.N,Net-(J10-Pad1)*%
X130100000Y-105000000D03*
%TO.P,JC3,2*%
%TO.N,Net-(J9-Pad1)*%
X130100000Y-108000000D03*
%TO.P,JC3,1*%
%TO.N,Net-(J8-Pad1)*%
X130100000Y-111000000D03*
%TD*%
D10*
%TO.P,JC2,*%
%TO.N,*%
X213418000Y-68559000D03*
X213418000Y-82241000D03*
D11*
%TO.P,JC2,7*%
%TO.N,Net-(JC2-Pad7)*%
X209100000Y-84400000D03*
%TO.P,JC2,6*%
%TO.N,Net-(JC2-Pad6)*%
X209100000Y-81400000D03*
%TO.P,JC2,5*%
%TO.N,Net-(JC2-Pad5)*%
X209100000Y-78400000D03*
%TO.P,JC2,4*%
%TO.N,Net-(JC2-Pad4)*%
X209100000Y-75400000D03*
%TO.P,JC2,3*%
%TO.N,Net-(JC2-Pad3)*%
X209100000Y-72400000D03*
%TO.P,JC2,2*%
%TO.N,Net-(JC2-Pad2)*%
X209100000Y-69400000D03*
%TO.P,JC2,1*%
%TO.N,Net-(JC2-Pad1)*%
X209100000Y-66400000D03*
%TD*%
D10*
%TO.P,JC1,*%
%TO.N,*%
X125782000Y-82041000D03*
X125782000Y-68359000D03*
D11*
%TO.P,JC1,7*%
%TO.N,Net-(J7-Pad1)*%
X130100000Y-66200000D03*
%TO.P,JC1,6*%
%TO.N,Net-(J6-Pad1)*%
X130100000Y-69200000D03*
%TO.P,JC1,5*%
%TO.N,Net-(J5-Pad1)*%
X130100000Y-72200000D03*
%TO.P,JC1,4*%
%TO.N,Net-(J4-Pad1)*%
X130100000Y-75200000D03*
%TO.P,JC1,3*%
%TO.N,Net-(J3-Pad1)*%
X130100000Y-78200000D03*
%TO.P,JC1,2*%
%TO.N,Net-(J2-Pad1)*%
X130100000Y-81200000D03*
%TO.P,JC1,1*%
%TO.N,Net-(J1-Pad1)*%
X130100000Y-84200000D03*
%TD*%
D12*
%TO.P,J14,1*%
%TO.N,Net-(J14-Pad1)*%
X173400000Y-89800000D03*
%TD*%
%TO.P,J13,1*%
%TO.N,Net-(J13-Pad1)*%
X160800000Y-97000000D03*
%TD*%
%TO.P,J12,1*%
%TO.N,Net-(J12-Pad1)*%
X186000000Y-97000000D03*
%TD*%
%TO.P,J11,1*%
%TO.N,Net-(J11-Pad1)*%
X173400000Y-104400000D03*
%TD*%
%TO.P,J10,1*%
%TO.N,Net-(J10-Pad1)*%
X148200000Y-104400000D03*
%TD*%
%TO.P,J9,1*%
%TO.N,Net-(J9-Pad1)*%
X160800000Y-111600000D03*
%TD*%
%TO.P,J8,1*%
%TO.N,Net-(J8-Pad1)*%
X186000000Y-111600000D03*
%TD*%
%TO.P,J7,1*%
%TO.N,Net-(J7-Pad1)*%
X186000000Y-67800000D03*
%TD*%
%TO.P,J6,1*%
%TO.N,Net-(J6-Pad1)*%
X160800000Y-67800000D03*
%TD*%
%TO.P,J5,1*%
%TO.N,Net-(J5-Pad1)*%
X173400000Y-75200000D03*
%TD*%
%TO.P,J4,1*%
%TO.N,Net-(J4-Pad1)*%
X148200000Y-75200000D03*
%TD*%
%TO.P,J3,1*%
%TO.N,Net-(J3-Pad1)*%
X160800000Y-82400000D03*
%TD*%
%TO.P,J1,1*%
%TO.N,Net-(J1-Pad1)*%
X148200000Y-89800000D03*
%TD*%
%TO.P,J2,1*%
%TO.N,Net-(J2-Pad1)*%
X186000000Y-82400000D03*
%TD*%
M02*
