M48
; DRILL file {KiCad (5.1.5)-3} date 1/6/2021 2:35:03 AM
; FORMAT={-:-/ absolute / inch / decimal}
; #@! TF.CreationDate,2021-01-06T02:35:03-06:00
; #@! TF.GenerationSoftware,Kicad,Pcbnew,(5.1.5)-3
FMAT,2
INCH
T1C0.0394
T2C0.0787
T3C0.1181
%
G90
G05
T1
X5.122Y-3.6614
X5.122Y-3.7795
X5.122Y-3.8976
X5.122Y-4.0157
X5.122Y-4.1339
X5.122Y-4.252
X5.122Y-4.3701
X8.2323Y-3.6614
X8.2323Y-3.7795
X8.2323Y-3.8976
X8.2323Y-4.0157
X8.2323Y-4.1339
X8.2323Y-4.252
X8.2323Y-4.3701
X5.122Y-2.6063
X5.122Y-2.7244
X5.122Y-2.8425
X5.122Y-2.9606
X5.122Y-3.0787
X5.122Y-3.1969
X5.122Y-3.315
X8.2323Y-2.6142
X8.2323Y-2.7323
X8.2323Y-2.8504
X8.2323Y-2.9685
X8.2323Y-3.0866
X8.2323Y-3.2047
X8.2323Y-3.3228
T2
X6.3307Y-2.6693
X5.8346Y-3.5354
X6.8268Y-3.5354
X6.8268Y-4.1102
X7.3228Y-3.8189
X7.3228Y-2.6693
X7.3228Y-3.2441
X6.8268Y-2.9606
X6.3307Y-3.8189
X5.8346Y-4.1102
X5.8346Y-2.9606
X6.3307Y-3.2441
X7.3228Y-4.3937
X6.3307Y-4.3937
T3
X4.952Y-3.7464
X4.952Y-4.2851
X8.4023Y-3.7464
X8.4023Y-4.2851
X4.952Y-2.6913
X4.952Y-3.23
X8.4023Y-2.6992
X8.4023Y-3.2378
T0
M30
