%TF.GenerationSoftware,KiCad,Pcbnew,(6.0.7)*%
%TF.CreationDate,2023-01-31T19:11:19-06:00*%
%TF.ProjectId,BPS_Scrutineering,4250535f-5363-4727-9574-696e65657269,rev?*%
%TF.SameCoordinates,Original*%
%TF.FileFunction,Copper,L1,Top*%
%TF.FilePolarity,Positive*%
%FSLAX46Y46*%
G04 Gerber Fmt 4.6, Leading zero omitted, Abs format (unit mm)*
G04 Created by KiCad (PCBNEW (6.0.7)) date 2023-01-31 19:11:19*
%MOMM*%
%LPD*%
G01*
G04 APERTURE LIST*
%TA.AperFunction,ComponentPad*%
%ADD10C,1.520000*%
%TD*%
%TA.AperFunction,ComponentPad*%
%ADD11R,1.520000X1.520000*%
%TD*%
%TA.AperFunction,SMDPad,CuDef*%
%ADD12R,1.500000X1.100000*%
%TD*%
%TA.AperFunction,SMDPad,CuDef*%
%ADD13R,0.940000X1.010000*%
%TD*%
%TA.AperFunction,ComponentPad*%
%ADD14C,2.800000*%
%TD*%
%TA.AperFunction,ComponentPad*%
%ADD15C,6.000000*%
%TD*%
%TA.AperFunction,Conductor*%
%ADD16C,0.250000*%
%TD*%
G04 APERTURE END LIST*
D10*
%TO.P,JC1,1,Pin_1*%
%TO.N,Net-(F15-Pad1)*%
X87040600Y-84227250D03*
%TO.P,JC1,2,Pin_2*%
%TO.N,Net-(F16-Pad1)*%
X87040600Y-87227250D03*
%TO.P,JC1,3,Pin_3*%
%TO.N,Net-(F17-Pad1)*%
X87040600Y-90227250D03*
%TO.P,JC1,4,Pin_4*%
%TO.N,Net-(F18-Pad1)*%
X87040600Y-93227250D03*
%TO.P,JC1,5,Pin_5*%
%TO.N,Net-(F19-Pad1)*%
X87040600Y-96227250D03*
%TO.P,JC1,6,Pin_6*%
%TO.N,Net-(F20-Pad1)*%
X87040600Y-99227250D03*
D11*
%TO.P,JC1,7,Pin_7*%
%TO.N,Net-(F21-Pad1)*%
X87040600Y-102227250D03*
%TD*%
D10*
%TO.P,JC2,1,Pin_1*%
%TO.N,Net-(F7-Pad2)*%
X146040600Y-102570750D03*
%TO.P,JC2,2,Pin_2*%
%TO.N,Net-(F6-Pad2)*%
X146040600Y-99570750D03*
%TO.P,JC2,3,Pin_3*%
%TO.N,Net-(F5-Pad2)*%
X146040600Y-96570750D03*
%TO.P,JC2,4,Pin_4*%
%TO.N,Net-(F4-Pad2)*%
X146040600Y-93570750D03*
%TO.P,JC2,5,Pin_5*%
%TO.N,Net-(F3-Pad2)*%
X146040600Y-90570750D03*
%TO.P,JC2,6,Pin_6*%
%TO.N,Net-(F2-Pad2)*%
X146040600Y-87570750D03*
D11*
%TO.P,JC2,7,Pin_7*%
%TO.N,Net-(F1-Pad2)*%
X146040600Y-84570750D03*
%TD*%
D12*
%TO.P,SW1,1*%
%TO.N,Net-(F1-Pad1)*%
X114490600Y-85607250D03*
%TO.P,SW1,2*%
%TO.N,Net-(F15-Pad2)*%
X105590600Y-85607250D03*
%TO.P,SW1,3*%
%TO.N,Net-(F2-Pad1)*%
X114490600Y-88147250D03*
%TO.P,SW1,4*%
%TO.N,Net-(F16-Pad2)*%
X105590600Y-88147250D03*
%TO.P,SW1,5*%
%TO.N,Net-(F3-Pad1)*%
X114490600Y-90687250D03*
%TO.P,SW1,6*%
%TO.N,Net-(F17-Pad2)*%
X105590600Y-90687250D03*
%TO.P,SW1,7*%
%TO.N,Net-(F4-Pad1)*%
X114490600Y-93227250D03*
%TO.P,SW1,8*%
%TO.N,Net-(F18-Pad2)*%
X105590600Y-93227250D03*
%TO.P,SW1,9*%
%TO.N,Net-(F5-Pad1)*%
X114490600Y-95767250D03*
%TO.P,SW1,10*%
%TO.N,Net-(F19-Pad2)*%
X105590600Y-95767250D03*
%TO.P,SW1,11*%
%TO.N,Net-(F6-Pad1)*%
X114490600Y-98307250D03*
%TO.P,SW1,12*%
%TO.N,Net-(F20-Pad2)*%
X105590600Y-98307250D03*
%TO.P,SW1,13*%
%TO.N,Net-(F7-Pad1)*%
X114490600Y-100847250D03*
%TO.P,SW1,14*%
%TO.N,Net-(F21-Pad2)*%
X105590600Y-100847250D03*
%TD*%
%TO.P,SW2,1*%
%TO.N,Net-(F8-Pad1)*%
X114490600Y-112607250D03*
%TO.P,SW2,2*%
%TO.N,Net-(F22-Pad2)*%
X105590600Y-112607250D03*
%TO.P,SW2,3*%
%TO.N,Net-(F9-Pad1)*%
X114490600Y-115147250D03*
%TO.P,SW2,4*%
%TO.N,Net-(F23-Pad2)*%
X105590600Y-115147250D03*
%TO.P,SW2,5*%
%TO.N,Net-(F10-Pad1)*%
X114490600Y-117687250D03*
%TO.P,SW2,6*%
%TO.N,Net-(F24-Pad2)*%
X105590600Y-117687250D03*
%TO.P,SW2,7*%
%TO.N,Net-(F11-Pad1)*%
X114490600Y-120227250D03*
%TO.P,SW2,8*%
%TO.N,Net-(F25-Pad2)*%
X105590600Y-120227250D03*
%TO.P,SW2,9*%
%TO.N,Net-(F12-Pad1)*%
X114490600Y-122767250D03*
%TO.P,SW2,10*%
%TO.N,Net-(F26-Pad2)*%
X105590600Y-122767250D03*
%TO.P,SW2,11*%
%TO.N,Net-(F13-Pad1)*%
X114490600Y-125307250D03*
%TO.P,SW2,12*%
%TO.N,Net-(F27-Pad2)*%
X105590600Y-125307250D03*
%TO.P,SW2,13*%
%TO.N,Net-(F14-Pad1)*%
X114490600Y-127847250D03*
%TO.P,SW2,14*%
%TO.N,Net-(F28-Pad2)*%
X105590600Y-127847250D03*
%TD*%
D10*
%TO.P,JC4,1,Pin_1*%
%TO.N,Net-(F14-Pad2)*%
X146040600Y-129570750D03*
%TO.P,JC4,2,Pin_2*%
%TO.N,Net-(F13-Pad2)*%
X146040600Y-126570750D03*
%TO.P,JC4,3,Pin_3*%
%TO.N,Net-(F12-Pad2)*%
X146040600Y-123570750D03*
%TO.P,JC4,4,Pin_4*%
%TO.N,Net-(F11-Pad2)*%
X146040600Y-120570750D03*
%TO.P,JC4,5,Pin_5*%
%TO.N,Net-(F10-Pad2)*%
X146040600Y-117570750D03*
%TO.P,JC4,6,Pin_6*%
%TO.N,Net-(F9-Pad2)*%
X146040600Y-114570750D03*
D11*
%TO.P,JC4,7,Pin_7*%
%TO.N,Net-(F8-Pad2)*%
X146040600Y-111570750D03*
%TD*%
D13*
%TO.P,F15,1*%
%TO.N,Net-(F15-Pad1)*%
X96255600Y-84227250D03*
%TO.P,F15,2*%
%TO.N,Net-(F15-Pad2)*%
X97835600Y-84227250D03*
%TD*%
%TO.P,F14,1*%
%TO.N,Net-(F14-Pad1)*%
X135273200Y-129570750D03*
%TO.P,F14,2*%
%TO.N,Net-(F14-Pad2)*%
X136853200Y-129570750D03*
%TD*%
%TO.P,F27,1*%
%TO.N,Net-(F27-Pad1)*%
X96250600Y-126227250D03*
%TO.P,F27,2*%
%TO.N,Net-(F27-Pad2)*%
X97830600Y-126227250D03*
%TD*%
%TO.P,F25,1*%
%TO.N,Net-(F25-Pad1)*%
X96250600Y-120227250D03*
%TO.P,F25,2*%
%TO.N,Net-(F25-Pad2)*%
X97830600Y-120227250D03*
%TD*%
D14*
%TO.P,TP8,1,1*%
%TO.N,Net-(F8-Pad1)*%
X127563200Y-111570750D03*
%TD*%
D13*
%TO.P,F20,1*%
%TO.N,Net-(F20-Pad1)*%
X96255600Y-99227250D03*
%TO.P,F20,2*%
%TO.N,Net-(F20-Pad2)*%
X97835600Y-99227250D03*
%TD*%
%TO.P,F9,1*%
%TO.N,Net-(F9-Pad1)*%
X135273200Y-114570750D03*
%TO.P,F9,2*%
%TO.N,Net-(F9-Pad2)*%
X136853200Y-114570750D03*
%TD*%
%TO.P,F28,1*%
%TO.N,Net-(F28-Pad1)*%
X96250600Y-129227250D03*
%TO.P,F28,2*%
%TO.N,Net-(F28-Pad2)*%
X97830600Y-129227250D03*
%TD*%
%TO.P,F11,1*%
%TO.N,Net-(F11-Pad1)*%
X135273200Y-120570750D03*
%TO.P,F11,2*%
%TO.N,Net-(F11-Pad2)*%
X136853200Y-120570750D03*
%TD*%
%TO.P,F2,1*%
%TO.N,Net-(F2-Pad1)*%
X135273200Y-87570750D03*
%TO.P,F2,2*%
%TO.N,Net-(F2-Pad2)*%
X136853200Y-87570750D03*
%TD*%
D14*
%TO.P,TP14,1,1*%
%TO.N,Net-(F14-Pad1)*%
X127563200Y-129570750D03*
%TD*%
D13*
%TO.P,F23,1*%
%TO.N,Net-(F23-Pad1)*%
X96255600Y-114227250D03*
%TO.P,F23,2*%
%TO.N,Net-(F23-Pad2)*%
X97835600Y-114227250D03*
%TD*%
D10*
%TO.P,JC3,1,Pin_1*%
%TO.N,Net-(F22-Pad1)*%
X87040600Y-111227250D03*
%TO.P,JC3,2,Pin_2*%
%TO.N,Net-(F23-Pad1)*%
X87040600Y-114227250D03*
%TO.P,JC3,3,Pin_3*%
%TO.N,Net-(F24-Pad1)*%
X87040600Y-117227250D03*
%TO.P,JC3,4,Pin_4*%
%TO.N,Net-(F25-Pad1)*%
X87040600Y-120227250D03*
%TO.P,JC3,5,Pin_5*%
%TO.N,Net-(F26-Pad1)*%
X87040600Y-123227250D03*
%TO.P,JC3,6,Pin_6*%
%TO.N,Net-(F27-Pad1)*%
X87040600Y-126227250D03*
D11*
%TO.P,JC3,7,Pin_7*%
%TO.N,Net-(F28-Pad1)*%
X87040600Y-129227250D03*
%TD*%
D14*
%TO.P,TP9,1,1*%
%TO.N,Net-(F9-Pad1)*%
X121563200Y-114570750D03*
%TD*%
D13*
%TO.P,F13,1*%
%TO.N,Net-(F13-Pad1)*%
X135273200Y-126570750D03*
%TO.P,F13,2*%
%TO.N,Net-(F13-Pad2)*%
X136853200Y-126570750D03*
%TD*%
D14*
%TO.P,TP13,1,1*%
%TO.N,Net-(F13-Pad1)*%
X121563200Y-126570750D03*
%TD*%
D15*
%TO.P,H2,1*%
%TO.N,N/C*%
X149040600Y-139399000D03*
%TD*%
D13*
%TO.P,F4,1*%
%TO.N,Net-(F4-Pad1)*%
X135273200Y-93570750D03*
%TO.P,F4,2*%
%TO.N,Net-(F4-Pad2)*%
X136853200Y-93570750D03*
%TD*%
D14*
%TO.P,TP6,1,1*%
%TO.N,Net-(F6-Pad1)*%
X121563200Y-99570750D03*
%TD*%
D15*
%TO.P,H3,1*%
%TO.N,N/C*%
X149040600Y-74399000D03*
%TD*%
D14*
%TO.P,TP12,1,1*%
%TO.N,Net-(F12-Pad1)*%
X127563200Y-123570750D03*
%TD*%
D13*
%TO.P,F18,1*%
%TO.N,Net-(F18-Pad1)*%
X96255600Y-93227250D03*
%TO.P,F18,2*%
%TO.N,Net-(F18-Pad2)*%
X97835600Y-93227250D03*
%TD*%
%TO.P,F6,1*%
%TO.N,Net-(F6-Pad1)*%
X135273200Y-99570750D03*
%TO.P,F6,2*%
%TO.N,Net-(F6-Pad2)*%
X136853200Y-99570750D03*
%TD*%
%TO.P,F26,1*%
%TO.N,Net-(F26-Pad1)*%
X96250600Y-123227250D03*
%TO.P,F26,2*%
%TO.N,Net-(F26-Pad2)*%
X97830600Y-123227250D03*
%TD*%
%TO.P,F10,1*%
%TO.N,Net-(F10-Pad1)*%
X135273200Y-117570750D03*
%TO.P,F10,2*%
%TO.N,Net-(F10-Pad2)*%
X136853200Y-117570750D03*
%TD*%
%TO.P,F19,1*%
%TO.N,Net-(F19-Pad1)*%
X96255600Y-96227250D03*
%TO.P,F19,2*%
%TO.N,Net-(F19-Pad2)*%
X97835600Y-96227250D03*
%TD*%
D14*
%TO.P,TP7,1,1*%
%TO.N,Net-(F7-Pad1)*%
X127563200Y-102570750D03*
%TD*%
D13*
%TO.P,F17,1*%
%TO.N,Net-(F17-Pad1)*%
X96255600Y-90227250D03*
%TO.P,F17,2*%
%TO.N,Net-(F17-Pad2)*%
X97835600Y-90227250D03*
%TD*%
%TO.P,F21,1*%
%TO.N,Net-(F21-Pad1)*%
X96255600Y-102227250D03*
%TO.P,F21,2*%
%TO.N,Net-(F21-Pad2)*%
X97835600Y-102227250D03*
%TD*%
D14*
%TO.P,TP3,1,1*%
%TO.N,Net-(F3-Pad1)*%
X127563200Y-90570750D03*
%TD*%
D13*
%TO.P,F12,1*%
%TO.N,Net-(F12-Pad1)*%
X135273200Y-123570750D03*
%TO.P,F12,2*%
%TO.N,Net-(F12-Pad2)*%
X136853200Y-123570750D03*
%TD*%
D14*
%TO.P,TP11,1,1*%
%TO.N,Net-(F11-Pad1)*%
X121563200Y-120570750D03*
%TD*%
D15*
%TO.P,H4,1*%
%TO.N,N/C*%
X84040600Y-74399000D03*
%TD*%
%TO.P,H1,1*%
%TO.N,N/C*%
X84040600Y-139399000D03*
%TD*%
D13*
%TO.P,F16,1*%
%TO.N,Net-(F16-Pad1)*%
X96255600Y-87227250D03*
%TO.P,F16,2*%
%TO.N,Net-(F16-Pad2)*%
X97835600Y-87227250D03*
%TD*%
D14*
%TO.P,TP2,1,1*%
%TO.N,Net-(F2-Pad1)*%
X121563200Y-87570750D03*
%TD*%
%TO.P,TP4,1,1*%
%TO.N,Net-(F4-Pad1)*%
X121563200Y-93570750D03*
%TD*%
D13*
%TO.P,F7,1*%
%TO.N,Net-(F7-Pad1)*%
X135273200Y-102570750D03*
%TO.P,F7,2*%
%TO.N,Net-(F7-Pad2)*%
X136853200Y-102570750D03*
%TD*%
%TO.P,F24,1*%
%TO.N,Net-(F24-Pad1)*%
X96255600Y-117227250D03*
%TO.P,F24,2*%
%TO.N,Net-(F24-Pad2)*%
X97835600Y-117227250D03*
%TD*%
%TO.P,F1,1*%
%TO.N,Net-(F1-Pad1)*%
X135273200Y-84570750D03*
%TO.P,F1,2*%
%TO.N,Net-(F1-Pad2)*%
X136853200Y-84570750D03*
%TD*%
%TO.P,F8,1*%
%TO.N,Net-(F8-Pad1)*%
X135273200Y-111570750D03*
%TO.P,F8,2*%
%TO.N,Net-(F8-Pad2)*%
X136853200Y-111570750D03*
%TD*%
D14*
%TO.P,TP10,1,1*%
%TO.N,Net-(F10-Pad1)*%
X127563200Y-117570750D03*
%TD*%
%TO.P,TP5,1,1*%
%TO.N,Net-(F5-Pad1)*%
X127563200Y-96570750D03*
%TD*%
D13*
%TO.P,F3,1*%
%TO.N,Net-(F3-Pad1)*%
X135273200Y-90570750D03*
%TO.P,F3,2*%
%TO.N,Net-(F3-Pad2)*%
X136853200Y-90570750D03*
%TD*%
%TO.P,F22,1*%
%TO.N,Net-(F22-Pad1)*%
X96255600Y-111227250D03*
%TO.P,F22,2*%
%TO.N,Net-(F22-Pad2)*%
X97835600Y-111227250D03*
%TD*%
D14*
%TO.P,TP1,1,1*%
%TO.N,Net-(F1-Pad1)*%
X127563200Y-84570750D03*
%TD*%
D13*
%TO.P,F5,1*%
%TO.N,Net-(F5-Pad1)*%
X135273200Y-96570750D03*
%TO.P,F5,2*%
%TO.N,Net-(F5-Pad2)*%
X136853200Y-96570750D03*
%TD*%
D16*
%TO.N,Net-(F1-Pad1)*%
X127563200Y-84570750D02*
X115527100Y-84570750D01*
X135273200Y-84570750D02*
X127563200Y-84570750D01*
X115527100Y-84570750D02*
X114490600Y-85607250D01*
%TO.N,Net-(F1-Pad2)*%
X146040600Y-84570750D02*
X136853200Y-84570750D01*
%TO.N,Net-(F2-Pad1)*%
X115067100Y-87570750D02*
X114490600Y-88147250D01*
X121563200Y-87570750D02*
X115067100Y-87570750D01*
X121563200Y-87570750D02*
X135273200Y-87570750D01*
%TO.N,Net-(F2-Pad2)*%
X136853200Y-87570750D02*
X146040600Y-87570750D01*
%TO.N,Net-(F3-Pad1)*%
X127563200Y-90570750D02*
X114607100Y-90570750D01*
X127563200Y-90570750D02*
X135273200Y-90570750D01*
X114607100Y-90570750D02*
X114490600Y-90687250D01*
%TO.N,Net-(F3-Pad2)*%
X136853200Y-90570750D02*
X146040600Y-90570750D01*
%TO.N,Net-(F4-Pad1)*%
X121563200Y-93570750D02*
X114834100Y-93570750D01*
X114834100Y-93570750D02*
X114490600Y-93227250D01*
X121563200Y-93570750D02*
X135273200Y-93570750D01*
%TO.N,Net-(F4-Pad2)*%
X136853200Y-93570750D02*
X146040600Y-93570750D01*
%TO.N,Net-(F5-Pad1)*%
X115294100Y-96570750D02*
X114490600Y-95767250D01*
X127563200Y-96570750D02*
X115294100Y-96570750D01*
X127563200Y-96570750D02*
X135273200Y-96570750D01*
%TO.N,Net-(F5-Pad2)*%
X136853200Y-96570750D02*
X146040600Y-96570750D01*
%TO.N,Net-(F6-Pad1)*%
X115754100Y-99570750D02*
X114490600Y-98307250D01*
X121563200Y-99570750D02*
X115754100Y-99570750D01*
X121563200Y-99570750D02*
X135273200Y-99570750D01*
%TO.N,Net-(F6-Pad2)*%
X136853200Y-99570750D02*
X146040600Y-99570750D01*
%TO.N,Net-(F7-Pad1)*%
X127563200Y-102570750D02*
X116214100Y-102570750D01*
X116214100Y-102570750D02*
X114490600Y-100847250D01*
X135273200Y-102570750D02*
X127563200Y-102570750D01*
%TO.N,Net-(F7-Pad2)*%
X136853200Y-102570750D02*
X146040600Y-102570750D01*
%TO.N,Net-(F8-Pad1)*%
X115527100Y-111570750D02*
X114490600Y-112607250D01*
X127563200Y-111570750D02*
X135273200Y-111570750D01*
X127563200Y-111570750D02*
X115527100Y-111570750D01*
%TO.N,Net-(F8-Pad2)*%
X146040600Y-111570750D02*
X136853200Y-111570750D01*
%TO.N,Net-(F9-Pad1)*%
X115067100Y-114570750D02*
X114490600Y-115147250D01*
X121563200Y-114570750D02*
X115067100Y-114570750D01*
X121563200Y-114570750D02*
X135273200Y-114570750D01*
%TO.N,Net-(F9-Pad2)*%
X146040600Y-114570750D02*
X136853200Y-114570750D01*
%TO.N,Net-(F10-Pad1)*%
X114607100Y-117570750D02*
X114490600Y-117687250D01*
X127563200Y-117570750D02*
X135273200Y-117570750D01*
X127563200Y-117570750D02*
X114607100Y-117570750D01*
%TO.N,Net-(F10-Pad2)*%
X146040600Y-117570750D02*
X136853200Y-117570750D01*
%TO.N,Net-(F11-Pad1)*%
X114834100Y-120570750D02*
X114490600Y-120227250D01*
X121563200Y-120570750D02*
X114834100Y-120570750D01*
X135273200Y-120570750D02*
X121563200Y-120570750D01*
%TO.N,Net-(F11-Pad2)*%
X146040600Y-120570750D02*
X136853200Y-120570750D01*
%TO.N,Net-(F12-Pad1)*%
X115294100Y-123570750D02*
X114490600Y-122767250D01*
X127563200Y-123570750D02*
X135273200Y-123570750D01*
X127563200Y-123570750D02*
X115294100Y-123570750D01*
%TO.N,Net-(F12-Pad2)*%
X146040600Y-123570750D02*
X136853200Y-123570750D01*
%TO.N,Net-(F13-Pad1)*%
X135273200Y-126570750D02*
X121563200Y-126570750D01*
X115754100Y-126570750D02*
X114490600Y-125307250D01*
X121563200Y-126570750D02*
X115754100Y-126570750D01*
%TO.N,Net-(F13-Pad2)*%
X146040600Y-126570750D02*
X136853200Y-126570750D01*
%TO.N,Net-(F14-Pad1)*%
X116214100Y-129570750D02*
X114490600Y-127847250D01*
X127563200Y-129570750D02*
X116214100Y-129570750D01*
X135273200Y-129570750D02*
X127563200Y-129570750D01*
%TO.N,Net-(F14-Pad2)*%
X146040600Y-129570750D02*
X136853200Y-129570750D01*
%TO.N,Net-(F15-Pad1)*%
X87040600Y-84227250D02*
X96255600Y-84227250D01*
%TO.N,Net-(F15-Pad2)*%
X97835600Y-84227250D02*
X104210600Y-84227250D01*
X104210600Y-84227250D02*
X105590600Y-85607250D01*
%TO.N,Net-(F16-Pad1)*%
X87040600Y-87227250D02*
X96255600Y-87227250D01*
%TO.N,Net-(F16-Pad2)*%
X97835600Y-87227250D02*
X104670600Y-87227250D01*
X104670600Y-87227250D02*
X105590600Y-88147250D01*
%TO.N,Net-(F17-Pad1)*%
X87040600Y-90227250D02*
X96255600Y-90227250D01*
%TO.N,Net-(F17-Pad2)*%
X97835600Y-90227250D02*
X105130600Y-90227250D01*
X105130600Y-90227250D02*
X105590600Y-90687250D01*
%TO.N,Net-(F18-Pad1)*%
X87040600Y-93227250D02*
X96255600Y-93227250D01*
%TO.N,Net-(F18-Pad2)*%
X97835600Y-93227250D02*
X105590600Y-93227250D01*
%TO.N,Net-(F19-Pad1)*%
X87040600Y-96227250D02*
X96255600Y-96227250D01*
%TO.N,Net-(F19-Pad2)*%
X97835600Y-96227250D02*
X105130600Y-96227250D01*
X105130600Y-96227250D02*
X105590600Y-95767250D01*
%TO.N,Net-(F20-Pad1)*%
X87040600Y-99227250D02*
X96255600Y-99227250D01*
%TO.N,Net-(F20-Pad2)*%
X104670600Y-99227250D02*
X105590600Y-98307250D01*
X97835600Y-99227250D02*
X104670600Y-99227250D01*
%TO.N,Net-(F21-Pad1)*%
X87040600Y-102227250D02*
X96255600Y-102227250D01*
%TO.N,Net-(F21-Pad2)*%
X97835600Y-102227250D02*
X104210600Y-102227250D01*
X104210600Y-102227250D02*
X105590600Y-100847250D01*
%TO.N,Net-(F22-Pad1)*%
X87040600Y-111227250D02*
X96255600Y-111227250D01*
%TO.N,Net-(F22-Pad2)*%
X97835600Y-111227250D02*
X104210600Y-111227250D01*
X104210600Y-111227250D02*
X105590600Y-112607250D01*
%TO.N,Net-(F23-Pad1)*%
X87040600Y-114227250D02*
X96255600Y-114227250D01*
%TO.N,Net-(F23-Pad2)*%
X104670600Y-114227250D02*
X105590600Y-115147250D01*
X97835600Y-114227250D02*
X104670600Y-114227250D01*
%TO.N,Net-(F24-Pad1)*%
X87040600Y-117227250D02*
X96255600Y-117227250D01*
%TO.N,Net-(F24-Pad2)*%
X105130600Y-117227250D02*
X105590600Y-117687250D01*
X97835600Y-117227250D02*
X105130600Y-117227250D01*
%TO.N,Net-(F25-Pad1)*%
X87040600Y-120227250D02*
X96250600Y-120227250D01*
%TO.N,Net-(F25-Pad2)*%
X97830600Y-120227250D02*
X105590600Y-120227250D01*
%TO.N,Net-(F26-Pad1)*%
X87040600Y-123227250D02*
X96250600Y-123227250D01*
%TO.N,Net-(F26-Pad2)*%
X105130600Y-123227250D02*
X105590600Y-122767250D01*
X97830600Y-123227250D02*
X105130600Y-123227250D01*
%TO.N,Net-(F27-Pad1)*%
X87040600Y-126227250D02*
X96250600Y-126227250D01*
%TO.N,Net-(F27-Pad2)*%
X104670600Y-126227250D02*
X105590600Y-125307250D01*
X97830600Y-126227250D02*
X104670600Y-126227250D01*
%TO.N,Net-(F28-Pad1)*%
X87040600Y-129227250D02*
X96250600Y-129227250D01*
%TO.N,Net-(F28-Pad2)*%
X104210600Y-129227250D02*
X105590600Y-127847250D01*
X97830600Y-129227250D02*
X104210600Y-129227250D01*
%TD*%
M02*
