%TF.GenerationSoftware,KiCad,Pcbnew,(6.0.7)*%
%TF.CreationDate,2022-11-12T16:48:05-06:00*%
%TF.ProjectId,BPS_Scrutineering,4250535f-5363-4727-9574-696e65657269,rev?*%
%TF.SameCoordinates,Original*%
%TF.FileFunction,Soldermask,Bot*%
%TF.FilePolarity,Negative*%
%FSLAX46Y46*%
G04 Gerber Fmt 4.6, Leading zero omitted, Abs format (unit mm)*
G04 Created by KiCad (PCBNEW (6.0.7)) date 2022-11-12 16:48:05*
%MOMM*%
%LPD*%
G01*
G04 APERTURE LIST*
G04 Aperture macros list*
%AMRoundRect*
0 Rectangle with rounded corners*
0 $1 Rounding radius*
0 $2 $3 $4 $5 $6 $7 $8 $9 X,Y pos of 4 corners*
0 Add a 4 corners polygon primitive as box body*
4,1,4,$2,$3,$4,$5,$6,$7,$8,$9,$2,$3,0*
0 Add four circle primitives for the rounded corners*
1,1,$1+$1,$2,$3*
1,1,$1+$1,$4,$5*
1,1,$1+$1,$6,$7*
1,1,$1+$1,$8,$9*
0 Add four rect primitives between the rounded corners*
20,1,$1+$1,$2,$3,$4,$5,0*
20,1,$1+$1,$4,$5,$6,$7,0*
20,1,$1+$1,$6,$7,$8,$9,0*
20,1,$1+$1,$8,$9,$2,$3,0*%
G04 Aperture macros list end*
%ADD10C,3.100000*%
%ADD11C,1.620000*%
%ADD12RoundRect,0.050000X-0.760000X0.760000X-0.760000X-0.760000X0.760000X-0.760000X0.760000X0.760000X0*%
%ADD13RoundRect,0.050000X0.760000X-0.760000X0.760000X0.760000X-0.760000X0.760000X-0.760000X-0.760000X0*%
%ADD14C,2.100000*%
%ADD15C,6.100000*%
G04 APERTURE END LIST*
D10*
%TO.C,JC1*%
X82740600Y-86387250D03*
X82740600Y-100067250D03*
D11*
X87040600Y-84227250D03*
X87040600Y-87227250D03*
X87040600Y-90227250D03*
X87040600Y-93227250D03*
X87040600Y-96227250D03*
X87040600Y-99227250D03*
D12*
X87040600Y-102227250D03*
%TD*%
D10*
%TO.C,JC2*%
X150340600Y-86730750D03*
X150340600Y-100410750D03*
D11*
X146040600Y-102570750D03*
X146040600Y-99570750D03*
X146040600Y-96570750D03*
X146040600Y-93570750D03*
X146040600Y-90570750D03*
X146040600Y-87570750D03*
D13*
X146040600Y-84570750D03*
%TD*%
D10*
%TO.C,JC4*%
X150340600Y-113730750D03*
X150340600Y-127410750D03*
D11*
X146040600Y-129570750D03*
X146040600Y-126570750D03*
X146040600Y-123570750D03*
X146040600Y-120570750D03*
X146040600Y-117570750D03*
X146040600Y-114570750D03*
D13*
X146040600Y-111570750D03*
%TD*%
D14*
%TO.C,TP8*%
X127563200Y-111570750D03*
%TD*%
%TO.C,TP14*%
X127563200Y-129570750D03*
%TD*%
D10*
%TO.C,JC3*%
X82740600Y-113387250D03*
X82740600Y-127067250D03*
D11*
X87040600Y-111227250D03*
X87040600Y-114227250D03*
X87040600Y-117227250D03*
X87040600Y-120227250D03*
X87040600Y-123227250D03*
X87040600Y-126227250D03*
D12*
X87040600Y-129227250D03*
%TD*%
D14*
%TO.C,TP9*%
X121563200Y-114570750D03*
%TD*%
%TO.C,TP13*%
X121563200Y-126570750D03*
%TD*%
D15*
%TO.C,H2*%
X149040600Y-139399000D03*
%TD*%
D14*
%TO.C,TP6*%
X121563200Y-99570750D03*
%TD*%
D15*
%TO.C,H3*%
X149040600Y-74399000D03*
%TD*%
D14*
%TO.C,TP12*%
X127563200Y-123570750D03*
%TD*%
%TO.C,TP7*%
X127563200Y-102570750D03*
%TD*%
%TO.C,TP3*%
X127563200Y-90570750D03*
%TD*%
%TO.C,TP11*%
X121563200Y-120570750D03*
%TD*%
D15*
%TO.C,H4*%
X84040600Y-74399000D03*
%TD*%
%TO.C,H1*%
X84040600Y-139399000D03*
%TD*%
D14*
%TO.C,TP2*%
X121563200Y-87570750D03*
%TD*%
%TO.C,TP4*%
X121563200Y-93570750D03*
%TD*%
%TO.C,TP10*%
X127563200Y-117570750D03*
%TD*%
%TO.C,TP5*%
X127563200Y-96570750D03*
%TD*%
%TO.C,TP1*%
X127563200Y-84570750D03*
%TD*%
M02*
